<svg xmlns="http://www.w3.org/2000/svg" xmlns:xlink="http://www.w3.org/1999/xlink" width="237.4" height="98.86" viewBox="0 0 237.4 98.86"><defs><style>.a,.d{fill:#fff;}.b{fill:none;}.c{clip-path:url(#a);}.d,.h{fill-rule:evenodd;}.e{clip-path:url(#b);}.f,.h{fill:#191919;}.g{clip-path:url(#c);}</style><clipPath id="a"><rect class="a" width="237.4" height="98.86"/></clipPath><clipPath id="b"><path class="b" d="M73.77,28.472A15.217,15.217,0,0,0,58.554,43.691V99.482A15.213,15.213,0,0,0,73.77,114.7H244.7a15.215,15.215,0,0,0,15.216-15.214V43.691A15.219,15.219,0,0,0,244.7,28.472Z" transform="translate(-58.554 -28.472)"/></clipPath><clipPath id="c"><rect class="b" width="237.4" height="98.86"/></clipPath></defs><g class="c"><path class="d" d="M73.771,28.472H244.7a15.218,15.218,0,0,1,15.216,15.219V99.482A15.215,15.215,0,0,1,244.7,114.7H73.771A15.214,15.214,0,0,1,58.554,99.482V43.691A15.217,15.217,0,0,1,73.771,28.472" transform="translate(-36.48 -17.738)"/><path d="M241.556,113.456H70.627A17.137,17.137,0,0,1,53.508,96.339V40.548A17.139,17.139,0,0,1,70.627,23.427H241.556a17.14,17.14,0,0,1,17.119,17.121V96.339a17.137,17.137,0,0,1-17.119,17.116M70.627,27.231A13.331,13.331,0,0,0,57.312,40.548V96.339a13.329,13.329,0,0,0,13.314,13.313H241.556A13.329,13.329,0,0,0,254.87,96.339V40.548a13.331,13.331,0,0,0-13.314-13.317Z" transform="translate(-33.336 -14.595)"/></g><g transform="translate(22.074 10.734)"><g class="e"><rect class="f" width="237.4" height="27.393" transform="translate(-22.074 -10.734)"/></g></g><g class="g"><path class="d" d="M341.258,96.262h69.166a5.991,5.991,0,0,1,5.994,5.992v36.8a5.994,5.994,0,0,1-5.994,6H341.258a6,6,0,0,1-5.994-6v-36.8a5.992,5.992,0,0,1,5.994-5.992" transform="translate(-208.874 -59.973)"/><path class="h" d="M350.911,87.887c9.5-.45,21.339.55,30.686,1,7.29.346,15.21-.217,22.984,0,4.139.116,7.519-.134,9.442,1.987,1.8,1.982,1.863,6.253,1.863,10.561,0,8.569.373,16.115.373,24.475,0,3.839.656,10.19-.621,12.547-1.42,2.622-4.643,2.5-8.821,2.858a100.3,100.3,0,0,1-11.43.248c-2.177-.082-4.827-.472-7.206-.5-5.186-.055-9.345.339-15.28.248-2.068-.032-4.872-.124-7.7-.124-2.952,0-5.856.258-5.964-1.739-.111-2.086,2.141-2.03,5.094-2.113,6.232-.172,15.133-.095,20.624-.124,6.221-.034,13.68.942,20.623.249,1.94-.194,5.548.04,6.335-.746.709-.707.5-3.425.5-5.218,0-11.555.053-21.933-.372-33.294-.066-1.755-.236-4.056-.87-4.722-1.093-1.149-6.183-.745-9.192-.745-3.514,0-6.375.249-9.567.249-13.649,0-23.914-1.368-38.016-1.368-3.039,0-6.213.249-9.566.249-4.607,0-8.885-.519-10.188,2.485-.773,1.783.712,6.457-1.987,6.709-2.764.257-2.66-4.895-1.988-7.206,2.211-7.605,10.786-5.513,20.251-5.965" transform="translate(-205.758 -54.684)"/><path class="h" d="M332.106,129.8c2.724-.625,2.467,2.689,2.484,5.964.048,8.9.143,18.15.622,27.083.178,3.345,1.744,8.616-1.739,8.075-2.191-.34-1.9-6.117-2.112-9.194-.5-7.3-.281-14.348-.5-22.114-.075-2.691-.991-9.153.995-9.814.074-.025.172.018.248,0" transform="translate(-205.96 -80.822)"/><path class="d" d="M444.145,38.224a3.994,3.994,0,1,1-3.995,4,4,4,0,0,1,3.995-4" transform="translate(-274.219 -23.814)"/><path class="d" d="M490.9,38.224a3.994,3.994,0,1,1-3.995,4,4,4,0,0,1,3.995-4" transform="translate(-303.352 -23.814)"/><path class="d" d="M541.7,38.224a3.994,3.994,0,1,1-4,4,4,4,0,0,1,4-4" transform="translate(-334.996 -23.814)"/><path class="h" d="M256.582,102.415c1.908-.42,5.441-.043,8.24,0,2.66.04,7.636-.534,6.743,2.872-.512,1.948-6.212,1.233-8.616,1.123-2.973-.134-7.791.578-8.115-1.747-.2-1.45.682-2.013,1.748-2.247" transform="translate(-158.747 -63.683)"/><path class="h" d="M93.986,103.2c.053-.01.114-.126.25-.126,8.6,0,17.042.375,26.844.375h20.476c2.648,0,4.663.194,4.619,2.122-.045,2.054-2.484,1.764-5.243,1.748-14.611-.079-28.859.034-43.2-.25-2.513-.049-5.169.251-5.619-1.374-.43-1.551.714-2.268,1.872-2.5" transform="translate(-57.33 -64.214)"/><path class="h" d="M94.63,131.123a36.964,36.964,0,0,1,4.994.125c11.073.527,22.583.375,34.584.375,10.627,0,19.457.5,30.215.5,3.449,0,7.968-.4,7.117,3-.526,2.1-6.561,1.106-8.99,1-3.793-.167-7.3-.015-10.239-.125-13.458-.5-26.7-.5-41.077-.5-3.067,0-6.325.09-9.988-.124-3.031-.178-8.029.412-8.365-2a1.857,1.857,0,0,1,1.748-2.247" transform="translate(-57.849 -81.654)"/><path class="h" d="M120.178,164.355c2.166-.1,7.058-.953,6.992,2-.056,2.479-4.5,1.87-7.491,2-6.736.286-11.449.815-18.229.5-2.33-.108-7.594.513-8.865-.5a2.7,2.7,0,0,1-.124-3.246c.783-.838,4.081-.653,6.492-.5a194.059,194.059,0,0,0,21.226-.251" transform="translate(-57.302 -102.276)"/><path class="h" d="M206.286,168.109c.023,0,.007-.139.125-.125a138.292,138.292,0,0,0,17.481,1.123c2.876,0,6.331-.125,9.239-.125,3.218,0,7.065-.2,6.367,2.872-.4,1.785-5.835,1.244-8.615,1.373a125.816,125.816,0,0,1-18.978-.748c-2.819-.312-7.3.207-7.366-2.5-.034-1.408.708-1.707,1.748-1.872" transform="translate(-127.429 -104.656)"/><path class="h" d="M97.6,195.768c2.215-.106,5.193-.56,6.618.251,2.062,1.173.417,3.67-.251,3.995-1.051.512-3.858.155-6.117.25-2.079.087-3.729.338-4.12-1.373-.621-2.715,1.229-3,3.871-3.122" transform="translate(-58.316 -121.827)"/><path class="h" d="M141.121,196.093c.037-.011.009-.117.125-.125,3.9-.286,7.882.125,12.861.125,3.177,0,10.574-1.278,10.238,2.248-.169,1.772-2.152,1.706-4.869,1.748-4.143.063-8.538.25-12.985.25-2.991,0-6.743.436-6.867-2.122a2.063,2.063,0,0,1,1.5-2.123" transform="translate(-86.985 -122.028)"/><path class="h" d="M221.789,200.422c7.437-.1,13.681.51,21.85.125,2.672-.126,5.322-.247,5.118,2.122-.189,2.2-4.287,1.673-6.992,1.748-6.327.176-10.4,0-16.98,0-3.15,0-6.687.425-6.368-2.372.173-1.512,1.421-1.6,3.371-1.623" transform="translate(-136.065 -124.859)"/></g></svg>