<svg xmlns="http://www.w3.org/2000/svg" xmlns:xlink="http://www.w3.org/1999/xlink" width="147.18" height="61.29" viewBox="0 0 147.18 61.29"><defs><style>.a,.d{fill:#60269e;}.b{fill:none;}.c{clip-path:url(#a);}.d,.h,.i{fill-rule:evenodd;}.e{clip-path:url(#b);}.f,.i{fill:#191919;}.g{clip-path:url(#c);}.h{fill:#fff;}</style><clipPath id="a"><rect class="a" width="147.18" height="61.29"/></clipPath><clipPath id="b"><path class="b" d="M173.958,28.472a9.434,9.434,0,0,1,9.434,9.435V72.5a9.432,9.432,0,0,1-9.434,9.432H67.988A9.433,9.433,0,0,1,58.554,72.5V37.907a9.435,9.435,0,0,1,9.434-9.435Z" transform="translate(-58.554 -28.472)"/></clipPath><clipPath id="c"><rect class="b" width="147.18" height="61.29"/></clipPath></defs><g class="c"><path class="d" d="M173.958,28.472H67.988a9.435,9.435,0,0,0-9.434,9.435V72.5a9.433,9.433,0,0,0,9.434,9.432h105.97a9.432,9.432,0,0,0,9.434-9.432V37.907a9.434,9.434,0,0,0-9.434-9.435" transform="translate(-49.897 -21.818)"/><path class="a" d="M64.121,79.242h105.97A10.624,10.624,0,0,0,180.7,68.63V34.041a10.626,10.626,0,0,0-10.613-10.614H64.121A10.626,10.626,0,0,0,53.508,34.041V68.63A10.625,10.625,0,0,0,64.121,79.242m105.97-53.456a8.265,8.265,0,0,1,8.255,8.256V68.63a8.263,8.263,0,0,1-8.255,8.253H64.121a8.263,8.263,0,0,1-8.254-8.253V34.041a8.265,8.265,0,0,1,8.254-8.256Z" transform="translate(-46.03 -17.952)"/></g><g transform="translate(8.657 6.654)"><g class="e"><rect class="f" width="147.18" height="16.983" transform="translate(-8.657 -6.654)"/></g></g><g class="g"><path class="h" d="M381.86,96.262H338.98a3.714,3.714,0,0,0-3.716,3.715v22.814a3.716,3.716,0,0,0,3.716,3.718h42.88a3.717,3.717,0,0,0,3.716-3.718V99.977a3.715,3.715,0,0,0-3.716-3.715" transform="translate(-316.754 -73.764)"/><path class="i" d="M370.88,87.843c-5.887-.279-13.229.341-19.024.617-4.52.215-9.43-.134-14.249,0-2.566.072-4.661-.083-5.854,1.232-1.114,1.229-1.155,3.877-1.155,6.547,0,5.313-.231,9.991-.231,15.174,0,2.38-.406,6.318.385,7.779.88,1.626,2.878,1.553,5.469,1.772a62.187,62.187,0,0,0,7.086.154c1.35-.051,2.992-.292,4.467-.308,3.215-.034,5.793.21,9.473.154,1.282-.02,3.021-.077,4.776-.077,1.83,0,3.631.16,3.7-1.078.069-1.293-1.327-1.259-3.158-1.31-3.864-.107-9.382-.059-12.786-.077-3.857-.021-8.481.584-12.786.154-1.2-.12-3.439.025-3.928-.462-.44-.438-.308-2.124-.308-3.235,0-7.164-.033-13.6.231-20.641.041-1.088.146-2.514.54-2.928.678-.712,3.833-.462,5.7-.462,2.178,0,3.952.154,5.931.154,8.462,0,14.826-.848,23.569-.848,1.884,0,3.852.154,5.931.154,2.856,0,5.509-.322,6.316,1.54.479,1.105-.442,4,1.232,4.159,1.714.16,1.649-3.035,1.233-4.467-1.371-4.715-6.687-3.418-12.555-3.7" transform="translate(-313.691 -67.258)"/><path class="i" d="M332.825,129.776c-1.689-.387-1.529,1.667-1.54,3.7-.03,5.517-.089,11.252-.385,16.79-.11,2.074-1.081,5.341,1.078,5.007,1.358-.211,1.179-3.792,1.31-5.7.309-4.523.174-8.9.308-13.71.047-1.668.615-5.674-.617-6.085-.046-.015-.107.011-.154,0" transform="translate(-263.851 -99.408)"/><path class="h" d="M442.626,38.224A2.476,2.476,0,1,0,445.1,40.7a2.478,2.478,0,0,0-2.476-2.478" transform="translate(-400.794 -29.29)"/><path class="h" d="M489.386,38.224a2.476,2.476,0,1,0,2.477,2.478,2.478,2.478,0,0,0-2.477-2.478" transform="translate(-458.483 -29.29)"/><path class="h" d="M540.18,38.224a2.476,2.476,0,1,0,2.478,2.478,2.48,2.48,0,0,0-2.478-2.478" transform="translate(-521.149 -29.29)"/><path class="i" d="M264.16,102.34a30.165,30.165,0,0,0-5.109,0c-1.649.025-4.734-.331-4.181,1.78.317,1.208,3.851.764,5.341.7,1.843-.083,4.83.358,5.031-1.083.125-.9-.423-1.248-1.084-1.393" transform="translate(-177.634 -78.328)"/><path class="i" d="M124.377,103.148c-.033-.006-.071-.078-.155-.078-5.332,0-10.566.232-16.642.232H94.885c-1.642,0-2.891.12-2.864,1.316.028,1.274,1.54,1.093,3.251,1.084,9.058-.049,17.892.021,26.782-.155,1.558-.031,3.2.156,3.484-.852.266-.962-.443-1.406-1.161-1.548" transform="translate(0.078 -78.981)"/><path class="i" d="M140.6,131.1a22.921,22.921,0,0,0-3.1.077c-6.865.327-14,.232-21.441.232-6.588,0-12.063.309-18.733.309-2.138,0-4.94-.248-4.412,1.858.326,1.3,4.067.686,5.573.619,2.351-.1,4.529-.01,6.348-.078,8.343-.312,16.556-.31,25.466-.31,1.9,0,3.921.056,6.192-.077,1.879-.111,4.978.256,5.186-1.239A1.151,1.151,0,0,0,140.6,131.1" transform="translate(-16.223 -100.431)"/><path class="i" d="M96.311,164.282c-1.343-.064-4.376-.591-4.335,1.239.035,1.537,2.789,1.159,4.644,1.238,4.176.178,7.1.505,11.3.31,1.444-.067,4.708.318,5.5-.31a1.672,1.672,0,0,0,.077-2.012c-.485-.519-2.53-.405-4.025-.31a120.3,120.3,0,0,1-13.159-.155" transform="translate(11.888 -125.795)"/><path class="i" d="M225.179,168.061c-.014,0,0-.086-.077-.077a85.736,85.736,0,0,1-10.837.7c-1.783,0-3.925-.078-5.728-.078-2,0-4.38-.125-3.948,1.781.251,1.106,3.618.771,5.341.851a78,78,0,0,0,11.766-.464c1.748-.193,4.526.128,4.567-1.548.021-.873-.439-1.059-1.084-1.161" transform="translate(-126.887 -128.722)"/><path class="i" d="M98.329,195.683c-1.373-.065-3.219-.347-4.1.155-1.278.727-.258,2.275.155,2.476.651.317,2.392.1,3.792.155,1.289.054,2.312.209,2.555-.851.385-1.684-.762-1.857-2.4-1.935" transform="translate(24.499 -149.843)"/><path class="i" d="M154.025,196.007c-.023-.007-.005-.072-.077-.077-2.415-.177-4.887.077-7.973.077-1.97,0-6.556-.793-6.347,1.394.1,1.1,1.334,1.058,3.019,1.084,2.569.039,5.293.155,8.05.155,1.855,0,4.18.27,4.257-1.316a1.279,1.279,0,0,0-.929-1.316" transform="translate(-40.407 -150.089)"/><path class="i" d="M235.124,200.418c-4.611-.063-8.482.316-13.546.077-1.656-.078-3.3-.153-3.173,1.316.117,1.366,2.658,1.037,4.335,1.084,3.923.109,6.448,0,10.527,0,1.953,0,4.145.263,3.948-1.471-.107-.937-.881-.99-2.09-1.006" transform="translate(-141.09 -153.571)"/></g></svg>