<svg xmlns="http://www.w3.org/2000/svg" xmlns:xlink="http://www.w3.org/1999/xlink" width="189" height="37" viewBox="0 0 189 37"><defs><style>.a{fill:#fff;}.b{fill:none;}.c{clip-path:url(#a);}.d{fill:#94cc00;}.e{clip-path:url(#b);}.f{fill:#3f1c8e;}</style><clipPath id="a"><rect class="a" width="189" height="37" transform="translate(816 138.276)"/></clipPath><clipPath id="b"><rect class="b" width="187.405" height="35.209"/></clipPath></defs><g class="c" transform="translate(-816 -138.276)"><g transform="translate(817.605 139.525)"><path class="d" d="M176.122,52.427l-4.835,5.06h3.465l4.835-5.06Zm-129.1,5.06H49.6v-5.06h-2.58Z" transform="translate(-19.824 -22.277)"/><g class="e"><path class="f" d="M12.738,1.058H0V3.587H12.738a8.222,8.222,0,1,1,0,16.443H2.58V6.117H0V22.56H12.738a10.751,10.751,0,1,0,0-21.5m25.779,0H27.044V3.587H38.517a8.222,8.222,0,0,1,0,16.443H27.047l0,7.589h2.58V22.56h8.894a10.751,10.751,0,0,0,0-21.5m120.057,0H137.288v2.53h21.286Zm0,9.487H137.288v2.53h21.286ZM56.21,1.057H53.631v21.5H72.944V20.03H56.21ZM173.666,8.183l-6.809-7.126h-3.465L171.934,10ZM158.574,20.03H137.288v2.53h21.286ZM183.94,1.057,158.557,27.619h3.465L187.4,1.057Zm-6.809,14.378,6.809,7.125H187.4l-8.541-8.938ZM107.388,22.56h2.579V8.732L107.388,6.55Zm-32.266,0h3.016L89.763,4.646,99.748,20.03H82.791l-1.642,2.53h23.257L89.763,0Zm53.722-4.4L107.388,0V3.274l24.034,20.344V1.057h-2.579Z" transform="translate(0 0)"/></g></g></g></svg>