<svg xmlns="http://www.w3.org/2000/svg" xmlns:xlink="http://www.w3.org/1999/xlink" width="471.927" height="316.695" viewBox="0 0 471.927 316.695"><defs><style>.a,.h{fill:#974bff;}.b{fill:#fff;}.b,.c,.e,.h{fill-rule:evenodd;}.d{fill:#adbcff;}.e{fill:#1a1a1a;}.f{mix-blend-mode:multiply;isolation:isolate;}.g{clip-path:url(#a);}</style><clipPath id="a"><rect class="a" width="302.628" height="179.199"/></clipPath></defs><g transform="translate(-724.036 -1843.305)"><g transform="translate(724.036 1843.305)"><g transform="translate(0 0)"><path class="b" d="M103.6,297s-16.266,4.281-32.289-18.109S7.368,174.144,7.368,174.144L8.943,166.9l34.809-12.6,22.679,15.751s1.968-8.981,6.459-9.135,12.283,2.047,12.283,2.047-3.613-6.879-8.347-8.663S63.317,147.882,65.8,142.8s16.031.349,22.049,6.3,14.017,16.067,14.017,16.067,8.8-18.246,26.619-21.579,40.164-6.615,40.164-6.615l-6.615-14.648a28.111,28.111,0,0,1-9.137-5.2,71.279,71.279,0,0,1-7.874-8.347s-15.894,7.55-20.318-2.993c-3.371-8.035,1.575-9.136,1.575-9.136A63.921,63.921,0,0,1,114.155,74.76c-4.078-13.074-7.314-26.259,5.827-39.218s30.976-20.948,36.227-25.517S171.749-.3,174.319,1.206s2.522,9.606,2.522,9.606,9.1-5.911,11.34-3.306.888,11.248,2.836,15.593,6.394,11.069,8.5,17.641A133.173,133.173,0,0,1,203.145,56.8a5.377,5.377,0,0,1,6.77,3.623C214.5,72.437,203.3,77.6,203.3,77.6s2.062,9.461.632,16.694a65.758,65.758,0,0,1-4.411,13.548l10.553,27.247s8.433,2.607,14.491,7.244a70.135,70.135,0,0,1,11.024,11.028s4.475-14.772-.788-42.37-7.073-54.7,13.074-67.569S311.8,20.693,328.988,35.7s25.018,42.32,20.791,70.876-10.32,47.52-6.142,62.527,9.136,28.353,9.136,28.353,7.722-21.378,14.173-28.353,25.706-23.132,31.5-16.221c4.075,4.857-1.217,7.541-4.252,9.133s-8.446,3.3-10.71,5.827a17.443,17.443,0,0,0-3.15,4.884s7.837-3.654,11.34-1.416a20.806,20.806,0,0,1,5.511,5.2l26.618,8.347a49.689,49.689,0,0,1,14.807-7.717c9.747-2.985,14.166-.115,16.378.156,0,0,5.891.385,5.986,3.782s-1.931,4.941-3.623,8.031-26.473,41.37-31.973,50.558-26.471,42.8-33.862,51.662-23.965,17.467-32.762,17.8a69.831,69.831,0,0,1-17.8-2.048l-5.513,2.677,2.048,5.827H101.08Z" transform="translate(4.952 0.648)"/><path class="c" d="M159.106,56.706l-3.465,2.363s-3.112-8.469-7.561-13.86-10.238-13.23-10.238-13.23-1.814,8.3-19.688,14.333S82.471,53.524,82.4,57.335s-.55,8.973,4.093,16.383,12.76,22.993,12.76,22.993l-5.986.314L87.44,94.665c-.062.045-14.558-19.679-15.569-33.078C70.883,48.5,74.2,36.365,94.844,25.993c15.47-7.772,21.815-11.432,25.986-13.7s7.876-11.183,7.876-11.183l3.466,10.867,2.677,3.15,10.712-5.513S143.915,18.1,148.7,23c.038.039,2.907,7.442,3.181,7.726,4.464,4.6,1.787,2.313,4.549,10.072a51.631,51.631,0,0,1,2.677,15.907" transform="translate(48.203 0.746)"/><path d="M196.742,127.217l-5.67,12.915s20.455-.232,32.762,5.67c18.641,8.946,31.814,33.233,31.814,33.233s-7.814-32.9-3.465-55.755,7.128-56.061,1.732-73.4S234.687,20.022,220.21,18.068s-55.6,8.03-63.317,20.473S145.635,56.018,145.71,71.619s4.608,32.473,4.884,43a204.659,204.659,0,0,1-.946,22.366l9.292-.629,5.2-12.916s-3.858-3.707-6.153-11.34a99.291,99.291,0,0,1-3.139-16.38s-10.063-8.665-9.765-17.168,13.544-3.94,13.544-3.94A71.66,71.66,0,0,1,166.5,58.7c9.807-14.783,33.076-19.375,33.076-19.375s-3.157,11.987,5.827,32.921c4.548,10.6,6.911,27.848,18.428,28.035,26,.43,6.879,24.629-8.035,14.019Z" transform="translate(97.509 11.981)"/><path class="d" d="M106.814,98.777a53.488,53.488,0,0,1,10.075-11.325c-.742.334-1.2.537-1.219.525-1.246-.87-4.585,3.613-8.856,10.8" transform="translate(71.792 58.78)"/><path class="c" d="M164.755,50.857a3.384,3.384,0,0,0-4.343,2.018l-1.727,4.732a3.386,3.386,0,0,0,6.361,2.326l1.729-4.735a3.385,3.385,0,0,0-2.02-4.341" transform="translate(106.517 34.045)"/><path class="c" d="M181.571,59.617a3.389,3.389,0,0,0-4.344,2.02L175.5,66.37a3.386,3.386,0,0,0,6.361,2.324l1.729-4.735a3.389,3.389,0,0,0-2.018-4.343" transform="translate(117.818 39.933)"/><path class="c" d="M115.025,40.952a3.384,3.384,0,0,1,3.384,3.384v5.041a3.385,3.385,0,0,1-6.77,0V44.336a3.384,3.384,0,0,1,3.386-3.384" transform="translate(75.035 27.526)"/><path class="c" d="M97.033,46.414a3.385,3.385,0,0,1,3.386,3.386v5.04a3.385,3.385,0,1,1-6.77,0V49.8a3.384,3.384,0,0,1,3.384-3.386" transform="translate(62.944 31.198)"/><path class="c" d="M458.951,183.941c-1.931-.462-2.719,1.729-3.779,3.62-13.444,23.977-27.276,47.356-41.892,69.923-7.632,11.785-15.171,24.726-24.565,34.962-4.562,4.968-10.151,10.016-17.325,12.441-7.376,2.495-17.066,2.751-26.93,1.418a47.551,47.551,0,0,1,3.781-4.725c9.386-11.574,15.887-25.973,22.676-40,7.792-16.1,15.8-32.287,22.993-48.5,6.282.982,11.2.659,14.173-2.522,2.988-3.2,3.127-9.352,1.261-14.014-.448-1.117-1.672-2.43-1.89-3.623a22.936,22.936,0,0,1,.159-5.038c.57-7.744,2.761-14.848,6.454-19.843.533-.719,4.363-5.309,5.668-4.568,1.483.841.8,6.329.473,8.033-1.2,6.227-2.729,8.575-4.093,14.8-.487,2.222-1.784,6.944.157,7.558,3.451,1.1,3.4-5.212,3.936-7.717a83.369,83.369,0,0,1,2.677-8.978c1.6-5.038,3.69-16.626-2.2-17.795a3.725,3.725,0,0,0-.473,0c-5.443-.247-8.9,5.54-11.023,9.135a40.393,40.393,0,0,0-4.725,13.071c-.968-.868-2.252-1.421-3.307-2.2-1.843-6.281-7.837-12.056-16.22-8.819,4.259-5.1,17.669-5.06,17.007-14.648-.692-10.049-17.373-2.777-21.574,0-13.138,8.687-21.236,23.823-26.931,38.27-4.394-13.745-8.464-28.66-7.085-46.457,1.266-16.375,5.826-31.5,6.928-47.4,1.267-18.276-1.945-33.914-7.715-46.3C339.817,41.685,331.239,32.11,316.743,28.5c-15.909-3.958-34.546-.135-47.246,3.781-13.71,4.225-25.256,10.869-32.128,22.2-6.986,11.533-8.409,29.332-5.51,45.671,2.619,14.757,6,31.112,4.725,48.978a6.654,6.654,0,0,1-2.363-2.206c-5.414-6.265-13.571-9.743-22.047-12.757-2.306-6.956-4.5-13.788-6.774-20.945-.572-1.811-2.222-5.4-2.2-7.088.018-1.54,1.267-3.709,1.732-5.51a39.916,39.916,0,0,0,.827-4.2,61.76,61.76,0,0,0-.041-15.806c4.759-1.276,8.372-6.458,8.349-12.912-.023-5.754-2.732-12.329-8.349-12.6a73.269,73.269,0,0,0-8.5-23.936c-1.789-3.219-3.956-6.673-4.411-11.814-.43-4.871.64-11.536-2.993-13.228-3.8-1.772-7.727,1.3-10.708,2.047-.3-4.164-1.694-7.23-5.2-8.188h-1.732c-6.637,1.8-13.069,7.1-18.9,11.024-5.914,3.975-12.563,6.948-19.057,10.553A57.7,57.7,0,0,0,118,34.961c-4.428,5.137-8.725,11.845-9.292,20.157-.632,9.269,2,17.066,5.04,23.779a87.258,87.258,0,0,0,10.867,17.8c-2.455,2.56-2.264,7.675-.632,10.394,3.418,5.685,13.323,7.991,21.263,5.04,2.588,1.764,4.816,4.429,7.558,6.456a37.741,37.741,0,0,0,9.292,5.038c1.154,4.256,3.1,7.717,4.408,11.814-27.839,2.573-53.242,8.183-63.937,28.189-6.254-8.242-12.044-16.8-22.679-21.261-4.5-1.888-13.3-3.568-14.8,1.891a7.981,7.981,0,0,0,1.732,6.928c2.915,3.71,9.6,4.847,13.7,7.719.425.3,1.3.587,1.1,1.259-8.558-3.212-14.124,2.893-15.9,8.976-1.319.428-2.548,1.741-3.465,2.048-1.067-5.538-2.453-9.916-4.883-13.86-1.794-2.909-5.866-8.583-10.394-8.346-5.869.306-5.523,10.041-3.623,14.8.856,2.14,2.333,4.49,3.15,7.4.627,2.234.125,7.652,2.522,7.872,2.851.268,2.287-3.634,1.888-6.14a23.394,23.394,0,0,0-2.047-6.615c-1.61-3.687-4.388-9.165-1.732-13.228,4.794,2.065,7.371,6.672,9.292,11.655a44.806,44.806,0,0,1,2.2,8.188c.508,2.986,1.2,6.834.788,9.6-.176,1.167-1.242,2.349-1.732,3.468-1.538,3.515-2.058,8.879,0,12.6,2.373,4.286,8.354,5.543,15.277,4.1,7.648,18.614,14.484,37.461,22.835,56.065,1.834,4.083,4.105,8.946,6.456,13.23.769,1.4,2.187,2.97,2.363,4.093.211,1.336-.276,3.378-.473,5.04-.54,4.572-1.267,9.765-1.889,14.175-16.081-.834-24.331-11.847-31.653-22.206S56.411,251.3,49.652,240.318c-12.737-20.689-25.418-41.549-37.8-63.151-1.369-2.389-3.441-5.535-5.354-2.047v.789c13.034,22.818,26.9,45.983,40.944,68.346,6.871,10.939,13.695,22.829,21.418,33.228C76.6,287.91,85.2,298.426,101.779,299.376c-.261,3.184-.66,6-1.1,9.449-.236,1.848-1.14,5.724-.443,7.555h3.237c.992-1.654.975-4.834,1.144-6.294,1.122-9.68,2.359-19.873,3.465-28.662,4.025,5.4,7.528,10.1,12.6,14.328,4.934,4.12,11.623,7.9,19.686,6.929,7.362-.886,13.456-4.732,18.425-8.5,15.235-11.564,25.864-28.458,35.432-45.672a343.259,343.259,0,0,0,15.593-31.653c.55-1.293,1.667-4.1-.946-4.252-1.923-.117-2.535,2.329-3.306,4.093a320.988,320.988,0,0,1-16.852,33.387,55.4,55.4,0,0,0-7.558-1.259c-18.433-2.813-29.372-12.29-37.166-25.513,11.526-19.158,17.484-43.328,30.551-62.047,5.627-8.061,14.133-18.619,24.724-21.575,10.966-3.062,20.223,1.689,26.772,6.14,2.152,1.465,4.973,3.222,6.142,5.513a10.458,10.458,0,0,1,1.1,4.093c-.12,1.876-1.67,2.883-2.045,4.568-.6,2.667-.328,6.287-.473,9.606-1,22.744-1.575,46.077-1.575,68.978,0,25.115-.159,50.374-.159,75.118a19.31,19.31,0,0,0-.075,2.674h3.913c.649-2.157.1-5.862.1-8.5,0-23-.172-47.5.159-69.132.329-21.684.59-45.935,1.575-67.562.149-3.251-.147-6.886.47-9.449.022-.092-.037-.231,0-.314,3.169-7.056,8.433-10.22,16.537-10.238,8.041-.015,15.506,2.819,21.261,5.672a64.514,64.514,0,0,1,27.56,26.14c6.754,11.6,11.009,24.122,16.534,37.166,4.068,9.606,8.075,18.091,12.757,27.562.98,1.981,3.2,8.257,5.67,7.872,2.6-.4,1.045-3.644.314-5.038-1.007-1.92-1.871-3.49-2.677-5.2,1.344-1.209,1.4-4.135,3.15-4.568,1.374-.341,4.113.706,5.668,1.1a29.422,29.422,0,0,1,5.2,1.734c9.556,4.458,13.237,15.593,15.435,26.14-3.864,7.508-7.292,14.257-11.655,21.1-4.157,6.526-8.866,13.817-15.746,17.007-9.307,4.317-17.7-4.782-22.05-9.133a160.58,160.58,0,0,1-15.432-18.266,402.818,402.818,0,0,1-23.465-35.593c-.936-1.6-2.162-4.612-3.936-4.568-3.466.085-.572,4.985,0,5.986a333.728,333.728,0,0,0,24.41,36.85,190.648,190.648,0,0,0,16.061,18.9c5.63,5.628,12.263,12.449,23.467,10.551.965.592,1.378,2.416,2.1,3.776h4.433c.251-1.787-2.42-3.7-2.752-5.51a14.475,14.475,0,0,0,2.52-1.572,59.933,59.933,0,0,0,27.876.472c8.708-1.992,14.748-6.28,20-11.34,10.429-10.043,18.6-23.684,26.458-36.063C430,238.519,444.739,214.2,458.794,189.136c.333-.59,2.761-4.577.157-5.2M146.976,107.562c-1.232-1.4-2.841-4.088-4.252-4.1a2.1,2.1,0,0,0-2.047,1.734c-.186,1.63,1.8,2.455,1.732,3.62-5.888,1.435-14.385.012-15.591-5.036-.9-3.764,1.281-6.04,5.2-5.357,2.226.391,6.364,2.966,6.3-.629-.054-2.878-7.07-4.152-10.237-3.307-6.227-7.949-11.431-16.638-14.016-26.771-3.353-13.145.711-23.239,7.244-30.71,6.282-7.182,14.976-12,24.1-16.693A112.425,112.425,0,0,0,158,12.6c4.423-3.048,8.879-6.836,14.175-8.347,4.717-1.346,1.256,9.034,4.883,9.449,1.363.156,4.16-1.869,5.2-2.363a14.25,14.25,0,0,1,5.669-1.731c1.008,5.045.483,10.014,1.575,14.173,1.082,4.128,3.185,7.356,5.04,10.708a64.23,64.23,0,0,1,7.086,20.473c.171,1.065.356,1.945-.788,2.52a86.756,86.756,0,0,0-13.387-21.734c-1.339-1.565-4-5.518-6.3-5.352-1.828.13-2.772,3.384-3.623,4.722-4.839,7.612-15.872,10.222-26.458,13.073-3.393.913-8.081,2.162-12.755,2.991-6.506,1.155-13.354,1.343-13.859,8.188-.308,4.167,1.323,8.563,2.518,12.128a100.356,100.356,0,0,0,12.285,24.251c.961,1.443,2,3.672,3.624,3.623,4.083-.12.368-4.618-.632-6.142a99.968,99.968,0,0,1-11.494-23.308c-.946-2.856-3.251-8.524-2.048-11.5,1.06-2.619,9.787-3.124,13.071-3.781,5.244-1.05,9.411-2.324,13.387-3.465,11.539-3.311,22.008-5.99,26.613-15.434,6.458,6.13,12.268,15.333,15.907,25.356.6,1.655,1.1,3.2,2.675,3.15,1.777-.06,2-1.874,1.734-3.309,1.816-.127,2.376-2.047,4.252-1.732,2.16.363,3.881,5.692,3.62,9.608-.252,3.809-2.072,6.486-4.724,7.717-1.318-2.369-.42-8.331-3.622-8.346-3.008-.018-1.7,3.114-1.1,5.824,1.44,6.513,2.3,16.482,1.1,23.149-2.356,13.151-11.451,24.013-26.3,24.57-13.573.507-21.8-6.747-28.348-14.173m39.37,145.988c.251.6-.373,1.308-.629,1.731-8.225,13.553-17.372,26.811-30.237,36.222-4.963,3.63-11.046,7.951-19.529,7.244-5.3-.441-10.322-4.023-14.014-7.244-11.125-9.7-18.639-25.385-24.569-39.213-7.407-17.273-14.544-34.869-21.418-53.073-.935-2.48-2.1-6.64-3.779-6.772-3.772-.291-1.333,4.526-.788,6.456-6.439,1.2-11.079-.241-11.181-6.14-.077-4.4,2.351-9.292,6.929-9.765,4.4-.453,8.747,1.525,11.969,2.995,1.072.487,4.348,2.333,4.725-.473.333-2.5-4.6-4.035-6.459-4.725-4.18-1.552-9.322-2.5-13.857-1.1.523-4.145,1.259-6.583,5.038-7.086,6.26-.836,12.869,1.816,17.639,3.622,1.981.751,4.252,1.224,4.409-.945.211-2.883-6.685-4.09-8.819-4.724a37.609,37.609,0,0,0-11.5-2.048c1.808-2.56,2.058-4.3,4.722-5.04,4.331-1.194,10.63,2.331,13.7,4.252,1.517.95,5.067,3.807,5.511.472.415-3.1-4.038-3.49-5.67-5.04a16.9,16.9,0,0,0-9.289-9.606c-4.07-1.911-10.287-2.7-10.238-8.346a3.117,3.117,0,0,1,2.2-.786,28.273,28.273,0,0,1,13.7,5.352c10.546,7.834,17.6,21.057,23.149,33.543,8.133,18.316,16.039,35.83,25.04,50.553-1.2,2.428-3.3,5.334-5.04,8.031-.881,1.369-2.025,4.267.472,4.568,2.017.244,3.321-2.741,4.1-3.938,3.232-4.991,5.99-10.048,8.978-14.96,9.56,14.011,22.529,24.614,44.724,25.986m-51.023-23.624c-3.18-6.008-6.478-11.9-9.606-17.952.276-7.16,1.222-13.626,2.045-20.79.268-2.3.774-5.368-1.416-5.513-2.971-.194-2.7,6.095-2.991,8.663-.44,3.839-.768,6.9-1.1,10.392-6.269-11.84-10.7-25.523-17.325-37.007,3.993-9.742,12.369-15.743,22.52-20a111.764,111.764,0,0,1,34.489-8.033c1.46-.1-.07,1.371-.473,2.2-1.51,3.13-3.6,8.581-1.731,12.441,1.9,3.929,5.74,4.63,10.867,5.67-13.867,21.2-21.176,48.956-35.277,69.923m37.8-73.7c-3.677-.456-9.484-.94-10.081-4.408-.582-3.409,1.53-7.168,2.993-9.765.579-1.025,1.018-2.627,1.575-2.675.973-.089,1.615,2.766,1.889,3.463.538,1.368,1.082,2.752,2.363,2.834,3.68.236,1.316-4.531.629-6.3-1.808-4.649-4.03-9.851-5.668-14.332,15.98,3.035,27.894-4.023,33.543-13.859,2.818,7.628,5.17,15.721,7.717,23.624-18.87-.08-26.159,11.426-34.959,21.415m67.4-6.612c1.144-16.914-1.3-32.185-3.936-45.828-2.826-14.641-3.333-30.627,2.045-43.153,7.277-16.937,26.286-24.368,47.089-28.031,7.02-1.236,14.807-2.219,22.835-1.416,15.362,1.528,24.456,8.784,30.71,19.37,6.184,10.471,9.573,23.963,10.237,39.686.674,16.011-3.376,29.961-5.67,44.253-2.316,14.425-2.458,31.754,1.261,45.2-.028.134.06.149.157.157-.057.219-.278.013-.316-.157-11.917-17.164-28-30.16-58.267-28.976,1.3-3.528,2.585-7.075,3.935-10.553,7.386-2.485,13.131-7.449,18.427-11.5,7.6,3.331,18.39,1.43,21.259-5.2a9.573,9.573,0,0,0-4.881-12.126c-1.65-.649-3.568-.06-5.67-.314-2.236-.273-4.973-2.425-6.3-3.465-6.938-5.448-11.063-16.33-14.017-25.672a123.228,123.228,0,0,1-4.883-24.881c-.169-1.585-.261-7.464-1.889-7.876-1.527-.383-2.229,1.02-3.306,1.42a38.313,38.313,0,0,1-3.938.786c-8.289,2.115-15.713,5.506-21.259,10.71-6.374,5.976-10.452,13.658-14.017,22.677-1.727-.913-2.7-2.025-5.2-1.889-5.316.286-8.2,5.913-7.561,11.653.4,3.552,3.471,8.352,5.672,9.922a3.674,3.674,0,0,0,2.363.629c-.46,13.429,4.321,22.975,10.707,30.081-1.413,3.9-3.635,7.794-4.093,12.125a25.366,25.366,0,0,0-11.5,2.364m51.339-60.16A19.38,19.38,0,0,1,302.1,99.372c3.226,6.414,7.555,11.019,12.912,13.859.258.806.338,2.277,1.42,2.679,2.716-.072,5.169-1.766,7.558-.789a5.489,5.489,0,0,1,2.834,5.985c-.876,4.578-9.352,6.22-14.486,4.411.049-.92,1.565-1.672,2.045-2.677,2.746-.371,9.524.742,9.135-2.836a1.99,1.99,0,0,0-.789-1.418c-1.037-.634-5.664-.234-7.872.473-1.441.462-1.781,1.657-3.15,1.261-4.418,4.123-8.578,8.267-13.7,11.653a38.249,38.249,0,0,1-18.582,6.615c-14.482.987-22.224-6.123-26.615-15.748-4.1-9-4.256-20.7-.945-31.183,2.963-9.381,7.125-18.034,12.755-24.41,6-6.791,14.466-10.431,25.2-12.757.793.881.615,2.659.788,4.252a135.594,135.594,0,0,0,6.458,28.819c-1.167-.722-8.849-5.408-8.976-1.1-.05,1.684,2.206,2.271,3.779,2.993M246.19,97.8a28.9,28.9,0,0,0-.472,3.306c-1.62-1.455-4.368-4.466-4.409-8.187-.055-4.889,4.51-8.123,7.245-3.938-.291,1.023-.649,1.978-.945,2.991-.945-.98-.988-2.588-2.522-2.677-4.455-.254-.11,7.431,1.1,8.5m52.443,74.49c-1.475-1.057-2.512-2.844-3.936-4.409-9.232-10.135-22.3-17.711-39.056-20.473,1.217-3.242,2.5-6.424,3.62-9.764,5.792,4.431,16.883,6.291,26.458,4.1-.734,1.8-1.262,3.6-2.048,5.668-.749,1.98-3.177,6.133-.629,7.244,2.495,1.089,8.911-.8,11.969.159,2.879,4.11,5.441,10.6,3.622,17.48m19.841,13.544c-1.378-.925-6.531-4.67-6.928-.946-.2,1.846,3.13,3.374,4.883,4.568,9.148,6.23,18.134,13.9,19.529,27.717.53,5.276.259,12.514-1.42,17.48-.818,2.418-2.194,3.777-3.465,6.3-11.028-20.311-17.449-45.231-29.607-64.412,2.826-6.3,1.848-16.273-1.416-21.261,25.913,3.244,39.454,20.276,49.45,40.159.689,1.369,1.859,2.973,1.889,3.938.054,1.684-1.777,4.859-2.52,6.613-2.764,6.525-5.623,12.482-8.66,18.427.811-19.587-9.585-30.451-21.736-38.584m19.688,51.182c3.744-7.262,7.8-14.859,11.5-22.993,3.55-7.809,6.51-16.164,10.08-24.41a81.592,81.592,0,0,1,13.069-21.418c4.906-5.674,12.407-12.89,21.577-13.385a4.648,4.648,0,0,1,3.465.788c.192,4.3-3.874,5.719-6.77,6.929-5.672,2.366-10.653,4.725-12.758,10.865-1.57,1.647-5.749,2.053-5.827,4.725-.109,3.717,3.814,1.16,5.67,0,2.94-1.838,9.85-5.787,14.173-4.1,2.256.885,2.605,2.3,4.1,4.883a48.483,48.483,0,0,0-16.536,3.62c-1.749.662-3.752,1.267-3.779,2.836-.059,3.266,3.928,1.43,6.14.632,3.919-1.415,9.335-3.179,14.017-3.152,4.859.03,6.737,2.224,7.086,7.245-5.891-1.848-12.618.279-17.323,2.52-1.124.533-2.858,1.46-2.993,2.518-.574,4.515,5.164.96,7.244.159,3.006-1.157,8.125-3.15,11.971-1.259,3.318,1.629,6.9,11.247,2.2,14.489-2.122,1.461-6.065,1.144-9.135.629.594-1.555,2.93-6.1-.314-6.3-2.5-.152-3.334,4.8-4.252,7.086-7.528,18.821-17.092,35.875-25.512,53.7-3.632-14.27-10.976-24.824-27.087-26.614" transform="translate(4.37 0.001)"/><path class="c" d="M120.994,30.341c2.132-.067,4.789-.279,4.884,1.89.1,2.425-2.911,1.849-5.67,2.048a13.167,13.167,0,0,0-5.2,1.416c-5.739,3.229-10.494,20.249-3.149,25.985,2.983,2.331,7.576,2.4,8.819,5.672.706,1.854.343,6.222-2.52,5.983a2.247,2.247,0,0,1-1.575-.946c-.542-1.162.532-2.1.316-3.147-.349-1.7-5.551-2.9-7.4-4.252-8.872-6.481-5.613-26.7,2.518-32.285,2.2-1.512,5.7-2.259,8.976-2.363" transform="translate(70.038 20.369)"/><path class="c" d="M98.665,36.109c2.3-.191,11.4-.4,11.655,2.677.283,3.435-4.776,1.443-7.717,1.261-8.222-.512-11.352,2.378-12.914,8.819-.288,1.184-.246,5.956-2.363,6.14-3.645.321-1.685-6.138-1.1-8.188,1.92-6.757,4.807-10.081,12.441-10.708" transform="translate(57.248 24.208)"/><path class="c" d="M162.739,43.171c3.644-.706,8.252,2.757,9.6,4.881,4.9,7.687.871,20.865-3.936,25.67a16.372,16.372,0,0,1-8.19,4.725c-2.124.381-2.95-.192-2.833-1.89.12-1.793,3.433-2.537,5.038-3.465,4.757-2.746,8.167-7.852,8.19-15.589.01-3.284-.918-7.275-3.15-8.819-1.431-.992-6.092-1.254-6.458-3.15a1.871,1.871,0,0,1,1.734-2.364" transform="translate(109.718 32.291)"/><path class="c" d="M81.748,60.47c1.978-.676,10.21-.12,7.874,3.465-.911,1.395-8.593.881-9.135-.946a1.79,1.79,0,0,1,1.261-2.518" transform="translate(54.007 40.478)"/><path class="c" d="M101.82,60.844c1.906-.207,4.177,2.779,7.556,2.522a8.483,8.483,0,0,0,2.836-.945c.6-.3,1.694-1.222,2.677-1.1a2.047,2.047,0,0,1,1.575,2.361c-.264,2.122-4.814,3.732-7.4,3.779-2.7.05-9.088-2.09-9.133-4.724-.02-1.124.592-1.749,1.891-1.891" transform="translate(67.165 40.89)"/><path class="c" d="M167.321,72.922c.6.614,1.145.741,1.261,1.575.523,3.844-7.192,3.363-9.137,1.891-1.473-1.115-3.807-5.043-3.465-7.56.11-.811,1.545-2.65,3.307-1.418,1.492,1.045.861,5.145,2.991,5.986,1.579.624,2.438-.569,5.041-.475" transform="translate(117.551 46.725)"/><path class="c" d="M34.4,115.237c4.414,1.234,10.452,5.6,7.4,11.34a6.249,6.249,0,0,1-2.675,2.518c2.873,1.995,5.747,6.61,1.731,8.976-1.545.911-10.718,3.282-10.865-.314-.145-3.532,6.339-1.525,8.5-3.15-1.135-2.139-3.59-3.4-6.929-4.409-2.262-.682-8.4-.415-7.872-3.62.36-2.209,3.923-1.369,5.827-1.1,3.69.512,9.322,1.916,8.974-2.361-.237-2.966-5.439-4.088-8.819-4.884a54.7,54.7,0,0,0-5.668-1.1c-2.644-.314-4.54-.209-4.409-2.363.159-2.649,3.906-1.752,6.613-1.89,2.935-.145,7.384-.769,7.717-2.518.284-1.492-1.712-3.269-2.677-3.938-5.684-3.94-13.925-3.018-22.206-2.834-.393-.575-.906-.915-.943-1.575-.161-2.8,5.969-2.807,8.819-2.836,6.583-.064,14.73,1.435,18.582,5.513,2.828,2.993,3.749,9.016-1.1,10.551" transform="translate(5.445 66.657)"/><path class="e" d="M313.961,88.073,271.039,89.9c-2.709.114-6.219,2.679-7.837,5.729L226.047,165.6c-1.619,3.048,1.366,8,4.073,7.882l42.92-1.828c2.705-.115,6.215-2.682,7.834-5.732L318.029,95.91c1.619-3.05-1.363-7.954-4.068-7.837" transform="translate(151.624 59.196)"/><path d="M230.758,176.018c-1.786,0-3.6-1.192-4.874-3.221-1.206-1.913-2.025-4.842-.707-7.324l37.155-69.968c1.916-3.612,6.028-6.55,9.361-6.69l42.922-1.824c1.916-.06,3.734,1.122,5.05,3.207,1.2,1.9,2.01,4.812.7,7.289L283.2,167.5c-1.916,3.612-6.028,6.551-9.359,6.692l-42.92,1.828c-.055,0-.112,0-.167,0m84.026-85.409-42.94,1.826c-1.829.079-4.872,2.053-6.314,4.769l-37.155,69.968a3.985,3.985,0,0,0,.574,3.7,3.028,3.028,0,0,0,1.824,1.527l42.92-1.828c1.828-.077,4.869-2.055,6.312-4.771L317.16,95.788a3.932,3.932,0,0,0-.56-3.655c-.667-1.058-1.455-1.523-1.816-1.523" transform="translate(150.894 58.469)"/><path class="e" d="M5.008,79.783,47.93,81.609c2.709.115,6.217,2.68,7.836,5.729l37.156,69.97c1.619,3.048-.682,7.316-3.391,7.2l-42.922-1.824c-2.711-.117-6.217-2.68-7.836-5.73L1.617,86.983C0,83.935,2.3,79.669,5.008,79.783" transform="translate(0.726 53.624)"/><path d="M90.36,167.048q-.09,0-.181-.005l-42.922-1.824c-3.333-.142-7.443-3.083-9.359-6.69L.743,88.559a7.214,7.214,0,0,1,.423-7.1A5.447,5.447,0,0,1,5.809,78.7l42.922,1.823c3.333.142,7.444,3.083,9.361,6.69l37.155,69.97a7.213,7.213,0,0,1-.421,7.1,5.417,5.417,0,0,1-4.465,2.759M5.628,82.318a1.98,1.98,0,0,0-1.4,1.07,3.616,3.616,0,0,0-.286,3.471L41.1,156.83c1.441,2.714,4.483,4.692,6.314,4.769l42.92,1.826a1.932,1.932,0,0,0,1.43-1.069,3.619,3.619,0,0,0,.286-3.473L54.893,88.913c-1.441-2.712-4.485-4.692-6.316-4.769L5.657,82.318Z" transform="translate(0 52.898)"/><path class="b" d="M8.21,104.649s-1.839-4.7,4.04-3.819,14.4-.93,19.892,2.742,3.04,10.486-2.351,10.289c0,0,13.327,5.784,11.073,9.212s-10.486,3.822-10.486,3.822,13.352,5,10.743,7.252c-2.207,1.906-12.084-1.3-12.126,4.5,0,.455-1.557-1.558-1.557-1.558Z" transform="translate(5.335 67.697)"/><path class="c" d="M34.4,115.237c4.414,1.234,10.452,5.6,7.4,11.34a6.249,6.249,0,0,1-2.675,2.518c2.873,1.995,5.747,6.61,1.731,8.976-1.545.911-10.718,3.282-10.865-.314-.145-3.532,6.339-1.525,8.5-3.15-1.135-2.139-3.59-3.4-6.929-4.409-2.262-.682-8.4-.415-7.872-3.62.36-2.209,3.923-1.369,5.827-1.1,3.69.512,9.322,1.916,8.974-2.361-.237-2.966-5.439-4.088-8.819-4.884a54.7,54.7,0,0,0-5.668-1.1c-2.644-.314-4.54-.209-4.409-2.363.159-2.649,3.906-1.752,6.613-1.89,2.935-.145,7.384-.769,7.717-2.518.284-1.492-1.712-3.269-2.677-3.938-5.684-3.94-13.925-3.018-22.206-2.834-.393-.575-.906-.915-.943-1.575-.161-2.8,5.969-2.807,8.819-2.836,6.583-.064,14.73,1.435,18.582,5.513,2.828,2.993,3.749,9.016-1.1,10.551" transform="translate(5.445 66.657)"/><path class="b" d="M292.6,113.859s-2.1-5.356-9.212-7.173-23.378,3.948-21.614,8.519,10.78,5.294,11.5,5.294-14.959.846-16.462,7.839,5.553,5.879,5.814,5.879-5.749,4.182-5.749,5.225,12.151,5.1,12.151,5.1l18.88-31.62s5.023-6.506,4.694.94" transform="translate(172.47 71.476)"/><path class="c" d="M259.708,140.537c1.956,1.809,8.138-.194,8.662,2.677.714,3.914-7.225,2.378-9.764,1.416-4.567-1.727-3.563-7.086.629-9.133-1.069-1.172-2.205-1.816-2.833-3.149-2.736-5.807,3.127-9.829,7.558-11.024-2.256-1.538-3.767-2.134-3.62-5.357.318-7.053,9.555-9.434,16.22-10.233,4.662-.562,13.253.433,13.385,2.991.179,3.48-5.2,1.3-8.662,1.1-5.478-.313-11,.605-14.016,2.52-.883.558-3.107,2-2.834,3.938.283,2.023,5.418,2.542,8.031,2.677,3.508.179,6.227-.468,6.3,1.889.092,2.963-7.61,2.7-10.237,3.306-2.945.682-8.254,2.172-8.662,4.725-1.222,7.652,14.639-1.433,14.805,4.093.082,2.762-5.836,2.612-8.033,3.309-3.22,1.022-5.8,2.426-6.929,4.252" transform="translate(171.8 70.965)"/></g></g><g class="f" transform="translate(832.019 1980.801)"><g class="g"><path class="h" d="M229.618,125.117c-10.634-4-11.942-16.656-11.942-16.656l-7.7,16.026s-1.93-10.741-8.014-19.482-21.529-11-21.529-11l14.928-31.111s-8.919-20.1-19.484-33S146.34,15.913,146.34,15.913s-.674,2.13.943,6.442c.774,2.065.4,5.054-2.827,9.27-.619.809,35.067,75.625,35.131,76.637.1,1.483-3.5,2.169-3.707,3.184-.717,3.565-14.95-38.686-32.839-68.822-6.824-11.5-15.183-20.847-23.255-25.613-12.024-7.1-25.991-7.955-32.367-5.028a18.927,18.927,0,0,0-8.956,8.643l-1.878,151.62H184.21l-1.732-7.063,3.3-1.73a131.265,131.265,0,0,0,29.853.631c16-1.575,35.826-35.67,35.826-35.67a59.54,59.54,0,0,1-21.841-3.3" transform="translate(51.168 6.952)"/><path class="a" d="M33,163.494c-14.331-1.068-29.384-25.142-29.384-25.142L0,179.2H127.9c0-.364,2.409-144.824,2.512-150.993a35.863,35.863,0,0,1,2.042-11.155S122.7-4.533,98.36.866a39.428,39.428,0,0,0-16.7,8.589C86.016,7.5,100.38.841,95.179,4.393c-20.645,14.094-53.412,86.491-51.5,89.18a54.011,54.011,0,0,0,11.625,12.256c9.85,7.46,31.424,10.214,31.424,10.214S58.917,165.424,33,163.494" transform="translate(0 -0.001)"/><path class="a" d="M59.139,15.6c-6.688-4.878,1.415-13.2,1.415-13.2A126.874,126.874,0,0,0,22.529,12.774c-17.357,7.984-20.268,22-20.268,22l28.6,59.237,6.913-8.486C36.665,85.378,57.473,40.4,70.1,19.148c-.287.445-.435.7-.435.7s-3.84.634-10.528-4.242" transform="translate(1.511 1.607)"/></g></g></g></svg>