<svg xmlns="http://www.w3.org/2000/svg" xmlns:xlink="http://www.w3.org/1999/xlink" width="400" height="349" viewBox="0 0 400 349"><defs><style>.a{fill:#ff8585;opacity:0.47;}.b{clip-path:url(#a);}.c{fill:#6433d1;}.d,.f{fill:#fff;}.e,.g{fill:#1a1a1a;}.f,.g,.h{fill-rule:evenodd;}</style><clipPath id="a"><rect class="a" width="400" height="349" transform="translate(3814 2087)"/></clipPath></defs><g class="b" transform="translate(-3814 -2087)"><g transform="translate(3845 2110.999)"><g transform="translate(0 0)"><path class="c" d="M77.222,47.583,61.405,72.576a6.161,6.161,0,0,0,5.206,9.456h42.7a6.164,6.164,0,0,0,5.206-2.866L132.47,50.8a6.163,6.163,0,0,0-5.206-9.459h-42.7a6.161,6.161,0,0,0-5.206,2.866Z" transform="translate(114.551 78.354)"/><path class="d" d="M89.4,44.923s-1.656-2.753-4.824-.42L66.781,60.532s-1.676,2.38,1.763,2.684H92.081s5.081.255,3.862-3.483Z" transform="translate(125.797 82.568)"/><path class="c" d="M49.145,45.425A3,3,0,0,0,51.805,47H70.518a3.016,3.016,0,0,0,2.562-1.413l7.869-12.432a3.037,3.037,0,0,0-2.565-4.659H59.672a3.022,3.022,0,0,0-2.565,1.413l-.935,1.479L49.237,42.338a3,3,0,0,0-.093,3.086" transform="translate(92.418 54.003)"/><path class="e" d="M53.191,5.992,46.26,16.945a2.7,2.7,0,0,0,2.281,4.143H67.254a2.7,2.7,0,0,0,2.284-1.254L77.4,7.4a2.7,2.7,0,0,0-2.281-4.146H56.408a2.7,2.7,0,0,0-2.279,1.257Z" transform="translate(86.875 6.171)"/><path class="c" d="M83.558,13.94,65.12,43.07a7.184,7.184,0,0,0,6.069,11.025h49.773a7.187,7.187,0,0,0,6.069-3.341l20.927-33.064a7.184,7.184,0,0,0-6.069-11.025H92.116a7.187,7.187,0,0,0-6.069,3.341Z" transform="translate(121.291 12.63)"/><path class="e" d="M134.529,14.313H68.224l4.357-6.607s1.051-1.375,4.108-2.2,51.516.029,51.516.029,7.58.724,6.323,8.776" transform="translate(129.305 9.761)"/><path class="d" d="M73.874,10.134c.808.669,2.229.287,3.179-.854S78.116,6.668,77.308,6s-2.229-.287-3.179.857-1.063,2.612-.255,3.28" transform="translate(138.994 10.741)"/><path class="d" d="M76.4,10.134c.808.669,2.229.287,3.179-.854S80.646,6.668,79.838,6s-2.229-.287-3.179.857S75.6,9.465,76.4,10.134" transform="translate(143.789 10.741)"/><path class="c" d="M103.1,37.313c2.044,1.7,5.646.727,8.046-2.163s2.69-6.613.646-8.307-5.646-.73-8.046,2.163-2.69,6.61-.646,8.307" transform="translate(192.833 49.291)"/><path d="M38.55,30.613a.369.369,0,0,0,.318-.177l4.551-7.189a14.52,14.52,0,0,1,12.331-6.789H73.887a.378.378,0,1,0,0-.756H55.751a15.268,15.268,0,0,0-12.968,7.14l-4.551,7.189a.379.379,0,0,0,.116.524.4.4,0,0,0,.2.058" transform="translate(72.346 29.76)"/><path d="M57.869,16.459H92.4a.378.378,0,1,0,0-.756H57.869a.378.378,0,1,0,0,.756" transform="translate(108.961 29.762)"/><path d="M52.137,100.678H90.121a15.272,15.272,0,0,0,12.968-7.14L147.1,24a.379.379,0,1,0-.64-.405L102.452,93.136a14.532,14.532,0,0,1-12.331,6.787H52.137a.378.378,0,1,0,0,.756" transform="translate(98.097 44.391)"/><path d="M62.625,49.412a7.451,7.451,0,0,1,.235-7.687L81.3,12.593l2.49-3.935a7.522,7.522,0,0,1,6.387-3.515h49.773a7.559,7.559,0,0,1,6.39,11.6L125.409,49.812a7.53,7.53,0,0,1-6.39,3.515H69.246a7.46,7.46,0,0,1-6.622-3.914M90.174,5.9a6.774,6.774,0,0,0-5.75,3.165L63.5,42.128a6.8,6.8,0,0,0,5.747,10.443H119.02a6.774,6.774,0,0,0,5.75-3.165L145.7,16.342A6.8,6.8,0,0,0,139.947,5.9Z" transform="translate(116.884 9.748)"/><path d="M102.029,57.074a.369.369,0,0,0,.318-.177l4.531-7.154a6.513,6.513,0,0,0-5.5-9.995H74.492a.378.378,0,1,0,0,.756h26.883a5.755,5.755,0,0,1,4.864,8.834L101.711,56.5a.376.376,0,0,0,.318.579" transform="translate(140.466 75.336)"/><path d="M66.943,61.885H109.46a6.476,6.476,0,0,0,5.5-3.031l3.715-5.866a.379.379,0,1,0-.64-.405l-3.712,5.869a5.732,5.732,0,0,1-4.864,2.678H66.943a5.757,5.757,0,0,1-4.864-8.836l1.181-1.867a.377.377,0,0,0-.637-.405l-1.184,1.87a6.511,6.511,0,0,0,5.5,9.995" transform="translate(114.506 94.47)"/><path d="M48.432,21.424a3.043,3.043,0,0,1,.1-3.133L56.4,5.859A3.059,3.059,0,0,1,59,4.429H77.712a3.078,3.078,0,0,1,2.6,4.725l-7.867,12.43a3.063,3.063,0,0,1-2.6,1.433H51.127a3.042,3.042,0,0,1-2.7-1.592M59,5.185a2.312,2.312,0,0,0-1.963,1.08L56.1,7.744,49.167,18.7a2.322,2.322,0,0,0,1.96,3.564H69.843a2.315,2.315,0,0,0,1.963-1.08L79.675,8.749a2.324,2.324,0,0,0-1.963-3.564Z" transform="translate(91.058 8.394)"/><path d="M48.432,21.424a3.043,3.043,0,0,1,.1-3.133L56.4,5.859A3.059,3.059,0,0,1,59,4.429H77.712a3.078,3.078,0,0,1,2.6,4.725l-7.867,12.43a3.063,3.063,0,0,1-2.6,1.433H51.127a3.042,3.042,0,0,1-2.7-1.592M59,5.185a2.312,2.312,0,0,0-1.963,1.08L56.1,7.744,49.167,18.7a2.322,2.322,0,0,0,1.96,3.564H69.843a2.315,2.315,0,0,0,1.963-1.08L79.675,8.749a2.324,2.324,0,0,0-1.963-3.564Z" transform="translate(91.058 8.394)"/><path d="M63.809,47.937h2.866a3.063,3.063,0,0,0,2.6-1.433l7.867-12.43a3.078,3.078,0,0,0-2.6-4.725H55.83a3.066,3.066,0,0,0-2.6,1.43l-.938,1.479a.379.379,0,0,0,.64.405l.935-1.479A2.312,2.312,0,0,1,55.83,30.1H74.545a2.322,2.322,0,0,1,1.96,3.564L68.639,46.1a2.315,2.315,0,0,1-1.963,1.08H63.809a.378.378,0,1,0,0,.756" transform="translate(98.999 55.625)"/><path d="M52.778,46.147h9.7a.378.378,0,1,0,0-.756h-9.7a2.322,2.322,0,0,1-1.963-3.564l6.931-10.953a.377.377,0,1,0-.637-.405L50.175,41.422a3.08,3.08,0,0,0,2.6,4.725" transform="translate(94.184 57.415)"/><path d="M50.61,36.589h28.3a5.176,5.176,0,0,0,4.4-2.423l3.634-6.3a5.206,5.206,0,0,0-4.41-7.977H49.079a5.182,5.182,0,0,0-4.4,2.42l-3.631,6.3a5.1,5.1,0,0,0-.336,4.919.379.379,0,0,0,.689-.316A4.37,4.37,0,0,1,41.693,29l3.634-6.3a4.42,4.42,0,0,1,3.752-2.056H82.537a4.45,4.45,0,0,1,3.761,6.83l-3.631,6.3a4.426,4.426,0,0,1-3.752,2.059H50.61a.378.378,0,1,0,0,.756" transform="translate(76.256 37.701)"/><path d="M43.992,22.093H72.019a.378.378,0,0,0,0-.756H43.992a.378.378,0,1,0,0,.756" transform="translate(82.66 40.44)"/><path d="M43.018,23.86H71.042a.378.378,0,1,0,0-.756H43.018a.378.378,0,1,0,0,.756" transform="translate(80.814 43.789)"/><path d="M66.449,32.734H94.473a.378.378,0,1,0,0-.756H66.449a.378.378,0,1,0,0,.756" transform="translate(125.222 60.608)"/><path d="M65.474,34.5H93.5a.378.378,0,0,0,0-.756H65.474a.378.378,0,1,0,0,.756" transform="translate(123.375 63.957)"/><path d="M61.781,40.5H89.808a.378.378,0,0,0,0-.756H61.781a.378.378,0,1,0,0,.756" transform="translate(116.375 75.336)"/><path d="M60.807,42.273H88.834a.378.378,0,0,0,0-.756H60.807a.378.378,0,1,0,0,.756" transform="translate(114.529 78.687)"/><path d="M69.977,8.941H125.6a.378.378,0,1,0,0-.756H69.977a.378.378,0,1,0,0,.756" transform="translate(131.909 15.513)"/><path d="M67.874,12.318H91.827a.378.378,0,0,0,0-.756H67.874a.378.378,0,1,0,0,.756" transform="translate(127.923 21.913)"/><path d="M66.12,15.017H90.07a.378.378,0,1,0,0-.756H66.12a.378.378,0,1,0,0,.756" transform="translate(124.599 27.029)"/><path d="M64.461,17.715h23.95a.378.378,0,1,0,0-.756H64.461a.378.378,0,1,0,0,.756" transform="translate(121.455 32.142)"/><path class="c" d="M71.283,10.134c.808.669,2.229.287,3.179-.854S75.525,6.668,74.717,6s-2.229-.287-3.179.857-1.063,2.612-.255,3.28" transform="translate(134.083 10.741)"/><path d="M73.877,10.672c-.967-.8-.874-2.513.206-3.813a3.677,3.677,0,0,1,1.836-1.231,2.03,2.03,0,0,1,1.876.324c.967.8.874,2.513-.206,3.816A3.715,3.715,0,0,1,75.753,11a2.6,2.6,0,0,1-.666.093,1.854,1.854,0,0,1-1.21-.42m2.238-4.314a2.929,2.929,0,0,0-1.451.984c-.8.961-.938,2.221-.3,2.748a1.305,1.305,0,0,0,1.2.18,2.935,2.935,0,0,0,1.451-.984c.8-.964.938-2.224.3-2.751a1.132,1.132,0,0,0-.733-.24,1.8,1.8,0,0,0-.463.064" transform="translate(138.751 10.493)"/><path d="M57.383,27.964c-.967-.8-.874-2.513.206-3.813a3.677,3.677,0,0,1,1.836-1.231,2.022,2.022,0,0,1,1.876.324c.967.8.874,2.513-.206,3.816a3.715,3.715,0,0,1-1.836,1.231,2.6,2.6,0,0,1-.666.093,1.854,1.854,0,0,1-1.21-.42m2.238-4.314a2.929,2.929,0,0,0-1.451.984c-.8.961-.938,2.221-.3,2.748a1.3,1.3,0,0,0,1.2.177,2.91,2.91,0,0,0,1.451-.982c.8-.964.938-2.224.3-2.751a1.131,1.131,0,0,0-.73-.243,1.811,1.811,0,0,0-.466.067" transform="translate(107.49 43.263)"/><path class="d" d="M81.8,31.128c.808.669,2.229.287,3.179-.854s1.063-2.612.255-3.283S83,26.7,82.05,27.848s-1.063,2.612-.255,3.28" transform="translate(154.007 50.531)"/><path d="M81.8,31.666a2.03,2.03,0,0,1-.666-1.784,3.9,3.9,0,0,1,2.707-3.26,1.915,1.915,0,0,1,2.542,2.111,3.688,3.688,0,0,1-.871,2.03,3.406,3.406,0,0,1-2.5,1.317,1.853,1.853,0,0,1-1.207-.414m2.238-4.314A3.145,3.145,0,0,0,81.89,29.94a1.3,1.3,0,0,0,.394,1.144c.634.527,1.844.159,2.646-.8a2.945,2.945,0,0,0,.7-1.607,1.3,1.3,0,0,0-.4-1.141,1.118,1.118,0,0,0-.733-.243,1.8,1.8,0,0,0-.463.064" transform="translate(153.758 50.283)"/><path d="M103.1,37.853c-2.2-1.827-1.934-5.793.6-8.839a8.788,8.788,0,0,1,4.349-2.927,4.272,4.272,0,0,1,5.707,4.74,8.767,8.767,0,0,1-2.073,4.815,8.047,8.047,0,0,1-5.883,3.127,4.143,4.143,0,0,1-2.7-.915m5.142-11.034a8.007,8.007,0,0,0-3.964,2.678c-2.264,2.727-2.574,6.213-.695,7.774s5.246.611,7.513-2.114a8.025,8.025,0,0,0,1.9-4.389,3.851,3.851,0,0,0-1.207-3.385,3.4,3.4,0,0,0-2.221-.75,5.1,5.1,0,0,0-1.329.185" transform="translate(192.589 49.043)"/><path d="M68.6,11.977c-2.2-1.827-1.934-5.791.6-8.839A8.762,8.762,0,0,1,73.544.214a4.572,4.572,0,0,1,4.23.712A4.582,4.582,0,0,1,79.251,4.95a8.758,8.758,0,0,1-2.073,4.815,8.047,8.047,0,0,1-5.883,3.127,4.148,4.148,0,0,1-2.7-.915M73.741.943a8.008,8.008,0,0,0-3.964,2.678C67.513,6.349,67.2,9.835,69.082,11.4s5.249.611,7.51-2.114A8.009,8.009,0,0,0,78.5,4.892,3.851,3.851,0,0,0,77.29,1.508,3.41,3.41,0,0,0,75.07.758a5.1,5.1,0,0,0-1.329.185" transform="translate(127.19 0.001)"/><path d="M84.831,53.014a2.022,2.022,0,0,1-.666-1.783,3.7,3.7,0,0,1,.871-2.03c1.08-1.3,2.745-1.708,3.712-.9a2.033,2.033,0,0,1,.666,1.784,3.7,3.7,0,0,1-.872,2.03,3.406,3.406,0,0,1-2.5,1.317,1.848,1.848,0,0,1-1.207-.414m.788-3.33a2.945,2.945,0,0,0-.7,1.607,1.3,1.3,0,0,0,.4,1.141c.631.524,1.844.159,2.646-.8a2.946,2.946,0,0,0,.7-1.6,1.305,1.305,0,0,0-.4-1.144,1.122,1.122,0,0,0-.727-.24,2.689,2.689,0,0,0-1.92,1.045" transform="translate(159.501 90.755)"/><path d="M62.207,37.742a2.022,2.022,0,0,1-.666-1.783,3.7,3.7,0,0,1,.871-2.03c1.08-1.3,2.745-1.708,3.712-.9a1.918,1.918,0,0,1,.663,1.332,3.523,3.523,0,0,1-.869,2.481,3.411,3.411,0,0,1-2.5,1.317,1.848,1.848,0,0,1-1.207-.414m.788-3.33a2.945,2.945,0,0,0-.7,1.607,1.3,1.3,0,0,0,.4,1.141c.634.527,1.844.159,2.646-.8a2.761,2.761,0,0,0,.7-1.925,1.192,1.192,0,0,0-.394-.822,1.124,1.124,0,0,0-.73-.24,2.684,2.684,0,0,0-1.917,1.045" transform="translate(116.622 61.81)"/><path d="M76.406,10.668c-.967-.8-.874-2.51.206-3.813s2.748-1.708,3.712-.9.874,2.513-.206,3.813a3.411,3.411,0,0,1-2.5,1.317,1.847,1.847,0,0,1-1.207-.414m.788-3.33c-.8.964-.938,2.224-.3,2.748s1.844.159,2.646-.8.938-2.221.3-2.748a1.106,1.106,0,0,0-.727-.24,2.689,2.689,0,0,0-1.92,1.045" transform="translate(143.544 10.497)"/><path d="M72.87,49.145a.375.375,0,0,1-.1-.524,25.092,25.092,0,0,0,2.082-3.747.378.378,0,0,1,.5-.191.374.374,0,0,1,.188.5,25.414,25.414,0,0,1-2.145,3.862.369.369,0,0,1-.313.165.377.377,0,0,1-.211-.064m3.677-7.855a.376.376,0,0,1-.272-.46,24.5,24.5,0,0,0,.715-4.221.382.382,0,0,1,.408-.347.377.377,0,0,1,.347.405,25.446,25.446,0,0,1-.738,4.355.377.377,0,0,1-.365.284.364.364,0,0,1-.1-.014m.356-8.915a6.591,6.591,0,0,0-2.044-3.486.378.378,0,1,1,.515-.553,7.288,7.288,0,0,1,2.267,3.883.378.378,0,0,1-.292.449.334.334,0,0,1-.075.009.377.377,0,0,1-.371-.3m-5.62-5.689a23.947,23.947,0,0,0-4.1-1.262.38.38,0,0,1-.29-.452.375.375,0,0,1,.452-.287,24.535,24.535,0,0,1,4.227,1.3.378.378,0,0,1-.148.727.359.359,0,0,1-.145-.029m-8.362-1.934c-1.975-.2-3.524-.223-4.1-.223H58.6a.378.378,0,0,1-.379-.368.383.383,0,0,1,.371-.388l.235,0c.588,0,2.163.023,4.175.229a.379.379,0,0,1-.041.756l-.038,0" transform="translate(110.344 45.053)"/><path d="M83.32,28.016a.382.382,0,0,1,.379-.379h4.352a.379.379,0,0,1,0,.759H83.7a.382.382,0,0,1-.379-.379m8.709,0a.378.378,0,0,1,.376-.379H96.76a.379.379,0,1,1,0,.759H92.405a.378.378,0,0,1-.376-.379m8.709,0a.38.38,0,0,1,.376-.379h4.355a.379.379,0,0,1,0,.759h-4.355a.38.38,0,0,1-.376-.379m8.706,0a.381.381,0,0,1,.379-.379h4.357a.379.379,0,0,1,0,.759h-4.357a.381.381,0,0,1-.379-.379m8.709,0a.381.381,0,0,1,.379-.379h4.355a.379.379,0,1,1,0,.759h-4.355a.381.381,0,0,1-.379-.379m8.709,0a.379.379,0,0,1,.379-.379H131.6a.379.379,0,0,1,0,.759h-4.355a.379.379,0,0,1-.379-.379" transform="translate(157.916 52.38)"/><path d="M86.457,49.089a.381.381,0,0,1,.379-.379h4.355a.379.379,0,0,1,0,.759H86.836a.381.381,0,0,1-.379-.379m8.709,0a.379.379,0,0,1,.379-.379h3.379a.379.379,0,0,1,0,.759H95.545a.379.379,0,0,1-.379-.379" transform="translate(163.862 92.32)"/><path d="M90.808,83.9a.376.376,0,0,1-.116-.521l.75-1.184a.376.376,0,0,1,.521-.119.383.383,0,0,1,.119.524l-.75,1.184a.382.382,0,0,1-.321.174.372.372,0,0,1-.2-.058m3.078-4.864a.375.375,0,0,1-.116-.521l2.328-3.68a.382.382,0,0,1,.524-.116.376.376,0,0,1,.116.521l-2.328,3.68a.382.382,0,0,1-.321.174.372.372,0,0,1-.2-.058m4.659-7.357a.379.379,0,0,1-.116-.524l2.328-3.677a.377.377,0,0,1,.521-.119.383.383,0,0,1,.119.524l-2.331,3.677a.38.38,0,0,1-.318.177.4.4,0,0,1-.2-.058m4.659-7.36a.376.376,0,0,1-.119-.521l2.328-3.68a.382.382,0,0,1,.524-.116.375.375,0,0,1,.116.521l-2.328,3.68a.378.378,0,0,1-.321.174.356.356,0,0,1-.2-.058m4.656-7.357a.379.379,0,0,1-.116-.524l2.328-3.68a.379.379,0,0,1,.64.405l-2.328,3.68a.384.384,0,0,1-.321.177.4.4,0,0,1-.2-.058m4.659-7.36a.379.379,0,0,1-.119-.521l2.328-3.68a.379.379,0,1,1,.64.405l-2.328,3.68a.377.377,0,0,1-.319.174.372.372,0,0,1-.2-.058m4.656-7.357a.379.379,0,0,1-.116-.524l2.328-3.68a.379.379,0,0,1,.64.405L117.7,42.13a.384.384,0,0,1-.321.177.4.4,0,0,1-.2-.058m4.659-7.36a.379.379,0,0,1-.119-.521l2.331-3.68a.376.376,0,0,1,.521-.119.383.383,0,0,1,.119.524l-2.331,3.68a.377.377,0,0,1-.318.174.373.373,0,0,1-.2-.058" transform="translate(171.776 57.827)"/><path d="M90.582,62.126c.686,0,2.791-.107,3.741-1.349a2.743,2.743,0,0,0,.261-2.635L88.023,43.3a3.417,3.417,0,0,0-2.148-1.526,4.1,4.1,0,0,0-3.246.955l-3.741,3.364a.379.379,0,0,0,.507.565l3.712-3.344a3.379,3.379,0,0,1,2.62-.8,2.69,2.69,0,0,1,1.627,1.132l6.523,14.769a2.009,2.009,0,0,1-.156,1.9c-.88,1.152-3.306,1.048-3.338,1.048H68.734a.378.378,0,1,0,0,.756H90.362c.017,0,.1.006.22.006" transform="translate(129.553 79.057)"/><path d="M78.331,35.566a.369.369,0,0,0,.318-.177l15.936-25.18a.377.377,0,1,0-.637-.4L78.012,34.984a.379.379,0,0,0,.116.524.4.4,0,0,0,.2.058" transform="translate(147.743 18.252)"/><path d="M64.076,15.452c8.24,0,15.733-3.622,22.343-10.811a.379.379,0,0,0-.559-.512c-7.939,8.64-17.172,12.007-27.445,10a.379.379,0,1,0-.145.744,30.253,30.253,0,0,0,5.805.576" transform="translate(109.859 7.592)"/><path d="M38.537,18.8a3.044,3.044,0,0,1-.987-2.672A5.692,5.692,0,0,1,38.9,13a5.661,5.661,0,0,1,2.829-1.9,3.047,3.047,0,0,1,2.808.478,3.044,3.044,0,0,1,.987,2.672,5.692,5.692,0,0,1-1.349,3.13,5.661,5.661,0,0,1-2.829,1.9,3.791,3.791,0,0,1-1.008.142,2.775,2.775,0,0,1-1.8-.62m3.387-6.975a5.28,5.28,0,0,0-3.619,4.363,2.3,2.3,0,0,0,.715,2.03,2.312,2.312,0,0,0,2.128.33,4.957,4.957,0,0,0,2.444-1.653,4.937,4.937,0,0,0,1.178-2.71,2.313,2.313,0,0,0-.718-2.03,2.031,2.031,0,0,0-1.32-.443,3.136,3.136,0,0,0-.808.113" transform="translate(71.143 20.761)"/><path d="M40.071,18.833a.382.382,0,0,0,.281-.124C48.364,9.828,57.3,6.493,67.69,8.514a.378.378,0,1,0,.145-.741C57.319,5.723,47.883,9.232,39.791,18.2a.378.378,0,0,0,.281.631" transform="translate(75.231 13.656)"/><path class="f" d="M17.461,152.227l0-.715c.026-5.55,8.055-9.728,13.243-9.728l.33,0V78.646H39.2v63.225l.625.006c5.863,0,11.541,4.259,12.652,9.491l.182.86Z" transform="translate(33.094 149.058)"/><path d="M38.963,79.824v63.219l1.329.012c5.362,0,10.881,3.825,11.963,8.926H18.647c.023-4.986,7.542-9.019,12.531-9.019l1.042.012V79.824ZM40.385,78.4H30.8v63.146c-5.605.194-13.547,4.514-13.576,10.429l-.009,1.43h36.8l-.365-1.72c-1.17-5.516-7.108-10.009-13.263-10.055V78.4Z" transform="translate(32.626 148.592)"/><path d="M26.906,93.337a9.543,9.543,0,0,1,0-19.086H43.047a9.543,9.543,0,0,1,0,19.086Z" transform="translate(32.908 140.728)"/><path d="M43.512,75.429a8.829,8.829,0,0,1,0,17.658H27.37a8.829,8.829,0,0,1,0-17.658Zm0-1.424H27.37a10.254,10.254,0,0,0,0,20.507H43.512a10.254,10.254,0,1,0,0-20.507" transform="translate(32.444 140.262)"/><path class="d" d="M33.9,148.17a10.126,10.126,0,0,1-10.113-10.018L.272,50.607a.646.646,0,0,1-.026-.182A10.123,10.123,0,0,1,10.359,40.311H60.489A10.125,10.125,0,0,1,70.6,50.326l20.725,77.145h10.843a10.122,10.122,0,0,1,10.11,10.113v.379a10.124,10.124,0,0,1-10.11,10.11h-16.8a8.626,8.626,0,0,1-1.338.1Z" transform="translate(0.466 76.401)"/><path d="M60.955,41.488a9.4,9.4,0,0,1,9.4,9.4l20.89,77.759h11.387a9.4,9.4,0,0,1,9.4,9.4v.379a9.4,9.4,0,0,1-9.4,9.4h-16.8a9.267,9.267,0,0,1-1.338.1H34.37a9.4,9.4,0,0,1-9.4-9.4L1.424,50.89a9.4,9.4,0,0,1,9.4-9.4Zm0-1.424H10.826A10.837,10.837,0,0,0,0,50.89a1.425,1.425,0,0,0,.049.368l23.5,87.461A10.835,10.835,0,0,0,34.37,149.347H84.5a10.948,10.948,0,0,0,1.436-.1h16.7a10.836,10.836,0,0,0,10.826-10.823v-.379a10.837,10.837,0,0,0-10.826-10.826h-10.3L71.777,50.693A10.837,10.837,0,0,0,60.955,40.064" transform="translate(0 75.933)"/><path class="f" d="M170.6,172.96a35.492,35.492,0,0,0-6.549,5.411l-19.083-18.608,1.326-3.133-32.755-32.187-.1-9.019s5.408,1.332,8.356-3.419S139.93,81.243,139.93,81.243s2.565-3.414-.663-4.273-37.219-.284-37.219-.284-3.318,0-5.791,4.273-4.748,9.114-4.748,9.114L87.43,69.187s-1.022-5.093-5.13-5.223-12.152.191-12.152.191l.947-4.844,15.574-.284s4.059-.148,3.228-3.894S83.724,37,83.724,37s-7.3-12.328-15.762-9.685-14.474,9.155-15,14.717S55.33,56.769,56.76,57.7s6.265,2.088,6.265,2.088L61.7,64.248l-8.926-.093S48.5,61.063,41.189,73.078s-19.558,33.8-19.558,33.8-2.447,5.052.472,7.5A8.554,8.554,0,0,0,28.846,116L18.782,134.983s-4.163,13.46,1.233,20.319c6.483,8.231,14.717,6.17,14.717,6.17s43.563-.562,43.58.188.382,45.387.382,45.387l16.9.379,10.539,39.118a4.007,4.007,0,0,0,3.7,3.512c3.295.162,35.32-.1,35.32-.1s-1.06-4.951-4.653-6.743-9.806-1.453-11.489-6.74-7.311-28.863-7.311-28.863h2.945l-6.265-23.736,8.923-6.549,26.68,24.59s5.391,4.363,8.637.95S180,171.249,180,171.249s-5.9-.411-9.4,1.711M80.5,108.4s-1.306-.1-6.077,1.236-10.632,3.6-10.632,3.6l-.761-1.329A21.922,21.922,0,0,1,65.02,110.3c.851-.573,3.987-2.279,3.987-2.279a2.434,2.434,0,0,0,.95.284c.761.136,1-1.138.854-3.133a5.83,5.83,0,0,0-1.992-3.512l1.233-1.52s1.343.237,1.8-.287-.1-1.708-.1-1.708l1.424-.854s1.92-.811,3.419-1.613a18.822,18.822,0,0,0,3.037-2.183l2.183,12.91Z" transform="translate(32.693 51.066)"/><path class="g" d="M60.081,94.9s7.444-8.075,9.21-10.16,7.218-7.594,7.218-7.594l2.942,2.849s-6.425,8.017-9.022,10.918S63.5,97.844,63.5,97.844Z" transform="translate(113.872 146.215)"/><path class="g" d="M46.571,97.314l1.141,4.366,25.348.475-.95-4.369Z" transform="translate(88.266 184.439)"/><path class="g" d="M38.3,53.667l26.68.759L62.8,59.744l1.517,5.7,49.657,7.5,32.665,33.137s-8.237,11.04-14.72,16.709a117.436,117.436,0,0,1-13.385,9.971L124.7,156.3l-1.138.663-43.768.191-.851-.95-.478-45.384H28.9s-14.317-2.9-11.393-21.173a21.648,21.648,0,0,1,3.133-8.069Z" transform="translate(32.442 101.715)"/><path class="f" d="M28.12,57.514l16.9-.093,3.228-4.082,9.685,1.138-1.045,2.088s.09,2.25-1.517,2.756a6.778,6.778,0,0,1-3.7-.287s-.738,5.345-1.995,6.268-28.484.567-28.484.567l2.374-7.594Z" transform="translate(40.16 101.093)"/><path class="g" d="M39.614,59.565l1.995-7.6s-5.843-.507-4.748-4.175c.733-2.461,3.133-1.329,3.133-1.329s3.859-1.6,4.936-4.56a21.915,21.915,0,0,0,.761-7.4s4.87.1,7.785,2.47a13.358,13.358,0,0,1,3.891,4.841s.657,7.713-1.329,10.157c-2.89,3.555-7.785,3.419-7.785,3.419l-.379,3.419,13.863.57s3.587.77,4.557-1.995.657-3.275-2.47-11.393S56.247,26.2,48.253,27c-9.74.973-17.537,6.677-18.611,13.863s2.7,15.562,3.8,16.521,6.173,2.183,6.173,2.183" transform="translate(55.821 51.097)"/><path class="h" d="M145.478,250.709h-.284c-11.046-.171-22.274-.093-33.7-.093-.877,0-2.229.191-2.565-.191-.075-.087-.1-.208-.188-.284-.2-.165-.484-.229-.666-.379-1.645-1.375-2.05-3.457-2.751-6.077-.469-1.737-1.037-3.477-1.427-4.937-2.51-9.427-4.893-18.09-7.4-27.722a17.184,17.184,0,0,0-.666-2.467,12.172,12.172,0,0,0-2.183,0c-4.595,0-9.126-.029-13.764,0-.043,0,.041.223-.287.1a2.012,2.012,0,0,1-.947-1.042,7.283,7.283,0,0,1,0-1.427V165.176a19.508,19.508,0,0,0,0-2.846,12.881,12.881,0,0,0-3.037-.1c-13.3.371-26.44.1-39.779.1a54.5,54.5,0,0,1-6.074,0,8.754,8.754,0,0,1-1.424-.478,15.6,15.6,0,0,1-3.99-1.613c-.307-.214-.686-.556-1.042-.854a17.339,17.339,0,0,1-2.658-2.945,18.881,18.881,0,0,1-3.7-11.295v-.57c.145-.741.1-1.723.191-2.565a27.686,27.686,0,0,1,2.183-7.687,16.558,16.558,0,0,1,.854-1.616c1.85-3.33,3.44-6.161,5.411-9.589.052-.09.226-.182.284-.284.675-1.181,1.341-2.473,1.995-3.608a22.288,22.288,0,0,0,1.138-1.992c.119-.269.252-.139,0-.287a5.942,5.942,0,0,0-1.613,0,5.847,5.847,0,0,1-3.608-.759,6.4,6.4,0,0,1-3.228-5.7,9.63,9.63,0,0,1,1.52-3.987c4.85-8.2,9.508-16.578,14.144-24.587,2.1-3.619,4.415-7.812,6.549-11.3a22.067,22.067,0,0,1,1.711-2.565A12.223,12.223,0,0,1,51.4,63.977c1.908-.411,5.235-.188,7.878-.188a13.73,13.73,0,0,0,2.849,0c.243-.153.371-1.384.472-1.807a7.761,7.761,0,0,0,.382-1.9,8.723,8.723,0,0,1-3.894-.57,7.426,7.426,0,0,1-2.751-1.708,6.9,6.9,0,0,1-.475-1.424c-.411-1.167-.912-2.276-1.329-3.416a25.07,25.07,0,0,1-1.523-4.844,19.7,19.7,0,0,1,0-5.979,17.892,17.892,0,0,1,7.5-11.489,20.674,20.674,0,0,1,8.923-3.8,12.5,12.5,0,0,1,9.589,2.846,20.07,20.07,0,0,1,3.133,3.231,27.869,27.869,0,0,1,2.467,3.888c.1.171.313.237.382.382.09.191.11.382.188.567.168.391.321.75.475,1.138.307.79.449,1.63.759,2.473,1.132,3.049,2.334,5.993,3.515,9.207a21.758,21.758,0,0,0,1.042,2.849c.11.191.3.292.379.475a4.6,4.6,0,0,1-.1,3.416,4.181,4.181,0,0,1-1.61,1.8c-.712.547-.877.779-1.711.854-3.222.29-8.026.191-11.96.191-.576,0-3.77-.226-4.082,0-.023.014-.113.524-.191.854-.252,1.089-.417,1.969-.663,2.753h9.682a11.465,11.465,0,0,1,2.945.093,7.9,7.9,0,0,1,4.745,4.369,14.257,14.257,0,0,1,.759,3.133c1.025,5.744,1.769,11.407,2.849,17.085.081.151.023.012.1-.093,1.3-1.92,2.38-4.051,3.509-5.982.426-.718.692-1.526,1.141-2.183a10.291,10.291,0,0,1,1.711-1.8,8.991,8.991,0,0,1,1.992-1.517c1.352-.625,3.706-.382,5.791-.382h23.637c3.182,0,6.32-.136,9.494,0a1.709,1.709,0,0,1,1.329.57,3.488,3.488,0,0,1,1.233,2.183c.038.918-.57,1.627-1.042,2.565-.42.834-.8,1.665-1.141,2.276-.877,1.581-1.836,3.083-2.562,4.366-3.4,6.008-6.662,11.6-10.061,17.47-1.138,1.966-2.51,4.517-3.8,6.454a13.466,13.466,0,0,1-1.424,2.09,6.722,6.722,0,0,1-2.279,1.329,10.393,10.393,0,0,1-3.324.284c-17.215,0-33.47-.078-50.5.1.628,1.98,1.118,3.79,1.708,5.886a16.109,16.109,0,0,0,.57,1.995,10.509,10.509,0,0,0,1.995-.287c1.995-.385,4.094-.834,5.7-1.138,6.789-1.3,12.777-2.342,19.367-3.608a27.44,27.44,0,0,1,3.894-.761,2.323,2.323,0,0,1,.284,0,30.378,30.378,0,0,1,12.435,3.891A19.376,19.376,0,0,1,115,124.448a18.88,18.88,0,0,1,1.138,1.52c.417.489.976.88,1.424,1.329,2.8,2.8,5.423,5.426,8.26,8.257,6.581,6.584,13.107,13.246,19.839,19.749.489.472,2,1.694,1.995,2.183a5.956,5.956,0,0,1-.663,1.045c-.165.223-.8.814-.761,1.042.009.055.689.611,1.141,1.045,3.558,3.431,6.827,6.83,10.252,10.252.712.715,1.535,1.349,2.371,2.186.35.35.686.759,1.141,1.138.4.33.828.64,1.233,1.045.874.872,1.81,2.134,2.374,2.18.359.035.431-.252.761-.567a23.743,23.743,0,0,1,4.363-3.416,21.874,21.874,0,0,1,1.995-1.141c.588-.272,1.456-.463,2.279-.759a16.721,16.721,0,0,1,2.371-.759c1.149-.237,4.595-.677,4.936.567.18.649-.452,1.427-.663,1.8-.489.877-.993,1.792-1.422,2.565-2.438,4.36-4.4,8.055-6.74,12.244-2.617,4.685-5.232,9.517-7.881,14.239a8.749,8.749,0,0,1-1.236,1.995c-.1.064-.232-.1-.281-.093-.02,0-.229.165-.287.188a5.763,5.763,0,0,1-3.04.57,15.352,15.352,0,0,1-5.122-1.708,15.618,15.618,0,0,1-2.09-1.9c-1.485-1.433-3.2-2.976-4.653-4.271-.553-.492-1.112-.982-1.708-1.52a16.406,16.406,0,0,0-1.995-1.613c-.1-.064-.11-.122-.191-.191-1.06-.886-1.975-1.853-2.939-2.751-2.281-2.116-4.389-3.987-6.74-6.173-1.462-1.355-3.22-3.214-4.844-4.841-.594-.594-1.393-1.607-1.613-1.613-.127-.006-.318.243-.475.379-.394.336-.706.57-1.045.854-1.85,1.549-3.4,2.713-5.223,3.99-.466.327-1.537.906-1.613,1.23a13.278,13.278,0,0,0,.382,1.424c1.792,6.662,3.361,12.4,5.125,18.987.258.961.724,2.872.475,3.228-.345.5-2.035.02-2.562.188,2.313,8.709,4.925,18.185,7.215,26.961a11.5,11.5,0,0,0,.663,2.183,6.35,6.35,0,0,0,.759.95,8.8,8.8,0,0,0,.953.854c2.14,1.682,4.986,2.033,7.591,3.231a12.428,12.428,0,0,1,3.7,2.467c.156.162.22.376.379.57.695.828,3.616,4.331,1.141,4.934M83.869,59.04c1.778,0,3.816.185,4.745-.379a3.786,3.786,0,0,0,1.613-3.04,7.844,7.844,0,0,0-.567-1.613c-1.514-4.117-2.808-7.7-4.273-11.674a36.833,36.833,0,0,0-2.753-6.268c-.263-.426-.649-.9-.95-1.329C79.589,31.767,76.422,28.411,72,28a15.35,15.35,0,0,0-2.282,0,16.027,16.027,0,0,0-5.7,1.8c-5.556,2.884-10.414,8.425-9.777,16.138a20.171,20.171,0,0,0,.379,3.228,20.2,20.2,0,0,0,.759,1.995c.515,1.367,1.031,2.669,1.52,3.987a9.1,9.1,0,0,0,.761,2.088,3.062,3.062,0,0,0,.663.475A8.776,8.776,0,0,0,60.7,58.849c.512.139,2.177.539,2.565.287.174-.113.269-1.152.379-1.616.446-1.85.828-3.393,1.233-4.934-2.423.521-4.858-1.141-5.128-3.04a2.941,2.941,0,0,1,2.377-3.324c.6-.081.973.237,1.326.191.038,0,.359-.194.57-.284.232-.1.484-.2.666-.284,2.887-1.384,4.216-4.641,4.175-8.544a7.478,7.478,0,0,1,0-2.374c.414-1.271,2.6-.446,3.8-.1a15.529,15.529,0,0,1,2.945,1.233,15.488,15.488,0,0,1,7.4,7.215c.226.469.588,1.407.379,1.616s-.741.078-.95,0c-.252-.1-.4-.689-.472-.284a12.612,12.612,0,0,1-1.236,7.308,8.88,8.88,0,0,1-.761,1.424,8.2,8.2,0,0,1-5.5,2.942c-.4.041-1.323-.2-1.613,0-.168.116-.206,1.092-.284,1.424-.151.622-.345,1.034-.382,1.329ZM70.194,36.923c.049.75-.327,2.826-.188,3.037-.009-.017.735.214.95.284a7.57,7.57,0,0,1,.95.379c.249.113,1.752.556,1.422,1.141-.072.127-.643.217-.947.188-.637-.061-2.05-1.242-2.661-.854.017-.012-.24.819-.284.95a6.3,6.3,0,0,1-1.141,2.279,8.789,8.789,0,0,1-3.6,2.753,3.462,3.462,0,0,1,.95.759c.208.214.866.724.663,1.141a1.39,1.39,0,0,1-.95.284c-.261-.046-.434-.327-.663-.567a4.141,4.141,0,0,0-1.332-1.141,1.581,1.581,0,0,0-2.276,1.233,2.9,2.9,0,0,0,2.276,2.849c.892.145,1.332-.272,1.9-.191.246.035.854.356.947.759a8.867,8.867,0,0,1-.379,1.711c-.854,3.584-1.61,6.639-2.47,10.252-.09.379-.263,1.572-.475,1.708-.324.208-.811-.142-1.23.1-.043-.122.145-.342.188-.57.087-.431.081-.362-.1-.475a9.716,9.716,0,0,0-2.183,0c-2.238,0-5.979-.009-7.12,0,5.313,1.21,7.875,3.376,11.39,6.645,2.137,1.983,4.69,4.4,7.027,6.552.342.316,2.012,2.2,2.374,2.183a5.714,5.714,0,0,1,.567-.57,20.353,20.353,0,0,0,3.99-4.366,12.709,12.709,0,0,0,2.279-8.828c-.012-.09-.29-1.618-.287-1.616a9.481,9.481,0,0,0-2.183,0H70.86c-.2.185-.122.64-.284.854-.232-.321-.935-.428-1.045-.95a6.239,6.239,0,0,1,.284-1.042c.605-2.583,1.3-5.582,1.8-7.785a8.134,8.134,0,0,1-2.279-.663,7.278,7.278,0,0,1-1.138-.382c-.261-.321-.321-.95,0-1.141a5.54,5.54,0,0,1,1.138.382,12.428,12.428,0,0,0,3.8,1.045,6.458,6.458,0,0,0,6.08-3.228c1.633-2.739,1.645-6.7.947-9.873-.081-.365-.2-1.459-.57-1.711a5.54,5.54,0,0,0-.663-.093c-.869.122-1.749,1.468-1.9,2.279a3.624,3.624,0,0,0,.287,2.279c.347.527,1.013.6,1.613.95.507.3,1.161.814,1.141,1.517A2.683,2.683,0,0,1,79.4,48.6c-.243.2-1.161.651-1.424.188-.156-.275.122-.567.284-.854.208-.362.5-.362.382-.854-.139-.565-1.647-.828-2.279-1.616a3.112,3.112,0,0,1-.666-1.9,4.308,4.308,0,0,1,2.849-4.271c-2.389-1.818-4.795-3.622-8.64-3.987-.058.006-.11.014-.1.1a2.935,2.935,0,0,1,.379,1.52M89.465,93.028a12.913,12.913,0,0,0,1.52-2.753,12.52,12.52,0,0,0-.379-2.562c-.889-5.1-1.812-10.545-2.658-15.38a19.39,19.39,0,0,0-.663-3.324,7.041,7.041,0,0,0-1.995-2.846c-.255-.2-.443-.515-.666-.666a5.6,5.6,0,0,0-3.416-.57c-.058.006-.113.014-.1.1a13.3,13.3,0,0,1,.379,4.554c-.232,3.02-2.284,6.506-4.082,8.448-.371.408-.851.761-1.329,1.236-.75.753-2.018,2.151-2.945,2.09-.139-.012-.116-.153-.376-.284s-.466-.038-.57-.1c-.211-.119-.318-.35-.57-.567-.834-.724-1.743-1.488-2.47-2.186-2.232-2.137-4.505-4.349-6.737-6.358-2.771-2.5-5.889-5.406-10.634-5.982a9.078,9.078,0,0,0-1.992-.188,5.356,5.356,0,0,0-1.616.854,11.585,11.585,0,0,0-3.987,4.366c-.756,1.23-1.529,2.493-2.183,3.7-1.393,2.571-2.9,5.067-4.273,7.406-3.034,5.174-5.692,9.9-8.541,14.809,3.4-.646,7.641.168,9.682,1.9a12.258,12.258,0,0,1,1.52,1.992c.979-1.488,1.65-2.942,2.467-4.366.113-.191.356-.362.475-.567.362-.625.631-1.343.95-1.9.122-.208.35-.35.475-.567.246-.426.414-.895.666-1.329,1.459-2.53,3.367-5.579,4.841-8.448.046-.093.226-.182.287-.284.414-.733,1.019-2.4,1.517-2.47a1.5,1.5,0,0,1,.947.666,2.747,2.747,0,0,1-.379.851c-.417.735-.617,1.045-.947,1.616C50.868,85.321,49.918,86.96,49.31,88c-2.814,4.795-5.8,9.795-8.448,14.618-.041.072.035.208,0,.287-.014.029-.165.061-.191.093a12.9,12.9,0,0,0-.759,1.236,30.589,30.589,0,0,0-1.616,2.846c-.133.307-.249.136,0,.287.405.237,2.5,0,3.515,0h7.212a19.708,19.708,0,0,0,3.608,0c.211-.081.585-.747.854-1.141,1.85-2.672,3.411-4.867,5.032-7.5a8.526,8.526,0,0,1,.761-1.329c.084-.078.278-.038.379-.1.13-.072.206-.243.284-.284.229-.116.547-.191.759-.284a12.564,12.564,0,0,1,10.918.759c.7.455.6.536,1.141.093a2.422,2.422,0,0,1,.567-.379c.217-.1.472-.119.666-.188A11.314,11.314,0,0,0,77.5,95.02a13.471,13.471,0,0,0,3.608-4.653A12.46,12.46,0,0,0,81.4,84.2a5.562,5.562,0,0,1-.287-1.9c.127-.733.828-1,1.329-1.8.423-.683.8-2.568,1.711-1.616.455.484-.226,1.326-.382,1.616A6.872,6.872,0,0,1,83.2,81.54c-.353.437-.686.405-.761.854a9.622,9.622,0,0,0,.284,1.045,20.843,20.843,0,0,1,.478,3.8,9.564,9.564,0,0,1-1.52,5.029c-.318.515-.79.993-.854,1.424a6.453,6.453,0,0,0,.188,1.424c.533,3.165,1.135,6.668,1.708,9.589,2.111-3.613,4.554-7.849,6.74-11.677m16.9-15.284a23.748,23.748,0,0,0-4.748.093,6.357,6.357,0,0,0-3.034,2.09,13.388,13.388,0,0,0-1.048,1.8c-1.21,2.1-2.562,4.378-3.7,6.358-.382.663-.715,1.236-1.045,1.8-.382.66-.715,1.228-1.045,1.807-.565.987-1.086,1.853-1.613,2.753-2.473,4.224-4.711,8.448-7.308,12.719-.165.263-.405.576-.57.854-.3.492-.3.8-.57.95a10.021,10.021,0,0,1-1.236.191c-.437.1-.869.194-1.23.284-4.175,1.06-7.629,2-11.584,3.324a9.314,9.314,0,0,0-3.419,1.8c-.235.246-.359.145-.093.287a18.991,18.991,0,0,0,3.416,0h48.039a16.531,16.531,0,0,0,3.416-.1,5.689,5.689,0,0,0,3.13-2.658c.449-.77.814-1.456,1.236-2.183,1.034-1.778,2.18-3.741,3.133-5.411,4.349-7.632,8.865-15.16,13.2-22.879.472-.843.984-1.329.759-2.47a2.608,2.608,0,0,0-.57-1.23c-.646-.455-2.739-.287-4.366-.287-4.919,0-10.608-.064-14.427.1-4.366.18-10.061,0-14.717,0M76.08,97.394c-.8.4-2.7.8-2.846,1.708-.029.18.162.316.191.475.174,1.054-.631,1.3-1.329,1.424-.345.058-.869-.116-1.141,0a5.678,5.678,0,0,0-.666.854c-.484.64-.029.53.475,1.233a7.454,7.454,0,0,1,.57,1.141c.779,1.584,1.381,4.641-.854,4.841-.631.055-.819-.249-1.236-.188a10.649,10.649,0,0,0-1.424.756,16.637,16.637,0,0,0-2.371,1.616c-.292.214-.761.4-.95.759-.093.177-.165.023-.1.287.177.643.466.431,1.045.191,2.177-.912,4.916-1.772,6.931-2.377,2.365-.709,5.4-1.358,7.878-1.992.75-.191.7-.258,1.045-.854.512-.9.284-1.089.1-2.183-.57-3.266-1.138-7.441-1.711-10.16,0-.055-.012-.11-.1-.093a14.5,14.5,0,0,1-3.512,2.562M60.608,109.358c1.63.663,3.845-.443,3.512-2.186-.116-.611-.712-.929-1.236-1.233-1.123-.66-2.235-1.1-3.321-1.616-.521-.243-1.511-.55-1.329-1.042.217-.585.947-.356,1.708,0,1.488.689,2.154,1.016,3.324,1.613a7.249,7.249,0,0,1,1.517.95c.272.284.5,1.17.761,1.233.214.055.895-.44,1.045-.759a2.064,2.064,0,0,0,.093-.475,2.035,2.035,0,0,0-.188-1.045,3.032,3.032,0,0,0-.761-.475c-.73-.391-1.042-.521-1.613-.854-.857-.5-1.4-.906-2.374-1.424-.481-.258-1.569-.533-1.422-1.138.174-.727,1.369-.1,2.088.284,1.126.6,2.1,1.291,3.037,1.8.368.2.8.275,1.141.475a7.8,7.8,0,0,1,.854.761c.168.136.353.174.475.284a10.809,10.809,0,0,1,1.326,2.183c.061.093.29.153.382.284.261.371.469,1.2.854.953.42-.281.252-1.558.188-1.9a6.442,6.442,0,0,0-.567-1.517,8.7,8.7,0,0,0-4.557-3.891,8.792,8.792,0,0,0-2.47-.761c-.321-.049-.77,0-1.517-.093-.4-.052-1.083-.107-1.141-.475-.142-.941,1.911-.423,2.658-.475,1.028-.075,1.7-.431,2.658-.478a7.638,7.638,0,0,1,3.7.761c.307.133,2.238,1.286,2.565.854.443-.591-1.21-1.645-1.807-1.992a11.345,11.345,0,0,0-7.783-.854,10.946,10.946,0,0,0-1.995.854,8.213,8.213,0,0,0-.854,1.23c-1.757,2.707-3.3,5.191-5.029,7.785-.127.188-.333.376-.478.573-.206.278-.313.573-.475.663a8.463,8.463,0,0,1-2.846.188H35.546c-.993,0-5.6.313-5.791-.379-.266-.964,2.438-.663,3.037-.663a29.4,29.4,0,0,0,3.8,0,6.194,6.194,0,0,0,.666-1.141c.261-.446.53-1,.663-1.233a9.361,9.361,0,0,0,1.329-2.467,4.274,4.274,0,0,0-1.138-2.753c-1.511-1.6-4.745-2.394-7.878-2.09a4.083,4.083,0,0,0-1.8.475,13.445,13.445,0,0,0-1.332,2.374c-.1.168-.3.33-.379.475-.394.683-.7,1.2-1.045,1.8-.437.773-.871,1.59-1.329,2.374a23.516,23.516,0,0,0-1.8,3.416,6.493,6.493,0,0,0-.472,3.228,3.867,3.867,0,0,0,.854,1.708A6.834,6.834,0,0,0,25.1,115.62c1.042.5,3.008.292,4.557.287,7.314-.032,15.119,0,22.879,0a19.119,19.119,0,0,0,3.7,0c.938-.269,1.6-1.59,1.995-2.565.263-.651.512-1.807.759-2.658a6.486,6.486,0,0,0,.287-.854c-.035-.269-.715-.741-.761-1.424-.032-.5.339-1.06.287-1.233-.075-.246-.594-.284-.761-.475s-.452-.683-.188-.95c.536-.541,1.841.678,2.374,1.045.437.3,1.254.68,1.708,1.045.02.014.475.333.379.567-.142.356-1.016.191-1.329.1-.57-.174-.565-.51-1.138-.475.116.889.214,1.109.759,1.332m6.74-9.117c.336.18,1.343,1.083,1.613,1.045.243-.032.738-.741.666-.95.02.058-.472-.191-.666-.284a5.483,5.483,0,0,0-3.512-.57,17.442,17.442,0,0,1,1.9.759m-.475,7.406a3.076,3.076,0,0,1-.57.287c-.255.078-.738.006-.854.093a2.741,2.741,0,0,0-.284.57,3.4,3.4,0,0,1-.287.663,4.769,4.769,0,0,1-3.416,1.236c-.24,0-.75-.229-.95-.1-.13.087-.194.8-.284,1.138a16.86,16.86,0,0,1-1.236,3.324c.012.107-.136.148,0,.188,3.136-2.435,5.721-5.417,9.685-7.024a7.441,7.441,0,0,0-.857-1.424,1.974,1.974,0,0,1-.947,1.045m-17.85,20.125a16.033,16.033,0,0,1,2.186-.379c4.757-.909,9.444-1.853,14.239-2.753,1.06-.2,1.242.006,1.045-.759-.55-2.148-1.051-3.608-1.616-5.7-.072-.278-.492-2.035-.567-2.09a8.777,8.777,0,0,0-1.329-.1c-.434-.061-1.016-.012-1.141-.284-.153-.339.53-.958.759-1.233.382-.449.892-.68.666-1.233-.084-.232-.327.049-.382.093-.808.68-1.558,1.309-2.276,1.9a5.8,5.8,0,0,1-4.082,1.8c-6.928-.2-14.908-.1-22.308-.1a17.116,17.116,0,0,0-3.419,0,4.271,4.271,0,0,0-.759,1.141c-1.694,2.939-3.486,6.063-5.032,8.732-1.054,1.821-1.911,3.434-2.846,5.032a18.966,18.966,0,0,0-1.427,2.47c-.1.246-.1.53-.188.759-.1.252-.278.423-.379.663a23.948,23.948,0,0,0-.95,15c1.4,4.5,4.546,8.541,8.735,9.969a11.632,11.632,0,0,0,1.9.57,9.759,9.759,0,0,0,4.369-.666c2.409-.68,4.731-1.419,7.024-2.087,22.071-6.445,44.113-12.9,65.79-19.271-.11.579.643.75.759.947a6.592,6.592,0,0,1,.379,1.427c3.6,13.871,7.487,27.9,11.106,41.579.165.1.263-.119.379-.188a69.051,69.051,0,0,0,8.735-6.931c.886-.788,1.772-1.645,2.562-2.374.3-.278.657-.481.95-.761.275-.258.486-.594.761-.851.292-.281.649-.486.947-.761,2.18-2.021,4.227-4.317,6.457-6.74.958-1.045,2.012-2.195,3.133-3.512.107-.124.159-.321.284-.475.261-.324.64-.588.854-.854.139-.168.139-.385.284-.567.449-.576,1.456-1.549,1.424-1.9a12.545,12.545,0,0,0-1.233-1.332c-2.4-2.4-4.3-4.346-6.549-6.549-.921-.9-1.922-1.728-2.753-2.562-4.372-4.375-8.851-8.949-13.1-13.2-.886-.886-1.867-1.676-2.753-2.562-1.72-1.723-3.373-3.593-5.22-5.319a25.4,25.4,0,0,0-12.531-5.883,13.229,13.229,0,0,0-2.279-.382,10.87,10.87,0,0,0-1.613.287c-17.256,3.257-34.26,6.546-51.264,9.777.8-.591,1.372-1.468,2.276-1.8m57.15,13.1C100.4,142.422,94.683,144.333,88.9,146q-26.253,7.561-52.214,15.287H75.8a15.7,15.7,0,0,0,2.658,0c.191-.119.145-.009.191-.284.113-.68,0-1.074.663-1.048.773.035.663,1.494.663,2.377v9.3c0,3.949-.1,9.03-.093,11.584.017,8.121-.006,15.826,0,24.112,12.059-.217,25.916.307,37.309-.1,1.28-.043,2.606.093,3.894,0,.481-.035,1.181-.321,1.514-.188.093.035.049.165.1.188.446.226,1.126.029,1.613.1a31.188,31.188,0,0,0-1.045-3.987c-.385-1.39-.66-2.858-1.042-4.271-3.77-13.813-7.369-27.647-11.2-41.487-1.529-5.53-2.947-11.428-4.554-16.709-.029-.116-.139-.038-.287,0m39.02,20.03c-.272.362-.654.689-.95,1.048-1.59,1.9-3.194,3.651-4.844,5.408-2.982,3.182-6.092,6.066-9.3,9.019-.365.336-1.045.869-1.045,1.042a16.83,16.83,0,0,0,1.424,1.616c.614.637,1.21,1.106,1.616,1.52,1.213,1.239,1.917,2.111,3.037,3.133.269.246.591.411.854.663,1.471,1.416,2.493,2.409,3.987,3.8.272.252,1.451,1.439,1.708,1.422s.732-.808.95-1.042c1.775-1.943,3.341-3.584,4.936-5.316,2.832-3.069,5.967-6.483,8.923-9.685.2-.211.967-.941.95-1.138,0,.012-1.054-1.06-1.138-1.141-.142-.127-.365-.182-.478-.284-1.5-1.361-2.481-2.742-3.8-3.891-.284-.249-.637-.371-.95-.666-.226-.217-.371-.544-.568-.759-.7-.761-1.462-1.558-2.09-2.183-.443-.446-.955-.863-1.422-1.329-.362-.362-1.233-1.561-1.711-1.424-.136.038-.023.093-.093.188m17.372,16.518c-.061-.064-.035-.22-.1-.284s-.22-.032-.287-.093c-.281-.29-.541-.788-.759-.761-.07.009-.724.976-.851,1.138-1.705,2.189-3.5,4.334-5.035,6.173A87.7,87.7,0,0,1,147,192.421c-.029.023-1.167,1.1-1.141.95-.055.321.741.776,1.141,1.141,1.671,1.523,3.188,2.976,4.745,4.366,1.025.915,2.056,1.812,3.04,2.658a7.811,7.811,0,0,0,2.559,1.424c1.52.6,3.758,1.089,5.223.191a6.321,6.321,0,0,0,1.422-1.995c.162-.278.258-.533.379-.761,1.59-2.907,3.315-6.083,4.844-8.828,3.4-6.109,6.969-12.369,10.348-18.51.014-.026.336-.62.379-.761.069-.223.069-.061-.1-.188a5.628,5.628,0,0,0-2.088-.1,12.539,12.539,0,0,0-3.608.947c-.229.067-.55.02-.761.1a12.493,12.493,0,0,0-1.8,1.042c-.617.365-1.254.663-1.8,1.045a29.856,29.856,0,0,0-7.027,7.311,24.532,24.532,0,0,1-1.708,2.371c-.029.032-.165.269-.191.284-.345.237-1.048.373-1.233.191-.382-.382,1.054-2.577,1.233-2.846,1.028-1.543,2.215-2.742,3.133-4.082a2.505,2.505,0,0,1-1.422-.953m-4.082-3.984c-.09-.069-.258.252-.287.284-.886,1.1-2.03,2.088-2.942,3.037-1.705,1.778-3.115,3.332-4.936,5.316-1.393,1.511-2.481,2.643-3.891,4.178-.843.918-1.914,2.186-2.849,3.228-.339.379-.979.918-.95,1.141,0,0,.362.292.57.475.417.365,1.477,1.569,1.8,1.517-.049.006.941-1.037.95-1.045.614-.567.947-.915,1.329-1.233a28.5,28.5,0,0,0,2.088-1.995c.663-.686,1.462-1.453,1.995-2.088.573-.692,1.164-1.265,1.708-1.9,2.655-3.092,4.832-6.124,7.4-9.019-.475-.318-1.4-1.468-1.992-1.9M98.012,211.5c1.5,5.573,2.855,10.973,4.366,16.613.078.292.753,2.748.759,2.753a16.105,16.105,0,0,0,3.037,0c7.276,0,14.757.075,21.55-.1-1.841-6.3-3.451-12.962-5.22-19.462a11.655,11.655,0,0,0-.854-2.753,13.757,13.757,0,0,0-3.037,0H97.346a10.379,10.379,0,0,0,.666,2.945m30.378,21.929c-.055-.211-.356-1.5-.379-1.52a15.884,15.884,0,0,0-3.04,0H103.516a28.1,28.1,0,0,0,.761,3.037,15.891,15.891,0,0,0,3.037,0h21.454a13.625,13.625,0,0,0-.379-1.517m-21.55,11.3a14.842,14.842,0,0,0,.854,2.753,4.414,4.414,0,0,0,2.088,1.9,8.282,8.282,0,0,0,1.8,0c11.066-.087,22.7.159,33.322.1a10.185,10.185,0,0,0-7.024-6.454,23.667,23.667,0,0,1-4.936-1.807,20.935,20.935,0,0,1-2.09-1.613c-.075-.061-.122-.208-.188-.284a5.962,5.962,0,0,1-1.141-1.424c-.145-.339-.194-1.627-.475-1.8a14.309,14.309,0,0,0-3.034,0H104.657c.533,2.351,1.451,5.947,2.183,8.64" transform="translate(32.103 50.677)"/><path class="h" d="M38.34,32.328c.761-.486,1.158.767,1.424,1.424.191.469.544,1.089.475,1.23a1.152,1.152,0,0,1-1.329.191,21.726,21.726,0,0,1-.857-2.183,1.116,1.116,0,0,1,.287-.663" transform="translate(72.122 61.063)"/><path class="h" d="M35.775,32.782c.837-.321,1.126.915,1.424,1.708.2.53.489.926.379,1.138-.127.243-.819.379-1.138.287A4.533,4.533,0,0,1,35.3,33.448a.652.652,0,0,1,.472-.666" transform="translate(66.904 62.033)"/><path class="h" d="M32.875,34.467c.359-.226,1.271.125,2.09.475.657.281,1.459.721,1.326,1.042a3.65,3.65,0,0,1-.854.287c-.188,0-2.774-.915-2.846-1.233a.444.444,0,0,1,.284-.57" transform="translate(61.734 65.189)"/><path class="h" d="M37.162,34.851c.573-.263,1.022.486,1.616.567.388.055,1-.24,1.424-.191.4.049.84.33.854.475.043.547-1.566.773-2.47.666-.979-.116-2.551-1-1.424-1.517" transform="translate(69.692 65.946)"/><path class="h" d="M49.7,79.176c.2.087.035.536.287.57-.3.394-.547-.385-.287-.57" transform="translate(93.988 150.062)"/><path class="f" d="M14.493,65.32a3.8,3.8,0,0,1,0-7.6H274.071a3.8,3.8,0,0,1,0,7.6Z" transform="translate(20.274 109.402)"/><path d="M274.539,58.9a3.086,3.086,0,0,1,0,6.173H14.961a3.086,3.086,0,0,1,0-6.173Zm0-1.424H14.961a4.511,4.511,0,1,0,0,9.022H274.539a4.511,4.511,0,0,0,0-9.022" transform="translate(19.806 108.938)"/><path class="d" d="M.189,104.231h0Z" transform="translate(0.358 197.549)"/></g></g></g></svg>