<svg xmlns="http://www.w3.org/2000/svg" xmlns:xlink="http://www.w3.org/1999/xlink" width="395" height="225" viewBox="0 0 395 225"><defs><style>.a,.d,.i{fill:#fff;}.a{stroke:#707070;}.b{fill:none;}.c{clip-path:url(#a);}.d,.k,.l,.m,.n{fill-rule:evenodd;}.e{fill:#e0e0e0;}.f{fill:#ebebeb;}.g{fill:#fafafa;}.h{clip-path:url(#b);}.j,.l{fill:#6c33eb;}.m,.o{fill:#f5f5f5;}.n{fill:#d6d6d6;}.p{clip-path:url(#c);}</style><clipPath id="a"><rect class="a" width="395" height="225" transform="translate(33 701)"/></clipPath><clipPath id="b"><rect class="b" width="56.354" height="50.451"/></clipPath><clipPath id="c"><rect class="b" width="53.313" height="53.485"/></clipPath></defs><g class="c" transform="translate(-33 -701)"><path class="d" d="M1649.47,1221.914s1.345.525,1.312,1.454-.638,4.007-.638,4.007l-1.489.993Z" transform="translate(-1272.698 -352.597)"/><path class="e" d="M105.73,80.985s-.011-.509-.016-1.48-.009-2.414-.017-4.288c-.008-3.757-.021-9.261-.037-16.279-.018-14.026-.044-34.1-.075-58.314l.145.145L4.737.8H4.728L4.9.624C4.9,29.636,4.89,57.054,4.885,80.985l-.157-.157,72.962.078,20.667.042,5.477.019,1.412.009c.318,0,.484.009.484.009s-.154.006-.466.009L103.87,81l-5.447.019-20.632.042-73.063.078H4.572v-.157C4.566,57.054,4.56,29.636,4.553.624V.449h.184L105.73.479h.145V.624c-.031,24.254-.057,44.358-.075,58.4-.016,7-.029,12.5-.038,16.247-.007,1.863-.013,3.292-.016,4.261s-.016,1.449-.016,1.449" transform="translate(299.404 698.857)"/><rect class="e" width="3.652" height="40.788" transform="translate(317.189 714.375)"/><rect class="f" width="3.652" height="26.935" transform="translate(324.24 728.228)"/><rect class="e" width="3.652" height="35.925" transform="translate(331.291 719.444)"/><rect class="f" width="3.652" height="39.213" transform="translate(338.341 715.95)"/><rect class="e" width="3.652" height="26.105" transform="translate(345.392 729.057)"/><rect class="f" width="3.652" height="20.986" transform="translate(352.443 734.176)"/><rect class="e" width="3.652" height="36.601" transform="translate(359.494 718.561)"/><rect class="f" width="3.652" height="30.002" transform="translate(366.544 725.16)"/><rect class="e" width="3.652" height="35.276" transform="translate(373.595 719.887)"/><rect class="f" width="3.652" height="24.032" transform="translate(380.646 731.13)"/><rect class="e" width="3.652" height="28.606" transform="translate(387.697 726.557)"/><path class="e" d="M99.051,87.728c0,.083-17.324.15-38.688.15s-38.692-.067-38.692-.15,17.32-.15,38.692-.15,38.688.067,38.688.15" transform="translate(293.789 670.275)"/><path class="e" d="M29.351,92.5a12.394,12.394,0,0,1-2.71.15,12.4,12.4,0,0,1-2.711-.15,12.4,12.4,0,0,1,2.711-.15,12.393,12.393,0,0,1,2.71.15" transform="translate(293.048 668.708)"/><path class="e" d="M42.213,92.749a17.643,17.643,0,0,1-3.239.15,17.647,17.647,0,0,1-3.239-.15,17.649,17.649,0,0,1,3.239-.15,17.644,17.644,0,0,1,3.239.15" transform="translate(289.175 668.628)"/><path class="e" d="M53.625,92.749a17.643,17.643,0,0,1-3.239.15,17.647,17.647,0,0,1-3.239-.15,17.649,17.649,0,0,1,3.239-.15,17.644,17.644,0,0,1,3.239.15" transform="translate(285.432 668.628)"/><path class="e" d="M65.036,92.749a17.643,17.643,0,0,1-3.239.15,17.647,17.647,0,0,1-3.239-.15A17.649,17.649,0,0,1,61.8,92.6a17.644,17.644,0,0,1,3.239.15" transform="translate(281.688 668.628)"/><path class="e" d="M76.448,92.749a17.643,17.643,0,0,1-3.239.15,17.647,17.647,0,0,1-3.239-.15,17.649,17.649,0,0,1,3.239-.15,17.644,17.644,0,0,1,3.239.15" transform="translate(277.945 668.628)"/><path class="e" d="M87.86,92.749a17.643,17.643,0,0,1-3.239.15,17.647,17.647,0,0,1-3.239-.15,17.649,17.649,0,0,1,3.239-.15,17.644,17.644,0,0,1,3.239.15" transform="translate(274.201 668.628)"/><path class="e" d="M99.271,92.749a17.643,17.643,0,0,1-3.239.15,17.647,17.647,0,0,1-3.239-.15,17.649,17.649,0,0,1,3.239-.15,17.644,17.644,0,0,1,3.239.15" transform="translate(270.458 668.628)"/><path class="e" d="M110.683,92.749a17.643,17.643,0,0,1-3.239.15,17.647,17.647,0,0,1-3.239-.15,17.648,17.648,0,0,1,3.239-.15,17.644,17.644,0,0,1,3.239.15" transform="translate(266.714 668.628)"/><path class="e" d="M122.1,92.749a17.643,17.643,0,0,1-3.239.15,17.647,17.647,0,0,1-3.24-.15,17.649,17.649,0,0,1,3.24-.15,17.644,17.644,0,0,1,3.239.15" transform="translate(262.97 668.628)"/><path class="e" d="M133.507,92.749a17.643,17.643,0,0,1-3.239.15,17.647,17.647,0,0,1-3.239-.15,17.648,17.648,0,0,1,3.239-.15,17.644,17.644,0,0,1,3.239.15" transform="translate(259.227 668.628)"/><rect class="b" width="107.102" height="80.995" transform="translate(300.898 699.005)"/><rect class="g" width="56.077" height="50.17" transform="translate(231.071 729.698)"/><g class="h" transform="translate(230.921 729.549)"><path class="e" d="M56.227,50.32s-.009-.322-.014-.931S56.2,47.873,56.2,46.7c-.007-2.355-.019-5.8-.033-10.184C56.149,27.751,56.127,15.225,56.1.15l.127.127L.155.3H.15L.3.15C.293,18.4.287,35.578.282,50.32L.15,50.188l40.559.067,11.439.035,3.029.015.781.008c.176,0,.269.007.269.007s-.083.005-.254.007l-.767.008-3,.015-11.41.035L.15,50.451H.018V50.32C.013,35.578.007,18.4,0,.15V0H.155L56.227.023h.127V.15c-.027,15.108-.05,27.662-.066,36.446-.014,4.373-.025,7.807-.033,10.156-.007,1.161-.012,2.053-.014,2.663s-.014.9-.014.9" transform="translate(0 0)"/><path class="e" d="M24.887,12.47c0,.082-2.951.15-6.592.15s-6.592-.067-6.592-.15,2.951-.15,6.592-.15,6.592.067,6.592.15" transform="translate(-3.235 -3.406)"/><path class="e" d="M48.925,17.676c0,.082-8.109.15-18.109.15S12.7,17.758,12.7,17.676s8.107-.15,18.111-.15,18.109.067,18.109.15" transform="translate(-3.512 -4.845)"/><rect class="e" width="2.362" height="2.362" transform="translate(8.564 19.212)"/><rect class="e" width="2.362" height="2.362" transform="translate(14.38 19.212)"/><rect class="e" width="2.362" height="2.362" transform="translate(20.302 19.105)"/><rect class="e" width="2.362" height="2.362" transform="translate(26.01 19.212)"/><rect class="e" width="2.362" height="2.362" transform="translate(31.826 19.212)"/><rect class="e" width="2.362" height="2.362" transform="translate(37.642 19.212)"/><rect class="f" width="2.362" height="2.362" transform="translate(43.457 19.212)"/><rect class="f" width="2.362" height="2.362" transform="translate(8.564 24.234)"/><rect class="e" width="2.362" height="2.362" transform="translate(14.38 24.234)"/><rect class="f" width="2.362" height="2.362" transform="translate(20.195 24.234)"/><rect class="e" width="2.362" height="2.362" transform="translate(26.01 24.234)"/><rect class="e" width="2.362" height="2.362" transform="translate(31.826 24.234)"/><rect class="e" width="2.362" height="2.362" transform="translate(37.749 24.127)"/><rect class="e" width="2.362" height="2.362" transform="translate(43.457 24.234)"/><rect class="e" width="2.362" height="2.362" transform="translate(8.564 29.257)"/><rect class="e" width="2.362" height="2.362" transform="translate(14.487 29.15)"/><rect class="e" width="2.362" height="2.362" transform="translate(20.195 29.257)"/><rect class="f" width="2.362" height="2.362" transform="translate(26.01 29.257)"/><rect class="e" width="2.362" height="2.362" transform="translate(31.826 29.257)"/><rect class="e" width="2.362" height="2.362" transform="translate(37.642 29.257)"/><rect class="e" width="2.362" height="2.362" transform="translate(43.457 29.257)"/><rect class="e" width="2.362" height="2.362" transform="translate(8.564 34.279)"/><rect class="e" width="2.362" height="2.362" transform="translate(14.38 34.279)"/><rect class="e" width="2.362" height="2.362" transform="translate(20.195 34.279)"/><rect class="e" width="2.362" height="2.362" transform="translate(26.118 34.172)"/><rect class="e" width="2.362" height="2.362" transform="translate(31.826 34.279)"/><rect class="f" width="2.362" height="2.362" transform="translate(37.642 34.279)"/><rect class="e" width="2.362" height="2.362" transform="translate(43.457 34.279)"/><rect class="e" width="2.362" height="2.362" transform="translate(8.564 39.302)"/><rect class="f" width="2.362" height="2.362" transform="translate(14.38 39.302)"/><rect class="e" width="2.362" height="2.362" transform="translate(20.195 39.302)"/><rect class="e" width="2.362" height="2.362" transform="translate(26.01 39.302)"/><rect class="e" width="2.362" height="2.362" transform="translate(31.826 39.302)"/><rect class="e" width="2.362" height="2.362" transform="translate(37.749 39.195)"/><rect class="e" width="2.362" height="2.362" transform="translate(43.457 39.302)"/></g><path class="i" d="M0,0H452.872V44.111H0Z" transform="translate(40.977 908.615)"/><path d="M1.96,1.96V42.15H450.912V1.96H1.96M0,0H452.872V44.111H0Z" transform="translate(40.977 908.615)"/><path class="j" d="M61.124,60.373a1.244,1.244,0,0,1-1.192-.893,32.015,32.015,0,0,1-1-4.638l-.01-.072a1.238,1.238,0,0,1-.017-.4,1.25,1.25,0,0,1,2.49.131,29.652,29.652,0,0,0,.924,4.278,1.244,1.244,0,0,1-1.194,1.593" transform="translate(126.892 745.591)"/><path class="j" d="M81.777,77.744a24.166,24.166,0,0,1-7.4-1.1,1.243,1.243,0,1,1,.762-2.367,21.655,21.655,0,0,0,6.636.977c.233,0,.457,0,.685-.009a8.967,8.967,0,0,0,1.452-.15,1.243,1.243,0,1,1,.46,2.442,11.606,11.606,0,0,1-1.851.2c-.247.005-.493.008-.735.008Zm7.577-2.88a1.243,1.243,0,0,1-.838-2.162,23.39,23.39,0,0,0,5.017-7.432,1.244,1.244,0,1,1,2.25,1.06,25.77,25.77,0,0,1-5.592,8.21,1.237,1.237,0,0,1-.837.324M69.424,74a1.246,1.246,0,0,1-.734-.24,22.426,22.426,0,0,1-6.46-7.63,1.243,1.243,0,0,1,2.193-1.172,19.916,19.916,0,0,0,5.736,6.8A1.243,1.243,0,0,1,69.424,74m100.8-.184a1.245,1.245,0,0,1-.367-.055,13.528,13.528,0,0,1-7.657-5.8c-.122-.192-.237-.393-.345-.606a1.243,1.243,0,1,1,2.213-1.131q.111.215.232.407a11.112,11.112,0,0,0,6.291,4.754,1.243,1.243,0,0,1-.367,2.43M161.5,62.221a1.244,1.244,0,0,1-1.232-1.091c-.364-2.965-.493-6.541-.572-9.646a1.243,1.243,0,1,1,2.486-.062c.076,3.045.2,6.545.555,9.4a1.244,1.244,0,0,1-1.083,1.386,1.294,1.294,0,0,1-.153.009M96.94,61.47A1.243,1.243,0,0,1,95.773,59.8c1.121-3.079,2.156-6.43,2.932-9.005a1.243,1.243,0,1,1,2.381.717c-.786,2.607-1.835,6-2.977,9.139a1.244,1.244,0,0,1-1.168.818m63.876-14.8a1.243,1.243,0,0,1-1.242-1.219c-.069-3.519-.146-6.481-.3-9.5a1.242,1.242,0,1,1,2.482-.126c.154,3.053.234,6.037.3,9.579a1.244,1.244,0,0,1-1.218,1.267h-.025m-59.2-.049a1.244,1.244,0,0,1-1.193-1.6c.822-2.77,1.785-5.991,2.817-9.154a1.243,1.243,0,1,1,2.363.771c-1.022,3.133-1.979,6.335-2.8,9.09a1.243,1.243,0,0,1-1.191.89M106.392,31.8a1.242,1.242,0,0,1-1.165-1.674A93.168,93.168,0,0,1,109,21.23a1.242,1.242,0,1,1,2.23,1.1,91.218,91.218,0,0,0-3.667,8.659,1.245,1.245,0,0,1-1.166.812m53.7-.679a1.242,1.242,0,0,1-1.235-1.127,77.377,77.377,0,0,0-1.383-9.281,1.243,1.243,0,0,1,2.429-.532,79.651,79.651,0,0,1,1.427,9.58,1.243,1.243,0,0,1-1.119,1.354c-.04,0-.079.005-.119.005M113.021,17.758a1.243,1.243,0,0,1-1.052-1.9,40.745,40.745,0,0,1,6.085-7.669,1.242,1.242,0,0,1,1.73,1.784,38.349,38.349,0,0,0-5.707,7.2,1.241,1.241,0,0,1-1.055.584M157.039,15.9a1.245,1.245,0,0,1-1.167-.818,22.948,22.948,0,0,0-4.475-7.76,1.243,1.243,0,1,1,1.825-1.687,25.392,25.392,0,0,1,4.985,8.595,1.245,1.245,0,0,1-1.168,1.67M123.609,6.61a1.242,1.242,0,0,1-.663-2.294A27.561,27.561,0,0,1,132.1.643a1.243,1.243,0,0,1,.5,2.435,25.1,25.1,0,0,0-8.332,3.341,1.244,1.244,0,0,1-.662.191m23.93-2.433A1.224,1.224,0,0,1,147,4.055a16.192,16.192,0,0,0-5.884-1.481c-.838-.058-1.674-.088-2.488-.088l-.322,0A1.243,1.243,0,0,1,138.29,0l.337,0c.878,0,1.773.031,2.667.094a18.664,18.664,0,0,1,6.782,1.718,1.243,1.243,0,0,1-.536,2.365" transform="translate(126.942 744.748)"/><path class="j" d="M174.637,73.417a1.243,1.243,0,0,1-.053-2.485,20.589,20.589,0,0,0,4.368-.643,1.243,1.243,0,0,1,.7,2.386,22.7,22.7,0,0,1-4.959.741h-.055" transform="translate(128.703 745.859)"/><path class="d" d="M51.636,64.1a22.943,22.943,0,0,0-2.486-4.972c-1.289-1.648-3.624-4.072-1.74-5.219s4.186-.3,6.794,3.4c5.153,7.3,3.315,12.429,3.315,12.429s1.152.244,2.238,3.315,1.657,4.557,1.657,4.557S63.889,87.167,67.3,92.94s6.214,10.027,6.214,10.027,13.221-11.5,18.147-15.082,13.5-9.988,20.384-9.695a82.083,82.083,0,0,1,10.937,1.079l3.4-2.238-.414-2.071s-6.921,2.017-10.688-4.31-1.74-15.578-1.74-15.578l.414-6.793s-1.188-4.178-1.906-5.967-1.475-5.221,0-4.475,2.486,1.326,2.486,1.326.607-5.9,1.906-5.3.839,2.446,3.977,2.236,20.908-4.5,26.6,2.155,6.9,14.8,5.551,19.473c-2.842,9.838-12.843,12.924-12.843,12.924a7.046,7.046,0,0,0-.331,5.221,20.506,20.506,0,0,0,2.817,4.972s18.423.308,26.267,4.391,14.6,17.662,19.638,31.321,10.375,27.1,10.192,30.575-1.733,8.532-11.021,9.943c-12.549,1.907-63.057.746-63.057.746s-18.393-2.247-22.7-5.551-3.262-4.024-5.3-5.055-6.275-2.334-5.717-5.054,3.5-1.139,5.3.082.829.167.829.167l.33-5.3s-1.948-1.249-1.988-2.155a13.564,13.564,0,0,1,.249-2.4s-1.992.054-2.321-.994a3.853,3.853,0,0,1,.5-2.486s-3.2,1.032-2.9-.746.364-3.827,2.568-3.728,5.883.661,5.883.661l.166-8.7S86.279,128.1,76.495,130.724s-17.08-6.624-24.776-24.36S39.952,81.506,39.952,81.506s-5.591-6.755-3.811-9.281,2.569-1.243,2.569-1.243-.239-3.851,2.9-5.138a23.638,23.638,0,0,1,5.551-1.574Z" transform="translate(126.527 745.283)"/><path class="k" d="M135.545,56.312a24.5,24.5,0,0,1,7.376,3.646,26.042,26.042,0,0,1,4.971,4.639s8.5-11.665,1.242-22.7-17.574-7.244-20.3-7.043-8.872,2.411-10.358,1.739-1.854-2.293-2.9-1.988-1.409,4.723-1.409,4.723l-3.15-.994a8.476,8.476,0,0,0,.25,3.978,27.374,27.374,0,0,0,1.74,4.391l2.9-2.734.58,1.574,4.225-1.9.581,1.988,5.552.331-.83,2.651s6.225-1.011,7.789,1.907a15.7,15.7,0,0,1,1.739,5.8" transform="translate(127.715 745.287)"/><path class="l" d="M122.825,86.361l4.391-3.316,2.071,6.133-2.237,1.575-1.906,28.089-3.315,4.806-3.977,1.408-4.227-8.2,10.689-26.764Z" transform="translate(127.758 746.062)"/><path class="l" d="M109.119,129.282s.6-26.849,3.729-36.043a33.51,33.51,0,0,1,10.523-14.666s-16.9-3.12-25.6,3.562-23.2,20.136-23.2,20.136-4.491-5.535-5.8-7.54a48.637,48.637,0,0,1-2.9-5.718S64.644,97.476,59.9,98.79s-12.263-2.238-12.263-2.238,4.521,9.188,7.54,15.992S68.03,130.019,74.4,129.53s24.94-14.085,24.94-14.085l-.828,8.617Z" transform="translate(126.714 745.979)"/><path class="l" d="M131.248,136.774s-.02-24.587,2.319-35.878c2.856-13.778,12.015-20.052,12.015-20.052s24.894,1.714,28.669,7.623,9.518,21.852,14.831,32.565,9.518,24.638,7.127,29.828-8.349,5.647-12.677,6.214-47.562.5-47.562.5,7.235-7.566,5.551-12.429a15.132,15.132,0,0,0-5.883-7.374l-4.475-.167Z" transform="translate(128.035 746.027)"/><path class="k" d="M140.3,72.341a14.576,14.576,0,0,0,2.319,7.042c4.635.608,9.1,1.347,13.753,2.072,4.595.715,9.143,1.215,13.009,2.734,7.311,2.873,11.23,9.565,14.5,16.984,3.184,7.229,5.761,15.386,8.615,22.949,1.383,3.66,2.949,7.458,4.226,11.516,1.243,3.954,2.734,8.411,2.4,13.338a8.791,8.791,0,0,1-3.727,6.877c-5.144,3.527-14.926,3.562-23.779,3.562-8.873,0-18.176.167-27.092.167a255.213,255.213,0,0,1-26.014-1.243,45.215,45.215,0,0,1-11.434-2.237,26.83,26.83,0,0,1-8.366-5.22c.08,1.03.263,2.5.413,4.143.114,1.25.668,3.492-.911,3.48-1.669-.384-1.343-2.858-1.491-4.557-.164-1.862-.411-3.81-.5-5.468-1.51-1.438-5.316-1.542-6.464-3.728-.953-1.818-.335-4.218,1.327-4.806,1.707-.6,3.267.312,4.639.747-.081-1.015.376-1.9.166-2.651-.121-.43-1.059-1.043-1.325-1.575a4.117,4.117,0,0,1-.414-2.735c-1.313-.581-2.753-1.421-2.321-3.479-3.814-.3-2.318-4.508.083-5.716a9.074,9.074,0,0,1,5.717-.332c.3-1.829.483-3.77.746-5.634-5.592,4.52-11.166,9.227-18.725,11.765-4.088,1.372-9.187,1.6-12.675-.331-3.216-1.786-5.5-4.612-7.623-7.705-4.154-6.043-7.43-13.011-10.605-20.051-3.218-7.136-6.982-13.734-9.527-21.043-2.963-1.285-6.456-7.769-2.981-10.771a4.964,4.964,0,0,1,2.319-1.077,7.1,7.1,0,0,1,2.65-4.226c2.319-1.58,5.945-1.728,9.445-2.155-.666-3.162-5.063-3.722-4.8-7.622a2.542,2.542,0,0,1,2.32-2.651c1.862-.168,3.77,1.119,4.971,2.155,3.431,2.958,5.391,7.687,5.883,13.5a15.359,15.359,0,0,0,0,1.575c.066.343.585.828.828,1.242a34.257,34.257,0,0,1,1.657,4.474c.135.333.43.6.58.911.515,1.054.8,2.293,1.242,3.4a143.294,143.294,0,0,0,10.853,21.625c7.1-5.195,13-11.891,19.968-17.151,6.709-5.064,15.422-7.865,27.589-6.876,1.387.113,2.532.633,2.982-.663.47-.165,1.009-.3.663-.91-.264-.465-1.276,0-2.238,0-5.647.017-8.931-3.555-10.522-7.457a20.175,20.175,0,0,1-.579-11.6c.268-1.236.4-2.88,1.657-2.817,1.781.088.753,2.172.413,3.977-1.365,7.273.874,13.564,6.463,15.161,4.135,1.181,7.015-.566,9.445-2.4.841-.637,1.777-1.689,2.568-1.575a1.207,1.207,0,0,1,.911.994c.122,1.226-1.973,2.321-2.651,2.816a15.2,15.2,0,0,1-3.4,1.989c.268,1.085.462,2.245.663,3.4a13.1,13.1,0,0,0,10.025-5.137c-.254-2.313-.73-3.934,0-5.3,1.094-2.053,4.3-2.043,5.467-4.225,1.252-2.345-.378-4.481-3.148-3.315a7.105,7.105,0,0,0-1.988,1.326c-.55.5-1.2,1.358-1.907,1.325-1.254-.058-.982-1.333-.91-2.568.189-3.27.152-7.586-1.657-9.362-2.2-2.162-8.939.35-7.954-4.06-2.056.035-4.522-.147-4.971-1.988-1.276.441-3.29,1.732-4.639.58a5.378,5.378,0,0,0-1.078,2.651c-.2,1.041-.21,2.366-1.159,2.485-1.759.222-1.395-2.405-.912-3.728a30.3,30.3,0,0,1-2.237-4.8c-.561-1.505-1.547-4.529.083-5.3a3.373,3.373,0,0,1,2.817.331c.635-1.575.5-4.291,2.238-4.556,1.96-.3,2.223,2.007,3.561,2.4,1.419.419,3.549-.323,4.888-.58,4.627-.884,9.891-1.758,15.162-.746a17.076,17.076,0,0,1,12.428,9.86c2.558,5.283,2.855,12.9-.083,18.145-2.648,4.724-7.033,7.737-11.847,10.439M114.946,40.278c-1.039.086-1.4-.808-2.4-.994a37.423,37.423,0,0,0,1.823,5.137c.655-.309,1.307-1.717,2.485-1.657.692.035.951.568,1.409,1.077,1.213-.405,3.529-1.87,4.639-.662.33.36.241.92.581,1.408,1.655.991,5.484-1.094,5.633,1.077.061.878-.689,1.135-.828,1.989,2.98.246,5.506.291,7.125,1.74,2.226,1.992,2.548,5.528,2.569,9.776,3.125-2.388,8.436-1.331,8.45,2.9.011,3.21-2.287,4.983-4.39,5.965-.722.336-1.939.577-1.989,1.74,6.291-3.782,12.517-7.911,11.931-18.228C151.5,43.186,145.532,36.234,136.9,35.8a41.34,41.34,0,0,0-8.285.5c-2.386.359-4.793,1.168-7.457,1.326a5.385,5.385,0,0,1-4.473-1.821c-.667,1.44-.071,4.334-1.741,4.474M51.982,56.683c-.908-.862-2.671-2.268-3.895-1.741a2.233,2.233,0,0,0,.662,2.486,19.951,19.951,0,0,1,3.066,3.4,12.86,12.86,0,0,1,1.077,2.154,5.886,5.886,0,0,1,.664,2.652c-.083.465-.466.556-.5.911a6.205,6.205,0,0,1,2.155.662c.677.3,1.356.789,1.74.747a17.648,17.648,0,0,0-4.97-11.267M45.85,66.542c-3.453,2.695-2.869,10.877,2.9,9.859a10.89,10.89,0,0,1,1.16-3.066c-2.993.844-6.709-.565-5.468-3.4.984-2.244,4.4-3.73,7.54-3.563-.273-.333-.339-.875-.664-1.16-2.186.077-4.016.192-5.467,1.327M43.779,77.395c-1.883-1.584-2.938-5.373-1.988-8.533.216-.723.657-1.3.58-1.741-2.819,2.209-2.015,9.349,1.408,10.274m1.656,12.511c4.872,2.169,11.174,1.176,14.086-2.071,1.519-1.7,2.037-4.753,1.49-7.623a31.367,31.367,0,0,0-1.325-3.149c-.362-1.12-.485-2.132-.83-3.065a8,8,0,0,0-6.378-5.551,5.943,5.943,0,0,0-6.214,2.569,3.418,3.418,0,0,0,2.485.5c1.543-.16,4.429-2.266,4.641-.167.076.767-1.206,2.273-1.658,3.066a6.437,6.437,0,0,0-1.078,3.728c.194,1.5,1.415,2.424,2.4,3.231.763.624,1.687,1.051,1.658,1.823-.081,2.114-2.9-.061-3.48-.581a10.114,10.114,0,0,1-2.651-3.895c-1.383-.111-1.887.373-2.981.663-.637,1.406-2.466,1.621-3.977,2.155a67.921,67.921,0,0,0,3.809,8.368M41.709,79.134c-.228-.485-.875-.791-1.244-1.242a10.029,10.029,0,0,1-2.07-5.882c-.051-.005-.1-.013-.083-.082-.005-.051-.012-.1-.083-.083-2.671,1.795.079,7.757,3.481,7.29m94.944,6.712c.646-.671,1.466-1.4,2.237-2.319.647-.77,1.724-2.023,1.657-2.983a9.871,9.871,0,0,0-.993-1.988c-.421-.87-.732-1.875-.994-2.32a14.875,14.875,0,0,1-8.2,4.308c-1.983.355-4.735.9-4.888-.993a26.557,26.557,0,0,0-4.475,8.367c1.139-.865,2.164-1.635,3.4-2.65.7-.576,2.446-2.584,3.562-2.487,1.17.1,1.834,2.553,2.319,3.562.706,1.467,1.373,2.577,1.906,3.977,1.472-1,2.772-2.7,4.474-4.474M114.946,79.8c-10.619.494-16.693,3.952-22.617,9.03-5.658,4.85-10.918,10.119-16.818,14.83.737.849,1.212,1.837,2.071,3.066.5.716,2.1,2.178,1.987,3.23a1.214,1.214,0,0,1-1.159,1c-.7-.02-1.5-1.257-1.9-1.822A147.54,147.54,0,0,1,66.479,92.638c-1.192,5.187-5.274,9.13-11.93,8.618a12.6,12.6,0,0,1-4.226-1.244c2.561,5.586,4.6,10.518,7.7,15.908,2.671,4.632,6.006,10.537,11.02,12.594,4.021,1.648,8.866.18,12.179-1.243a57.135,57.135,0,0,0,15.162-10.025c.788-.686,2.179-1.742,2.485-2.567a23.256,23.256,0,0,0,.662-4.226c.424-3.091.767-5.512,1.243-8.617.218-1.42.219-3.454,1.575-3.4,1.675.072.887,2.442.662,3.895-1.155,7.486-2.231,15.12-3.149,22.453a65.377,65.377,0,0,1,7.043,3.232c.373.217.711.7,1.16.579,1.459-18.951.895-39.923,12.842-48.384.153-.019.706-.313.331-.331a38.072,38.072,0,0,0-6.3-.082M112.378,104.4c-1.074,8.184-1.743,17.284-2.154,25.932a57.125,57.125,0,0,0,4.722,3.562c.652.514,1.5,1.05,2.4,1.74.782.6,1.568,1.645,2.321,1.821a13.456,13.456,0,0,0,2.981-.082c3.163-.048,6.08-.215,9.2-.249.065-16.69.5-33.7,5.717-45.319a32.632,32.632,0,0,1,6.047-8.865c.3-.328.932-.756.746-1.077-.575-.06-1.109-.159-1.657-.248-1.241,2.815-3.117,4.69-5.467,7.042-.757.756-1.535,1.6-2.487,2.569-.783.8-1.846,2.331-2.9,2.237-1.129-.1-1.168-1.647-1.822-2.155-1.156.459-.835,1.951-.912,2.982-.55,7.428-.959,14.774-1.49,22.121a21.1,21.1,0,0,1-.249,3.728A8.732,8.732,0,0,1,125.8,122.3c-.609.719-1.238,1.32-1.822,1.9-1.062,1.062-2.812,3-4.806,2.735-1.609-.217-2.517-2.658-3.23-4.143-.433-.9-.718-1.592-1.078-2.486a7.933,7.933,0,0,1-.911-2.651,14.982,14.982,0,0,1,1.242-3.48c2.656-6.9,5.246-13.509,7.954-20.38.4-1.025,1.341-2.569,1.326-3.4-.011-.6-.645-1.155-.579-1.74a21.262,21.262,0,0,0-2.4,1.9c-.632.518-1.662,1.756-2.651,1.658-1.883-.188-.56-3.249-.083-4.722.483-1.492,1.017-2.982,1.243-3.563-4.785,4.7-6.544,12.242-7.623,20.465m32.81-19.719c-.7.75-1.356,1.448-1.989,2.237-8.785,10.963-8.752,30.42-9.031,50.125,8.694-.281,17.516-.435,26.181-.746.328-2.267.61-4.413.911-6.545a11.761,11.761,0,0,0,.331-2.237,12.264,12.264,0,0,0-.911-2.238c-1.915-4.618-3.608-8.855-5.468-13.421-.363-.889-1.276-2.927.5-2.9,1.009.015,1.574,1.882,1.988,2.9.542,1.33,1,2.481,1.409,3.479,2.874,7.033,5.609,14.168,8.616,20.8,1.977-.017,3.615-.022,5.8-.082,1.22-.035,4.7-.755,4.64,1.076-.041,1.331-2.1,1.16-3.811,1.16-11.454,0-23.658.782-34.466.911,1.888,1.669,3.962,3.621,4.226,7.043.327,4.259-1.751,7.7-3.48,10.025-.263.353-.811.7-.662.994,9.842.21,19.718-.082,29.825-.082a138.082,138.082,0,0,0,14.582-.5c4.236-.468,9.027-1.4,11.1-3.977,2.55-3.169.977-9.9-.166-13.835-1.157-3.989-2.545-7.51-3.895-11.019-2.818-7.329-5.269-14.748-8.036-21.79-2.8-7.116-6.028-14.277-11.682-18.144-5.891-4.03-16.338-3.693-24.275-5.551-.783.732-1.549,1.583-2.236,2.32m-98.344,8.2a36.539,36.539,0,0,1,1.658,3.4c3.785,3.371,11.095,3.835,14.25-.58a10.689,10.689,0,0,0,1.326-2.983,9.891,9.891,0,0,0,.747-3.645c-.158-1.24-1.315-2.277-1.657-3.562-1.339,6.092-9.059,9.1-16.323,7.374m78.956-5.8c.38,1.056.489,2.383,1.326,2.982a5.337,5.337,0,0,0,1.988-.829,31.893,31.893,0,0,0-1.739-3.562c-.447.546-1.134.856-1.575,1.409m-9.527,30.571c.968,2.485,1.779,5.125,3.4,6.959a9.61,9.61,0,0,0,3.065-2.319c.7-.764,2.113-2.065,2.4-2.983a17.739,17.739,0,0,0,.249-3.314c.386-5.686.782-11.528,1.076-17.067a48.541,48.541,0,0,0,.332-6.628c-.254.06-.244-.143-.5-.083-3.414,8.406-6.611,17.03-10.025,25.435M91.831,127.85c1.862.123,2.471-1.01,3.562-1.657-1.756-.018-3.078.4-3.562,1.657M94.068,131a1.489,1.489,0,0,0,1.079.5,11.7,11.7,0,0,1,7.622-2.981c-3.176-1.547-7.944-.737-8.7,2.485m2.9,1.988a2.221,2.221,0,0,0-.331,2.486c2-2.052,4.771-3.828,8.781-3.065a5.618,5.618,0,0,0,2.982-.083c-2.808-1.833-9.252-1.917-11.432.662m65.7,3.315a18.414,18.414,0,0,0,2.486-.166c-.7-1.4-1.164-3.034-1.906-4.391-.135,1.577-.388,3.037-.58,4.557m-37.116,5.717c-.01,2-2.286.636-3.231.083-.854-.5-1.471-.865-2.155-1.327-2.056-1.389-3.048-2.635-4.806-3.4-1.377-1.743-4.325-2.9-7.538-2.651-3.051.238-6.5,1.676-6.463,4.557,1.5-.777,2.668-2.183,5.219-2.155a10.751,10.751,0,0,1,4.806,1.491c1.024.567,3.385,1.8,3.314,3.067a1.093,1.093,0,0,1-.993.993c-.785.067-1.2-.582-1.74-.993A9.74,9.74,0,0,0,106,139.448c2.354,3.389.87,8.607-3.812,7.209-3.537-1.056-6.453-4.45-10.356-4.556-.8,2.382,1.685,2.53,3.149,3.065a10.568,10.568,0,0,1,3.894,2.651,27.288,27.288,0,0,0,7.623,5.551c4.939,2.339,12.839,2.848,19.636,3.4a13.122,13.122,0,0,0,3.148.167c.431-.119,1.122-1.052,1.491-1.491a11.467,11.467,0,0,0,2.817-6.131,8.461,8.461,0,0,0-2.154-6.628c-.971-1.019-3.341-2.8-4.806-3.065a15.3,15.3,0,0,0-3.811.166c.787.825,2.74.826,2.735,2.237m-27.341-4.724c-.063,1.54-.183,3.022-.249,4.558.7.439,1.709.984,2.817,1.574.881.468,2.267,1.442,3.315,1.16,1.462-.4.482-3.3-.166-4.06-.888.25-1.433,1.37-2.735,1.327-1.46-.05-2.26-1.774-2.237-3.149a4.868,4.868,0,0,1,1.326-2.982c.136-.166.477-.355.331-.58a22.437,22.437,0,0,0-2.4,2.154m43.579,8.865c-.275-2.675-2.239-4.339-4.059-5.55a7.242,7.242,0,0,0-2.32-1.326,30.943,30.943,0,0,0-4.308.249,10.387,10.387,0,0,1,4.8,9.693,13.372,13.372,0,0,1-2.9,7.125c-.146.2-.6.421-.413.747,1.241.168,2.842-.027,4.059.166,2.381-2.641,5.648-6.152,5.137-11.1" transform="translate(126.511 745.267)"/><path class="k" d="M128.716,52.5c.386.83,2.177,1.777,1.822,3.315a1.137,1.137,0,0,1-1.326.746c-.812-.129-.947-1.031-1.491-1.74a4.8,4.8,0,0,0-1.657-1.492c-1.34-.531-3.187.292-3.231-1.242-.018-.649.454-1,1.078-1.16,2.295-.576,3.8.7,4.8,1.575" transform="translate(127.903 745.551)"/><path class="k" d="M115.707,63.271c.649.672,1.775,3.056,0,3.148-1.008.053-2.766-2.434-2.651-3.562.112-1.091,1.912-1.933,2.568-2.651a6.959,6.959,0,0,0,1.823-3.313,3.322,3.322,0,0,0-1.74-3.316c-.693-.333-4.326-.155-2.982-2.155.6-.891,3.086-.387,4.142.167a5.771,5.771,0,0,1,2.9,4.889c.027,3.533-2.171,4.6-4.059,6.793" transform="translate(127.739 745.554)"/><path class="k" d="M116.178,59.308a1.223,1.223,0,0,1-1.326.33c-1.2-.436-1.04-4.393.581-4.307,1.208.064,1.479,3.07.745,3.977" transform="translate(127.765 745.623)"/><path class="k" d="M125.3,55.494c1.5-.25,1.234,1.585,1.078,2.568-.126.792-.228,1.743-.912,1.906a1.226,1.226,0,0,1-1.491-.828,5.86,5.86,0,0,1,.747-3.48,1.464,1.464,0,0,1,.579-.166" transform="translate(127.921 745.625)"/><path class="k" d="M138.864,60.959c.453-.1,1.255-.119,1.409.746.173.981-.816,1.616-1.327,2.155-.642.677-1.141,1.542-1.988,1.49a1.02,1.02,0,0,1-.994-1.159c.017-.759,2.235-3.08,2.9-3.231" transform="translate(128.111 745.711)"/><path class="k" d="M124.625,65.853c1-.293,1.54.252,1.575.911.058,1.109-2.14,2.254-3.315,2.4-1.631.207-3.382-.035-3.314-1.326.077-1.446,2.078-.744,3.149-.994.9-.21,1.2-.717,1.9-.994" transform="translate(127.852 745.789)"/><path class="m" d="M22.389,148.275h98.963a1.406,1.406,0,0,1,1.4,1.407l-.646,3.764c-.575,1.91-1.891,3.515-3.793,3.515H25.478c-1.9,0-3.4-1.6-4.005-3.585l-.49-3.694a1.406,1.406,0,0,1,1.406-1.407" transform="translate(126.292 747.094)"/><path d="M118.332,157.928H25.493c-2.194,0-4.123-1.672-4.916-4.258a.873.873,0,0,1-.035-.154l-.489-3.695a.862.862,0,0,1-.009-.125,2.362,2.362,0,0,1,2.359-2.36h98.963a2.362,2.362,0,0,1,2.359,2.36.953.953,0,0,1-.014.161l-.646,3.764a1.08,1.08,0,0,1-.026.114c-.78,2.586-2.582,4.193-4.706,4.193m-95.911-4.744c.428,1.326,1.476,2.837,3.072,2.837h92.84c1.833,0,2.639-2.061,2.865-2.782l.619-3.6a.454.454,0,0,0-.449-.4H22.4a.454.454,0,0,0-.45.407Z" transform="translate(126.278 747.079)"/><path class="m" d="M5.062,105.193l62.89.019a6.043,6.043,0,0,1,5.155,3.506L88.8,146.968c.793,1.935-1.92,5.541-3.973,5.54l-62.9-.018a6.043,6.043,0,0,1-5.154-3.508L1.08,110.719c-.793-1.936,1.929-5.526,3.982-5.526" transform="translate(125.975 746.412)"/><path d="M84.837,153.475l-62.9-.018a6.984,6.984,0,0,1-6.036-4.1L.212,111.095a4.553,4.553,0,0,1,.843-4.137c.837-1.246,2.391-2.7,4.021-2.7l62.891.019a6.985,6.985,0,0,1,6.037,4.1l15.686,38.25a4.577,4.577,0,0,1-.848,4.159c-.834,1.243-2.383,2.7-4.005,2.7M5.076,106.161a3.865,3.865,0,0,0-2.438,1.859,2.986,2.986,0,0,0-.662,2.353l15.689,38.264a5.1,5.1,0,0,0,4.273,2.914l62.9.018v0a3.853,3.853,0,0,0,2.423-1.851,3.016,3.016,0,0,0,.667-2.375l-15.686-38.25a5.1,5.1,0,0,0-4.274-2.913Z" transform="translate(125.96 746.397)"/><path class="n" d="M38.864,127.779c-3.434.046-5.025,2.514-3.556,5.516a10.564,10.564,0,0,0,8.876,5.351c3.432-.046,5.025-2.513,3.556-5.515a10.565,10.565,0,0,0-8.876-5.352" transform="translate(126.51 746.77)"/><path class="i" d="M12.043,55.33a.953.953,0,0,1-.452-1.793L35.453,40.7a.953.953,0,0,1,.9,1.678L12.493,55.216a.946.946,0,0,1-.45.114" transform="translate(126.136 745.39)"/><path class="i" d="M72.247,55.728a.942.942,0,0,1-.449-.114L47.925,42.8a.953.953,0,0,1,.9-1.679L72.7,53.935a.953.953,0,0,1-.451,1.793" transform="translate(126.71 745.396)"/><path class="b" d="M0,0H251.6V160.509H0Z" transform="translate(125.96 744.748)"/><g transform="translate(33 897.538)"><path class="i" d="M6.857,49.152H460.963c3.637,0,6.594,2.574,6.594,5.746s-2.957,5.742-6.594,5.742H6.857c-3.646,0-6.6-2.573-6.6-5.742s2.953-5.746,6.6-5.746" transform="translate(0.617 -48.277)"/><path d="M461.271,62.132H7.78C3.489,62.132,0,59.165,0,55.515s3.489-6.621,7.78-6.621H461.271c4.282,0,7.78,2.971,7.78,6.621s-3.5,6.617-7.78,6.617M7.78,50.919c-2.976,0-5.4,2.06-5.4,4.6s2.423,4.6,5.4,4.6H461.271c2.976,0,5.4-2.064,5.4-4.6s-2.423-4.6-5.4-4.6Z" transform="translate(0 -48.894)"/></g><path class="o" d="M3.122,37.706V63.745H83.2V37.706Z" transform="translate(356.643 833.362)"/><path class="e" d="M41.439,30.941H0v7.28H86.237v-7.28Z" transform="translate(356.406 832.847)"/><path class="e" d="M38.508,30.941v6.606L40.189,64.26H80.508V38.221h2.8v-7.28Z" transform="translate(359.336 832.847)"/><rect class="e" width="16.24" height="3.919" transform="translate(370.965 875.268)"/><rect class="i" width="20.853" height="8.277" transform="translate(368.874 884.087)"/><path class="o" d="M9.958,6.765V32.8H90.036V6.765Z" transform="translate(357.163 831.007)"/><rect class="e" width="86.239" height="7.28" transform="translate(363.761 830.493)"/><path class="e" d="M45.344,0V6.607l1.681,26.712H87.343V7.28h2.8V0Z" transform="translate(359.856 830.493)"/><rect class="e" width="16.24" height="3.919" transform="translate(378.321 841.972)"/><rect class="i" width="20.853" height="8.277" transform="translate(376.231 850.791)"/><path class="e" d="M78.292,8.737l-.552-1.93,1.11.053.1,1.782Z" transform="translate(335.277 773.777)"/><path class="e" d="M71.706,9.951,70.444,16.8l-3.19,9.047,17.975-2.593-7.254-7.9L74.945,9.484Z" transform="translate(340.253 772.507)"/><g class="p" transform="translate(372.169 777.007)"><path class="e" d="M8.429,96.38c0-.1-.014-.189-.014-.285a5.7,5.7,0,0,1,11.41,0c0,.1-.01.19-.015.285Z" transform="translate(-3.993 -42.895)"/><path class="e" d="M12.24,64.392a.226.226,0,0,1-.219-.169l-7.56-28.81A.227.227,0,0,1,4.9,35.3L12.46,64.108a.226.226,0,0,1-.161.276.221.221,0,0,1-.058.007" transform="translate(-2.114 -16.671)"/><path class="e" d="M8.44,65.748a.226.226,0,0,1-.219-.169L.662,36.769a.227.227,0,1,1,.438-.115L8.66,65.465a.226.226,0,0,1-.161.276.221.221,0,0,1-.058.007" transform="translate(-0.311 -17.314)"/><path class="e" d="M0,34.814a1.426,1.426,0,1,0,1.426-1.426A1.426,1.426,0,0,0,0,34.814" transform="translate(0 -15.845)"/><path class="e" d="M2.727,19.43l-.257-.373L29.258.578l15.67,8.913-.224.394L29.281,1.112Z" transform="translate(-1.172 -0.274)"/><rect class="e" width="32.086" height="0.453" transform="translate(2.727 19.787) rotate(-34.703)"/><path class="e" d="M51.845,1.284A1.284,1.284,0,1,0,53.129,0a1.284,1.284,0,0,0-1.284,1.284" transform="translate(-24.603 0)"/></g></g></svg>