<svg xmlns="http://www.w3.org/2000/svg" xmlns:xlink="http://www.w3.org/1999/xlink" width="400" height="349" viewBox="0 0 400 349"><defs><style>.a{fill:#ff8585;opacity:0.47;}.b{clip-path:url(#a);}.c,.d,.e,.g,.h,.i{fill-rule:evenodd;}.d,.f{fill:#fff;}.e{fill:#1a1a1a;}.g{fill:#6433d1;}.h{fill:#212121;}.i{fill:#1b1b1b;}</style><clipPath id="a"><rect class="a" width="400" height="349" transform="translate(4359 2087)"/></clipPath></defs><g class="b" transform="translate(-4359 -2087)"><g transform="translate(4423 2112.002)"><path d="M37.21,12.987H24.97a.6.6,0,0,1,0-1.2H37.21a.6.6,0,0,1,0,1.2" transform="translate(44.389 21.461)"/><path d="M28.252,13H21.844a.6.6,0,0,1,0-1.2h6.408a.6.6,0,1,1,0,1.2" transform="translate(38.7 21.488)"/><path d="M31.609,14.095h-3.62a.6.6,0,0,1,0-1.2h3.62a.6.6,0,0,1,0,1.2" transform="translate(49.888 23.479)"/><path d="M37.26,14.095H21.8a.6.6,0,0,1,0-1.2H37.26a.6.6,0,0,1,0,1.2" transform="translate(38.622 23.479)"/><path d="M42.834,11.992h-21a.6.6,0,0,1,0-1.2h21a.6.6,0,0,1,0,1.2" transform="translate(38.674 19.649)"/><path d="M14.441,13.042H11.49a.6.6,0,1,1,0-1.2h2.951a.6.6,0,1,1,0,1.2" transform="translate(19.835 21.567)"/><path d="M16.352,13.042H7.868a.6.6,0,1,1,0-1.2h8.484a.6.6,0,1,1,0,1.2" transform="translate(13.232 21.567)"/><path d="M20.876,14.152H7.962a.6.6,0,0,1,0-1.2H20.876a.6.6,0,0,1,0,1.2" transform="translate(13.408 23.583)"/><path d="M20.816,12.049H7.941a.6.6,0,0,1,0-1.2H20.816a.6.6,0,0,1,0,1.2" transform="translate(13.37 19.753)"/><path d="M71.7,64.436c-3.767,0-6-6.317-8.16-12.432-1.25-3.541-2.807-7.948-4.021-8.019-1.016-.062-1.7.609-2.7,1.707-1.2,1.312-2.7,2.929-5.527,2.539-2.4-.341-3.284-4.94-4.4-10.767-1.253-6.518-2.692-13.93-6.286-13.611-3.8.316-7.014,11.472-9.593,20.431-2.655,9.229-4.269,14.449-6.554,14.536-2.379.09-2.74-1.256-3.849-5.24-.618-2.218-1.462-5.259-3-9.6a18.9,18.9,0,0,0-13.1-12.121.6.6,0,0,1,.226-1.182,20.14,20.14,0,0,1,14.009,12.9c1.546,4.376,2.4,7.44,3.022,9.678,1.148,4.125,1.309,4.4,2.644,4.356,1.526-.056,3.7-7.6,5.443-13.667,2.963-10.279,6.021-20.91,10.648-21.3,4.72-.367,6.221,7.57,7.567,14.584.866,4.489,1.845,9.582,3.394,9.8,2.206.308,3.307-.889,4.469-2.158.985-1.078,1.972-2.2,3.66-2.1,2.015.116,3.369,3.959,5.087,8.82,1.831,5.183,4.108,11.63,7.028,11.63,2.356-.037,4.105-10.341,5.51-18.616C79.3,32.355,80.79,24.909,83.93,24.9c2.884,0,3.772,4.537,4.715,9.336.81,4.122,1.761,8.795,3.846,8.713,3.152-.13,4.653-6.995,6.1-13.628,1.2-5.485,2.438-11.151,4.732-14.5a15.251,15.251,0,0,1,8.967-6.506.6.6,0,0,1,.7.48.6.6,0,0,1-.48.7,14.32,14.32,0,0,0-8.2,6c-2.161,3.16-3.375,8.713-4.548,14.082-1.622,7.406-3.152,14.409-7.232,14.57-3.084.1-4.083-4.639-5.076-9.681C86.7,30.543,85.824,26.1,83.939,26.1c-2.362.008-4.122,10.38-5.539,18.715-2.065,12.172-3.544,19.567-6.647,19.618Z" transform="translate(7.326 15.12)"/><path d="M109.768,76.336H4.5a.6.6,0,0,1-.6-.6V10.9a.6.6,0,1,1,1.2,0V75.131H109.768a.6.6,0,0,1,0,1.2" transform="translate(7.102 18.758)"/><path class="c" d="M120.532,6.02a7.942,7.942,0,0,1,7.94,7.94V84.21a7.938,7.938,0,0,1-7.94,7.94H9.142A7.936,7.936,0,0,1,1.2,84.21V13.96A7.94,7.94,0,0,1,9.142,6.02Zm0-1.2H9.142A9.152,9.152,0,0,0,0,13.96V84.21a9.153,9.153,0,0,0,9.142,9.145H120.532a9.153,9.153,0,0,0,9.142-9.145V13.96a9.152,9.152,0,0,0-9.142-9.142" transform="translate(0 8.776)"/><path class="d" d="M155.8,101.971l-5.773-28.066a23.866,23.866,0,0,0,.722-5.776c-.192-2.094-2.649-2.889-2.649-2.889a64.453,64.453,0,0,0-3.129-8.1c-1.47-2.793-9.379-5.209-9.379-5.209s-.209-9.813-1.526-20.854-5.657-17.208-9.621-22.211-14.077-4.181-20.851-1.044-9.114,15.5-8.741,16.359S97.9,25.225,97.9,25.225L96.456,43.833a7.783,7.783,0,0,0-2.81,1.6c-1.538,1.3-4.571,9.226-4.571,9.226l-7.7,24.779L76.4,58.584a22.01,22.01,0,0,0,1.766-4.89,9.152,9.152,0,0,0-.965-5.132s-.46-11.749-.719-13.792-2.223,1.687-2.807,4.009A38.4,38.4,0,0,0,73.2,46a10.244,10.244,0,0,0-3.527-.883c-1.521.023-5.217,2.813-6.413,4.17s3.126,5.773,3.126,5.773a16.527,16.527,0,0,0-.322,2.489c-.045,1.225,1.6,3.606,1.6,3.606L73.76,96.6s-.872,2.144,2.565,3.77,6.614-.564,9.3-3.77,9.7-18.684,9.7-18.684-21,91.3-23.015,100.8,4.252,18.769,4.252,18.769L105.756,247.6a12.8,12.8,0,0,0-3.448,2.489c-1.744,1.738,4.65,8.182,4.65,8.182a7.642,7.642,0,0,0,.643,1.763c.474.925,2.4.64,2.4.64s.906,16.164.8,18.125-9.619,4.983-12.993,6.013-4.088,4.811-4.088,4.811,32.789-.017,33.762-.24.719-3.606.719-3.606a6.972,6.972,0,0,0,4.252-.8c1.484-.776,2.635-2.579,5.051-4.41,6.154-4.667,5.776-7.539,5.776-7.539l-9.545-15.157a32.488,32.488,0,0,0-.158-6.173c-.423-2.221-2.889-1.123-2.889-1.123s4.675-87.729,2.568-106.095a256.225,256.225,0,0,0-5.936-32.8s10.5,2.235,13.476,2,2.965-4.729,2.965-4.729,4.466,1.682,8.5.638,3.53-7.618,3.53-7.618M99.7,187.22l4.811-19.246,1.526,32.636Z" transform="translate(114.839 9.64)"/><path class="e" d="M74.911,44.264a7.809,7.809,0,0,1,6.176-.719c3.121,1.154,8.623,3.973,9.463,1.442s.48-8.019.48-8.019-.245,1.487-2.8.4A13.131,13.131,0,0,1,84.535,35.2s-2.785-.539-3.126-1.526a1.934,1.934,0,0,1,.559-1.842,10.022,10.022,0,0,0-1.041-3.208A29.7,29.7,0,0,1,79.4,25.1l2.085-.48.722-3.129.962,2.807H84.3s.793-7.841.8-7.3,1.447,7.22,1.447,7.22l6.653.48L94.96,58.62l6.9-.164v-15.4s.3,4.461,1.766,5.3,11.385,3.527,11.385,3.527-.8-26.965-6.092-35.365S100.84,5.429,96.566,5.372,82.517,5.293,78.759,11.3a33.174,33.174,0,0,0-4.328,13.239l2.8.237Z" transform="translate(135.577 9.765)"/><path class="e" d="M65.947,60.016s3.631,2.418,6.656.965a6.976,6.976,0,0,0,3.318-4.275,8.654,8.654,0,0,0,.293-1.182L81.5,37.4s4.3-17.045,9.624-18.281,5.934.561,5.934.561-2.556,8.371,1.924,13.233c6.944,7.531,13.233,7.057,13.233,7.057l-3.688,20.369s-3.4.358-3.691,2.085.559,2.085.559,2.085-1.23.387-1.12,1.363.4,1.2.4,1.2-1.447.415-1.287,1.605a2.571,2.571,0,0,0,1.2,1.763s-1.287,1.371-.722,2.167a4.978,4.978,0,0,0,2.091,1.281l-1.126,6.337a2.2,2.2,0,0,0,1.2,3.448c2.765,1.177,16.04,3.287,16.04,3.287a29.079,29.079,0,0,0,1.2,6.574c1.072,3.479,2.647,11.63,2.647,11.63L81.183,93.135l8.9-39.775s-6.171,14.534-8.261,17.965S73.8,79.247,70.357,75.576s-4.41-15.561-4.41-15.561" transform="translate(120.124 34.031)"/><path class="e" d="M86.44,31.735,105.2,35.1s-.934-7.192-3.77-9.139-7.948-4.306-8.019-4.012-1.436,4.461-2.807,6.094a29.738,29.738,0,0,1-4.167,3.691" transform="translate(157.452 39.937)"/><path class="e" d="M95.732,40.157h-.319a27.423,27.423,0,0,1-3.849-.48c-5.714-1.134-10.138-3.645-12.829-7.7a12.522,12.522,0,0,1-2.246-6.013,28.779,28.779,0,0,1,.243-5.773c.031-.262-.071-.621.079-.883a.707.707,0,0,1,.722-.319c.708.186.364,2.226.319,3.29-.051,1.23-.056,2.971,0,3.764A11.358,11.358,0,0,0,79.694,31.1c2.6,4.263,7.232,6.9,12.911,7.779a17.251,17.251,0,0,0,11.388-1.927c2.692-1.608,4.67-4.509,6.171-7.694a5.282,5.282,0,0,0,.324-.643c.04-.15-.1-.237-.082-.4.048-.392.985-1.332,1.524-.965.336.231.229.756,0,1.287a7.626,7.626,0,0,1-.722,1.12c-.245.423-.451.852-.641,1.2a18.956,18.956,0,0,1-3.849,5.372c-.152.127-.387.181-.564.322s-.3.35-.477.48a17.729,17.729,0,0,1-9.946,3.126" transform="translate(139.227 34.562)"/><path class="f" d="M109.946,78.108a3.164,3.164,0,0,1-.539-.048L82.095,73.089a3.006,3.006,0,0,1-2.421-3.5l7.7-42.19a3,3,0,0,1,2.957-2.466,2.956,2.956,0,0,1,.542.051l27.312,4.972a3,3,0,0,1,2.418,3.5l-7.7,42.187a3.007,3.007,0,0,1-2.96,2.469" transform="translate(145.037 45.418)"/><path class="c" d="M90.719,25.924a2.539,2.539,0,0,1,.435.039l27.309,4.972a2.4,2.4,0,0,1,1.938,2.793l-7.7,42.193a2.412,2.412,0,0,1-2.367,1.975,2.566,2.566,0,0,1-.435-.04L82.59,72.882a2.4,2.4,0,0,1-1.933-2.8l7.7-42.19a2.406,2.406,0,0,1,2.364-1.972m0-1.2a3.606,3.606,0,0,0-3.549,2.96l-7.7,42.187a3.61,3.61,0,0,0,2.9,4.2l27.312,4.972a3.528,3.528,0,0,0,.646.059,3.607,3.607,0,0,0,3.549-2.963l7.7-42.187a3.608,3.608,0,0,0-2.9-4.2L91.367,24.781a3.559,3.559,0,0,0-.649-.059" transform="translate(144.65 45.032)"/><path class="f" d="M83.346,34.275a1.1,1.1,0,0,0-1.05-.765c-.779.062-1.969,2.39-1.969,2.39s-.547,2.511-.547,2.593.164,8.053.164,8.053l3.411,1,3.9-2.373s-2.943-8.126-3.476-10.637c-.065-.293-.457-.13-.432-.262" transform="translate(145.321 61.036)"/><path class="e" d="M101.7,53.139l4.012-23.416,5.931,28.551s.3,6.732-4.647,6.975a18.861,18.861,0,0,1-5.7-.319,103.865,103.865,0,0,1-13.952-4.9,6.811,6.811,0,0,0,3.527-3.688c.773-2.5-.8-6.094-.8-6.094Z" transform="translate(159.108 54.141)"/><path class="c" d="M74.121,25.129v-.316a24.483,24.483,0,0,0,.4-2.731,25.369,25.369,0,0,1,2.325-7.054c1.377-2.869,2.858-5.186,5.612-6.817a25.207,25.207,0,0,1,9.621-2.8,21.245,21.245,0,0,1,5.694,0c3.976.657,6.171,2.774,8.419,5.209a21.908,21.908,0,0,1,3.129,4.334,42.648,42.648,0,0,1,4.007,10.823,85.993,85.993,0,0,1,1.526,13.309c.229,3.9.488,8.137.8,12.107.042.584.2,1.476,0,1.608l-1.126-.085a4.766,4.766,0,0,1-.24-1.6c-.042-.567-.051-1.467-.079-1.842-.265-3.741-.618-7.11-.8-10.586a79.689,79.689,0,0,0-1.605-13.631,42.5,42.5,0,0,0-1.921-5.691,24.757,24.757,0,0,0-3.851-7.057c-.068-.079-.1-.251-.158-.322-.282-.339-.655-.638-.962-.962-.508-.533-.892-1.024-1.366-1.445A13.965,13.965,0,0,0,99.54,6.848c-2.359-.945-6.453-.705-9.461-.161a18.4,18.4,0,0,0-7.7,2.886,16,16,0,0,0-4.732,6.817A25.317,25.317,0,0,0,75.805,23.2c-.065.46-.161,2.091-.719,2.246-.15.045-.855-.116-.965-.322" transform="translate(135.013 9.497)"/><path class="c" d="M80.815,62.409c.384,1.329.818,2.342.4,3.846-1.182,4.258-2.4,8.58-3.527,12.908a18.523,18.523,0,0,0-.564,2.41,15.841,15.841,0,0,0,.082,4.17c-.037.3-.322-.079-.322-.082a4.713,4.713,0,0,1-.237-.48,4.882,4.882,0,0,1-.807-1.927,5.9,5.9,0,0,1-.155-1.123A9.3,9.3,0,0,1,76,80.85c.082-.42.135-.866.24-1.284.976-3.928,2.167-8.154,3.208-12.1.471-1.8.892-3.476,1.363-5.053" transform="translate(137.861 113.679)"/><path class="c" d="M94.178,92.736v5.369c-.127,1.679-.158,3.634-.243,5.454-.079,1.738-.11,3.524-.161,5.29-.293,10.657-.813,20.984-1.281,31.674-.15,3.386-.319,6.885-.559,10.426-.234,3.422-.339,6.93-.564,10.423-.367,5.716-.677,12.175-1.041,18.12a13.575,13.575,0,0,1-.24,2.565c-.333.268-1.016-.2-1.445.085.705-11.7,1.416-23.687,2.006-35.763.578-11.884,1.225-24.025,1.6-36.163.189-6.049.415-12.361.322-18.52a148.567,148.567,0,0,0-1.445-17.482c-1.114-8.3-2.618-16.145-4.41-23.9-.274-1.185-.7-2.728-.883-3.846a16.866,16.866,0,0,1-.24-2.088,2.91,2.91,0,0,1,.079-1.123,1.527,1.527,0,0,1,.883-.319c.643.169.646,2.534.8,3.448.291,1.7.674,2.379.88,3.448.085.415.085.779.164,1.2.071.389.231.782.319,1.2,1.287,6,2.5,11.771,3.448,17.962a206.59,206.59,0,0,1,2.006,22.533" transform="translate(155.887 78.212)"/><path class="c" d="M69.787,60.2v-.161c2.824-2.59,4.4-6.509,5.454-10.984.13-.576.384-1.3.559-2.167a3.574,3.574,0,0,1,.243-1.12c.2-.372.491-.717.88-.564.477.189.248,1.352.082,2.164C76.042,52,74.725,55.985,72.273,59c-.708.872-1.332,1.885-2.486,1.2" transform="translate(127.118 82.278)"/><path class="c" d="M82.45,48.137c.454-.11.6-.034.8.561a10.9,10.9,0,0,1,.161,1.123c.3,2.212.649,4.613,1.041,6.416a20.627,20.627,0,0,0,1.2,3.846,7.028,7.028,0,0,0,2.726,3.287c.2.147.358.356.561.485a10.778,10.778,0,0,0,1.445.64,9.593,9.593,0,0,0,3.767,1.041c.183.008.435-.014.48,0s.683.2.564.643c-.166.609-1.868.243-2.649.079a11.5,11.5,0,0,1-2.483-.722,11.1,11.1,0,0,1-3.93-2.486c-2.545-2.579-3.346-7.79-4.007-12.508-.144-1-.587-2.184.319-2.407" transform="translate(149.174 87.606)"/><path class="c" d="M85.061,164.651c-.649-.087-1.044-.4-1.543-.341-1.112-18.467-2.212-36.762-3.366-55.807-.412-6.774-.827-13.952-1.284-20.93C78.2,77.41,77.651,66.807,76.943,56.3a13.982,13.982,0,0,1-.079-3.448c.127-.6,1.165-.324,1.284.079a9.5,9.5,0,0,1,.079,1.363c.725,11.077,1.4,22.155,2.082,33.113.429,6.87.863,14.043,1.284,20.851,1.174,18.845,2.37,37.653,3.468,56.391" transform="translate(139.845 95.642)"/><path class="c" d="M100.811,125.3h-26.7a2.337,2.337,0,0,1-.24-2c.37-1.524,1.933-2.616,3.287-3.369a17.676,17.676,0,0,1,4.814-1.845,8.947,8.947,0,0,0,1.366-.24A37.081,37.081,0,0,0,86.94,116.4c1.433-.643,3.468-1.574,3.77-2.886a9.855,9.855,0,0,0-.082-2.085c-.3-4.655-.581-8.834-.8-13.47-.028-.643-.288-1.992-.079-2.167a5.03,5.03,0,0,1,1.366,0c.245.209.124,1.919.158,2.57.144,2.669.406,5.77.561,7.773,4.069-.124,7.833.285,11.63.4a27.793,27.793,0,0,1,3.846.24c-.025-2.655-.361-5.759-.24-8.417.023-.494.308-2.068,0-2.331-.076-.065-.313.056-.24-.158.42.09,1.171-.443,1.524-.161a11.3,11.3,0,0,1,.161,1.684c.023.674,0,1.292,0,1.842,0,7.536.57,14.218.24,21.731-.048,1.055.245,2.94-.161,3.609-.48.793-2.291.663-3.688.641a17.206,17.206,0,0,0-4.091.079M91.83,107.178a9.186,9.186,0,0,1,.082,1.363c.056.31.265.556.322.877a12.966,12.966,0,0,1,.076,1.368,15.147,15.147,0,0,1-.158,2.4c-.034.355.059.725,0,.962a2.783,2.783,0,0,1-.564.883,3.854,3.854,0,0,1-.8.722,21.083,21.083,0,0,1-6.255,2.886c.169.344.561.446.8.643.124.1.183.282.319.4a5.283,5.283,0,0,1,.48.322c.209.212.471.646.722.962.229.285.508.784.8.883a13.068,13.068,0,0,0,2.884,0H96.4a16.482,16.482,0,0,0,2.968,0c.353-.155.457-.8.719-1.2a16.187,16.187,0,0,1,6.659-5.934c.192-.09.734-.341.722-.322a7.3,7.3,0,0,0,0-1.679c-.054-1.67-.118-3.736-.164-5.056-5.288.291-10.042-.646-15.476-.477m11.467,17c.646,0,3.7.178,4.009-.079.209-.178.087-.937.079-1.445-.037-2.5.172-4.568.085-7.057a15.974,15.974,0,0,0-6.5,6.171c-.293.514-.4.92-.722,1.047a6.546,6.546,0,0,1-1.524,0c-3.157-.017-5.381,0-8.419,0a11.04,11.04,0,0,1-3.287-.161c-.652-.288-1.117-1.247-1.763-1.924-.451-.471-1.532-1.56-2.164-1.605-.141-.008-.426.183-.643.243-.767.206-1.8.282-2.4.48-.212.071-.463.282-.722.4-1.8.83-3.786,1.89-4.17,3.851,8.639.141,18.975.079,28.145.079" transform="translate(134.34 174.184)"/><path class="c" d="M115.774,56.721c-.127-.031-.26-.065-.387-.093-3.42-.894-6.972-1.919-10.022-2.731-11.357-3.022-22.964-6.14-33.92-9.012a3.61,3.61,0,0,1-.358,1.058q22.44,5.976,44.842,12a5.105,5.105,0,0,1-.155-1.222" transform="translate(129.486 81.759)"/><path class="c" d="M86.9,18.74h1.281c.319.155,1.027.3.883.722-.107.308-1.634.367-1.924.4-1.924.209-2.587.387-3.691,1.284-2.122,1.732-3.49,4.9-4.729,7.779A77.071,77.071,0,0,0,75.514,38.3c-.937,3.38-1.707,6.2-2.726,9.782-.674,2.364-1.651,5.457-2.167,8.016a4.55,4.55,0,0,1-.158,1.041c-.079.1-.2.023-.319.085-.381.189-.762.2-.807-.322a8.9,8.9,0,0,1,.324-1.684,14.511,14.511,0,0,0-.082-1.6,12.83,12.83,0,0,1,.564-2.164c.635-2.164,1.346-4.447,1.921-6.5,1.882-6.7,3.679-14.294,6.656-19.886A17.625,17.625,0,0,1,81.609,20.9a8.812,8.812,0,0,1,1.684-1.287A12.716,12.716,0,0,1,86.9,18.74" transform="translate(126.292 34.135)"/><path class="c" d="M66.2,152.762a24.858,24.858,0,0,1,.161-6.255,21.808,21.808,0,0,1,.561-3.126c1.354-6.035,2.7-12.149,4.088-18.281,2.822-12.415,5.344-24.333,8.1-36.567,2.723-12.09,5.541-24.279,8.182-36.482a78.063,78.063,0,0,1-4.974,10.022A26.573,26.573,0,0,1,79.188,66.4c-1.5,1.591-3.349,3.233-6.094,3.047a7.374,7.374,0,0,1-4.331-2.246,11.868,11.868,0,0,1-1.041-2.085c-.31-.742-.553-1.566-.8-2.325a19.292,19.292,0,0,1-.643-2.489c-.166-.889-.429-2.2.24-2.322.037-.006.415-.116.722.561.254.556.073.533.164,1.041.059.367.4,1.645.48,1.927.6,2.291,1.227,4.588,2.963,5.852a4.3,4.3,0,0,0,2.889.962c1.882-.13,3.834-2.229,4.893-3.527a32.005,32.005,0,0,0,2-2.807c.437-.677.92-1.487,1.366-2.246.387-.663.677-1.326,1.041-2.006,1.859-3.459,3.236-7.339,4.971-11.224.079-.178.237-.485.4-.8A3.929,3.929,0,0,1,88.891,45c0-.164-.511-.669-.722-.965a13.854,13.854,0,0,1-1.684-3.126,15.613,15.613,0,0,1-1.044-5.451A10.066,10.066,0,0,1,87.528,29.2a11.729,11.729,0,0,1,1.6-1.766c.308-.288.666-.6.722-.877.161-.841-1.044-2.511-.482-3.211.121-.147.13-.336.4-.24.655.226.866.748,1.126,1.6a5.534,5.534,0,0,1,.4,2.328c-.014.073.025.175,0,.243-.071.178-.643.576-.883.8a11.307,11.307,0,0,0-1.761,2,9.27,9.27,0,0,0-1.687,5.211,14.591,14.591,0,0,0,1.2,5.7,16.969,16.969,0,0,0,1.842,3.287c.279.4.655.779.643,1.041-.028.5-.375.237-.482.722-7.841,35.289-16.125,71.5-23.974,106.724" transform="translate(120.293 42.038)"/><path class="c" d="M70.048,55.063h-.322c.011-.229-.237-.181-.319-.243-.189-.124-.116-.1-.243-.319a11.947,11.947,0,0,1-.561-3.287c-1.151-7.906-2.59-15.916-3.77-23.252.412.324,1.112.214,1.366.561a7.789,7.789,0,0,1,.24,1.524c.959,5.869,2.023,11.619,2.886,17.239a65.782,65.782,0,0,1,.883,7.615c-.1.011-.192.028-.161.161" transform="translate(118.096 50.933)"/><path class="e" d="M75.919,15.528h.4c.959.477,1.072,1.732,1.12,2.8.118,2.452.09,4.921.164,7.539a18.466,18.466,0,0,0,.079,3.767c.178.618.618.815.8,1.284a8.507,8.507,0,0,1,.4,2.4,12.306,12.306,0,0,1-.962,5.375,7.469,7.469,0,0,0-.559,1.679,8.957,8.957,0,0,0,.4,1.927c2,9.212,4.314,18.382,6.176,27.744-1.557.33-1.357-.265-1.687-1.842-1.586-7.627-3.287-14.867-5.051-22.3-.189-.8-.37-1.642-.559-2.565a6.317,6.317,0,0,0-.164-.88c-.169-.35-.561-.355-.638-.643a4.949,4.949,0,0,1,.319-1.6,21.449,21.449,0,0,1,.88-2.81,11.1,11.1,0,0,0,.482-1.36,11.321,11.321,0,0,0,.161-2.167c0-1.055-.161-3.115-.88-3.369A6.482,6.482,0,0,0,74,31c-.144.093-.15.189-.322.24-.24.068-.547.034-.722.082a6.664,6.664,0,0,0-1.284.64,5.336,5.336,0,0,0-1.12.722c-.039.169.4.694.562.8.844.539,1.636.121,2.4-.243.471-.223.942-.5,1.2-.164.522.674-1.154,1.227-1.6,1.366-.121.037-.189.138-.319.161-.415.073-.561-.034-.8.24a4.8,4.8,0,0,0-1.284,2.965,5.11,5.11,0,0,0,1.605,3.369c.361.4.776.889.64,1.123-.229.4-1.109.023-1.442-.24a6.207,6.207,0,0,1-.883-1.041,5.342,5.342,0,0,1-.883-4.735c-.593.008-1.233.214-2.164.243a3.087,3.087,0,0,1-.48,0,5.254,5.254,0,0,0-.243,1.842,5.988,5.988,0,0,0,.4,1.684c.169.46.547.852.722,1.363.042.133-.02.243,0,.4a12.524,12.524,0,0,0,.4,1.284,24.724,24.724,0,0,1,.722,3.77c.1.818.178,1.7,0,1.842a.766.766,0,0,1-.88-.161c-.234-.24-.189-.711-.24-.959-.4-1.826-.652-3.276-1.047-4.974a9.433,9.433,0,0,0-.158-.959c-.141-.415-.443-.846-.643-1.363a6.222,6.222,0,0,1-.4-3.448c.045-.243.254-.59.243-.643a19.511,19.511,0,0,0-1.363-1.521,12.1,12.1,0,0,1-1.682-3.05v-.319c.223-.291.158-.776.4-1.2a8.212,8.212,0,0,1,2.647-2.164,14.3,14.3,0,0,1,3.366-1.524,8.713,8.713,0,0,1,3.53.082,24.9,24.9,0,0,1,1.041-9.063,4.975,4.975,0,0,1,.4-1.12c.367-.454,1.148-.5,1.6-.8m.4,5.533c-.059-1.309.065-2.565-.082-3.612-.073-.533-.158-1.137-.64-.962-.254.1-.378.734-.561,1.287a18.857,18.857,0,0,0-.962,6.732,9.117,9.117,0,0,0,0,2.325c.034.068.432.13.641.322.09.082.166.071.243.24.505,1.112-1.264.322-1.526.24a7.975,7.975,0,0,0-4.407-.161c-.787.288-.863.339-.561,1.044a9.853,9.853,0,0,0,1.363,2.407,4.613,4.613,0,0,0,.638.719c.045.006.3-.26.4-.319.609-.358,1.109-.477,1.6-.8-.152-.243-.643-.734-.561-1.041a.658.658,0,0,1,.722-.4c.677.056.646,1.016,1.044,1.12.011.006.488-.124.643-.158a9.55,9.55,0,0,1,2.161-.4c-.133-2.675-.028-5.7-.158-8.577M69.342,33a3.3,3.3,0,0,1,.161-.8c.011.034-.223-.282-.322-.4-.155-.192-.364-.435-.48-.561A6.7,6.7,0,0,1,67.5,29c-.22-.542-.293-.635-.8-.322a9.234,9.234,0,0,0-1.12.722,6.6,6.6,0,0,0,.48,1.044c.2.429.361.877.48,1.12a10.819,10.819,0,0,0,1.284,1.93c.144.15.358.231.561.4.169.135.322.389.482.48s.406.062.559.161c.26.172.463.663.8.643.3-.017.567-.593.722-.8-.765-.268-1.51-.528-1.6-1.363m-5.293-1.763a4.253,4.253,0,0,0,.482,1.12,11.554,11.554,0,0,0,1.284,1.927,4.8,4.8,0,0,0,.88,1.041c.068.048.11.13.161.164a2.6,2.6,0,0,0,1.927-.079c-2.142-.962-3.16-3.047-4.091-5.217-.107.282-.621.632-.643,1.044" transform="translate(114.632 28.285)"/><path class="c" d="M86.692,48.859h.161a2.29,2.29,0,0,1,.64,1.363c.127.559.147,1.2.243,1.766,1.721,10.318,1.761,22.488,1.761,34.4,0,8.137-.135,16.164-.4,23.816-.353,10.2-.832,20.575-1.445,30.712-.3,4.986-.435,10-.641,15.473-.1,2.666-.028,5.022-.161,7.858-.048,1.069-.051,3.964-.082,5.773a4.144,4.144,0,0,1,0,1.044c-.087.121-.217.056-.4.079-.4.048-.652.237-.722,0a6.507,6.507,0,0,1,0-1.521c0-4.853-.04-9.607.161-13.873.494-10.685.979-20.185,1.524-30.549.4-7.72.762-15.417.88-23.176.161-10.437.358-21.221,0-31.593-.087-2.539-.268-5.107-.4-7.618a85.443,85.443,0,0,0-1.439-12.59,5.873,5.873,0,0,1-.243-.722c.037-.474.364-.466.561-.64" transform="translate(155.919 88.998)"/><path class="c" d="M83.132,60.982c1.332-.3.008,2.347-.161,2.807-1.148,3.092-2.449,6.1-3.53,8.9-1.318,3.431-2.641,6.949-3.928,10.665a7.67,7.67,0,0,0-.48,1.524,5.182,5.182,0,0,0,.8,1.684c.875,1.611,1.642,3.121,2.486,4.732.265.508.629,1,.88,1.524.144.293.181.587.322.88.6,1.241,1.391,2.751,2.006,4.012,1.5,3.067,3.194,6.343,4.647,9.861.251.607.643,1.394.886,2.164.093.3,0,1.179-.4,1.2s-.728-1.216-.883-1.6c-1.21-3.084-2.522-5.5-3.849-8.259-.53-1.109-.993-2.218-1.524-3.29-1.349-2.734-2.977-6.021-4.489-8.82-.073-.135-.169-.265-.243-.4-.409-.8-1.033-1.769-1.442-2.723-.056-.133-.014-.437-.079-.564s-.212.037-.243-.322a5.109,5.109,0,0,1,.482-1.6c.5-1.368,1.157-3.3,1.605-4.568.756-2.139,1.453-3.908,2.243-5.934,1.182-3.033,2.336-5.646,3.53-8.823.166-.449.392-1.007.561-1.524a4.223,4.223,0,0,1,.561-1.445c.062-.059.133-.054.24-.079" transform="translate(134.622 111.035)"/><path class="e" d="M84.5,99.562l17.118.561.042,7.539s-5.335,3.092-6.258,4.653a10.639,10.639,0,0,1-2,2.483l-12.35.482-3.77-3.527c-.017-.257,7.3-3.09,7.418-4.893a70.029,70.029,0,0,0-.2-7.3" transform="translate(140.76 181.354)"/><path class="e" d="M85.973,101.93l7.94-5.3,2.568,1.687s-2.889,4.379-2.568,7.375.4,6.094.4,6.094-4.624,4.131-6.334,4.331-2.006.48-2.006.48Z" transform="translate(156.601 176.021)"/><path class="c" d="M68.012,64.714h.243c.347.389.209.92.161,1.363-.169,1.526-.418,3.073-.564,4.653a43.665,43.665,0,0,0-.319,6.574,21.337,21.337,0,0,0,1.2,5.691,28.407,28.407,0,0,0,2.325,4.574c3.344,5.951,6.755,11.769,10.1,17.555,4.179,7.217,8.405,14.751,12.59,21.892,2.331,3.984,4.656,7.858,6.978,12.031a4.489,4.489,0,0,1,.319.559c.023.257-.141.268-.319.4a2,2,0,0,1-.564.243c-.347.051-.226.008-.477-.243a7.485,7.485,0,0,1-.643-1.123c-1.411-2.4-2.689-4.729-3.849-6.735-6.921-11.958-13.727-23.712-20.608-35.6-1.51-2.607-3.047-5.333-4.492-7.858-.1-.175-.234-.44-.322-.561-.113-.158-.353-.22-.48-.4a15.068,15.068,0,0,1-1.12-2.325,23.146,23.146,0,0,1-2.167-8.417,37.163,37.163,0,0,1,.48-6.577c.2-1.388.477-3.163.8-4.489.181-.717.265-1.095.722-1.2" transform="translate(120.208 117.878)"/><path class="c" d="M75.838,69.262c.24.488.863.686,1.044,1.281.073.243-.048.578,0,.883a14.173,14.173,0,0,0,.483,1.363,15.447,15.447,0,0,1-1.284-1.524c-.161-.195-.367-.336-.4-.48-.116-.454.141-.92.158-1.524" transform="translate(137.799 126.162)"/><path class="c" d="M75.8,69.058c1.591,3.239,3.733,7.268,5.451,10.823.09.186.076.4.158.564.138.277.358.57.564.959.372.717.8,1.6,1.2,2.41a3.883,3.883,0,0,1,.564,1.842c.054.776.116,1.769.158,2.644a18.24,18.24,0,0,1-1.044-2c-2.127-4.3-4.348-8.73-6.574-13.23a4.93,4.93,0,0,1-.48-1.041c-.175-.971.133-2.1,0-2.968" transform="translate(137.964 125.79)"/><path class="c" d="M87.164,92.106a1.192,1.192,0,0,1,.319.722c-.5.152-.271-.423-.319-.722" transform="translate(158.751 167.773)"/><path class="c" d="M87.975,93.669c.082.226.5.621.561,1.123.051.4-.181.79,0,1.2a2.589,2.589,0,0,1,.161.4,1.6,1.6,0,0,1-.4.64c-.192-.006-.406-.686-.4-.64-.034-.209.124-.429.155-.722.082-.677-.11-1.476-.079-2" transform="translate(160.101 170.62)"/><path class="c" d="M86.677,121.991h-.722c.031-.254.045-.471.082-.64.071-.341.02-.341.237-.482a5.822,5.822,0,0,1,1.605-.079c2.5-.107,3.538-1.058,5.051-2.407,1-.889,1.978-1.9,2.886-2.8.028-.025.135.025.161,0s-.025-.13,0-.161c.178-.2.387-.3.561-.48,1.25-1.272,2.277-2.438,3.53-3.691.567-.564,1.219-.99,1.281-1.6a4.6,4.6,0,0,0-.8-2.243c-1.151-2.175-2.449-3.6-3.609-5.533-.172-.062-.071-.071-.158.079a9.844,9.844,0,0,0-.8,2.726,22.058,22.058,0,0,0-.24,7.539,7.738,7.738,0,0,1,.24,1.521c-.059.237-.3.13-.4.243-.121.141-.068.384-.158.48a12.6,12.6,0,0,1-2.328,1.6,18,18,0,0,1-3.205,2.088,6.194,6.194,0,0,1-1.684.4c-.42.031-1.665-.065-1.687-.48-.028-.609,2.094-.5,2.57-.64a6.078,6.078,0,0,0,1.524-.886c.92-.615,1.969-1.258,2.886-1.921a4.947,4.947,0,0,0,1.123-.962c.121-.226-.226-1.01-.324-1.684a20.739,20.739,0,0,1,0-5.451,20,20,0,0,1,1.366-5.29,5.276,5.276,0,0,0,.319-.643c0-.113-.209-.353-.24-.4-.1-.152-.26-.293-.319-.4s-.37-.954-.4-.965c-.13-.048-.356.175-.559.322-1.913,1.363-3.682,2.669-5.615,3.93-.212.138-.446.192-.64.322-.333.209-1.185,1.033-1.845,1.041a1.09,1.09,0,0,1-.719-.243c-.141-.336.511-.59.959-.88,2.46-1.6,4.526-3.022,6.735-4.653.274-.2,1.112-.751,1.126-.8.034-.124-.124-.308-.243-.564-.161-.344-.279-.632-.4-.877-.133-.274-.26-.387-.158-.564-.006.008.116-.2.24-.24.344-.116.485.336.64.562.48.711.691,1.064,1.123,1.605,1.033,1.289,2.232,2.968,2.963,4.007a42.712,42.712,0,0,1,3.29,5.051,6.189,6.189,0,0,1,.883,1.924,5.572,5.572,0,0,1-.24,1.044,8.287,8.287,0,0,1-.24,1.044,9.666,9.666,0,0,1-1.363,1.439c-.463.494-.934,1.016-1.366,1.445-1.924,1.927-3.764,3.868-5.773,5.615a9.562,9.562,0,0,1-7.136,2.644" transform="translate(155.951 174.127)"/><path class="c" d="M80.186,92.078h3.047c5.914.144,12.968.079,19.246.079a10.8,10.8,0,0,1,2.647.079c.683.22.883.83,1.12,1.605v5.615a5.106,5.106,0,0,1-.719,2.322c-.1.093-.3.02-.4.079-.457.271-.767,1.027-1.445,1.2H80.347a2.907,2.907,0,0,1-1.445-1.12,11.245,11.245,0,0,1-.559-4.568,10.472,10.472,0,0,1,.8-4.334,2.46,2.46,0,0,1,1.041-.959M84.435,93.2a28.365,28.365,0,0,0-3.767,0,3.623,3.623,0,0,0-.4.88,12.285,12.285,0,0,0-.477,3.609c0,1.239.059,3.97.88,4.331a4.836,4.836,0,0,0,1.2-.082c.457-.028.985,0,1.445,0H97.826c1.478,0,4.633.3,5.7-.161,1.335-.573,1.292-2.441,1.36-4.65a19.724,19.724,0,0,0,0-2.085,7.344,7.344,0,0,0-.319-1.842,11.3,11.3,0,0,0-1.763,0c-2.593-.062-5.341-.048-7.858-.082-2.339-.034-5.034,0-6.659.082-1.143.056-2.336,0-3.849,0" transform="translate(142.686 167.722)"/><path class="d" d="M82.278,13.385c.076-.056,2.237-1.693,2.237-1.693l1.106-.1,1.5.564s.745,1.23.765,1.3-.02,1.256,0,1.329a6.636,6.636,0,0,1-.545.875,7.54,7.54,0,0,0-.7.821,2.263,2.263,0,0,1-.748.731c-.169.054-.883.573-1.253.694a6.432,6.432,0,0,0-1.129.418c-.223.15-.934,0-.934,0Z" transform="translate(149.871 21.113)"/><path class="c" d="M92.747,17.292a14.894,14.894,0,0,0-.243-2.085c-.1-.683-.251-1.557.482-1.524.666.028.8,1.879.959,3.688.37,4.046.646,9.407.8,12.987.257,5.908.375,11.938.64,18.2a17.017,17.017,0,0,0,.161,2.726c.135.135.505-.155.88-.161.183,0,.466.127.8.161.629.062,1.459-.051,2.164,0,.2.014.573.147.883.161a3.417,3.417,0,0,0,.962-.082,25.819,25.819,0,0,0,0-3.208V28.917a7.6,7.6,0,0,1,0-1.6c.107-.454.508-.835.8-.8.655.073.561,1.433.561,2.486a67.392,67.392,0,0,0,.4,8.9c.166,1.352.429,2.861.962,3.369a7.289,7.289,0,0,0,2.407.8c.624.178,1.258.443,1.842.564a4.544,4.544,0,0,1,1.044.237c1.019.415,2.266.784,3.448,1.126a44.033,44.033,0,0,1,9.3,3.77A7.1,7.1,0,0,1,124.1,49.2c.065.076.076.223.161.319a9.035,9.035,0,0,1,.962,1.287,32.006,32.006,0,0,1,2.807,8.1,3.552,3.552,0,0,0-.722-.322c-.262-.065-.669-.031-.722-.082a5.625,5.625,0,0,1-.319-1.284,31.187,31.187,0,0,0-1.684-4.647,13.428,13.428,0,0,0-1.123-2.085,6.581,6.581,0,0,0-2.649-2.167,41.8,41.8,0,0,0-6.975-2.884c-2.94-.962-5.767-1.845-8.82-2.649a4.854,4.854,0,0,1-2.4-1.041v8.9a5.747,5.747,0,0,1,0,1.2c-.155.324-1.154.564-1.845.559-.387,0-.739-.161-1.044-.155a4.438,4.438,0,0,0-.8.155,15.2,15.2,0,0,1-2.486-.079,6.685,6.685,0,0,1-1.921-.24c-.282-.254-.35-2.345-.4-3.691-.13-3.394-.262-7.61-.4-10.823-.285-6.458-.344-13.676-.883-19.325a39.506,39.506,0,0,1-4.65.164c-.818,0-2.048.068-2.328-.324a7.491,7.491,0,0,1-.243-2.161c-.062-.756-.158-1.405-.24-2.088a10.159,10.159,0,0,0-.237,2.246c-.039.536.017,2.017-.243,2.243a5.133,5.133,0,0,1-1.924.085c-.674-.183-.533-1.123-.719-1.845a2.933,2.933,0,0,0-.322.88c-.082.293-.118.88-.24.965-.341.223-.742-.158-1.284,0a10.077,10.077,0,0,0,.8,2.8,3.1,3.1,0,0,0,.4.722c.2.085.6-.42.965-.243.48.234.714,2.088.564,2.726a2.776,2.776,0,0,1-.564.965c-.265.358-.576.632-.561.959.037.889,1.656,1.191,2.486,1.445.209.065.522.1.643.161.274.135.928,1.089,1.442,1.123.423.028,1.143-.587,1.366-.883.152-.206.2-.545.4-.722.559-.488,1.783-.322,1.924.564.124.762-.59,1.447-.88,2a5.823,5.823,0,0,0,2.243-1.363c.13-.1.3-.3.4-.319.412-.065.917.161.962.48.068.491-1,.807-1.126,1.281a10.3,10.3,0,0,0,.085,1.684c.1,1.919.573,5.347-.24,6.9a3.411,3.411,0,0,1-2.167,1.281,8.015,8.015,0,0,1-2.886-.64c-2-.612-3.25-1.033-5.375-1.682-.838-.26-2.4-.561-2.4-1.123,0-.237.53-.621.8-.643a7.638,7.638,0,0,1,1.284.4c1.081.353,2.562.762,3.688,1.123.753.245,1.507.494,2.483.8,1.115.35,2.709,1.064,3.29.079a5,5,0,0,0,.24-1.763A36.119,36.119,0,0,0,90.58,31.8a5.2,5.2,0,0,0-.079-.88c-.127-.13-1.044.234-1.284.237a6.39,6.39,0,0,1-3.129-1.041c-.626-.336-1.2-.875-1.842-1.281s-1.611-.561-2.407-.962c-.68-.344-1.306-.649-1.2-1.684a1.768,1.768,0,0,1,.4-.883c.189-.254.553-.474.559-.64s-.248-.257-.237-.243c-.11-.183-.251-.886-.322-1.041-.245-.55-.745-1.067-1.041-1.684a9.26,9.26,0,0,1-.722-2c-.031-.15-.079-.626-.082-.64,0-.042.116-.542,0-.64a3.686,3.686,0,0,0-.64,0c-.169.076-.183.181-.24.477-.113.576-.141,1.292-.243,1.924-.776,4.918-1.225,9.712-2,14.836-.183,1.208-.113,2.3-.962,2.085-.068-.017-.423.006-.48-.079-.217-.3.093-1.524.24-2.486.626-4.1.9-7.94,1.524-12.028.141-.934.375-2.325.561-3.53.048-.3.175-1.106.161-1.12-.172-.209-1.081-.051-1.524-.079a5.387,5.387,0,0,1-1.284-.243,5.747,5.747,0,0,1,.883-.48,2.31,2.31,0,0,1,.8-.482,24.371,24.371,0,0,1,3.609,0,4.578,4.578,0,0,0,1.123,0c.316-.161.542-1.3.719-2a3.991,3.991,0,0,1,.243-1.126c.147-.24.457-.547.8-.48.511.1.615,1.174.719,1.684a18.023,18.023,0,0,0,.4,1.924c.423-.079.217-.615.24-.883.155-1.684.322-3.236.564-5.053.147-1.117.048-1.9.88-2.082.694-.15.787,1,.883,1.6.322,2,.533,3.18.722,5.293a4.707,4.707,0,0,0,.082,1.123,19.981,19.981,0,0,0,2.965,0,19.314,19.314,0,0,1,2.807.082M87.533,29.636c.914.477,1.625-.818,1.6-1.521a3.038,3.038,0,0,1-1.6,1.521" transform="translate(135.344 16.718)"/><path class="c" d="M83.393,19.4c-.155.615.24,1.442-.082,1.763-.245.245-.951.008-1.041-.082-.245-.24-.082-3.208-.082-3.849v-2a9.033,9.033,0,0,1,0-2.006c.051-.141.248-.209.482-.4a5.311,5.311,0,0,1,2.644-1.445,3.323,3.323,0,0,1,3.129,4.653,5.285,5.285,0,0,1-1.605,1.684A5.533,5.533,0,0,1,83.393,19.4m1.842-1.927a7.42,7.42,0,0,0,1.6-1.281c.875-1.2.375-3.423-.88-3.77a2.9,2.9,0,0,0-2.565,1.284c-.152.477.11.9,0,1.524.251.023.412-.42.72-.722.426-.415,1.287-1.058,1.363-.161.031.327-.288.511-.719,1.044-.454.553-.576,1.239-1.363,1.041v2.006a3.582,3.582,0,0,0,1.842-.965" transform="translate(149.588 20.701)"/><path class="c" d="M79.709,13.076c.609-.138.708.054.962.64.1.24.147.55.24.8.3.81.965,1.763-.322,1.605-.807-.1-.751-.26-1.12-1.041-.178-.372-.652-.973-.4-1.605a1,1,0,0,1,.643-.4" transform="translate(143.891 23.74)"/><path class="c" d="M68.871,30.154c.087-.279-.339-.815-.243-1.044.2-.463,1.244-.339,1.123.4-.028.175-.612.559-.88.646" transform="translate(124.982 52.528)"/><path class="c" d="M106.346,52.536a7.325,7.325,0,0,1,.164,6.015,6.569,6.569,0,0,1-3.132,2.8c3.578,1.377,7.7,2.644,11.548,3.933a15.758,15.758,0,0,0,5.293,1.2,5.125,5.125,0,0,0,4.571-2.161A7.438,7.438,0,0,0,126.071,62c.333-1.162-.008-1.859-.24-3.05-1.735-8.972-3.228-17.917-5.451-26.7a4.4,4.4,0,0,1-.24-.8c.008-.195.135-.3.24-.556a9.129,9.129,0,0,0,.48-1.927c.271.248.243.638.322.962C123.486,39.108,125.34,49,127.2,58.791c.059.324.087.705.158,1.041a6.476,6.476,0,0,1,.24.962c.11,2.28-1.792,4.622-3.205,5.612a7.985,7.985,0,0,1-4.972,1.123,11.181,11.181,0,0,1-1.684-.322,13.543,13.543,0,0,1-1.6-.316c-.229-.09-.446-.361-.725-.485-.356-.161-.8-.186-1.2-.319-1-.33-2.161-.759-3.287-1.126-4.325-1.408-8.752-2.915-13.312-4.4-4.311-1.411-8.665-3.1-13.388-4.416-.672-.183-1.515-.4-2.328-.638-1.284-.389-2.4-.4-2.565-1.526a2.9,2.9,0,0,1,.4-1.761,1.8,1.8,0,0,1,.319-.322c-.011-.2-.561-.567-.722-.8a1.6,1.6,0,0,1,.88-2.568,1.7,1.7,0,0,1,0-2.085c.229-.3.64-.42.646-.48.008-.178-.384-.268-.562-.482-1.075-1.278.892-3.248,1.921-3.606.378-.135,2.009-.468,2.41,0,.1.121.251.57.155.722-.161.26-1.168-.025-1.6.079a2.667,2.667,0,0,0-1.684,1.36c-.435.875-.014,1.058.88,1.526A13.719,13.719,0,0,0,85.339,46.6c.485.135,1.335.381,1.281.719-.121.8-2.754-.048-3.527-.319-.42-.147-.8-.435-1.123-.4a.99.99,0,0,0-.8.883c.008.875,1.306,1.041,2.164,1.36a7.1,7.1,0,0,1,1.845.807c.3.257.522.556-.243.638a3.967,3.967,0,0,1-1.682-.4,12.034,12.034,0,0,0-2.006-.722c-.237.017-.883.344-.959.722-.1.491.53,1.236.88,1.442.646.384,2.051.406,2.968.8.268.119.672.353.638.564-.093.629-1.5.223-1.763.158-.285-.068-.643-.152-.959-.24a4.981,4.981,0,0,0-.883-.24,1.656,1.656,0,0,0-.482,1.521c.138.327,1.735.734,2.568.965,2.706.759,5.451,1.518,8.1,2.407,3.225,1.083,5.849,2.063,9.139,3.208a2.641,2.641,0,0,0,2.325.082,5.665,5.665,0,0,0,2.886-5.536,3.8,3.8,0,0,0-1.605-3.047,6.285,6.285,0,0,0-1.36-.4c-.807-.212-1.814-.4-2.726-.64a5.822,5.822,0,0,1-1.284-.4c-.181-.113-.051-.056-.161-.24-.065-.1-.183-.079-.243-.158a23.744,23.744,0,0,1-1.682-3.29A10.641,10.641,0,0,0,93.516,42.6a7.7,7.7,0,0,0-2.486-1.2c-.26-.087-.632-.13-.959-.24-.621-.217-1.411-.7-1.763-.166-.387.587.714,1.5.959,1.687.073.051.178.02.24.079a12.472,12.472,0,0,1,1.684,1.684c.229.291.776,1.089.561,1.442-.087.147-.3.138-.561.161-1.14.1-2.661-.705-3.688-.962-.889-.226-2.274-.418-3.448-.722-.113-.025-.909-.181-.962-.4-.13-.525.705-.638,1.363-.559a13.56,13.56,0,0,1,1.684.4c1.261.268,2.407.477,3.448.8.33.1-.113-.353-.322-.564-.776-.776-1.738-.954-2.164-2.161a1.625,1.625,0,0,1-.161-1.041c.141-.55,1.14-1,1.445-1.044a5.129,5.129,0,0,1,2.246.4,10.516,10.516,0,0,1,5.13,2.726,21.827,21.827,0,0,1,2.889,5.053c.116.24.319.482.477.8.093.181.243.767.4.886a13.134,13.134,0,0,0,1.363.322c4.63,1.34,9.1,2.587,13.952,3.846.779.2,2,.508,3.208.8.212.056,1.732.341,1.12,1.126-.107.138-.059.2-.4.161-.245-.028-.736-.293-1.12-.4-.621-.175-1.219-.3-1.605-.4-3.558-.959-5.9-1.552-9.7-2.57" transform="translate(143.872 52.755)"/><path class="c" d="M76.081,31.517c.031-.008.071-.093.161-.082.81.079.429,1.095.24,1.6a13.81,13.81,0,0,1-2.728,4.732,5.5,5.5,0,0,1-2,1.284,6,6,0,0,1-4.009-.322,4.97,4.97,0,0,1-.962-.561c-.257-.166-.841-.347-.8-.719a.615.615,0,0,1,.562-.48c.584-.071,1.594.886,2,1.038a4.518,4.518,0,0,0,3.287-.161,7.292,7.292,0,0,0,2.325-2.807,15.962,15.962,0,0,0,.8-1.761c.206-.525.53-1.665,1.123-1.763" transform="translate(120.175 57.259)"/><path class="c" d="M82.175,103.835c-1.653-.059-2.381-1.591-3.208-2.807a15.748,15.748,0,0,1-1.682-2.889c-.271-.643-.937-2.367-.4-3.366a5.919,5.919,0,0,1,1.605-1.12c1.148-.686,2.249-1.343,3.366-2,.719-.429,1.3-.748,1.924-1.123a1.607,1.607,0,0,1,.161.88c-.1.4-.94.734-1.442,1.044-1.078.657-1.826,1.137-2.965,1.842-.46.285-1.354.7-1.445.965a4.864,4.864,0,0,0,.561,2.322,17.265,17.265,0,0,0,2.164,3.612,8.877,8.877,0,0,0,.64.8c.271.285.672.5.722.64.113.3-.071,1.03,0,1.2" transform="translate(139.675 164.895)"/><path class="c" d="M88.407,94.833c.059-.011.166-.113.319-.076.387.085.621.849.8,1.2.457.88.923,1.555,1.366,2.568.347.79.734,1.972-.559,1.284-.607-.324-.942-1.2-1.287-1.763-.265-.449-.437-.8-.722-1.366-.35-.7-1.007-1.639.082-1.845" transform="translate(159.941 172.587)"/><path class="d" d="M142.871,67.982l-16.362-.319s-4.21-13.7-5.454-16.681-4.845-4.785-6.092-5.618-13.509.107-14.838-.722-.962-8.016-.962-8.016a14.936,14.936,0,0,0,4.012-1.524c1.806-1.075,3.849-4.972,3.849-4.972a6.94,6.94,0,0,0,3.846-3.29c1.529-2.68-.559-2.565-.559-2.565a19.773,19.773,0,0,0,.082-12.028C108.3,6.035,95.075,3.987,95.075,3.987s-1.541-3-7.7-3.772-10.6,7.48-12.508,12.192-4.735,33.362-4.735,33.362-1.148,1.236-2.692,3c-1.253,1.428-1.256,4.814-1.557,6.14-.581,2.587-5.048,43.7-2.695,49.131,2.06,4.763,7.587,2.356,7.587,2.356s-31.229,164.658-33.119,174.1-3.566,9.08-8.422,11.233a10.669,10.669,0,0,0-5.773,7.375s27.736.355,28.226-.164,2.328-12.987,2.328-12.987L93.794,129.973l.64.319s8.885,167.609,9.3,168.49c.2.409,5.18.1,10.665.079,6.182-.031,12.971.181,13.634,0,1.253-.339,1.244-1.129.482-2.407s-3.025-2.934-4.571-4.009-1.445-5.454-1.445-5.454.8-146.138.322-161.831-4.249-25.823-4.249-25.823l6.171.48a7.636,7.636,0,0,0,5.457,4.009c4.221.971,7.618-5.211,7.618-5.211l2.085-2.644.8-3.451a25.154,25.154,0,0,0,4.009-1.845,1.8,1.8,0,0,0,.8-1.445,4.983,4.983,0,0,0,1.2-2c.291-1.109-.319-1.284-.319-1.284a5.12,5.12,0,0,0,.883-2.164c.251-1.38-.643-1.2-.643-1.2s.906-.429.886-2.085-2.006-1.366-2.006-1.366a40.784,40.784,0,0,0,2.006-8.9c.158-3.583-4.653-2.246-4.653-2.246M76.71,84.66l.319-10.183,2.81,1.924.319,3.849Z" transform="translate(42.736 0.299)"/><path class="e" d="M58.425,22.16A8.933,8.933,0,0,0,63.4,20.236a18.388,18.388,0,0,0,3.53-5.293s7.124,2.2,8.58,4.9a40.757,40.757,0,0,1,2.647,7.294s2.711-1.758,2.886-6.416-.48-8.608-2.325-10.665C74.429,5.279,65.4,4.517,65.4,4.517S60.333-2.068,53.372.909,43.683,14.181,42.549,23.927s-2.489,22.29-2.489,22.29a65.7,65.7,0,0,1,9.624-.8c4.994-.008,9.176.553,10.1-2.322s-.079-12.432-.079-12.432l-1.123-3.047s-5.908-1.312-3.851-5.773c1.092-2.362,3.691.319,3.691.319" transform="translate(72.97 0.248)"/><path class="e" d="M26.7,109.9s4.881-.234,6.817,3.123,1.845,3.854,1.845,3.854l8.019-.324a16.031,16.031,0,0,0,2.807-3.606c.762-1.634,3.287-13.713,3.287-13.713l-16.842.24s-1.267,5.324-2.565,6.975A31.238,31.238,0,0,1,26.7,109.9" transform="translate(48.638 180.76)"/><path class="e" d="M51.742,99.179l.161,9.3,3.047,6.659.782.683,3.71-.525s3.482-6.1,7.618-5.372,4.571,1.526,4.571,1.526a29.031,29.031,0,0,1-.561-4.9c0-2.2-.161-7.133-.161-7.133Z" transform="translate(94.249 180.656)"/><path class="g" d="M109.386,190.32H87.651L80.434,73.475,50.283,190.32l-19.488.079L56.857,53.346s7.926-6.825,10.107-10.1,9.221-12.99,9.221-12.99,18.693.316,19.646.8c.4-.612,13,6.018,13.876,44.749s-.322,114.517-.322,114.517" transform="translate(56.094 55.11)"/><path class="c" d="M44.23,107.975H42.867a17.484,17.484,0,0,1-2.407-.722,5.425,5.425,0,0,1-2.647-2.965,6.932,6.932,0,0,1-.48-1.2c-.093-.437-.087-.906-.158-1.363-.071-.435-.209-.835-.243-1.287a24.97,24.97,0,0,1,.161-3.369c.556-7.945,1.185-15.439,1.845-23.331.553-6.653.99-13.315,2-19.564.488-3.025,1.233-6.055,3.287-7.378.412-.262.959-.389,1.041-.559a7.885,7.885,0,0,1,0-.965c.621-5.262,1.129-10.473,1.687-15.634a110.338,110.338,0,0,1,2.565-15.959c1.188-4.413,3.487-9.114,6.9-11.627A10.508,10.508,0,0,1,63.634.044,13.23,13.23,0,0,1,68.845,1.81a7.773,7.773,0,0,1,.643.48c.229.178.542.31.722.482a8.035,8.035,0,0,1,.64.8c.251.339.341.688.64.8a9.088,9.088,0,0,0,1.766.079c.561.076,1.131.212,1.6.319a19.98,19.98,0,0,1,7.779,3.53A10.425,10.425,0,0,1,86.085,12.4a14.651,14.651,0,0,1,.883,2.886,18.281,18.281,0,0,1-.4,8.5c-.054.164-.243.638-.24.643.051.308.116.166.319.316.906.666.694,1.919.161,2.81A9.465,9.465,0,0,1,84,30.6a4.205,4.205,0,0,1-.64.319c-.274.085-.765-.006-.88.079a5.187,5.187,0,0,1-.158.643c-.073.15-.285.491-.324.561a8.85,8.85,0,0,1-.722.962,9.186,9.186,0,0,1-6.331,4.009c.133,2.325.025,5.386.8,7.057.378.815.77.917,1.845.959,3.053.13,5.8,0,8.659,0a27.045,27.045,0,0,1,3.451,0,8.293,8.293,0,0,1,2.085.8,10.991,10.991,0,0,1,1.761,1.2c2.379,1.862,3.4,3.772,4.416,6.817.925,2.8,1.792,5.389,2.723,8.022,1.876,5.3,3.626,10.894,5.451,16.117a24.642,24.642,0,0,1,1.126,3.287c.008.056-.011.073,0,.161a5.246,5.246,0,0,0,.559,1.524c.33.793.522,1.306.88,2.164.155.364.522.951.482,1.123a5.182,5.182,0,0,0-.561.4c-.214.265-.042.443-.4.561-3.225-7.539-5.657-15.88-8.422-23.735-1.069-3.039-2.158-6.278-3.208-9.3a18.961,18.961,0,0,0-1.6-3.77,10.608,10.608,0,0,0-2.565-2.807,7.267,7.267,0,0,0-3.205-1.6,26.688,26.688,0,0,0-2.971,0c-2.474,0-5.217-.164-7.536,0-.48.031-.934.172-1.363.161a5.355,5.355,0,0,1-2.4-.722c-.821-.674-1.047-2.235-1.2-3.691a19.915,19.915,0,0,1-.158-4.568A8.223,8.223,0,0,1,67.4,34.2a16.731,16.731,0,0,1-1.763-2.322,10.208,10.208,0,0,0-.482-.965c-.051-.028-.609.093-.72.079a2.539,2.539,0,0,1-.722-.24,14.242,14.242,0,0,1-3.691-2.486,12.8,12.8,0,0,1-4.729-7.7,14.044,14.044,0,0,1,.4-5.533c.88-3.4,2.3-5.942,4.811-7.618a20.633,20.633,0,0,1,9.461-3.044c-.006-.277-.245-.387-.4-.561-.09-.1-.147-.223-.237-.322A8.729,8.729,0,0,0,64.356,1.17a8.6,8.6,0,0,0-7.057,1.6c-3.31,2.472-5.493,6.806-6.656,11.306a106.4,106.4,0,0,0-2.4,15.558c-.4,4.1-.872,8.171-1.281,12.186a39.376,39.376,0,0,0-.4,4.009c2.127-.725,4.537-.643,7.217-.643H59.7a11.588,11.588,0,0,0,2.006,0,5.087,5.087,0,0,0,.965-.477A6.8,6.8,0,0,0,65,42.705c.313-.587.214-2.4,1.041-2.328.559.054.477.559.48,1.2.011,1.947-.618,2.319-1.684,3.211a5.182,5.182,0,0,1-1.924,1.281,17.647,17.647,0,0,1-3.527.082h-3.2c-2.122,0-4.452-.214-6.5,0a14.791,14.791,0,0,0-2.483.561,6.773,6.773,0,0,0-2.164.962c-1.814,1.34-2.367,4.023-2.81,6.975-.956,6.391-1.49,13.6-2,19.886C39.529,83,38.807,91.515,38.3,99.957a10.564,10.564,0,0,0-.161,1.682c.042.245.274.392.4.643s.229.564.324.8a11.608,11.608,0,0,0,.638,1.6,4.616,4.616,0,0,0,1.126,1.281,6.718,6.718,0,0,0,1.684.8c2.336.624,4.785-.892,6.252-2a26.711,26.711,0,0,0,4.091-4.091,78.5,78.5,0,0,0,5.209-7.054c.42-.621.911-1.165,1.284-1.763.1-.172.339-.415.24-.643a6.383,6.383,0,0,1-2.726-1.123,8.09,8.09,0,0,1-3.451-5.77c-.138-.037-.186.181-.24.24-.451.5-.9,1.044-1.281,1.521-1.16,1.47-2.333,2.974-3.448,4.41-.773,1-1.462,1.749-2.568,3.05-.1.116-.13.282-.24.4a6.871,6.871,0,0,0-.477.559c-.056.071-.183.1-.245.164-.361.384-.945,1.3-1.6,1.281-1.194-.037-.2-.866.085-1.2.118-.152.141-.3.237-.4s.229-.141.319-.24c.3-.313.629-.841.8-1.044,1.741-2.026,3.166-3.939,4.811-6.013.164-.209.3-.5.48-.719a5.988,5.988,0,0,0,1.047-1.366,14.13,14.13,0,0,0,.237-2.726c.147-1.84.313-3.8.4-5.694a7.018,7.018,0,0,1,0-1.521c.11-.356.488-.734.883-.646.488.113.519,1.1.48,1.93-.107,2.266-.333,4.9-.48,6.814.245,0,.327-.308.48-.482.9-1.03,1.783-2.113,2.647-3.126.378-.443.934-.962,1.2-1.363a31.1,31.1,0,0,1,2.006-2.4c.344-.426.846-1.03,1.123-1.445a5.051,5.051,0,0,1,.4-.482,2.55,2.55,0,0,0,.48-.722,10.64,10.64,0,0,0-.8-.88c-.226-.277-.522-.7-.722-.962-.55-.731-1.019-1.309-1.442-1.924-.491-.711-1.1-1.775-1.6-2.565-.11-.169-.308-.313-.4-.485a5.588,5.588,0,0,1-.482-3.767,16.965,16.965,0,0,1,3.77-8.656c.367-.454.8-.863,1.2-1.287.11-.113.127-.293.24-.4s.268-.121.4-.243a5.713,5.713,0,0,1,.643-.638c.054-.04.471-.116.559-.164.031-.014.048-.141.082-.158a3.991,3.991,0,0,1,2.325-.564,1.3,1.3,0,0,1,.8,1.126c.079,1.013-.878,1.919-1.363,2.4-.282.285-.674.561-.883.8a19.756,19.756,0,0,0-3.609,6.176c0,.152.062.166.161.079A10.808,10.808,0,0,1,64.438,58.5c1.874-.375,5.225-.138,5.211,1.763-.02,2.034-2.26,1.188-3.846,1.366a6.121,6.121,0,0,0-2.652,1.2c-.014.1-.124.164.085.161a7.9,7.9,0,0,1,2.568-.482,4.026,4.026,0,0,1,2.322.561A2.956,2.956,0,0,1,68.766,65c-.124.451.186.491.4.8a4.7,4.7,0,0,1,.322.643,3.216,3.216,0,0,1-1.12,4.167,19.251,19.251,0,0,1,2.082,3.129,4.9,4.9,0,0,1,.485,3.047,7.71,7.71,0,0,1-1.447,2.164c-.536.745-1.021,1.555-1.445,2.167-2.288,3.307-4.483,6.4-6.571,9.621-.054.076-.02.2-.085.319s-.254.079-.319.161c-.686.889-1.227,1.9-1.845,2.807a75.634,75.634,0,0,1-6.255,8.18c-2.291,2.545-4.918,5.079-8.738,5.773M86.166,17.529a18.039,18.039,0,0,0-.482-2.731,9.641,9.641,0,0,0-3.849-5.934A19.429,19.429,0,0,0,75.182,5.82a14.807,14.807,0,0,0-2.728-.564,22.043,22.043,0,0,0-2.8.082,16.4,16.4,0,0,0-9.624,3.77,10.956,10.956,0,0,0-2.565,4.17,15,15,0,0,0-1.12,5.612,11.588,11.588,0,0,0,1.921,5.936,12.2,12.2,0,0,0,2.006,2.325,13.271,13.271,0,0,0,4.41,2.965c-.09-.26-.158-.446-.24-.643a5.934,5.934,0,0,0-.243-.638,5.761,5.761,0,0,0-.8-.322,9.858,9.858,0,0,1-2.325-1.287,4.5,4.5,0,0,1-1.684-3.366,3.2,3.2,0,0,1,.883-2.243c.189-.183.578-.293.64-.482.028-.082-.087-.615-.079-.962.023-.861.071-2.348.722-2.407a.923.923,0,0,1,.64.4c.35.691-.426,2.232-.164,2.807.423.161.779.2,1.208.4.53.254.872.742,1.442.8a3.2,3.2,0,0,0,1.281-.24,9.527,9.527,0,0,0,3.691-2.4,11.974,11.974,0,0,0,1.842-2.8c.279-.714.268-1.834.883-2.006s1.944.505,2.647.8a22.888,22.888,0,0,1,3.448,1.766,10.425,10.425,0,0,1,3.047,2.486c.051.079.107.1.158.158a11.034,11.034,0,0,1,2.088,4.413,14.176,14.176,0,0,0,.4,2.006,14.459,14.459,0,0,0,2-8.82M70.69,20.094c-.113.147-.192,0,0,.161.15.121.545.011.962.076.649.1,2.364.607,2.085,1.208a6.386,6.386,0,0,1-.722.237c-.31.014-.666-.243-1.041-.322a7.442,7.442,0,0,0-2.728-.079c-.243.076-.48.384-.8.561a12.781,12.781,0,0,1-2.489,1.044c-.212.059-.525.011-.64.079-.189.11-.09.3-.319.482-.824.652-1.253-.624-1.526-.883a2.555,2.555,0,0,0-1.842-.722,1.8,1.8,0,0,0-.962,1.281,3.729,3.729,0,0,0,1.924,3.854c.372.245.793.412,1.2.638.11-1.055.979-.271,1.126-.079a4.628,4.628,0,0,1,.4.8A16.472,16.472,0,0,0,68.845,34.2a6.885,6.885,0,0,0,4.816,2.246,8.726,8.726,0,0,0,6.171-3.126,13.321,13.321,0,0,0,1.763-3.05c.316-.652.751-1.789,1.044-2.565a6.02,6.02,0,0,0,.319-.88,7.1,7.1,0,0,0-.161-1.366,10.279,10.279,0,0,0-.722-2.483c-.183-.46-.285-.976-.48-1.123a2.256,2.256,0,0,0-.8-.164,1.856,1.856,0,0,0-1.921.646c-1.117,1.019-2.644,3.31-1.684,5.29.293.612,1.431,1.168,1.281,2.164a2.288,2.288,0,0,1-1.2,1.2c-.319.119-1,.3-1.123-.158s1.055-.861,1.047-1.366a3.631,3.631,0,0,0-.564-.8,4.438,4.438,0,0,1-.64-.8,4.132,4.132,0,0,1-.322-2.167,6.581,6.581,0,0,1,3.691-4.89,5.372,5.372,0,0,1,1.521-.164,15.738,15.738,0,0,0-7.937-4.89c-.144,1.752-1.374,3.169-2.246,4.331m14.754,6.255c-.082.133-.155.262-.24.4a4.393,4.393,0,0,1-.561.8c-.245.209-.762.164-.962.4-.051.065-.034.33-.082.482-.161.53-.528.942-.4,1.363a9.575,9.575,0,0,0,2.4-2.723c.206-.358.567-.8.322-1.287-.017-.062-.068-.093-.158-.079-.155.243-.186.426-.324.643M65.318,63.472A14.181,14.181,0,0,0,60.908,65c-.226.11-.333.3-.64.322-.33.025-.728-.059-.8-.243-.116-.282.742-.875.886-.962a3.656,3.656,0,0,1,.48-.158c.04-.042.031-.3.079-.4a4.123,4.123,0,0,1,1.284-1.2,7.106,7.106,0,0,1,4.328-1.684c.7.02,2.136.485,2.006-.559-.039-.333-.516-.505-.959-.643a6.412,6.412,0,0,0-4.094.322A11.764,11.764,0,0,0,58.9,63.232c-.31.375-.542.931-1.2.722-.536-.172-.322-.418-.158-.722.051-.1-.008-.138,0-.161a24.811,24.811,0,0,1,2.565-6.094,13.716,13.716,0,0,1,2.085-2.8c.358-.367.824-.7,1.281-1.2.33-.358.988-1.337.646-1.682-.169-.172-1.394.288-1.445.322a6.336,6.336,0,0,0-.564.559c-.632.6-1.227,1.225-1.761,1.842a15.4,15.4,0,0,0-3.29,6.176,14.479,14.479,0,0,0-.64,4.167c.031,1.3,1.1,2.339,1.684,3.208.624.931,1.2,1.913,1.684,2.568.214.293.6.657.959,1.123.686.877,1.179,1.543,1.845,2.325.186.22,1.058,1.03.8,1.363-.226.3-1.019-.025-1.123-.079-.381-.2-.4-.683-.719-.64-.017,0-.353.5-.4.559-.291.358-.42.55-.64.8-.971,1.109-2.012,2.4-2.647,3.205-.8,1.013-1.659,1.9-2.483,2.886-.341.409-.852.886-.883,1.123-.028.2.2.573.24.883a12,12,0,0,0,0,1.281,6.574,6.574,0,0,0,1.924,3.451,7.594,7.594,0,0,0,2.407,1.6,2.333,2.333,0,0,0,1.12.24c.152-.051.322-.522.561-.883.8-1.194,1.651-2.35,2.4-3.445.646-.937,1.216-1.73,1.848-2.647,1.117-1.631,2.449-3.552,3.606-5.293a7.874,7.874,0,0,0,1.123-1.845,3.367,3.367,0,0,0-.883-2.644c-.626-1.021-1.081-1.7-1.763-2.647a5.18,5.18,0,0,1-.883-1.363c-.008-.054.161-.206.164-.4,0-.135-.178-.059-.082-.319.034-.085.8-1.326,1.366-.88a.63.63,0,0,1,.158.477c-.023.59-.624.536-.237,1.047.285.387.57.014.8-.482a2.891,2.891,0,0,0,.237-1.123c-.02-.59-.652-2.048-1.284-2.164a3.851,3.851,0,0,0-1.363.322A12.946,12.946,0,0,0,63.555,67c-.339.181-.824.581-1.2.561-.02,0-.59-.141-.646-.319-.079-.293.773-.773,1.123-.965a13.339,13.339,0,0,1,4.656-1.6c-.15-1.044-.762-1.306-2.17-1.2" transform="translate(67.24 -0.002)"/><path class="c" d="M45.945,8.256c.516-.308,1.893,1.2,2.243,1.605.214.245.37.454.322.561a3.718,3.718,0,0,1-.64.243c-.339,0-2.133-1.464-2.164-1.924a.429.429,0,0,1,.24-.485" transform="translate(83.247 14.963)"/><path class="c" d="M49.312,8.79c.748-.212,1.143.615,1.041,1.763a5.536,5.536,0,0,1-.4,1.605,1.51,1.51,0,0,1-1.12.24c-.759-.35-.13-3.2.24-3.527.068-.062.13-.048.24-.082" transform="translate(88.299 15.951)"/><path class="c" d="M52.88,8.948a.931.931,0,0,1,1.044.722,7.107,7.107,0,0,1-.482,1.927,3.638,3.638,0,0,1-.24.559,2.079,2.079,0,0,1-1.123.24c-.691-.31.056-3.039.561-3.448.037-.031.189.014.24,0" transform="translate(94.353 16.274)"/><path class="c" d="M53.241,11.343c.66-.073,1.47-.02,1.6.564.3,1.278-2.618,2.079-3.688,1.842-.8-.172-2.034-.722-1.924-1.524.133-.976,1.814-.53,2.886-.64.42-.042.719-.192,1.123-.243m-2.726,1.2a2.486,2.486,0,0,0,3.205-.482,20.268,20.268,0,0,1-3.205.482" transform="translate(89.663 20.614)"/><path class="c" d="M56.2,25.854c.505-.172.485.085.722.643.279.657.767,2.175.962,2.723.482,1.366.909,2.579,1.281,3.688,2.1,6.238,4.207,12.172,6.5,18.365.212.573.463,1.182.722,1.763a10.554,10.554,0,0,0,.8,1.445,6.37,6.37,0,0,0,5.776,2,6.944,6.944,0,0,0,3.606-2.647A29.674,29.674,0,0,0,79.938,47.9c.688-1.428,1.566-3.332,2.164-4.89.144-.37.175-.632.643-.883.666-.361,1-.028.722,1.041a10.54,10.54,0,0,1-.482,1.2c-.751,1.842-2.367,5.118-3.208,6.814A15.23,15.23,0,0,1,77.051,55.2,7.817,7.817,0,0,1,72.8,57.608c-2.474.358-5.759-1.115-6.814-2.565a11.279,11.279,0,0,1-1.2-2.565c-.578-1.786-1.337-3.82-2.006-5.618-2.15-5.79-4.026-11.238-6.094-17.4-.141-.423-.353-1.064-.561-1.766-.2-.674-.6-1.546-.079-1.842.04-.023.116.014.161,0" transform="translate(101.616 46.997)"/><path class="e" d="M23.255,231.777A3.428,3.428,0,0,1,23.5,230.1a11.059,11.059,0,0,1,4.167-5.293,20.485,20.485,0,0,1,3.691-2,7.794,7.794,0,0,0,2.085-1.2c.079-.068.262-.1.319-.158a9.115,9.115,0,0,0,1.6-2.167,21.778,21.778,0,0,0,1.526-4.088,29.242,29.242,0,0,0,.8-2.965C45.486,171,53.085,129.822,61.024,88.489c.406-2.125.714-4.292,1.12-6.416,2.4-12.559,4.836-25.261,7.217-38,.135-.722.251-1.6.482-2.41.054-.2.189-.426.24-.64.068-.277.028-.57.079-.88a18.16,18.16,0,0,1,.643-2.164c.045-.042.9-.192,1.041-.243.389-.141.536-.358.8-.319a19.711,19.711,0,0,0-.719,2.085c-.24.725-.635,1.273-.8,2-.406,1.761-.618,3.581-.962,5.372-3.682,19.274-7.4,38.94-11.066,58.372-2.669,14.15-5.426,28.274-8.016,42.5q-1.938,10.644-4.009,21.246c-2.754,14.187-5.288,28.368-8.019,42.5a18,18,0,0,1,3.928-.161H53.245a4.655,4.655,0,0,1,1.284,0c.217.085-.082.24.079.4.1.093.042-.288.161-.322.37-.1.183-.308.4-.562.166-.192.285-.073.4-.4.324-.914.542-2.477.8-3.448,1.323-4.946,2.539-9.935,3.77-14.838,5.818-23.193,11.613-45.982,17.479-69.277.409-1.622.858-3.256,1.284-4.89.429-1.653.787-3.324,1.2-4.974C81.76,106.471,83.54,99.953,85.16,93.3c1.58-6.512,3.284-13.013,4.969-19.807.683-2.748,1.682-6.456,2.568-9.864.062-.248.023-.494.082-.722.285-1.143.81-3,1.12-4.246.183-.728.466-1.718.722-2.407.082-.214.319-1.318.722-1.605s.694-.234.719.485a9.95,9.95,0,0,1-.48,1.921c-.056.223-.02.474-.079.722-.1.406-.468,1.47-.561,1.842C93.6,64.929,92.419,69.757,91.093,74.94,89.31,81.9,87.7,88.67,85.961,95.306c-2.015,7.672-3.832,15.219-5.855,22.851-.226.849-.429,1.718-.641,2.568-4.6,18.5-9.548,37.458-14.113,55.968-.835,3.394-1.707,6.8-2.565,10.183-1.718,6.78-3.394,13.543-5.211,20.287-.231.861-.4,1.71-.643,2.568-.446,1.617-.911,3.293-1.363,5.051-.107.423-.2.846-.322,1.281-.107.375-.313.742-.4,1.123-.048.217-.206.745-.079.886.2.214.141.474.079,1.041-.192,1.795-.474,3.888-.719,5.773A19.847,19.847,0,0,1,53,230.256a5.489,5.489,0,0,1-.4.64c-.186.3-.209.525-.4.64-.04.023-.116-.017-.158,0-.9.364-2.455-.006-3.77.24Zm15-16.432a18.116,18.116,0,0,1-2.085,5.127,14.991,14.991,0,0,1-.962,1.2c-.127.152-.412.409-.482.48-.164.175-.183,0,0,.158a2.754,2.754,0,0,0,.722.164,7.409,7.409,0,0,1,6.577,6.334h5.53a8.932,8.932,0,0,0,1.845,0,3.1,3.1,0,0,0,.722-.559,5.586,5.586,0,0,0,.561-.722,13.6,13.6,0,0,0,1.921-4.495c.1-.367.251-.7.322-1.038.09-.412.093-.849.161-1.284q.288-1.854.719-3.609c.418-1.679.906-3.219,1.2-4.653H43.3a21.568,21.568,0,0,1-4.331-.158,15.477,15.477,0,0,1-.719,3.05m13.47,12.908c-.124.15-.254.322-.4.48-.181.189-.559.44-.64.643-.13.3.054.169-.161.319-.711.491-3.126.24-4.41.24-1.072,0-4.418.277-4.811-.24-.181-.237-.107-.313-.322-.4-.367-.147-.44-.734-.561-1.12-.1-.33-.2-.669-.322-.962a6.228,6.228,0,0,0-.962-1.684,7.138,7.138,0,0,0-4.489-2.164,6.193,6.193,0,0,0-3.448.719,11.878,11.878,0,0,0-6.5,6.577c8.9.02,17.914-.059,26.7.079.051-1.1.511-1.786.64-2.8-.189-.051-.237.217-.322.322" transform="translate(42.314 68.142)"/><path class="h" d="M49.26,44.222c.818,10.062,1.165,20.064,1.842,30.069.638,9.365,1.182,19.339,1.763,29.665.567,10,1.1,20.092,1.763,30.312.547,8.343.954,17.381,1.526,26.384.025.426.124,1.078.161,1.842a12.452,12.452,0,0,0,.079,1.924,15.446,15.446,0,0,0,2.726,0c5.5,0,10.513-.135,16.119,0,.53.011,2.108.073,2,.638-.118.646-4,.406-4.89.406H56.474c.584,11.314,1.32,21.884,1.924,33.593H75.641a8.208,8.208,0,0,1,1.842,0c.285.085.138-.031.24.322a1.1,1.1,0,0,1-.079.559c-.158.178-1.49.082-1.763.082H58.48c.141.855.008,2.158.161,3.29.042.31.212.6.24.88.1.968.028,2.04.082,3.126.138,3.013-.195,6.286-.082,9.305.014.378.119.838.158,1.281a4.936,4.936,0,0,1,.082.64c-.031.265.008.237-.24.4a.866.866,0,0,1-1.044-.158,2.983,2.983,0,0,1-.237-1.123,23.529,23.529,0,0,1,0-2.649c0-4.464.04-9.018-.243-13.145-.031-.44-.034-.883-.079-1.287s-.138-.751-.161-1.123c-.023-.308,0-.66,0-.962-.037-2.669-.327-5.606-.48-8.335-.178-3.1-.42-6.23-.564-9.387-.285-6.292-.8-12.686-1.123-19.082-.313-6.343-.8-12.711-1.12-19.082-.164-3.191-.409-6.365-.564-9.545-.15-3.146-.418-6.278-.559-9.379-.446-9.76-1.143-18.955-1.605-28.706-.15-3.157-.491-6.3-.64-9.463-.147-3.132-.412-6.309-.561-9.542-.3-6.363-.753-12.553-1.12-19.085-.133-2.3-.237-4.856-.4-7.212a12.514,12.514,0,0,1-.082-2.41c.127-.883.872-2.006.962-3.044" transform="translate(87.906 80.551)"/><path class="h" d="M30.567,87.913c.2-.308.147-.88.482-1.044a12.98,12.98,0,0,1,2.565,0H48.69c.751,0,2.125-.161,2.325.158.158.251-.135.694-.161.722-.1.1.023.121-.161.164a15.621,15.621,0,0,1-2.243,0Z" transform="translate(55.678 158.098)"/><path class="h" d="M35.672,99.1c-.169.164-.062.931-.24,1.044a1.2,1.2,0,0,1-.962-.243,1.1,1.1,0,0,1,.079-.559c.178-.285.663-.245,1.123-.243" transform="translate(62.762 180.507)"/><path class="c" d="M43.43,22.051h.24c.542.392.226,1.052.082,1.524-.827,2.686-1.208,6.735.161,9.139.087.155.212.324.322.482a8.762,8.762,0,0,0,1.521,1.684,10.2,10.2,0,0,0,.883.719c.164.113.429.133.561.243.626.516.578.906.64,2.006a5.188,5.188,0,0,1,.082.956c-.152.759-1.12,1.227-1.123,2.246a10.409,10.409,0,0,1-.4-2.4c-.034-.514.2-1.309,0-1.766-.065-.144-.44-.22-.725-.4a9.5,9.5,0,0,1-3.445-3.928,11.828,11.828,0,0,1-.8-3.211v-1.36c.175-1.659.522-4.687,1.2-5.454a3.3,3.3,0,0,1,.8-.48" transform="translate(75.46 40.166)"/><path class="c" d="M66.188,36.445H53.279c-1-.144-3.273-.079-4.653-.079a6.49,6.49,0,0,1-1.6,0c-.039-.034.158-.229.161-.243.071-.353-.33-.77-.161-.88,5.35.014,11.9-.068,16.117,0a11.81,11.81,0,0,0,2.486,0,9.565,9.565,0,0,0,.322-.965c.57-2.043.832-3.431,1.284-5.451.09-.42.051-.728.319-1.038a.99.99,0,0,1,.962-.406c.674.226.293,1.538.161,2.167-.381,1.794-.694,3-1.123,4.486a8.448,8.448,0,0,1-.64,2.167c-.175.152-.511.124-.722.243" transform="translate(85.579 49.826)"/><path class="c" d="M76.859,244.3H52.323c.045-.443-.415-.917-.161-1.123a15.028,15.028,0,0,1,1.524,0c7.672,0,16.26.065,23.255-.079a12.07,12.07,0,0,0-4.732-5.132,12.074,12.074,0,0,0-3.047-1.524,6.879,6.879,0,0,0-5.855.722,6.33,6.33,0,0,0-.88.88,13.121,13.121,0,0,0-1.605,2.41c-.065.113-.107.234-.158.319-.333.533-.624.542-1.284.641s-1.3.121-2.164.161a11,11,0,0,1-1.445.082,3.788,3.788,0,0,1-1.284-.243c-.3-.231-.505-1.411-.719-2-.511-1.408-.962-2.587-1.605-4.009-.293-.657-.875-1.679-.24-1.924.618-.24,1.213.94,1.363,1.281.677,1.56.968,2.316,1.524,3.772a20.4,20.4,0,0,0,.64,2,8.479,8.479,0,0,0,2.006,0c.245-.011,1.865-.011,1.842,0,.017-.011.528-1.067.564-1.123,1.185-2.006,2.81-3.8,5.451-4.252a10.717,10.717,0,0,1,5.773.883,11.668,11.668,0,0,1-.322-2.807c-.028-.274-.135-.516-.158-.878-.152-2.212,0-4.489,0-6.738,0-47.4-.082-95.063-.082-142.247,0-4.506.195-8.984,0-13.391-.183-4.142-.615-8.323-1.2-12.347-1.148-7.895-2.9-15.281-6.817-20.29a30.147,30.147,0,0,0-6.094-5.773c-.339-.245-1-.392-.64-.962s1.21-.082,2.325.719a26.866,26.866,0,0,1,6.255,6.255,26.307,26.307,0,0,1,1.924,3.448c2.4,4.859,3.549,10.536,4.489,16.921a124.974,124.974,0,0,1,1.2,13.148c.186,4.712-.031,9.59.079,14.192.056,2.438-.014,4.83,0,7.138.034,5.053.037,11.015,0,15.473-.008.957-.028,1.879,0,2.807.127,4,0,7.745,0,12.59V230.508c0,2.539-.014,5.234.8,6.416a8.92,8.92,0,0,0,1.682,1.284,12.708,12.708,0,0,1,2.886,3.044c.381.556,1.05,1.557.962,2.085a2.556,2.556,0,0,1-.482.559c-.291.268-.356.358-.8.324-.09-.006-.229,0-.24.079" transform="translate(94.058 55.3)"/><path class="c" d="M41.681,16.165H42c.985.217.83,1.459,1.123,2.407a15.821,15.821,0,0,0,2.325,4.486,17.5,17.5,0,0,0,3.369,3.53c.133.107.4.308.64.48a5.161,5.161,0,0,0,.64.482c.068.2-.336.937-.319,1.2a5.223,5.223,0,0,1-1.526-1.044c-.474-.353-1-.646-1.442-1.041a20.452,20.452,0,0,1-1.845-2c-.183-.226-.293-.48-.48-.722a17.289,17.289,0,0,1-2-3.047,19.241,19.241,0,0,1-1.2-3.851,2.633,2.633,0,0,1,.4-.88" transform="translate(75.192 29.445)"/><path class="c" d="M46.851,31.03c1.208-.071,2.314-.282,3.448-.237,1.01.031,1.952.341,2.886.4,5.745.356,9.813-1.986,12.99-4.413a23.14,23.14,0,0,0,5.211-5.852,12.859,12.859,0,0,0,.64-1.2c.02-.037.147-.045.161-.079.079-.169.062-.344.161-.559.082-.181.26-.384.322-.567.166-.491.051-1.278.48-1.679.093-.093-.006-.206.161-.243a.941.941,0,0,1,.883.4c.412.782-.488,2.587-.883,3.369a18.575,18.575,0,0,1-1.684,2.726A19.793,19.793,0,0,1,67.3,27.582c-3.31,2.491-7.488,4.8-12.75,4.811a27.685,27.685,0,0,1-6.9-1.041c-.237-.062-.7-.068-.8-.322" transform="translate(85.34 30.214)"/><path class="c" d="M48.865,22.008c-.22.144-.412.277-.643.4a2.836,2.836,0,0,1-.64.322,4.36,4.36,0,0,1-1.442-.564,12.659,12.659,0,0,0-1.363-.643,5.494,5.494,0,0,1,.559-.722c.107-.133.093-.234.243-.155a31.678,31.678,0,0,0,3.287,1.363" transform="translate(81.562 37.555)"/><path class="c" d="M58.042,21.441c.734-.4,1.789,1,2,1.36a11.888,11.888,0,0,1,.883,2.249,12.519,12.519,0,0,1,.561,4.893,16.85,16.85,0,0,1-1.524,4.89,10.034,10.034,0,0,1-.8,1.041,15.036,15.036,0,0,1-2.246,2.167c-.3.243-.46.46-.722.64a4.329,4.329,0,0,1-.8.482c-.279.116-1.47.415-1.6.24-.3-.389.725-1.3.319-.8a4.037,4.037,0,0,1,.561-.48A16.9,16.9,0,0,0,58.042,35a8.5,8.5,0,0,0,1.524-2.807,11.849,11.849,0,0,0,.4-3.93,12.889,12.889,0,0,0-1.524-5.214c-.245-.415-1.148-1.191-.4-1.6" transform="translate(97.884 38.923)"/><path class="f" d="M48.942,55.8a3.139,3.139,0,0,1-2.618-1.2,3.019,3.019,0,0,1-.364-2.751L53.5,27.672a5.429,5.429,0,0,1,4.963-3.592h45.452a3.177,3.177,0,0,1,2.618,1.2,3,3,0,0,1,.364,2.751L99.36,52.2A5.429,5.429,0,0,1,94.4,55.8Z" transform="translate(83.404 43.862)"/><path class="c" d="M104.3,25.069a2.332,2.332,0,0,1,2.412,3.171L99.172,52.415a4.864,4.864,0,0,1-4.39,3.169H49.327a2.326,2.326,0,0,1-2.407-3.169L54.465,28.24a4.854,4.854,0,0,1,4.387-3.171Zm0-1.2H58.853a6.063,6.063,0,0,0-5.539,4.015L45.77,52.054a3.657,3.657,0,0,0,.457,3.287,3.768,3.768,0,0,0,3.1,1.445H94.782a6.057,6.057,0,0,0,5.539-4.015L107.865,28.6a3.649,3.649,0,0,0-.457-3.287,3.768,3.768,0,0,0-3.1-1.447" transform="translate(83.019 43.474)"/><path class="d" d="M67,39.295s-1.549-.172-2.082-.962a.89.89,0,0,1,.158-1.284s-2.285-1.363-1.682-2a16.939,16.939,0,0,1,1.284-1.208s-2.943-2.664.4-3.6,9.351-2.771,9.785-1.687-.561,2.57-.561,2.57.931,1.431.319,2.4a3.242,3.242,0,0,1-1.6,1.281s1.512.993,1.123,1.842a5.639,5.639,0,0,1-1.524,1.687s-.1,1.84-1.524,2.246-3.981.787-4.252.079A1.652,1.652,0,0,1,67,39.295" transform="translate(115.291 51.394)"/><path class="f" d="M59.779,37.45a3.918,3.918,0,0,1-3.188-1.436,3.738,3.738,0,0,1-.607-3.284,6.246,6.246,0,0,1,5.8-4.424,3.916,3.916,0,0,1,3.191,1.436,3.74,3.74,0,0,1,.6,3.284,6.163,6.163,0,0,1-5.8,4.424" transform="translate(101.728 51.558)"/><path class="c" d="M62.167,29.294a3.081,3.081,0,0,1,3.211,3.973,5.6,5.6,0,0,1-5.211,3.967,3.078,3.078,0,0,1-3.208-3.967,5.6,5.6,0,0,1,5.209-3.973m0-1.2a6.783,6.783,0,0,0-6.377,4.881,4.338,4.338,0,0,0,.714,3.8,4.58,4.58,0,0,0,3.662,1.665,6.787,6.787,0,0,0,6.379-4.881,4.323,4.323,0,0,0-.714-3.8,4.563,4.563,0,0,0-3.665-1.668" transform="translate(101.34 51.17)"/><path class="c" d="M47.143,10.715h.4c.957.514.734,1.967.8,3.448.037.821.042,1.656.082,2.486.127,2.827.607,5.395-.722,6.735-.567.573-.361-.446-.4-1.442-.116-2.754-.293-5.3-.4-8.022-.048-1.162-.248-2.824.24-3.205" transform="translate(85.287 19.518)"/><path class="i" d="M76.205,29.668v.561a2.911,2.911,0,0,1-.959,1.445,1.928,1.928,0,0,1,.076,2.486c-.22.322-.717.494-.719.8,0,.073.344.361.4.485a2.727,2.727,0,0,1-.4,2.322,4.047,4.047,0,0,1-.482.567c-.107.1-.7.356-.722.4-.1.181-.031.539-.079.722a2.781,2.781,0,0,1-.24.64,3.525,3.525,0,0,1-1.2,1.041,14.38,14.38,0,0,1-1.766.322c-.248.045-.587.1-.88.164a6.756,6.756,0,0,1-.883.155c-.113-.011-.209-.234-.4-.319-.22-.1-.412-.082-.564-.161-.53-.277-.959-.593-1.041-1.12-.037-.265.155-.53.082-.643-.045-.071-.347-.056-.562-.158A2.881,2.881,0,0,1,64.5,37.766c-.045-.234.076-.593,0-.722-.048-.085-.319-.144-.482-.234a1.39,1.39,0,0,1-.48-2.331c.209-.248.711-.511.722-.8,0-.037-.161-.195-.243-.319a2,2,0,0,1-.48-1.445,2.525,2.525,0,0,1,.883-1.445,5.272,5.272,0,0,1,1.12-.4c2.466-.832,5.1-1.241,7.618-1.848a2.706,2.706,0,0,1,1.684-.079,1.871,1.871,0,0,1,1.363,1.524m-4.328-.158c-1.385.313-2.977.573-4.252.88a4.921,4.921,0,0,0-2.483,1.041c-.245.251-.375.322-.4.564a1.819,1.819,0,0,0,.643,1.281,6.23,6.23,0,0,0,1.041-.322c2.048-.584,3.959-.807,5.934-1.281,1.38-.333,2.917-.567,2.486-2.164-.164-.618-.4-.5-.88-.48a12.623,12.623,0,0,0-2.085.48M73.8,32.233c-1.208.251-2.666.649-4.252.965a29.4,29.4,0,0,0-3.688.883,1.714,1.714,0,0,0-.8.48c-.33.277-.832.584-.8.962a1.556,1.556,0,0,0,.883.8,4.589,4.589,0,0,1,.559-.079c.559-.107,1.148-.316,1.845-.482,1.591-.378,3.42-.674,4.972-1.041.872-.206,1.086-.285,1.524-.8.341-.406.742-1.62.079-1.766-.065-.014-.161.079-.161.079a.592.592,0,0,0-.158,0m-.562,3.211c-1.208.251-2.26.55-3.93.88-.657.133-3.552.553-3.688,1.123-.141.59,1.171,1.484,1.761,1.524a6.87,6.87,0,0,0,1.366-.319c1-.206,2.031-.37,2.886-.561a7.9,7.9,0,0,0,1.445-.324c.392-.245,1.083-1.854.559-2.322-.082-.076-.248,0-.24,0a.494.494,0,0,0-.158,0m-3.448,4.009a14.166,14.166,0,0,0-2.167.4c-.237.415.652.855,1.123.88a9.006,9.006,0,0,0,1.2-.243c.533-.1,1.174-.076,1.363-.161a1.653,1.653,0,0,0,.8-1.281c.121-.017.011-.13-.082-.158-.6.172-1.213.353-2.243.561" transform="translate(114.919 51.078)"/></g></g></svg>