<svg xmlns="http://www.w3.org/2000/svg" xmlns:xlink="http://www.w3.org/1999/xlink" width="985.702" height="783.926" viewBox="0 0 985.702 783.926"><defs><style>.a{fill:none;}.b{clip-path:url(#a);}.c{fill:#e0e0e0;}.d{fill:#ebebeb;}.e{fill:#fafafa;}.f{clip-path:url(#b);}.g,.l{fill:#f5f5f5;}.h,.j,.k{fill:#fff;}.i{clip-path:url(#c);}.j,.l,.m,.o,.p{fill-rule:evenodd;}.k{stroke:#000;stroke-width:4px;}.m{fill:#d6d6d6;}.n,.p{fill:#6c33eb;}.q{stroke:none;}</style><clipPath id="a"><rect class="a" width="322.343" height="243.768"/></clipPath><clipPath id="b"><rect class="a" width="169.608" height="151.843"/></clipPath><clipPath id="c"><rect class="a" width="122.782" height="123.178"/></clipPath></defs><g transform="translate(-972.725 -305.074)"><g class="b" transform="translate(1416 305.074)"><path class="c" d="M309.063,242.838s-.032-1.531-.049-4.455-.028-7.264-.051-12.907c-.024-11.307-.063-27.872-.111-49-.055-42.213-.134-102.623-.227-175.5l.437.437L5.107,1.5H5.081L5.607.975c-.02,87.318-.038,169.838-.055,241.863l-.471-.471,219.591.235,62.2.125c7.2.026,12.731.044,16.484.057l4.249.028c.957.008,1.456.026,1.456.026s-.463.018-1.4.028l-4.2.026-16.393.057-62.095.125-219.9.235-.471,0v-.473C4.593,170.813,4.573,88.293,4.553.975V.449h.554L309.063.538h.437V.975c-.093,73-.172,133.5-.227,175.78-.049,21.081-.087,37.614-.113,48.9-.02,5.608-.038,9.908-.049,12.824-.016,2.894-.049,4.362-.049,4.362" transform="translate(4.655 0.459)"/><rect class="c" width="10.992" height="122.758" transform="translate(49.03 46.258)"/><rect class="d" width="10.992" height="81.065" transform="translate(70.251 87.951)"/><rect class="c" width="10.992" height="108.124" transform="translate(91.472 61.514)"/><rect class="d" width="10.992" height="118.017" transform="translate(112.692 50.998)"/><rect class="c" width="10.992" height="78.569" transform="translate(133.913 90.446)"/><rect class="d" width="10.992" height="63.161" transform="translate(155.134 105.855)"/><rect class="c" width="10.992" height="110.158" transform="translate(176.354 58.857)"/><rect class="d" width="10.992" height="90.297" transform="translate(197.575 78.719)"/><rect class="c" width="10.992" height="106.168" transform="translate(218.796 62.847)"/><rect class="d" width="10.992" height="72.33" transform="translate(240.016 96.685)"/><rect class="c" width="10.992" height="86.094" transform="translate(261.237 82.921)"/><path class="c" d="M254.562,88.029c0,.251-52.139.451-116.44.451-64.323,0-116.452-.2-116.452-.451s52.129-.451,116.452-.451c64.3,0,116.44.2,116.44.451" transform="translate(22.155 89.537)"/><path class="c" d="M40.244,92.806c0,.249-3.652.451-8.156.451s-8.158-.2-8.158-.451,3.652-.451,8.158-.451,8.156.2,8.156.451" transform="translate(24.465 94.421)"/><path class="c" d="M55.233,93.05c0,.249-4.364.451-9.748.451s-9.75-.2-9.75-.451,4.364-.451,9.75-.451,9.748.2,9.748.451" transform="translate(36.534 94.67)"/><path class="c" d="M66.645,93.05c0,.249-4.364.451-9.748.451s-9.75-.2-9.75-.451,4.364-.451,9.75-.451,9.748.2,9.748.451" transform="translate(48.202 94.67)"/><path class="c" d="M78.056,93.05c0,.249-4.364.451-9.748.451s-9.75-.2-9.75-.451,4.364-.451,9.75-.451,9.748.2,9.748.451" transform="translate(59.868 94.67)"/><path class="c" d="M89.468,93.05c0,.249-4.364.451-9.748.451s-9.75-.2-9.75-.451,4.364-.451,9.75-.451,9.748.2,9.748.451" transform="translate(71.535 94.67)"/><path class="c" d="M100.88,93.05c0,.249-4.364.451-9.748.451s-9.75-.2-9.75-.451,4.364-.451,9.75-.451,9.748.2,9.748.451" transform="translate(83.202 94.67)"/><path class="c" d="M112.291,93.05c0,.249-4.364.451-9.748.451s-9.75-.2-9.75-.451,4.364-.451,9.75-.451,9.748.2,9.748.451" transform="translate(94.868 94.67)"/><path class="c" d="M123.7,93.05c0,.249-4.364.451-9.748.451s-9.75-.2-9.75-.451,4.364-.451,9.75-.451,9.748.2,9.748.451" transform="translate(106.536 94.67)"/><path class="c" d="M135.115,93.05c0,.249-4.364.451-9.748.451s-9.75-.2-9.75-.451,4.364-.451,9.75-.451,9.748.2,9.748.451" transform="translate(118.203 94.67)"/><path class="c" d="M146.527,93.05c0,.249-4.364.451-9.748.451s-9.75-.2-9.75-.451,4.364-.451,9.75-.451,9.748.2,9.748.451" transform="translate(129.87 94.67)"/><rect class="d" width="322.343" height="9.091"/></g><rect class="e" width="168.774" height="150.995" transform="translate(1205.844 397.449)"/><g transform="translate(1205.393 397)"><g class="f"><path class="c" d="M169.225,151.446s-.028-.969-.044-2.8c-.009-1.853-.024-4.562-.044-8.09-.022-7.088-.057-17.452-.1-30.651-.048-26.382-.115-64.08-.2-109.45l.383.381L.466.9H.451L.9.453C.882,55.387.865,107.078.849,151.446l-.4-.4c50.35.083,92.49.15,122.069.2,14.8.044,26.452.081,34.429.1l9.116.046,2.35.024c.529.007.81.022.81.022s-.25.015-.764.022l-2.308.024-9.037.046c-7.957.024-19.577.061-34.34.1-29.642.05-71.87.118-122.324.2l-.4,0v-.4C.039,107.078.02,55.387,0,.453V0H.466L169.225.07h.383V.453c-.083,45.47-.15,83.252-.2,109.692-.041,13.162-.076,23.5-.1,30.566-.02,3.5-.035,6.18-.044,8.016-.015,1.807-.044,2.72-.044,2.72" transform="translate(0 0)"/><path class="c" d="M51.382,12.771c0,.248-8.883.451-19.839.451s-19.841-.2-19.841-.451,8.881-.451,19.841-.451,19.839.2,19.839.451" transform="translate(13.782 14.508)"/><path class="c" d="M121.716,17.977c0,.248-24.405.451-54.5.451s-54.509-.2-54.509-.451,24.4-.451,54.509-.451,54.5.2,54.5.451" transform="translate(14.961 20.639)"/><rect class="c" width="7.11" height="7.11" transform="translate(25.775 57.822)"/><rect class="c" width="7.11" height="7.11" transform="translate(43.279 57.822)"/><rect class="c" width="7.11" height="7.11" transform="translate(61.103 57.499)"/><rect class="c" width="7.11" height="7.11" transform="translate(78.283 57.822)"/><rect class="c" width="7.11" height="7.11" transform="translate(95.785 57.822)"/><rect class="c" width="7.11" height="7.11" transform="translate(113.289 57.822)"/><rect class="d" width="7.11" height="7.11" transform="translate(130.791 57.822)"/><rect class="d" width="7.11" height="7.11" transform="translate(25.775 72.937)"/><rect class="c" width="7.11" height="7.11" transform="translate(43.279 72.937)"/><rect class="d" width="7.11" height="7.11" transform="translate(60.781 72.937)"/><rect class="c" width="7.11" height="7.11" transform="translate(78.283 72.937)"/><rect class="c" width="7.11" height="7.11" transform="translate(95.785 72.937)"/><rect class="c" width="7.11" height="7.11" transform="translate(113.611 72.614)"/><rect class="c" width="7.11" height="7.11" transform="translate(130.791 72.937)"/><rect class="c" width="7.11" height="7.11" transform="translate(25.775 88.054)"/><rect class="c" width="7.11" height="7.11" transform="translate(43.601 87.732)"/><rect class="c" width="7.11" height="7.11" transform="translate(60.781 88.054)"/><rect class="d" width="7.11" height="7.11" transform="translate(78.283 88.054)"/><rect class="c" width="7.11" height="7.11" transform="translate(95.785 88.054)"/><rect class="c" width="7.11" height="7.11" transform="translate(113.289 88.054)"/><rect class="c" width="7.11" height="7.11" transform="translate(130.791 88.054)"/><rect class="c" width="7.11" height="7.11" transform="translate(25.775 103.169)"/><rect class="c" width="7.11" height="7.11" transform="translate(43.279 103.169)"/><rect class="c" width="7.11" height="7.11" transform="translate(60.781 103.169)"/><rect class="c" width="7.11" height="7.11" transform="translate(78.605 102.847)"/><rect class="c" width="7.11" height="7.11" transform="translate(95.785 103.169)"/><rect class="d" width="7.11" height="7.11" transform="translate(113.289 103.169)"/><rect class="c" width="7.11" height="7.11" transform="translate(130.791 103.169)"/><rect class="c" width="7.11" height="7.11" transform="translate(25.775 118.287)"/><rect class="d" width="7.11" height="7.11" transform="translate(43.279 118.287)"/><rect class="c" width="7.11" height="7.11" transform="translate(60.781 118.287)"/><rect class="c" width="7.11" height="7.11" transform="translate(78.283 118.287)"/><rect class="c" width="7.11" height="7.11" transform="translate(95.785 118.287)"/><rect class="c" width="7.11" height="7.11" transform="translate(113.611 117.965)"/><rect class="c" width="7.11" height="7.11" transform="translate(130.791 118.287)"/></g></g><g transform="translate(1198.875 -7706.197)"><path class="g" d="M3.122,37.706V97.674H187.546V37.706Z" transform="translate(548.615 8584.921)"/><path class="c" d="M95.435,30.941H0V47.707H198.608V30.941Z" transform="translate(544 8574.919)"/><path class="c" d="M38.508,30.941V46.155l3.871,61.522h92.855V47.707h6.446V30.941Z" transform="translate(600.927 8574.919)"/><rect class="c" width="37.4" height="9.026" transform="translate(577.531 8632.299)"/><rect class="h" width="48.025" height="19.063" transform="translate(572.715 8652.608)"/><path class="g" d="M9.958,6.765v59.97H194.382V6.765Z" transform="translate(558.721 8539.18)"/><rect class="c" width="198.612" height="16.766" transform="translate(560.939 8529.179)"/><path class="c" d="M45.344,0V15.217l3.871,61.519H142.07V16.766h6.449V0Z" transform="translate(611.032 8529.179)"/><rect class="c" width="37.4" height="9.026" transform="translate(594.473 8555.617)"/><rect class="h" width="48.025" height="19.063" transform="translate(589.658 8575.927)"/><path class="c" d="M79.011,11.251,77.739,6.807l2.556.122.228,4.1Z" transform="translate(596.638 8407.431)"/><path class="c" d="M77.507,10.559,74.6,26.327,67.254,47.162l41.4-5.971L91.944,23,84.968,9.484Z" transform="translate(594.435 8407.992)"/><g transform="translate(580.303 8406)"><g class="i" transform="translate(0 0)"><path class="c" d="M8.448,104.185c-.011-.219-.033-.436-.033-.657a13.139,13.139,0,0,1,26.278,0c0,.221-.023.438-.034.657Z" transform="translate(1.768 18.992)"/><path class="c" d="M22.385,102.523a.52.52,0,0,1-.5-.39L4.472,35.783a.522.522,0,0,1,1.009-.265L22.89,101.869a.521.521,0,0,1-.372.637.509.509,0,0,1-.133.017" transform="translate(0.936 7.381)"/><path class="c" d="M18.585,103.88a.52.52,0,0,1-.5-.39L.672,37.14a.522.522,0,1,1,1.009-.265L19.09,103.227a.521.521,0,0,1-.372.637.508.508,0,0,1-.133.017" transform="translate(0.138 7.666)"/><path class="c" d="M0,36.672a3.285,3.285,0,1,0,3.284-3.284A3.284,3.284,0,0,0,0,36.672" transform="translate(0 7.015)"/><path class="c" d="M3.062,44l-.592-.859L64.163.578,100.251,21.1l-.516.906L64.216,1.808Z" transform="translate(0.519 0.121)"/><rect class="c" width="73.894" height="1.044" transform="translate(6.281 45.571) rotate(-34.703)"/><path class="c" d="M51.845,2.956A2.956,2.956,0,1,0,54.8,0a2.957,2.957,0,0,0-2.956,2.956" transform="translate(10.893 0)"/></g></g></g><path class="j" d="M1650.532,1221.914s3.1,1.21,3.021,3.348-1.47,9.228-1.47,9.228l-3.43,2.287Z" transform="translate(139.246 -311.821)"/><g class="k" transform="translate(989 999)"><rect class="q" width="924" height="90"/><rect class="a" x="2" y="2" width="920" height="86"/></g><path class="l" d="M23.851,148.275H225.767a2.868,2.868,0,0,1,2.866,2.871l-1.318,7.679c-1.173,3.9-3.859,7.171-7.739,7.171H30.154c-3.88,0-6.933-3.264-8.172-7.314l-1-7.536a2.869,2.869,0,0,1,2.868-2.871" transform="translate(1184.898 823.698)"/><path d="M220.582,168.947H31.16c-4.477,0-8.413-3.411-10.029-8.688a1.781,1.781,0,0,1-.07-.315l-1-7.538a1.758,1.758,0,0,1-.019-.255,4.819,4.819,0,0,1,4.813-4.815H226.773a4.819,4.819,0,0,1,4.813,4.815,1.945,1.945,0,0,1-.029.33l-1.318,7.679a2.209,2.209,0,0,1-.054.232c-1.592,5.277-5.268,8.556-9.6,8.556M24.893,159.268c.873,2.7,3.011,5.789,6.267,5.789H220.582c3.739,0,5.385-4.205,5.845-5.677l1.262-7.347a.926.926,0,0,0-.916-.806H24.858a.926.926,0,0,0-.918.831Z" transform="translate(1183.893 822.69)"/><path class="l" d="M9.351,105.193l128.316.039a12.33,12.33,0,0,1,10.518,7.152l32.007,78.041c1.619,3.948-3.917,11.306-8.106,11.3l-128.332-.037a12.33,12.33,0,0,1-10.516-7.157L1.227,116.468c-1.619-3.95,3.936-11.275,8.125-11.275" transform="translate(1163.4 777.489)"/><path d="M173.095,204.681,44.76,204.644a14.249,14.249,0,0,1-12.315-8.365L.434,118.211c-.951-2.319-.323-5.395,1.72-8.442,1.708-2.543,4.879-5.515,8.2-5.515l128.318.039a14.251,14.251,0,0,1,12.317,8.361L183,190.7c.955,2.328.325,5.42-1.731,8.485-1.7,2.537-4.862,5.5-8.172,5.5M10.357,108.144c-1.384,0-3.523,1.629-4.974,3.793-1.233,1.836-1.774,3.764-1.351,4.8l32.011,78.07a10.4,10.4,0,0,0,8.717,5.946l128.332.037v1.946l0-1.946c1.372,0,3.5-1.623,4.943-3.776,1.242-1.855,1.791-3.8,1.362-4.846l-32-78.041a10.4,10.4,0,0,0-8.719-5.944Z" transform="translate(1162.392 776.481)"/><path class="m" d="M43.133,127.78c-7.007.093-10.253,5.13-7.256,11.254s11.1,11.01,18.11,10.918,10.253-5.128,7.256-11.252-11.107-11.012-18.11-10.92" transform="translate(1199.676 801.713)"/><g transform="translate(972.725 638.218)"><g transform="translate(0 338.181)"><path class="h" d="M13.721,49.152H940.238c7.42,0,13.454,5.251,13.454,11.724s-6.034,11.716-13.454,11.716H13.721C6.283,72.592.258,67.341.258,60.876S6.283,49.152,13.721,49.152" transform="translate(1.526 -47.368)"/><path d="M941.136,75.9H15.874C7.118,75.9,0,69.849,0,62.4S7.118,48.894,15.874,48.894H941.136c8.737,0,15.874,6.062,15.874,13.508s-7.137,13.5-15.874,13.5M15.874,53.026c-6.073,0-11.016,4.2-11.016,9.377S9.8,71.779,15.874,71.779H941.136c6.073,0,11.016-4.212,11.016-9.377s-4.943-9.377-11.016-9.377Z" transform="translate(0 -48.894)"/></g></g><g transform="translate(-0.001)"><g transform="translate(-0.002 -0.512)"><path class="n" d="M102.263,158.621a49.305,49.305,0,0,1-15.093-2.236,2.537,2.537,0,0,1,1.554-4.829,44.182,44.182,0,0,0,13.54,1.994c.475,0,.933-.006,1.4-.019a18.294,18.294,0,0,0,2.962-.307,2.535,2.535,0,1,1,.939,4.982,23.679,23.679,0,0,1-3.776.4c-.5.01-1.005.017-1.5.017Zm15.459-5.876a2.536,2.536,0,0,1-1.71-4.41c3.65-3.324,7-8.284,10.236-15.163a2.537,2.537,0,0,1,4.591,2.162c-3.528,7.49-7.26,12.97-11.41,16.751a2.523,2.523,0,0,1-1.708.661m-40.662-1.772a2.543,2.543,0,0,1-1.5-.489,45.755,45.755,0,0,1-13.18-15.567,2.537,2.537,0,0,1,4.475-2.392,40.635,40.635,0,0,0,11.7,13.866,2.536,2.536,0,0,1-1.5,4.582m205.658-.375a2.54,2.54,0,0,1-.748-.112,27.6,27.6,0,0,1-15.623-11.832c-.249-.392-.483-.8-.7-1.237a2.536,2.536,0,1,1,4.516-2.307q.227.438.473.831a22.671,22.671,0,0,0,12.836,9.7,2.535,2.535,0,0,1-.748,4.958m-17.8-23.648a2.537,2.537,0,0,1-2.514-2.226c-.742-6.05-1.005-13.345-1.167-19.681a2.537,2.537,0,1,1,5.072-.126c.155,6.214.413,13.354,1.132,19.188a2.538,2.538,0,0,1-2.209,2.827,2.641,2.641,0,0,1-.313.019M133.2,125.418a2.537,2.537,0,0,1-2.381-3.405c2.288-6.282,4.4-13.119,5.981-18.373a2.537,2.537,0,1,1,4.858,1.463c-1.6,5.318-3.743,12.245-6.075,18.647a2.539,2.539,0,0,1-2.383,1.668m130.326-30.2a2.536,2.536,0,0,1-2.535-2.487c-.141-7.179-.3-13.223-.609-19.385a2.535,2.535,0,1,1,5.063-.257c.315,6.228.477,12.317.618,19.544a2.538,2.538,0,0,1-2.485,2.585h-.052m-120.79-.1a2.539,2.539,0,0,1-2.433-3.258c1.677-5.652,3.642-12.224,5.747-18.676a2.535,2.535,0,1,1,4.821,1.573c-2.085,6.392-4.037,12.925-5.706,18.545a2.535,2.535,0,0,1-2.429,1.816m9.749-30.243a2.534,2.534,0,0,1-2.377-3.416A190.105,190.105,0,0,1,157.8,43.315a2.535,2.535,0,1,1,4.549,2.238,186.118,186.118,0,0,0-7.482,17.667,2.541,2.541,0,0,1-2.379,1.656m109.561-1.384a2.534,2.534,0,0,1-2.52-2.3,157.871,157.871,0,0,0-2.821-18.935,2.537,2.537,0,0,1,4.956-1.086,162.513,162.513,0,0,1,2.912,19.547,2.536,2.536,0,0,1-2.284,2.763c-.081.006-.162.01-.242.01M166.012,36.231a2.536,2.536,0,0,1-2.147-3.88A83.132,83.132,0,0,1,176.28,16.7a2.535,2.535,0,0,1,3.53,3.639,78.246,78.246,0,0,0-11.644,14.7,2.531,2.531,0,0,1-2.153,1.192m89.809-3.78a2.539,2.539,0,0,1-2.381-1.668,46.82,46.82,0,0,0-9.13-15.832,2.536,2.536,0,0,1,3.724-3.443A51.807,51.807,0,0,1,258.2,29.043a2.54,2.54,0,0,1-2.383,3.407M187.615,13.486a2.535,2.535,0,0,1-1.353-4.68,56.232,56.232,0,0,1,18.68-7.494,2.536,2.536,0,0,1,1.024,4.968,51.218,51.218,0,0,0-17,6.817,2.537,2.537,0,0,1-1.351.39m48.824-4.964a2.5,2.5,0,0,1-1.09-.249,33.036,33.036,0,0,0-12-3.022c-1.71-.118-3.416-.18-5.076-.18l-.657,0A2.536,2.536,0,0,1,217.568,0l.688,0c1.791,0,3.617.064,5.441.193a38.079,38.079,0,0,1,13.837,3.5,2.537,2.537,0,0,1-1.094,4.825" transform="translate(1228.982 664.66)"/><path class="n" d="M175.93,76.723a2.536,2.536,0,0,1-.108-5.07,42.01,42.01,0,0,0,8.912-1.312,2.537,2.537,0,0,1,1.426,4.868,46.321,46.321,0,0,1-10.118,1.511c-.037,0-.075,0-.112,0" transform="translate(1348.373 739.998)"/><path class="j" d="M68.12,95.611s-2.442-6.784-5.072-10.145-7.395-8.309-3.55-10.649,8.541-.607,13.861,6.933c10.514,14.889,6.763,25.358,6.763,25.358s2.35.5,4.566,6.763,3.38,9.3,3.38,9.3,5.051,19.5,12,31.275S112.751,174.9,112.751,174.9s26.975-23.455,37.025-30.772,27.553-20.378,41.591-19.781a167.474,167.474,0,0,1,22.316,2.2l6.931-4.566-.846-4.226s-14.121,4.116-21.808-8.794-3.55-31.783-3.55-31.783l.846-13.859s-2.425-8.525-3.888-12.174-3.009-10.653,0-9.13,5.072,2.7,5.072,2.7,1.239-12.031,3.888-10.817,1.712,4.991,8.114,4.562,42.658-9.182,54.269,4.4,14.079,30.206,11.327,39.731c-5.8,20.073-26.2,26.369-26.2,26.369a14.376,14.376,0,0,0-.676,10.653,41.839,41.839,0,0,0,5.747,10.145s37.588.628,53.593,8.96,29.793,36.036,40.067,63.9,21.167,55.284,20.794,62.383-3.536,17.408-22.485,20.286c-25.6,3.89-128.656,1.521-128.656,1.521s-37.528-4.585-46.322-11.327-6.655-8.21-10.819-10.313-12.8-4.763-11.664-10.311,7.136-2.323,10.819.168,1.691.34,1.691.34l.674-10.821s-3.975-2.549-4.056-4.4a27.675,27.675,0,0,1,.508-4.9s-4.064.11-4.736-2.029,1.016-5.072,1.016-5.072-6.539,2.106-5.915-1.521.742-7.807,5.239-7.606,12,1.349,12,1.349l.338-17.75s-26.187,23.561-46.15,28.908-34.848-13.515-50.55-49.7-24.009-50.718-24.009-50.718S32.873,117.331,36.5,112.179s5.242-2.537,5.242-2.537-.487-7.857,5.917-10.483a48.227,48.227,0,0,1,11.327-3.21Z" transform="translate(1200.781 700.934)"/><path class="o" d="M161.191,79.461A49.992,49.992,0,0,1,176.24,86.9a53.133,53.133,0,0,1,10.143,9.465s17.333-23.8,2.535-46.322S153.062,35.263,147.5,35.673s-18.1,4.918-21.134,3.548-3.782-4.678-5.915-4.056-2.875,9.635-2.875,9.635l-6.427-2.029a17.3,17.3,0,0,0,.51,8.116,55.853,55.853,0,0,0,3.55,8.96l5.917-5.577,1.183,3.21,8.62-3.886,1.186,4.056,11.329.676-1.693,5.409s12.7-2.062,15.893,3.89a32.033,32.033,0,0,1,3.548,11.834" transform="translate(1281.334 701.194)"/><path class="p" d="M132.394,89.811l8.96-6.765,4.226,12.512-4.564,3.213-3.888,57.311-6.763,9.805-8.114,2.873-8.624-16.736,21.81-54.606Z" transform="translate(1284.267 753.734)"/><path class="p" d="M173.08,182.792s1.221-54.78,7.608-73.539,21.47-29.924,21.47-29.924-34.477-6.365-52.239,7.269-47.338,41.083-47.338,41.083S93.418,116.387,90.747,112.3a99.232,99.232,0,0,1-5.915-11.667s-2.5,17.269-12.174,19.951-25.02-4.566-25.02-4.566,9.225,18.747,15.385,32.629S89.244,184.3,102.243,183.3s50.886-28.738,50.886-28.738l-1.689,17.582Z" transform="translate(1213.487 748.156)"/><path class="p" d="M131.335,194.958s-.041-50.165,4.732-73.2c5.828-28.11,24.515-40.913,24.515-40.913s50.791,3.5,58.494,15.553,19.42,44.585,30.26,66.443,19.42,50.268,14.541,60.859-17.035,11.521-25.866,12.678-97.04,1.016-97.04,1.016,14.761-15.437,11.327-25.358a30.874,30.874,0,0,0-12-15.045l-9.13-.34Z" transform="translate(1303.078 751.372)"/><path class="o" d="M250.059,113.481c.562,5.807,2.114,10.618,4.732,14.367,9.457,1.241,18.566,2.748,28.061,4.228,9.374,1.459,18.655,2.479,26.542,5.577,14.916,5.861,22.912,19.515,29.582,34.654,6.5,14.749,11.754,31.391,17.578,46.824,2.821,7.468,6.017,15.217,8.622,23.5,2.537,8.066,5.577,17.161,4.9,27.213a17.937,17.937,0,0,1-7.6,14.031c-10.5,7.2-30.455,7.269-48.517,7.269-18.1,0-37.085.34-55.276.34a520.719,520.719,0,0,1-53.077-2.537c-8.616-.9-16.442-1.917-23.329-4.564a54.741,54.741,0,0,1-17.07-10.651c.164,2.1.537,5.094.844,8.452.232,2.551,1.364,7.126-1.859,7.1-3.405-.783-2.74-5.832-3.043-9.3-.334-3.8-.839-7.774-1.014-11.157-3.08-2.935-10.846-3.146-13.188-7.606-1.944-3.71-.684-8.605,2.707-9.805,3.482-1.231,6.665.636,9.465,1.523-.166-2.07.767-3.876.338-5.409-.247-.877-2.16-2.129-2.7-3.212a8.4,8.4,0,0,1-.846-5.579c-2.68-1.186-5.617-2.9-4.736-7.1-7.783-.613-4.73-9.2.17-11.662,3.575-1.8,8.054-1.4,11.665-.678.607-3.733.984-7.691,1.521-11.495-11.41,9.223-22.782,18.825-38.2,24-8.34,2.8-18.744,3.275-25.862-.676-6.562-3.644-11.213-9.41-15.553-15.721-8.475-12.33-15.159-26.546-21.638-40.911-6.566-14.56-14.245-28.021-19.439-42.934-6.046-2.622-13.171-15.851-6.083-21.976a10.129,10.129,0,0,1,4.732-2.2c1.04-3.72,2.6-6.707,5.407-8.622,4.732-3.223,12.129-3.525,19.271-4.4-1.36-6.452-10.33-7.594-9.8-15.551.189-2.866,1.687-5.136,4.734-5.409,3.8-.342,7.691,2.284,10.143,4.4,7,6.035,11,15.683,12,27.553a31.339,31.339,0,0,0,0,3.213c.135.7,1.194,1.689,1.689,2.535,1.588,2.707,2.164,6.12,3.38,9.128.276.68.877,1.231,1.183,1.859,1.051,2.151,1.633,4.678,2.535,6.931a292.365,292.365,0,0,0,22.143,44.121c14.479-10.6,26.523-24.262,40.741-34.993,13.689-10.332,31.466-16.048,56.289-14.029,2.829.23,5.167,1.291,6.085-1.353.96-.336,2.058-.613,1.353-1.857-.539-.949-2.6-.006-4.566,0-11.521.035-18.222-7.254-21.468-15.215-2.786-6.827-2.972-15.472-1.181-23.665.547-2.522.821-5.876,3.38-5.747,3.633.18,1.536,4.431.844,8.114-2.786,14.84,1.782,27.675,13.186,30.933,8.437,2.41,14.313-1.154,19.271-4.9,1.716-1.3,3.625-3.447,5.24-3.213a2.462,2.462,0,0,1,1.859,2.029c.249,2.5-4.025,4.736-5.409,5.745a31.017,31.017,0,0,1-6.931,4.058c.547,2.214.943,4.58,1.353,6.931,9.758-.551,15.81-4.81,20.454-10.481-.518-4.719-1.49-8.027,0-10.817,2.232-4.189,8.773-4.168,11.155-8.62,2.555-4.784-.771-9.142-6.423-6.763a14.5,14.5,0,0,0-4.056,2.7c-1.121,1.018-2.452,2.771-3.89,2.7-2.558-.118-2-2.719-1.857-5.239.385-6.672.311-15.478-3.38-19.1-4.493-4.41-18.239.715-16.228-8.284-4.195.07-9.227-.3-10.143-4.056-2.6.9-6.713,3.534-9.465,1.183a10.974,10.974,0,0,0-2.2,5.409c-.4,2.124-.429,4.827-2.365,5.07-3.59.454-2.846-4.908-1.861-7.606a61.827,61.827,0,0,1-4.564-9.8c-1.144-3.072-3.157-9.24.17-10.821,1.776-.844,4.274-.158,5.747.676,1.3-3.213,1.028-8.755,4.566-9.3,4-.613,4.535,4.1,7.266,4.9,2.9.854,7.242-.659,9.973-1.183,9.441-1.8,20.181-3.588,30.935-1.521,12.278,2.357,20.5,10.087,25.356,20.117,5.219,10.78,5.826,26.326-.17,37.02-5.4,9.638-14.349,15.787-24.173,21.3M198.331,48.062c-2.12.176-2.85-1.648-4.9-2.029.883,3.853,2.415,7.053,3.72,10.481,1.337-.63,2.667-3.5,5.07-3.38,1.411.07,1.94,1.159,2.875,2.2,2.475-.827,7.2-3.816,9.465-1.351.674.734.491,1.878,1.186,2.873,3.376,2.023,11.19-2.232,11.492,2.2.124,1.791-1.405,2.315-1.689,4.058,6.081.5,11.233.593,14.537,3.55,4.541,4.064,5.2,11.279,5.242,19.947,6.375-4.873,17.213-2.715,17.24,5.917.023,6.549-4.665,10.166-8.958,12.17-1.474.686-3.957,1.177-4.058,3.55,12.836-7.716,25.538-16.141,24.343-37.19-.972-17.055-13.157-31.24-30.765-32.117a84.347,84.347,0,0,0-16.9,1.011c-4.868.732-9.778,2.383-15.215,2.7-4.835.29-6.947-1.778-9.126-3.716-1.362,2.939-.145,8.844-3.552,9.128M69.864,81.534c-1.853-1.76-5.449-4.628-7.946-3.552-.96,2.093.267,3.9,1.351,5.072,1.849,1.99,4.352,3.818,6.255,6.931a26.238,26.238,0,0,1,2.2,4.394c.589,1.55,1.646,3.766,1.355,5.412-.17.949-.951,1.134-1.018,1.859a12.661,12.661,0,0,1,4.4,1.351c1.38.6,2.767,1.61,3.55,1.523-.512-8.916-4.7-17.828-10.141-22.989m-12.51,20.114c-7.045,5.5-5.853,22.193,5.915,20.114a22.219,22.219,0,0,1,2.367-6.255c-6.106,1.722-13.689-1.152-11.157-6.929,2.008-4.578,8.985-7.611,15.385-7.271-.558-.68-.692-1.785-1.355-2.367-4.46.158-8.193.392-11.155,2.707m-4.226,22.143c-3.843-3.231-5.994-10.962-4.056-17.41.441-1.476,1.341-2.643,1.183-3.552-5.751,4.508-4.112,19.074,2.873,20.962m3.378,25.526c9.94,4.425,22.8,2.4,28.741-4.226,3.1-3.461,4.156-9.7,3.04-15.553-.4-2.124-2.012-4.274-2.7-6.425-.738-2.286-.989-4.35-1.693-6.253-2.189-5.928-6.2-10.083-13.014-11.327A12.126,12.126,0,0,0,58.2,110.777a6.975,6.975,0,0,0,5.07,1.016c3.148-.327,9.036-4.624,9.47-.34.155,1.565-2.46,4.638-3.382,6.255-1.069,1.874-2.558,4.819-2.2,7.606.4,3.063,2.887,4.945,4.9,6.593,1.557,1.273,3.443,2.145,3.382,3.72-.166,4.313-5.917-.124-7.1-1.186a20.637,20.637,0,0,1-5.409-7.946c-2.821-.226-3.851.761-6.083,1.353-1.3,2.868-5.032,3.308-8.114,4.4a138.58,138.58,0,0,0,7.772,17.074m-7.6-21.978c-.464-.989-1.784-1.615-2.539-2.535a20.462,20.462,0,0,1-4.224-12c-.1-.01-.2-.027-.17-.168-.01-.1-.025-.2-.17-.17-5.449,3.662.162,15.826,7.1,14.873M242.62,141.034c1.318-1.37,2.991-2.862,4.564-4.732,1.32-1.571,3.517-4.129,3.38-6.087-.062-.922-1.289-2.531-2.027-4.056-.858-1.774-1.494-3.826-2.029-4.734-3.258,3.884-9.955,7.577-16.734,8.79-4.046.723-9.66,1.84-9.973-2.027-3.683,5.049-7.161,10.3-9.13,17.072,2.323-1.766,4.415-3.337,6.933-5.407,1.426-1.175,4.991-5.273,7.269-5.074,2.388.211,3.741,5.208,4.732,7.269,1.44,2.993,2.8,5.258,3.888,8.114,3-2.031,5.656-5.511,9.128-9.128M198.331,128.7c-21.667,1.007-34.059,8.062-46.146,18.423-11.544,9.895-22.276,20.645-34.314,30.258,1.5,1.733,2.473,3.747,4.226,6.255,1.02,1.461,4.28,4.444,4.054,6.591a2.476,2.476,0,0,1-2.365,2.031c-1.424-.041-3.065-2.564-3.886-3.718a301.025,301.025,0,0,1-20.456-33.642c-2.431,10.583-10.761,18.628-24.34,17.584a25.711,25.711,0,0,1-8.622-2.539c5.225,11.4,9.381,21.46,15.721,32.457,5.449,9.451,12.253,21.5,22.483,25.7,8.2,3.362,18.09.367,24.848-2.537,12.025-5.165,21.491-12.251,30.935-20.454,1.608-1.4,4.446-3.554,5.07-5.237.835-2.263.955-5.708,1.351-8.622.864-6.307,1.565-11.246,2.537-17.582.446-2.9.448-7.047,3.213-6.933,3.418.147,1.809,4.983,1.351,7.946-2.357,15.273-4.551,30.85-6.425,45.81,4.775,2.044,10.108,4.1,14.369,6.595.761.444,1.451,1.424,2.367,1.181,2.976-38.666,1.826-81.455,26.2-98.719.313-.039,1.44-.638.676-.676a77.679,77.679,0,0,0-12.848-.168m-5.24,50.2c-2.191,16.7-3.557,35.265-4.394,52.909,2.709,2.682,6.263,4.609,9.633,7.269,1.331,1.049,3.065,2.143,4.9,3.55,1.6,1.217,3.2,3.356,4.736,3.716,1.787.425,4.11-.137,6.083-.168,6.454-.1,12.4-.439,18.765-.508.133-34.053,1.02-68.756,11.665-92.464a66.581,66.581,0,0,1,12.338-18.087c.62-.669,1.9-1.542,1.521-2.2-1.173-.122-2.263-.325-3.38-.506-2.533,5.743-6.359,9.569-11.155,14.367-1.544,1.542-3.132,3.262-5.074,5.242-1.6,1.631-3.766,4.757-5.915,4.564-2.3-.209-2.383-3.36-3.718-4.4-2.359.937-1.7,3.981-1.861,6.085-1.121,15.155-1.957,30.144-3.04,45.135-.195,2.672.091,5.621-.508,7.606-.379,1.254-2.106,3.088-3.212,4.4-1.244,1.467-2.526,2.692-3.718,3.886-2.166,2.166-5.737,6.129-9.805,5.579-3.283-.444-5.136-5.424-6.591-8.452-.883-1.836-1.465-3.248-2.2-5.072-.721-1.8-1.9-3.745-1.859-5.409.044-1.787,1.658-4.821,2.535-7.1,5.42-14.085,10.7-27.563,16.228-41.582.825-2.091,2.736-5.242,2.7-6.931-.023-1.221-1.316-2.357-1.181-3.55a43.383,43.383,0,0,0-4.9,3.886c-1.289,1.057-3.391,3.583-5.409,3.382-3.843-.383-1.142-6.628-.17-9.633.984-3.045,2.075-6.085,2.537-7.271-9.762,9.6-13.352,24.977-15.553,41.754m66.942-40.233c-1.428,1.53-2.767,2.953-4.058,4.564C238.052,165.6,238.118,205.3,237.551,245.5c17.739-.574,35.738-.887,53.417-1.521.669-4.626,1.246-9,1.859-13.354.207-1.482.8-3.287.676-4.564-.1-1.084-1.229-3.043-1.859-4.566-3.907-9.422-7.362-18.067-11.157-27.383-.74-1.814-2.6-5.971,1.013-5.917,2.058.031,3.21,3.841,4.056,5.917,1.107,2.713,2.044,5.061,2.875,7.1,5.863,14.349,11.445,28.906,17.58,42.43,4.033-.035,7.376-.046,11.832-.168,2.489-.07,9.58-1.54,9.468,2.195-.083,2.715-4.278,2.367-7.776,2.367-23.37,0-48.271,1.6-70.321,1.859,3.853,3.405,8.083,7.389,8.622,14.369.667,8.69-3.573,15.721-7.1,20.454-.537.721-1.654,1.422-1.351,2.029,20.081.429,40.231-.168,60.853-.168,9.708,0,20.38.021,29.752-1.018,8.643-.956,18.417-2.85,22.651-8.114,5.2-6.466,1.994-20.193-.338-28.229-2.361-8.139-5.192-15.323-7.946-22.481-5.749-14.954-10.75-30.09-16.4-44.459-5.706-14.518-12.3-29.13-23.835-37.018-12.019-8.222-33.335-7.534-49.529-11.327-1.6,1.494-3.161,3.229-4.562,4.734M59.381,155.4a74.549,74.549,0,0,1,3.382,6.931c7.722,6.879,22.637,7.824,29.074-1.183a21.809,21.809,0,0,0,2.7-6.087c.667-2.077,1.805-5.208,1.523-7.436-.323-2.531-2.684-4.647-3.38-7.269-2.732,12.429-18.483,18.57-33.3,15.045m161.1-11.832c.775,2.155,1,4.862,2.7,6.085,1.753-.162,2.759-1.074,4.056-1.691a65.07,65.07,0,0,0-3.548-7.269c-.912,1.115-2.313,1.747-3.212,2.875m-19.439,62.374c1.975,5.07,3.629,10.456,6.931,14.2a19.607,19.607,0,0,0,6.253-4.732c1.426-1.559,4.311-4.214,4.9-6.087.539-1.716.352-4.5.508-6.761.788-11.6,1.6-23.52,2.195-34.822.253-4.742,1.067-9.269.678-13.524-.518.122-.5-.292-1.014-.17C214.526,171.2,208,188.8,201.038,205.945m-49.868,20.792c3.8.251,5.043-2.06,7.269-3.38-3.583-.037-6.28.817-7.269,3.38m4.564,6.423a3.039,3.039,0,0,0,2.2,1.013,23.876,23.876,0,0,1,15.551-6.083c-6.481-3.157-16.208-1.5-17.752,5.07m5.919,4.056a4.531,4.531,0,0,0-.676,5.072c4.083-4.187,9.735-7.81,17.915-6.253a11.463,11.463,0,0,0,6.085-.17c-5.729-3.739-18.877-3.911-23.325,1.351M295.7,243.979a37.567,37.567,0,0,0,5.072-.338c-1.428-2.854-2.375-6.191-3.888-8.96-.276,3.217-.792,6.2-1.183,9.3m-75.728,11.665c-.021,4.089-4.663,1.3-6.593.17-1.743-1.02-3-1.766-4.4-2.707-4.195-2.833-6.22-5.376-9.805-6.931-2.81-3.557-8.825-5.919-15.381-5.409-6.226.485-13.252,3.42-13.186,9.3,3.053-1.586,5.443-4.454,10.649-4.4,3.671.043,7.312,1.668,9.805,3.043,2.089,1.156,6.906,3.671,6.761,6.257A2.231,2.231,0,0,1,195.8,257c-1.6.137-2.442-1.188-3.55-2.027-3.3-2.5-7.225-4.556-12.17-4.568,4.8,6.914,1.774,17.561-7.778,14.709-7.217-2.155-13.167-9.08-21.13-9.3-1.623,4.86,3.438,5.163,6.425,6.253a21.562,21.562,0,0,1,7.944,5.409A55.675,55.675,0,0,0,181.091,278.8c10.077,4.773,26.2,5.812,40.063,6.929,1.973.16,5.016.725,6.423.34.879-.242,2.29-2.147,3.043-3.043,2.63-3.152,5.405-7.729,5.747-12.51.433-6.046-1.577-10.566-4.394-13.524-1.981-2.079-6.817-5.718-9.805-6.253-2.721-.489-4.887.17-7.776.338,1.606,1.683,5.59,1.685,5.579,4.564m-55.784-9.637c-.128,3.142-.373,6.166-.508,9.3,1.422.9,3.486,2.008,5.747,3.21,1.8.955,4.626,2.943,6.763,2.367,2.982-.808.982-6.728-.338-8.284-1.811.51-2.924,2.8-5.579,2.707-2.978-.1-4.612-3.619-4.564-6.425a9.933,9.933,0,0,1,2.7-6.085c.278-.338.974-.723.676-1.183-1.876,1.223-3.252,2.949-4.9,4.394M253.1,264.094c-.562-5.457-4.568-8.852-8.282-11.325-1.358-.9-3.215-2.489-4.734-2.7-2.591-.365-6.056.454-8.79.508a21.194,21.194,0,0,1,9.8,19.777c-.377,6.052-3.25,10.976-5.917,14.537-.3.4-1.219.858-.844,1.523,2.533.342,5.8-.056,8.282.338,4.858-5.389,11.524-12.552,10.481-22.653" transform="translate(1199.71 699.835)"/><path class="o" d="M134.836,54.292c.788,1.693,4.442,3.625,3.718,6.763a2.319,2.319,0,0,1-2.7,1.521c-1.656-.263-1.932-2.1-3.043-3.55a9.787,9.787,0,0,0-3.38-3.045c-2.734-1.084-6.5.595-6.593-2.535-.037-1.324.926-2.048,2.2-2.367,4.682-1.175,7.749,1.422,9.8,3.213" transform="translate(1294.141 719.131)"/><path class="o" d="M119.117,76.1c1.324,1.372,3.621,6.234,0,6.423-2.056.108-5.644-4.966-5.409-7.269.228-2.226,3.9-3.944,5.239-5.409,1.045-1.14,3.47-4.131,3.72-6.759a6.778,6.778,0,0,0-3.55-6.765c-1.413-.68-8.827-.317-6.085-4.4,1.223-1.818,6.3-.79,8.452.34a11.775,11.775,0,0,1,5.915,9.975c.056,7.208-4.429,9.385-8.282,13.859" transform="translate(1282.982 719.294)"/><path class="o" d="M118.374,63.447a2.5,2.5,0,0,1-2.7.674c-2.448-.889-2.122-8.964,1.186-8.788,2.464.131,3.018,6.263,1.519,8.114" transform="translate(1284.738 724.006)"/><path class="o" d="M126.73,55.518c3.07-.51,2.518,3.233,2.2,5.239-.257,1.617-.464,3.557-1.861,3.888a2.5,2.5,0,0,1-3.043-1.689c-.446-1.979.738-6.477,1.523-7.1a2.987,2.987,0,0,1,1.181-.338" transform="translate(1295.315 724.158)"/><path class="o" d="M141.882,61.009c.924-.209,2.56-.243,2.875,1.521.352,2-1.664,3.3-2.707,4.4-1.31,1.38-2.328,3.146-4.056,3.04a2.082,2.082,0,0,1-2.029-2.365c.035-1.548,4.56-6.284,5.917-6.593" transform="translate(1308.225 729.991)"/><path class="o" d="M129.884,65.938c2.05-.6,3.142.514,3.213,1.859.118,2.263-4.367,4.6-6.763,4.9-3.329.423-6.9-.07-6.761-2.7.158-2.949,4.241-1.517,6.425-2.029,1.832-.429,2.456-1.463,3.886-2.029" transform="translate(1290.641 735.206)"/><path class="a" d="M0,0H513.352V327.489H0Z" transform="translate(1162.393 664.66)"/></g><path class="n" d="M63.443,67.756a2.537,2.537,0,0,1-2.431-1.822,65.32,65.32,0,0,1-2.044-9.463l-.021-.147a2.525,2.525,0,0,1-.035-.812,2.55,2.55,0,0,1,5.08.267,60.5,60.5,0,0,0,1.886,8.728,2.538,2.538,0,0,1-2.435,3.25" transform="translate(1225.562 721.802)"/></g></g></svg>