<svg xmlns="http://www.w3.org/2000/svg" xmlns:xlink="http://www.w3.org/1999/xlink" width="876" height="472.162" viewBox="0 0 876 472.162"><defs><style>.a{fill:#ff5a5a;}.b{fill:#4f2aa3;}.c{fill:none;}.d,.l,.o,.q{fill:#d9b5ff;}.e,.g,.i,.m{fill:#fff;}.e{stroke:#707070;}.f{clip-path:url(#a);}.h{clip-path:url(#b);}.j{clip-path:url(#c);}.k{fill:#f5ebff;}.ac,.k,.m,.n,.o,.q,.u,.v,.w,.x{fill-rule:evenodd;}.l,.o{stroke:rgba(0,0,0,0);}.n{fill:#e7d1ff;}.p{clip-path:url(#d);}.r{clip-path:url(#e);}.s{clip-path:url(#f);}.t{clip-path:url(#g);}.v{fill:#ebebeb;}.w{fill:#7a38d5;}.x{fill:#121212;}.y{clip-path:url(#h);}.z{fill:#aa5cff;}.aa{fill:#6c33eb;}.ab{fill:#2d2e85;}.ac{fill:#60269e;}.ad{fill:#6433d1;}.ae,.af{stroke:none;}.af{fill:#60269e;}</style><clipPath id="a"><rect class="a" width="876" height="442" transform="translate(540 4926)"/></clipPath><clipPath id="b"><rect class="b" width="754.12" height="408.152" rx="8"/></clipPath><clipPath id="c"><rect class="c" width="216.581" height="238.981"/></clipPath><clipPath id="d"><path class="d" d="M72.3,43.962A12.857,12.857,0,0,0,59.441,56.82v54.321A12.856,12.856,0,0,0,72.3,124h44.518a12.857,12.857,0,0,0,12.857-12.857V56.82a12.858,12.858,0,0,0-12.857-12.858Z" transform="translate(-59.441 -43.962)"/></clipPath><clipPath id="e"><rect class="c" width="159.598" height="176.105"/></clipPath><clipPath id="f"><path class="d" d="M101.72,43.962a9.474,9.474,0,0,1,9.474,9.475V93.466a9.473,9.473,0,0,1-9.474,9.474h-32.8a9.474,9.474,0,0,1-9.474-9.474V53.437a9.475,9.475,0,0,1,9.474-9.475Z" transform="translate(-59.441 -43.962)"/></clipPath><clipPath id="g"><rect class="e" width="667.044" height="418.696" rx="18" transform="translate(0 0)"/></clipPath><clipPath id="h"><rect class="c" width="116.451" height="115.927"/></clipPath></defs><g transform="translate(-512 -4927.838)"><g class="f" transform="translate(-28 32)"><g transform="translate(-349.314 108.588)"><g class="g" transform="translate(944.848 4881.859)"><path class="ae" d="M 746.1157836914062 408.5526123046875 L 8.109953880310059 408.5526123046875 C 4.189554214477539 408.5526123046875 1.000054001808167 405.3631286621094 1.000054001808167 401.442626953125 L 1.000054001808167 8.109921455383301 C 1.000054001808167 4.189521312713623 4.189554214477539 1.000021457672119 8.109953880310059 1.000021457672119 L 746.1157836914062 1.000021457672119 C 750.0362548828125 1.000021457672119 753.2257690429688 4.189521312713623 753.2257690429688 8.109921455383301 L 753.2257690429688 401.442626953125 C 753.2257690429688 405.3631286621094 750.0362548828125 408.5526123046875 746.1157836914062 408.5526123046875 Z"/><path class="af" d="M 8.10992431640625 2.000030517578125 C 4.7408447265625 2.000030517578125 1.99993896484375 4.740936279296875 1.99993896484375 8.10992431640625 L 1.99993896484375 401.442626953125 C 1.99993896484375 404.8117065429688 4.7408447265625 407.5526123046875 8.10992431640625 407.5526123046875 L 746.1157836914062 407.5526123046875 C 749.4847412109375 407.5526123046875 752.2256469726562 404.8117065429688 752.2256469726562 401.442626953125 L 752.2256469726562 8.10992431640625 C 752.2256469726562 4.740936279296875 749.4847412109375 2.000030517578125 746.1157836914062 2.000030517578125 L 8.10992431640625 2.000030517578125 M 8.10992431640625 3.0517578125e-05 L 746.1157836914062 3.0517578125e-05 C 750.5947265625 3.0517578125e-05 754.2256469726562 3.63092041015625 754.2256469726562 8.10992431640625 L 754.2256469726562 401.442626953125 C 754.2256469726562 405.9217224121094 750.5947265625 409.5526123046875 746.1157836914062 409.5526123046875 L 8.10992431640625 409.5526123046875 C 3.6309814453125 409.5526123046875 -6.103515625e-05 405.9217224121094 -6.103515625e-05 401.442626953125 L -6.103515625e-05 8.10992431640625 C -6.103515625e-05 3.63092041015625 3.6309814453125 3.0517578125e-05 8.10992431640625 3.0517578125e-05 Z"/></g><g transform="translate(944.954 4881.859)"><g transform="translate(0 0)"><g class="h" transform="translate(0)"><rect class="b" width="778.564" height="51.813" transform="translate(-10.39 -5.457)"/></g></g></g><ellipse class="i" cx="7.096" cy="7.603" rx="7.096" ry="7.603" transform="translate(1585.535 4899.093)"/><ellipse class="i" cx="6.589" cy="7.603" rx="6.589" ry="7.603" transform="translate(1611.892 4899.093)"/><ellipse class="i" cx="7.096" cy="7.603" rx="7.096" ry="7.603" transform="translate(1638.249 4899.093)"/><g transform="translate(924.65 4983.861)"><g class="j"><path class="k" d="M18.669,5.813H205.839A12.858,12.858,0,0,1,218.7,18.669V228.238A12.858,12.858,0,0,1,205.839,241.1H18.669A12.858,12.858,0,0,1,5.812,228.238V18.669A12.858,12.858,0,0,1,18.669,5.813" transform="translate(-3.964 -3.964)"/><path class="l" d="M201.876,238.981H14.705A14.723,14.723,0,0,1,0,224.274V14.705A14.722,14.722,0,0,1,14.705,0H201.876a14.722,14.722,0,0,1,14.705,14.705V224.274a14.723,14.723,0,0,1-14.705,14.707M14.705,3.7A11.02,11.02,0,0,0,3.7,14.705V224.274a11.022,11.022,0,0,0,11.008,11.01H201.876a11.021,11.021,0,0,0,11.008-11.01V14.705A11.02,11.02,0,0,0,201.876,3.7Z" transform="translate(0 0)"/><rect class="i" width="68.125" height="3.697" transform="translate(95.081 59.704)"/><rect class="i" width="40.377" height="3.697" transform="translate(95.26 73.291)"/><rect class="i" width="68.123" height="3.697" transform="translate(95.171 86.542)"/><rect class="i" width="68.125" height="3.697" transform="translate(95.081 59.704)"/><rect class="i" width="68.123" height="3.697" transform="translate(95.171 86.542)"/><rect class="i" width="68.125" height="3.697" transform="translate(95.081 59.704)"/><rect class="i" width="40.377" height="3.697" transform="translate(95.26 73.291)"/><rect class="i" width="68.123" height="3.697" transform="translate(95.171 86.542)"/><rect class="i" width="68.125" height="3.697" transform="translate(95.081 59.704)"/><rect class="i" width="18.319" height="3.697" transform="translate(145.064 73.291)"/><rect class="i" width="68.123" height="3.697" transform="translate(95.171 86.542)"/><rect class="i" width="68.125" height="3.697" transform="translate(95.081 23.305)"/><rect class="i" width="40.377" height="3.697" transform="translate(95.26 36.889)"/><rect class="i" width="68.123" height="3.697" transform="translate(95.171 50.14)"/><rect class="i" width="68.125" height="3.697" transform="translate(95.081 23.305)"/><rect class="i" width="18.319" height="3.697" transform="translate(145.064 36.889)"/><rect class="i" width="68.123" height="3.697" transform="translate(95.171 50.14)"/><path class="i" d="M159.229,482.835l-15.379-21.5-12.977,16.454-42.85-8.147-.324-1.071-20.286-66.7,3.536-1.075L90.91,466.422l38.447,7.313,14.637-18.558,18.243,25.508Z" transform="translate(-45.973 -273.331)"/><path class="m" d="M350.616,635.954a6.67,6.67,0,1,1-6.668,6.67,6.669,6.669,0,0,1,6.668-6.67" transform="translate(-234.562 -433.701)"/><path class="m" d="M293,563.687a6.67,6.67,0,1,1-6.67,6.67,6.67,6.67,0,0,1,6.67-6.67" transform="translate(-195.27 -384.417)"/><path class="m" d="M251.51,617.76a6.108,6.108,0,1,1-6.106,6.108,6.109,6.109,0,0,1,6.106-6.108" transform="translate(-167.359 -421.293)"/><path class="m" d="M124.938,592.494a5.866,5.866,0,1,1-5.865,5.867,5.865,5.865,0,0,1,5.865-5.867" transform="translate(-81.204 -404.063)"/><path class="m" d="M57.842,380.757a6.99,6.99,0,1,1-6.992,6.992,6.992,6.992,0,0,1,6.992-6.992" transform="translate(-34.678 -259.665)"/><path class="n" d="M72.3,43.962h44.518a12.858,12.858,0,0,1,12.856,12.859v54.321A12.856,12.856,0,0,1,116.816,124H72.3a12.855,12.855,0,0,1-12.857-12.856V56.821A12.857,12.857,0,0,1,72.3,43.962" transform="translate(-40.537 -29.981)"/><path class="o" d="M153.017,140.489c.888,0,1.608,1.006,1.608,2.249s-.72,2.251-1.608,2.251-1.608-1.008-1.608-2.251.72-2.249,1.608-2.249" transform="translate(-103.256 -95.809)"/><path class="o" d="M190.414,138.97c.888,0,1.608,1.008,1.608,2.251s-.72,2.249-1.608,2.249-1.606-1.006-1.606-2.249.72-2.251,1.606-2.251" transform="translate(-128.761 -94.773)"/></g><g transform="translate(18.904 13.981)"><g class="p"><path class="q" d="M96.185,122.276a50.631,50.631,0,0,1,6.106,9.8c.512,1.048,1.668,2.423.322,3.535-1.654.5-2.241-1.077-2.733-2.089-3.5-7.209-8.27-13.776-15.587-17.355-5,6.1-12.116,11.823-22.819,12.373-11.342.581-18.3-5.093-23.139-11.892-5.886,1.436-8.493,8.031-8.838,14.946-.093,1.894.51,5-1.286,5.141-2.755.222-1.374-8.074-.965-10.122.765-3.807,3.12-8.73,6.108-10.768,3.406-2.324,8.863-3.054,13.819-4.016,4.388-.853,5.657-1.116,6.106-6.427.326-3.828.7-7.006-1.284-8.518a8.313,8.313,0,0,1-4.5-.481c-4.61-2.2-3.917-11.38,1.125-11.73,1.913-.135,2.62.921,4.016,1.606.3-2.156.929-4.091,1.448-6.427.413-1.855.512-5.22,1.606-6.266,1.373-1.313,5.678-.126,7.554.32a26.758,26.758,0,0,1,12.211,5.946c1.705,1.392,3.62,2.886,4.5,4.5,1.272,2.336,1.554,5.749,1.286,8.516-.593,6.124-4.786,10.925-12.535,10.606.108,3-.274,5.51-.16,8.517,11.593-1.809,20.763,2.021,25.871,8.195,1.261-2.475,2.207-3.541,1.768-6.106-.9-5.286-6.7-5.359-8.838-9.16-2.934-5.218.145-15.166,0-21.051a20.334,20.334,0,0,0-5.141-13.336,29.456,29.456,0,0,0-23.462-9.16A19.015,19.015,0,0,0,46.05,67.32c-3.079,3.282-5.123,6.967-5.143,13.336-.017,6.261,1.062,12.649-2.409,16.392-2.239,2.411-5.417,3.9-8.035,5.946-3.1,2.421-8.02,6.631-7.23,13.016.373,3.041,3.284,5.274,2.57,9-.572,2.983-4.514,3.174-5.462,5.946a5.781,5.781,0,0,0,1.284,5.463,11.261,11.261,0,0,0,5.784,3.054c1.718.409,6.633.284,6.749,1.927.166,2.319-4.126,1.419-6.427.965-3.9-.77-5.987-1.633-7.875-3.536a10.023,10.023,0,0,1-2.568-6.106c-.056-4.587,3.558-5.8,5.784-8.517-.884-4.371-3.116-5.467-2.73-10.446.411-5.328,3.6-8.975,6.907-11.892,3.838-3.382,10.462-5.5,11.089-11.087.517-4.593-.394-9.05-.162-12.533A20.776,20.776,0,0,1,44.6,64.588a22.386,22.386,0,0,1,14.462-6.106C72.6,57.549,84.8,66.015,88.634,75.353a22.855,22.855,0,0,1,1.444,6.589c.435,6.464-1.606,12.06-1.125,18.159.423,5.332,4.68,5.382,7.554,8.514a10.187,10.187,0,0,1-.322,13.66M58.744,100.1c.286-2.272,3.759-.4,4.66-.162,4.058,1.075,9.535,1,11.892-.965,2.5-2.089,4.508-8.687,2.409-13.016-.585-1.208-2.334-2.512-3.695-3.7a28.431,28.431,0,0,0-16.068-6.427c-.189.027-.174.253-.16.481-.653,2.295-1.22,5.019-1.77,7.392-.444,1.925-.641,6.618-2.57,6.749-1.718.116-2.668-3.222-4.66-2.892-1.508.249-1.869,2.871-1.608,4.179.6,3,3.6,1.755,5.786,2.411,1.143.34,3.06,2.737,3.373,4.176.442,2.037-.01,5.056-.162,7.232a13.556,13.556,0,0,1-1.444,5.946c-2.346,3.714-8.357,2.677-13.338,4.338,4.2,6.114,10.788,10.549,21.049,9.8,7.513-.548,13.315-4.693,17.516-8.516.512-.467,1.448-1.158,1.286-1.929-3.865-1.193-9.317-.8-13.659-.322-3.411-1.236-1.384-7.946-1.446-11.568-1.606-.569-7.707-.714-7.392-3.214" transform="translate(-30.693 -53.816)"/><path class="q" d="M166.109,165.428c1.749-.768,2.106,1.668,3.7,1.768,1.027.065,3.211-2.11,3.855-.16.631,1.907-2.558,3.056-3.695,3.052-1.548-.006-4.517-1.463-4.66-3.214-.087-1.05.355-1.249.8-1.446" transform="translate(-131.63 -126.696)"/></g></g></g><g transform="translate(1495.938 5095.643)"><g class="r"><path class="k" d="M153.212,5.813H15.286a9.475,9.475,0,0,0-9.474,9.474V169.718a9.475,9.475,0,0,0,9.474,9.475H153.212a9.475,9.475,0,0,0,9.474-9.475V15.287a9.475,9.475,0,0,0-9.474-9.474" transform="translate(-4.45 -4.451)"/><path class="l" d="M10.836,176.1H148.762A10.849,10.849,0,0,0,159.6,165.267V10.836A10.849,10.849,0,0,0,148.762,0H10.836A10.849,10.849,0,0,0,0,10.836V165.267A10.85,10.85,0,0,0,10.836,176.1M148.762,2.724a8.121,8.121,0,0,1,8.112,8.112V165.267a8.122,8.122,0,0,1-8.112,8.113H10.836a8.122,8.122,0,0,1-8.112-8.113V10.836a8.12,8.12,0,0,1,8.112-8.112Z" transform="translate(0)"/><rect class="i" width="50.201" height="2.724" transform="translate(39.332 43.996)"/><rect class="i" width="29.754" height="2.724" transform="translate(59.648 54.008)"/><rect class="i" width="50.2" height="2.724" transform="translate(39.268 63.773)"/><rect class="i" width="50.201" height="2.724" transform="translate(39.332 43.996)"/><rect class="i" width="50.2" height="2.724" transform="translate(39.268 63.773)"/><rect class="i" width="50.201" height="2.724" transform="translate(39.332 43.996)"/><rect class="i" width="29.754" height="2.724" transform="translate(59.648 54.008)"/><rect class="i" width="50.2" height="2.724" transform="translate(39.268 63.773)"/><rect class="i" width="50.201" height="2.724" transform="translate(39.332 43.996)"/><rect class="i" width="13.499" height="2.724" transform="translate(39.202 54.008)"/><rect class="i" width="50.2" height="2.724" transform="translate(39.268 63.773)"/><rect class="i" width="50.201" height="2.724" transform="translate(39.332 17.173)"/><rect class="i" width="29.754" height="2.724" transform="translate(59.648 27.184)"/><rect class="i" width="50.2" height="2.724" transform="translate(39.268 36.948)"/><rect class="i" width="50.201" height="2.724" transform="translate(39.332 17.173)"/><rect class="i" width="13.499" height="2.724" transform="translate(39.202 27.184)"/><rect class="i" width="50.2" height="2.724" transform="translate(39.268 36.948)"/><path class="i" d="M69.63,461.251,80.963,445.4l9.563,12.125,31.576-6,.239-.789,14.949-49.148-2.605-.792-14.71,48.359-28.332,5.389L80.856,440.87l-13.443,18.8Z" transform="translate(6.511 -306.868)"/><path class="m" d="M348.863,635.954a4.915,4.915,0,1,0,4.914,4.915,4.914,4.914,0,0,0-4.914-4.915" transform="translate(-274.785 -486.914)"/><path class="m" d="M291.248,563.687a4.915,4.915,0,1,0,4.915,4.915,4.915,4.915,0,0,0-4.915-4.915" transform="translate(-203.669 -431.583)"/><path class="m" d="M249.906,617.76a4.5,4.5,0,1,0,4.5,4.5,4.5,4.5,0,0,0-4.5-4.5" transform="translate(-152.319 -472.984)"/><path class="m" d="M123.395,592.494a4.323,4.323,0,1,0,4.322,4.323,4.322,4.322,0,0,0-4.322-4.323" transform="translate(3.976 -453.64)"/><path class="m" d="M56,380.757a5.151,5.151,0,1,0,5.152,5.152A5.153,5.153,0,0,0,56,380.757" transform="translate(86.527 -291.524)"/><path class="n" d="M101.72,43.962H68.915a9.475,9.475,0,0,0-9.474,9.475V93.466a9.474,9.474,0,0,0,9.474,9.474H101.72a9.473,9.473,0,0,0,9.474-9.474V53.437a9.474,9.474,0,0,0-9.474-9.475" transform="translate(34.474 -33.659)"/><path class="o" d="M152.594,140.489c-.654,0-1.185.742-1.185,1.657s.531,1.659,1.185,1.659,1.185-.743,1.185-1.659-.531-1.657-1.185-1.657" transform="translate(-29.664 -107.565)"/><path class="o" d="M189.993,138.97c-.654,0-1.185.743-1.185,1.659s.531,1.657,1.185,1.657,1.183-.742,1.183-1.657-.53-1.659-1.183-1.659" transform="translate(-75.826 -106.402)"/></g><g transform="translate(93.915 10.303)"><g class="s"><path class="q" d="M22.486,105.473a37.311,37.311,0,0,0-4.5,7.224c-.378.772-1.229,1.786-.237,2.605,1.219.37,1.651-.794,2.014-1.539,2.579-5.313,6.094-10.151,11.486-12.789,3.686,4.5,8.928,8.713,16.815,9.118,8.358.428,13.484-3.753,17.051-8.763,4.337,1.058,6.259,5.918,6.513,11.014.069,1.4-.376,3.683.948,3.788,2.03.164,1.012-5.95.711-7.459-.564-2.805-2.3-6.433-4.5-7.935-2.51-1.712-6.531-2.25-10.183-2.96-3.233-.629-4.169-.823-4.5-4.736-.24-2.821-.518-5.163.946-6.277a6.126,6.126,0,0,0,3.316-.355c3.4-1.618,2.886-8.386-.829-8.644-1.41-.1-1.931.679-2.96,1.183-.222-1.588-.685-3.015-1.067-4.736-.3-1.367-.378-3.847-1.183-4.617-1.012-.968-4.184-.093-5.566.236a19.718,19.718,0,0,0-9,4.382,13.494,13.494,0,0,0-3.316,3.316A11.7,11.7,0,0,0,33.5,83.8c.437,4.513,3.527,8.051,9.237,7.815-.079,2.211.2,4.061.118,6.276-8.543-1.333-15.3,1.489-19.064,6.039-.929-1.824-1.627-2.61-1.3-4.5.667-3.9,4.938-3.949,6.513-6.75,2.162-3.845-.107-11.175,0-15.513a14.984,14.984,0,0,1,3.788-9.827,21.706,21.706,0,0,1,17.289-6.75,14.012,14.012,0,0,1,9.355,4.382,13.105,13.105,0,0,1,3.79,9.827c.012,4.614-.783,9.321,1.775,12.079,1.65,1.776,3.992,2.873,5.921,4.382,2.286,1.784,5.91,4.886,5.328,9.592-.275,2.241-2.42,3.886-1.894,6.63.422,2.2,3.327,2.339,4.025,4.382a4.26,4.26,0,0,1-.946,4.026,8.3,8.3,0,0,1-4.262,2.25c-1.266.3-4.888.209-4.973,1.42-.122,1.709,3.041,1.046,4.736.711,2.876-.567,4.412-1.2,5.8-2.605a7.386,7.386,0,0,0,1.893-4.5c.041-3.38-2.622-4.273-4.262-6.276.651-3.221,2.3-4.028,2.012-7.7-.3-3.926-2.654-6.614-5.09-8.763-2.828-2.492-7.71-4.05-8.171-8.17-.381-3.385.29-6.669.119-9.236A15.309,15.309,0,0,0,60.5,62.963a16.5,16.5,0,0,0-10.657-4.5c-9.976-.688-18.966,5.551-21.789,12.432a16.842,16.842,0,0,0-1.064,4.856c-.321,4.764,1.183,8.887.829,13.381-.312,3.929-3.449,3.966-5.566,6.274a7.507,7.507,0,0,0,.237,10.066m27.59-16.34c-.211-1.674-2.77-.3-3.434-.119-2.99.792-7.026.738-8.763-.711-1.845-1.539-3.322-6.4-1.775-9.592a11.856,11.856,0,0,1,2.723-2.723,20.951,20.951,0,0,1,11.841-4.736c.139.02.128.187.118.355.481,1.691.9,3.7,1.3,5.447.327,1.419.472,4.877,1.894,4.973,1.266.086,1.966-2.374,3.434-2.131,1.112.184,1.378,2.116,1.185,3.079-.445,2.209-2.652,1.293-4.264,1.776a5.471,5.471,0,0,0-2.486,3.078,21.854,21.854,0,0,0,.119,5.329,9.99,9.99,0,0,0,1.064,4.382c1.729,2.737,6.158,1.972,9.829,3.2-3.1,4.505-7.95,7.774-15.511,7.224-5.536-.4-9.812-3.458-12.908-6.276-.378-.344-1.067-.853-.948-1.422,2.848-.879,6.866-.589,10.066-.237,2.513-.911,1.02-5.855,1.066-8.525,1.183-.419,5.679-.526,5.447-2.368" transform="translate(-18.994 -55.025)"/><path class="q" d="M170.92,165.388c-1.289-.566-1.552,1.229-2.724,1.3-.757.048-2.367-1.555-2.84-.118-.465,1.4,1.885,2.252,2.723,2.249,1.141,0,3.328-1.078,3.434-2.368.064-.774-.261-.92-.592-1.066" transform="translate(-144.574 -136.847)"/></g></g></g><g class="t" transform="translate(988.492 4844.053)"><g transform="translate(118.963 0.186)"><g transform="translate(0 0)"><path class="m" d="M95.393,666.7s-23.78-138.245-31.7-191.459C55.15,417.9,56,388.351,57.744,381.366,61.48,366.464,76.32,342.6,76.32,342.6s-20.753,2.009-23.9-10.651-1.384-73.327,0-78.144c2.453-8.541,13.87-12.013,13.87-12.013s5.5-5.216,4.583-11.393-6.287-38.4-.5-53.128,23.782-33.817,44.707-24.643,41.254,25.067,41.611,34.923-2.744,20.78,4.83,25.883,17.347,6.54,19.69,17.337,2.053,11.385,3.716,12.385,19.532,9.106,21.921,18.328,1.324,19.551,1.237,20.062-21.919,2.849-21.919,2.849,6.059,4.856,4.953,7.8-3.22,1.734-3.22,1.734,4.28,4.29,2.973,5.448-4.954,1.362-4.954,1.362,3.24,3.661,1.981,4.706-5.7,1.486-5.7,1.486,1.925,1.258.99,2.6a2.205,2.205,0,0,1-2.1,1.115s5.534,11.538-1.239,18.947c-4.815,5.27-11.21,4.817-18.08,3.84a158.053,158.053,0,0,1-16.224-3.343s25.891,22.022,30.96,56.472-9,137.308-13,155.3-39.754,116.783-39.754,116.783a141.505,141.505,0,0,0,1.982,27.99c2.573,13.52,6.469,29.373,10.032,34.924s8.471,10.568,9.164,13.621,3.555,6.8-.125,7.68-34.552,1.115-34.552,1.115l-1.981-2.476-1.857,1.856-3.84-.989-2.228-5.821-13.624-.372S80,723.5,79.788,719.207s1.61-13.872,1.61-13.872l-7.8,10.4-5.325-6.192s5.388-9.393,5.2-13.252,1.887-12.576,6.316-17.46,15.6-12.137,15.6-12.137" transform="translate(226.348 -85.473)"/><path class="u" d="M237.662,245.14a2.6,2.6,0,0,0-2.6,2.6v3.343a2.6,2.6,0,0,0,5.2,0v-3.343a2.6,2.6,0,0,0-2.6-2.6" transform="translate(110.406 -137.107)"/><path class="u" d="M277.318,237.536a2.6,2.6,0,0,0-2.6,2.6v3.344a2.6,2.6,0,0,0,5.2,0v-3.344a2.6,2.6,0,0,0-2.6-2.6" transform="translate(52.67 -132.97)"/><path class="v" d="M50.116,242.8a34.9,34.9,0,0,1,13.5-1.115c8.063.765,11.725,5.3,13.87-2.6s1.362-22.664,1.362-22.664l-4.953-8.049s-6.016-.01-7.926-3.84-2.326-12.164,1.858-11.641a17.014,17.014,0,0,1,7.554,3.221,44.582,44.582,0,0,1,19.443-13.5c12.639-4.44,19.567-7.06,19.567-7.06s10.4,27.121,1.24,37.4-14.49,12.261-14.49,12.261-3.581,15.87-1.115,16.718,19.888,1.05,26.751,1.115,16.7,1.867,20.062,8.422S157.114,279.7,157.114,279.7l10.651,3.591,25.263-.494s3.957-17.058-4.829-26.131c-9.15-9.449-18.385-12.465-20.682-15.851-2.529-3.731,2.929-9.069-3.716-15.482s-21.289-12.35-22.415-18.823,3.64-19.926-4.706-29.1-32.443-29.244-45.079-27-33.511,9.083-36.657,27.864-1.485,39.482-.991,45.7,1.822,7.468.495,10.154-4.333,8.67-4.333,8.67" transform="translate(241.078 -85.474)"/><path class="w" d="M152.912,445.228c3.221-.991,6.564-1.362,9.908-2.1,5.944-1.115,11.393-2.353,17.214-3.1,6.563-.743,12.878-2.6,19.566-2.106,2.105.125,3.84,1.859,5.945,1.859-2.106,0-3.84-1.734-5.945-1.859-6.688-.5-13,1.363-19.566,2.106-5.821.743-11.27,1.981-17.214,3.1-3.343.742-6.687,1.113-9.908,2.1-7.371,2.277-15.028,2.751-22.388,4.661a48.92,48.92,0,0,1-15.035-.12c-9.565-1.391-10.352-20.68-9.536-33.81s-.008-45.273,2.972-57.338,25.388-8.05,25.388-8.05,13.617,17.694,25.511,21.919,18.787,1.157,22.663-5.7-1.238-14.366-1.238-14.366,18.324-3.185,28.979,1.363,17.833,35.791,17.833,35.791a11.635,11.635,0,0,0-13.746,3.343c-6.224,7.086-12.509,22.043-12.509,22.043l17.09,3.219L221,415.216l16.966,5.449s1.167,11.573-1.486,16.471-6.5,4.791-14.243,4.953-21.424-2.972-21.424-2.972,19.784,19.776,28.36,46.688,1.733,68.2-4.458,116.659-7.431,53.625-7.431,53.625l-86.07,2.725s-20.257-129.677-21.3-151.582c-1.007-21.167,19.243-55.082,20.609-57.343,7.36-1.91,15.017-2.384,22.388-4.661m-9.558-39.053c-3.629-.3-10.4,2.106-10.4,2.106l.372,14.984,16.718,2.849a54.114,54.114,0,0,1-.619-9.908c.242-4.678,5.821-7.554,5.821-7.554s-8.26-2.176-11.889-2.477" transform="translate(171.422 -194.117)"/><path class="u" d="M68.591,341.884c-3.445,6.546-6.868,13.233-9.907,20.431-2.992,7.092-6.137,14.608-7.306,23.157-1.291,9.441-.3,19.473.5,28.975C54.2,442.36,58.146,468.841,61.9,495.8c2.345,16.824,5.128,33,8.048,49.162.176.97.086,2,.248,2.97.186,1.118.782,2.219.99,3.345,6.78,36.478,12.229,75.271,18.7,112.187-1.277,1.618-3.172,2.708-4.829,4.086-1.569,1.3-3.121,2.689-4.7,4.085-4.389,3.87-9.908,7.86-11.145,15.479-.4,2.476-.428,5.19-1.115,7.676a33.55,33.55,0,0,1-2.723,6.193c-1.03,2.047-2.6,4.886-2.106,7.3a9.561,9.561,0,0,0,2.725,4.457c1.15,1.175,3.051,3.1,4.457,2.971,1.335-.117,1.887-1.894,2.476-2.971.735-1.342,1.3-2.408,1.981-3.468-2.051,7.824,1.61,15.334,4.334,21.174.654,1.4,2.066,5.293,3.467,5.572,3.882.776,8.7-.1,13.25.372.815,1.983.012,4.553,1.485,5.821,1.448,1.243,6,.672,7.678.744,1.19.784,2.805.617,4.333.617,7.793,0,15.9.587,24.393.248,3.68-.148,8.8.186,10.031-2.107,1.508-2.806-1.074-8.092-2.353-10.4-1.687-3.042-3.792-5.419-5.449-8.048a63.488,63.488,0,0,1-4.953-8.543,65.031,65.031,0,0,1-3.344-10.155c-1.7-6.867-3.192-14.8-4.457-22.535a169.284,169.284,0,0,1-1.734-18.572,38.435,38.435,0,0,1-.123-6.564c.211-1.29,1.246-2.963,1.857-4.581,8.8-23.349,17.592-46.975,26-70.458,4.551-12.711,8.772-25.462,11.763-39.747,2.948-14.077,4.955-29.012,6.935-44.455,1.915-14.938,3.765-30.436,5.448-46.062,1.708-15.854,3.467-31.791,3.467-47.921,0-7.972-1.616-15.46-3.342-22.414a155.8,155.8,0,0,0-6.193-19.44c-2.429-6.175-5.075-12.272-8.543-17.211-3.534-5.034-7.76-9.164-11.764-13.622,7.987,1.531,16.377,4.266,24.146,2.353,7.611-1.873,11.109-7.948,10.4-17.831a25.719,25.719,0,0,0-.866-4.457c-.359-1.417-.746-2.55.123-3.963,3.886.108,6.512-3.654,4.582-7.059,2.837-.1,3.469-4.323,1.734-6.191,1.634-1.13,2.376-4.158,1.362-6.314-.779-1.657-2.929-2.271-3.963-3.344,4.338-.362,10.8-.628,16.1-.991,1.914-.129,4.565-.042,5.324-.866,1.232-1.338,1.011-5.739,1.115-7.925a41.755,41.755,0,0,0-.372-8.3,26.638,26.638,0,0,0-5.7-12.134A39.174,39.174,0,0,0,185.978,242.2c-2.021-.958-4.736-2.068-5.2-3.715-.578-2.043.416-3.929.372-6.191a16.8,16.8,0,0,0-4.087-10.03c-6.168-7.532-20.392-8.668-22.784-19.564-.4-1.841.034-4.706.124-6.935.26-6.457.1-12.348-2.105-16.965-2.579-5.408-8.081-9.621-12.507-13.249a146,146,0,0,0-14.983-10.9c-4.65-2.91-11.74-7.205-18.574-7.676a34.567,34.567,0,0,0-14.364,2.1,47.978,47.978,0,0,0-11.02,5.45c-6.583,4.408-12.113,10.085-14.983,17.83a69.573,69.573,0,0,0-3.1,13.373c-1.936,12.623.134,25.5,1.486,37.767.282,2.556.772,5.433.5,7.678-.443,3.581-3.1,5.5-4.7,8.42-4.431,1.615-7.847,3.709-10.4,7.182-2.638,3.584-3.1,8.376-3.468,14.115-1.066,16.852-.742,34.315-.742,52.007,0,5.914-.146,11.881,1.238,16.346,2.839,9.16,8.669,14.574,21.918,12.629m-.5-108.843c.594-2.208.291-5.428,0-8.172-.738-6.954-1.735-14.286-2.229-20.927a78.3,78.3,0,0,1,2.6-27.613c2.348-8.01,6.859-13.193,13.126-17.708,5.694-4.1,13.287-8.274,22.908-8.048,5.159.12,9.691,2.435,13.62,4.581a125.471,125.471,0,0,1,21.05,14.611c2.973,2.482,6.616,5.584,8.916,8.915,1.97,2.854,2.656,6.705,2.725,11.145.068,4.479-.7,9.224-.124,13.373.532,3.865,3.37,7.7,5.944,9.907,4.393,3.76,11.122,6.161,16.1,9.906a14.476,14.476,0,0,1,4.706,9.039c.172,2.834-.9,5.949,0,8.172a7.069,7.069,0,0,0,1.857,2.476c2.912,2.463,6.666,3.38,10.03,5.325a33.144,33.144,0,0,1,8.173,7.182c4.715,5.5,7.512,13.655,5.572,24.146-7.014.618-14.669.652-21.545,1.238a8.717,8.717,0,0,0-2.353.619,54.709,54.709,0,0,0-9.04-3.715c-.644-3.811-2.137-7.566-3.343-11.392a106.661,106.661,0,0,0-3.84-11.268c-2.886-6.47-8.278-12.888-15.478-14.735-5.01-1.286-12.193-.732-17.832-.495-6.074.256-12.132.808-17.212-.743-.676-5.206.828-10.294,1.487-14.983,8.823-2.552,15.407-8.539,17.708-17.708,2.681-10.691-1.152-21.266-3.592-30.09,1.63-.462,3.757-.47,3.715-2.351-.058-2.659-4.248-1.241-5.819-.868-2.651.63-4.663,1.163-6.81,1.734-13.614,3.624-25.582,9.164-33.806,17.212-5.966-3.673-11.67.738-11.64,6.069a10.964,10.964,0,0,0,5.448,8.914c1.093.574,2.434.665,3.592,1.362.948.571,2.3,2.52,3.219,3.591.961,1.124,2.762,2.853,2.972,3.963.274,1.441-.232,3.8-.372,5.572-.3,3.864-.664,7.265-1.114,10.773-.228,1.784-.206,3.713-.866,5.076-1.915,3.949-7.878,2.715-12.632,2.106a55.188,55.188,0,0,0-8.667-.372c.868-1.971,2.248-3.592,2.848-5.82m58.818-47.3a54.56,54.56,0,0,1,1.857,8.915c.53,6.818-.667,12.882-3.963,17.585a19.723,19.723,0,0,1-5.572,5.323c-2.3,1.536-5.534,3.371-9.163,3.1-1.8-.136-8.227-3.737-7.8.248.24,2.227,5.584,2.943,7.925,3.344-.52,4.268-2.111,9.774-1.609,14.239.619,5.509,7.346,4.585,13.126,5.077.774,3.234,2.757,6.079,2.1,10.4-.528,3.5-4.3,7.194-7.057,8.3-3.531,1.41-8.846.389-12.383-.619-7.407-2.113-12.143-5.652-16.965-10.03-2.517-2.284-4.95-4.778-7.182-7.059-.222-.225-.743-.591-.619-.989,5.574-.041,8.95-1.658,10.4-5.325,1.153-2.912,1.266-7.241,1.61-11.021.172-1.894.337-3.912.495-5.82a30.518,30.518,0,0,0,.372-6.068c-.324-2.445-2.591-4.467-3.963-6.067-1.418-1.656-2.7-3.625-4.085-4.334-1.332-.683-3.148-.764-4.457-1.734a6.885,6.885,0,0,1-2.6-6.314c.585-3.177,4-3.265,6.562-1.859,1.033.567,2.3,1.256,2.972,1.734.727.521,2.517,3.506,3.963,3.1,1.7-.485.244-6.881.743-8.544a40.7,40.7,0,0,1,10.154-6.563,35.3,35.3,0,0,0,3.467,2.353c1.2.779,2.5,2.2,3.84,2.1a1.823,1.823,0,0,0,1.61-1.857c-.054-2.3-4.114-2.983-5.078-4.335a100.452,100.452,0,0,1,18.821-6.066,68.246,68.246,0,0,1,2.478,8.791M75.4,337.3c-4.811.848-13.925,2.441-18.574.247-3.964-1.869-6.41-6.788-7.306-11.515-.507-2.673-.352-5.9-.495-9.163-.138-3.132,0-6.486,0-9.659,0-12.873.2-26.1.495-38.386.137-5.716-.054-13.571,1.734-17.707,1.768-4.09,7.137-8.166,12.258-8.667a48.732,48.732,0,0,1,7.059,0,13.922,13.922,0,0,1,2.848.372c.781.32,1.8,1.8,2.723,2.724,2.9,2.9,5.578,5.629,8.421,8.3,3.59,3.367,7.913,7.16,13,9.287,5.207,2.175,12.172,4.425,18.449,3.095a15.147,15.147,0,0,0,11.269-11.02c1.05-4.3-.675-8.219-1.734-11.763,6.638.005,14.386-1.123,20.308,0,6.542,1.24,11.542,7.754,13.868,13.125,2.774,6.406,4.3,13.684,6.687,20.307a11.114,11.114,0,0,0-7.553,1.486c-4.072,2.618-6.838,7.133-9.535,11.392a122.461,122.461,0,0,0-7.43,13.62c-1.715-.266-3.379-.583-5.2-.743a39.456,39.456,0,0,1,1.486-3.963c6.023-3.682,12.016-10.277,11.269-20.554a18.345,18.345,0,0,0-1.611-6.44c-.773-1.645-3.814-6.061-5.818-5.82a1.644,1.644,0,0,0-1.486,1.61c-.071,1.2,1.316,2.249,1.857,2.849a11.306,11.306,0,0,1,2.6,3.961c2.7,7.939-1.211,15.516-5.82,19.193-1.092.873-3.257,1.811-4.085,3.1-1.166,1.807-.848,3.147-2.106,5.448-13.214-1.682-26.992-4.623-39.748-7.182-5.5-1.1-12.429-2.343-16.84.249V276.627c0-2.095.308-4.409-1.734-4.457-1.9-.045-1.857,1.752-1.857,4.21,0,10.68.127,20.288-.372,30.09-.149,2.929-1.5,9.882,1.113,10.152,1.227.129,1.7-1.178,2.353-1.238a16.346,16.346,0,0,1,3.1.743c16.291,3.644,32.232,7.159,48.293,10.773-17.145,3.556-33.941,7.234-51.884,10.4m81.23-52.007c2.4-2.93,4.423-5.538,9.658-5.077,5.659.5,11.474,3.945,15.6,6.438,1.412.853,3.74,1.538,3.715,3.715-.719.263-1.957-.279-2.6-.125-3.161-1.728-7.909-3.192-11.888-4.457-1.576-.5-5.749-2.539-5.7.495.03,1.743,3.065,2.187,4.7,2.724,1.778.582,3.96,1.3,5.572,1.857,3.787,1.3,7.481,2.558,9.041,5.821-4.325.191-7.071-1.232-11.145-2.6-1.221-.409-2.623-.987-4.087-1.486-1.786-.608-5.919-2.492-5.82.5.055,1.64,2.715,2.134,3.714,2.476,5.006,1.719,9.376,3.233,14.241,4.582.186,1,1.341,1.362,1.115,2.476-.385,1.892-3.894.1-5.325-.372-3.374-1.117-6.1-1.981-9.288-3.095-1.842-.642-6.143-2.867-6.066.248.03,1.263,1.54,1.8,3.1,2.353,4.557,1.618,8.29,2.8,12.506,4.21a8.994,8.994,0,0,1-.619,1.734,116.919,116.919,0,0,1-12.011-3.591c-1.988-.668-4.8-2.1-5.325.125-.181.757.306,1.253.247,1.733-4.824-.707-9.678-1.383-14.487-2.106,2.992-6.356,6.759-13.21,11.145-18.573M93.851,298.668a15.151,15.151,0,0,0-4.457,16.1c-4.59-.9-8.726-2.254-13.621-2.848.131-4.244.495-8.256.495-12.63,4.191-3.445,12.161-1.91,17.583-.621m-.494,6.44a13.757,13.757,0,0,1,5.323-5.448c.141-.061.361.094.5.123,15.979,3.455,37.2,6.625,54.855,9.039,1.935.265,6.627,1.445,8.048.621.956-.556.641-1.8.743-2.478a118.283,118.283,0,0,0,14.24,4.21c1.51,4.511,1.317,11.841-.99,15.23-2,2.934-7.271,4.475-12.383,4.087a76.562,76.562,0,0,1-8.916-1.61c-20.464-4.115-41.523-8.8-61.046-13.126-1.408-3.227-2.05-7.377-.37-10.649M58.19,440.327c-1.142-8.909-2.081-17.959-2.849-27.49-.764-9.483-1.653-19.639,0-28.6,3.092-16.758,10.92-29.733,17.832-42.843,21.353-3.741,41.9-8.286,62.655-12.632,1.162,0,2.765.621,4.212.744,5.724,5.439,11.322,10.664,15.849,17.212,4.512,6.527,7.615,14.588,10.4,22.783a130.3,130.3,0,0,1,6.439,26.624c1.171,9.547.262,20.691-.619,31.328-1.659,20.014-3.9,40.1-6.438,59.808-2.546,19.729-4.75,39.337-8.792,57.456q-41.395.766-83.087,1.238C67.383,512.5,62.763,476,58.19,440.327m97.7,108.347C151.606,566.26,145.31,582.5,139.419,598.7s-11.954,32.21-18.078,48.418c-.686-32.5-.956-65.417-1.362-98.195,12.052-.126,23.942-.412,35.91-.62.163,0,.157.345,0,.372m-39.5.743c.161,15.1.334,30.509.5,45.939.16,15.35.14,30.761.741,45.817.313,7.8.049,15.438.372,22.783a177.282,177.282,0,0,0,2.228,21.048c2.021,12.3,4.272,25.189,9.164,34.426.273.514.839,1.063.743,1.733-6.723-1.867-11.728,2.85-18.821,1.981a8.009,8.009,0,0,1-4.21-2.1,82.381,82.381,0,0,1-6.812-7.182c-1.072-1.183-2.212-2.328-3.342-3.717-.929-1.139-2.84-3.05-2.972-4.086a14.928,14.928,0,0,1,.372-2.353c.653-6.176,1.2-12.12,1.485-18.2A83.066,83.066,0,0,0,93.851,665.2c-2.5-12.4-4.371-25.744-6.439-38.512-4.244-26.2-8.172-51.6-12.878-77.143,13.842-.232,27.827-.322,41.73-.494.145.022.135.194.124.372M92.117,687.235c-1.22-6.042-3.6-10.926-5.942-15.85,1.553-1.17,2.9-2.55,4.581-3.591,1.116,5.739,2.095,12.645,1.361,19.441M66.857,707.42c-.16-1.508,1.488-4.195,2.353-5.944a30.569,30.569,0,0,0,2.353-5.944c1.01-3.9.807-9.948,3.219-13.374,2.328-3.306,5.977-5.788,8.42-8.171.007-.077.018-.148.123-.123,1.69,3.954,3.994,8.319,5.077,13.371.512,2.383.842,5.029,1.238,7.677.391,2.607,1.118,5.408,1.115,7.925,0,1.561-.368,3.236-.5,4.83-.406,5.025-.866,10.634.868,14.858.66,1.612,1.947,2.883,2.6,4.46.787,1.9.836,3.78,1.486,5.818-3.612-.144-7.372-.139-11.02-.246-1.752-5.1-5.842-10.475-6.316-16.717a25.878,25.878,0,0,1,.866-7.182c.527-2.4,2.609-8.256-.99-8.3-2.23-.027-3.617,3.249-4.58,4.829-1.287,2.1-2.439,3.919-3.468,5.944-.993-.9-2.653-1.886-2.848-3.714m34.423,13c2.613,2.889,5.216,5.534,9.163,6.316,5.512,1.093,9.9-1.826,15.231-2.23,2.845-.216,4.949.585,7.43.992,2.946,4.318,6.564,7.964,7.553,14.241-10.375.948-22.515.407-33.186.123-1.779-3.342-3.933-8.032-5.82-12.011-.818-1.728-1.946-4.49-3.963-2.848-.276.224-.433.755-.619.617A18.123,18.123,0,0,1,93.727,712c2.282,2.932,4.829,5.408,7.553,8.419m-3.219,8.42c.88,1.73,1.628,3.359,2.478,5.078.792,1.6,2.069,3.372,1.857,5.449-.88.1-1.381-.189-2.228-.126-.64-3.364-1.626-7.7-2.106-10.4" transform="translate(229.944 -83.658)"/><path class="u" d="M225.041,253.1c-.119.778-.854,1.176-.742,2.106.365,3.056,4.98.471,5.076-1.486.055-1.118-1.471-2.783-2.1-3.84a12.245,12.245,0,0,1-1.858-3.961c-.5-3.32,1.036-7.115,4.087-7.677,1.834-.338,5.546,1.744,5.7-1.115.1-1.915-2.768-2.548-4.7-2.6-5.665-.15-9.273,5.618-8.669,11.516.287,2.8,1.984,4.8,3.219,7.058" transform="translate(121.538 -131.329)"/><path class="u" d="M255.421,281.235a1.718,1.718,0,0,0-1.858,1.238c-.327,1.766,2.19,3.352,4.087,4.087,1.634.632,5.325,1,5.325-1.362,0-1.95-2.128-1.45-3.839-1.981-1.377-.428-2.088-1.854-3.714-1.981" transform="translate(79.271 -156.742)"/><path class="m" d="M650.634,478.877l12.508-147.868A63.059,63.059,0,0,1,656.95,307.6c-.54-12.526,14.489-53.253,14.489-53.253s-4.463-86.263,1.115-102.417c3.769-10.914,42.849-19.071,42.849-19.071s.729-1.119,2.6-4.83a39.455,39.455,0,0,1,4.954-7.184l.618-13.994s-2.5-.462-7.8-5.077S708.1,86.794,708.1,86.794s-.622.742-3.219-1.487-2.968-9.21-2.353-12.384,4.83.248,4.83.248a114.95,114.95,0,0,1,.619-14.49,38.084,38.084,0,0,1,3.219-10.774l-3.344-10.031,8.174-3.84-8.05-8.173s2.9-1.392,11.021-.5a61.271,61.271,0,0,1,16.347,4.706l1.858-4.334S761.576,36.218,769.027,45.8s-3.963,35.915-3.963,35.915a15.223,15.223,0,0,1,1.61,6.81c-.156,3.465-5.408,6.429-8.05,5.945a14.3,14.3,0,0,0-4.953,0l-5.946,6.191,3.592,13.623,6.439,5.944s28.451,9.568,34.677,12.137,12.942,11.653,14.49,19.69,3.707,89.613,3.466,105.018-4.262,18.7-11.765,26.13-40.248,34.923-40.248,34.923l.247,354.311-83.84,1.115a25.105,25.105,0,0,1,.123-11.27c1.5-6.064,17.709-27.616,17.709-27.616s-9.12-26.716-23.281-73.191a639.809,639.809,0,0,1-18.7-82.6M759.716,271.1l11.145-12.26-2.228-30.589s-4.582,3.207-8.051,13.87-.866,28.979-.866,28.979" transform="translate(-649.221 -17.376)"/><path class="w" d="M667.915,369.651s-6.1-88.965,2.106-100.932c6.38-9.308,40.619-16.594,40.619-16.594l-.619,5.077s-1.971,3-1.857,5.325.866,10.746,4.829,12.384,18.258-.984,27.741-7.8,24.149-22.663,24.149-22.663a98.944,98.944,0,0,1,28.483,10.9c15.057,8.541,10.862,48.074,12.014,92.757,1.18,45.809-1.581,43.47-14.738,56.225s-40.124,35.666-40.124,35.666-9.462-8.225-11.889-13.871-2.106-9.165-2.106-9.165l8.918-12.756-10.28,4.706s-39.247,14.568-48.051,16.471-22.91-7.306-22.91-7.306-1.248,9.3-1.61,14.366-4.334,16.223-4.334,16.223-4.691-12.881-5.078-23.035,14.737-55.976,14.737-55.976m88.175,20.8,11.146-12.26-2.228-30.589s-4.582,3.207-8.051,13.87-.867,28.979-.867,28.979" transform="translate(-645.595 -136.73)"/><path class="m" d="M776.166,678.971l-1.611,8.917,1.858,295.981s1.9,2.227,1.858,6.813a26.637,26.637,0,0,1-1.239,5.944Z" transform="translate(-673.587 -373.132)"/><path d="M775.189,996.328a1.548,1.548,0,0,0,1.47-1.071,26.924,26.924,0,0,0,1.315-6.405,13.229,13.229,0,0,0-1.859-7.325L774.26,686.174l1.585-8.775a1.549,1.549,0,1,0-3.048-.551l-1.61,8.917a1.3,1.3,0,0,0-.023.287l1.858,295.981a1.542,1.542,0,0,0,.371.995c.051.063,1.523,1.924,1.488,5.791a24.427,24.427,0,0,1-1.163,5.482,1.545,1.545,0,0,0,.993,1.948,1.518,1.518,0,0,0,.478.079" transform="translate(-671.742 -371.285)"/><path class="m" d="M862.579,863.132,851.31,942.267l24.115,121.588Z" transform="translate(-805.735 -473.325)"/><path d="M873.574,1063.558a1.428,1.428,0,0,0,.3-.033,1.547,1.547,0,0,0,1.218-1.817L851.034,940.377,862.264,861.5a1.548,1.548,0,1,0-3.065-.437L847.93,940.2a1.5,1.5,0,0,0,.015.519l24.113,121.588a1.554,1.554,0,0,0,1.516,1.249" transform="translate(-803.888 -471.478)"/><path class="u" d="M793.947,83.879s-2.268-2.585-4.458-.991a47.169,47.169,0,0,1-4.21,2.725l1.363-23.407s1.87-8.908-6.564-7.307-15.971,2.379-21.3-1.238-10.449-7.137-12.878-5.574a17.147,17.147,0,0,0-6.687,8.793c-1.026,3.729-2.23,13-2.23,13a12.7,12.7,0,0,1-1.238-9.288,38.815,38.815,0,0,1,2.972-8.669s-3.092-8.551-2.106-10.4,7.059-3.468,7.059-3.468-7.694-8.555-6.687-9.537,10.241-.507,15.6,1.115,10.652,3.592,10.652,3.592l1.732-4.457s11.5,3.878,18.577,8.173,16.744,9.606,15.728,21.92a121.388,121.388,0,0,1-5.325,25.017" transform="translate(-676.8 -18.979)"/><path class="u" d="M841.087,251.709l-1.362,18.576-1.486,3.344,3.838,5.078s-7.4,3.821-11.022,2.353-3.468-1.858-3.468-1.858l3.221-4.582-1.363-5.325Z" transform="translate(-761.571 -140.681)"/><path class="u" d="M710.656,32.8c-1.976.613-4.315,1.653-5.077,3.591-.642,1.635-.35,3.617,0,5.448.313,1.636,1.253,3.39,1.238,4.828-.013,1.326-.993,3.238-1.485,4.954a47.768,47.768,0,0,0-1.487,17.458c-1.01.181-1.958-.98-3.344-.495-2.008.705-2.883,4.6-2.6,8.048.253,3.094,2.339,7.455,3.961,8.792a8,8,0,0,0,4.087,1.363c1.172,9.022,6.2,14.19,12.134,18.45.406,2.877.763,5.436,1.239,8.42a12.679,12.679,0,0,1,.495,2.6c-.1.849-1.41,2.2-1.981,3.1a41.349,41.349,0,0,0-5.076,10.154c-11.178,3.141-22.9,5.961-32.319,10.278-5.06,2.318-9.111,4.951-11.517,9.782-2.272,4.568-2.288,11.219-2.723,18.574a400.573,400.573,0,0,0,.123,41.729c.481,10.109.393,21.038.744,31.2.121,3.524.549,7.193.247,10.4-.007.08.014.168,0,.247-.523,3.171-2.054,6.264-3.094,9.412-3.068,9.267-6.044,19.2-8.544,28.727a92.069,92.069,0,0,0-2.229,10.278c-1.1,7.65.941,15.311,2.6,21.669a73.174,73.174,0,0,0,2.1,7.183,10.3,10.3,0,0,1,.868,1.981,29.814,29.814,0,0,1-.619,4.953c-1.411,11.565-2.353,24.094-3.344,35.661-2.4,28.006-4.765,54.176-6.563,82.592-.883,13.954-2.606,28.3-.5,41.854.969,6.22,2.593,12.271,4.088,18.2,4.392,17.436,10.028,34.631,15.23,51.635,3.47,11.336,6.958,22.729,10.526,34.051,3.549,11.259,6.843,22.587,11.392,33.185-4.226,6.01-7.89,11.153-12.011,17.214-2.781,4.088-6.357,7.969-6.563,15.353-.094,3.367-.6,6.93,2.476,7.182,3.478.284,7.044-.022,10.526.123,16.969.716,35.315-.126,52.874-.123,4.991,0,10.435-.123,15.849-.123,2.487,0,4.7.227,5.449-.62,1.059-1.2.771-8.152.866-10.4.16-3.768.361-7.318.5-10.65.3-7.438,0-14.869,0-22.163,0-29.974-.5-59.049-.5-88.908,0-72.12-1.358-144.194-1.362-216.7,0-1.91-.407-4.169-.124-5.448.238-1.071,3.931-3.8,4.83-4.582,11.448-9.906,23.674-20.823,34.919-30.833,6.9-6.144,12.877-11.449,12.877-24.641,0-6.241-.619-12.189-.619-18.2,0-18.349-.99-35.876-.99-55.227,0-5.806-.318-12.063-.619-18.2-.282-5.744-.1-12.461-1.61-17.089-3.018-9.255-9.115-16.269-17.583-19.936-8.546-3.7-18.149-6.148-28.356-9.164-1.458-.43-2.964-2.222-4.334-3.467a23.046,23.046,0,0,1-3.219-3.095c-.412-.585-.616-1.634-1.114-2.477-.57-.962-1.322-1.107-1.734-2.1-1.159-2.811-1.271-6.083-2.477-8.793,1.171-2.09,3.039-3.481,4.334-5.447a9.111,9.111,0,0,0,6.811.247c2.615-1.116,7.7-6.086,8.048-9.41.212-2-.76-3.369-1.486-4.953a90.568,90.568,0,0,0,5.077-20.059c.616-4.011,1.059-7.84.124-11.392-2.5-9.5-9.88-15.281-18.946-18.7-4.2-1.584-8.423-3.822-12.878-5.944-1.268-.6-3.33-1.921-4.457-1.485-1.521.586-.552,2.634-1.115,4.21-5.68-1.963-12.536-4.7-20.307-5.2-3.314-.212-7.234-.064-7.554,2.724-.4,3.5,4.457,6.021,5.82,8.173m47.3,34.3c.4-6.183,2.128-15.268-3.095-17.089-2.422-.843-6.421.144-8.792.372-2.643.253-5.332.5-7.926.494-9-.026-12.766-6.405-19.564-8.172-6.459-1.678-7.527,5.02-9.411,8.419-.473.472-.025-.409,0-.494a20.246,20.246,0,0,0,1.115-3.716c.1-2.87-2.205-5.813-1.611-9.162.8-2.294,6.822-1.346,7.059-3.963.158-1.759-2.419-3.156-3.715-4.334a25.611,25.611,0,0,1-1.857-1.982c-.6-.674-1.426-1.357-1.363-2.1,6.977-.508,13.611,1.709,19.07,3.715,1.674.615,4.286,2.236,5.944,1.857,1.423-.324,1.8-2.442,2.476-3.714,3.226,1.458,6.344,3.028,9.658,4.582,3.219,1.508,6.742,2.507,9.907,4.333,5.3,3.058,11.314,9.24,11.392,17.213.083,8.743-2.861,16.812-4.829,24.269a5.267,5.267,0,0,0-2.353-.372c-1.307.174-2.29,1.458-2.972,1.239.4-3.926.623-7.58.867-11.392m-5.7,22.535c-1.586-.134-3.823,3.36-4.829,4.583a53.056,53.056,0,0,1-4.458,4.952,21.408,21.408,0,0,1-16.469,5.7c-5.664-.553-11.127-5.566-13.745-9.287-3.032-4.307-3.733-9.99-4.21-16.468a79.133,79.133,0,0,1,1.238-18.7A36.8,36.8,0,0,1,713.875,48.9c.829-1.563,1.687-3.632,3.963-2.847,5.238,1.8,8.831,5.816,14.983,7.554,6.663,1.881,12.728-.467,20.927-.372,2.258,1.941,1.364,5.592,1.115,9.534-.138,2.172-.327,4.466-.5,6.687-.356,4.674-1.325,11.094-.619,14.859.348,1.853.616,1.982,3.344,1.982,2.375,0,4.664.213,4.582-1.734-.073-1.71-1.828-1.5-4.087-1.485a7.014,7.014,0,0,1,2.972-2.353c1.016,1.172,2.593,2.539,2.477,4.21-.088,1.247-1.69,2.712-2.724,3.838-1.675,1.826-3.211,3.861-6.439,3.1-.242-.967-.306-2.119-1.61-2.23m-48.045-15.6c-1.485-.372-2.966.129-2.724,1.734.168,1.124,2.836,3.066,3.59,3.467a26.115,26.115,0,0,1,.249,4.087c-.28-.274-.739-.136-1.115-.372-1.894-1.187-3.915-7.782-2.353-10.773.731.672,1.862.944,2.353,1.857M746.69,111.06c-6.835,4.806-13.83,9.45-20.8,14.115-.26-.44-.76-.643-1.115-.99-1.1-5.59-2-11.369-2.972-17.087,8.1,3.055,17.952-.4,22.661-4.582.651,2.94,1.522,5.66,2.229,8.545m-3.1,6.314c1.412-.94,3.881-2.919,5.325-3.467,1.459,2.916,4.371,4.378,6.315,6.811A132.942,132.942,0,0,1,725.515,143.5q1.336-7.826,2.6-15.726c5.052-3.351,10.221-6.9,15.477-10.4m-20.307,9.659c-2.559,4.457-4.916,9.117-7.553,13.5a22.707,22.707,0,0,1,4.21-17.955c.594,2.007,2.145,3.055,3.343,4.459m-.743,13.373c-.3,1.759-1.4,5.887-.743,7.181,1.211,2.384,4.828-.825,6.316-1.734,1.757-1.074,3.294-1.969,4.7-2.847a134.931,134.931,0,0,0,21.3-16.469c1.3-1.214,2.756-3.068,4.087-3.591.963-.379,3.313,1.4,4.085,1.115a208.691,208.691,0,0,1-19.44,18.573,48.554,48.554,0,0,1-19.317,9.411c-2.036.52-6.079,1.821-8.42.991-2.733-.969-4.2-9.095-2.724-12.26.471,2.434-.1,6.885,2.476,6.811,1.112-.032,2.06-1.879,2.724-3.1,2.1-3.851,4.308-8.168,6.192-11.268-.271,2.2-.76,4.371-1.239,7.182m57.827-10.773c4.3,1.69,8.965,3.141,12.258,5.82,4.911,3.994,9.215,9.546,10.526,16.468a73.147,73.147,0,0,1,.742,8.3c1.846,27.993,1.049,58.671,2.23,87.916.23,5.751.921,12.258-.372,16.966-2.4,8.731-10.216,14.26-16.345,19.688-12.569,11.128-25.684,22.626-38.51,33.681-4.33-4.892-8.67-10.165-10.525-17.832a12.961,12.961,0,0,1-.744-3.344c.095-.635,1.185-1.631,1.859-2.476,8.655-10.845,16.373-20.893,24.765-31.7,1.184-1.525,3.437-3.644,3.714-5.078a27.208,27.208,0,0,0-.123-4.581c-.492-20.513-1.687-40.317-2.106-60.428-.052-2.5.439-7.734-1.857-7.8-2.76-.079-1.566,6.1-1.486,8.669.271,8.618.634,16.77.868,25.137a28.283,28.283,0,0,1,.124,5.077c-.208,1.064-1.264,2.469-1.981,3.838-.689,1.314-1.379,2.708-1.981,3.839-1.386,2.6-3.124,5.228-3.962,7.678-3.155,9.216-2.795,20.951-2.725,32.938-1.047,1.3-2.237,2.891-3.467,4.457-1.148,1.462-2.562,3.827-3.716,4.582-1.174.769-3.176,1.194-4.829,1.857-14.581,5.854-28.739,11.567-43.711,16.594a60.015,60.015,0,0,1-10.4,2.972c-5.693.792-12.264-1.823-16.47-3.344a17.031,17.031,0,0,1-4.7-2.105c3.463-36.269,5.709-74.607,8.42-112.062a52.8,52.8,0,0,0,.247-8.173c-.108-1.654.25-6.621-1.982-6.687-2.5-.072-1.57,3.293-1.485,5.078a59.619,59.619,0,0,1,0,6.686c-.91,12.186-1.648,23.512-2.477,35.663-.048.7-.284,3.182-.248,3.219-.259-.259-.122-3.786-.122-4.7,0-18.134-.834-35.985,0-53.493.306-6.448,1.163-11.949,4.457-15.355,2.032-2.1,5.131-3.481,8.173-4.829,9.261-4.1,19.362-6.734,29.471-9.534-1.151,2.689-3.542,6.06-3.591,10.4-.071,6.1,2.329,12.765,7.924,13,5.556.235,11.617-2.055,16.345-3.963,14.143-5.7,23.929-18.625,33.557-27.49h.247c4.6,1.466,9.364,2.64,13.994,4.459M766.625,257.174c-2.327,3.116-5.184,6.616-7.553,9.658-.341.437-.7,1.284-.991.991-.077-7.9.007-15.087,1.238-21.3a45.48,45.48,0,0,1,1.363-6.191,41.539,41.539,0,0,1,2.476-4.457,45.756,45.756,0,0,1,2.477-4.706c.414,8.586.529,17.467.99,26M660.011,323.669c-1.4-6.515-3.845-12.962-3.468-20.555a55.877,55.877,0,0,1,1.859-10.278c2.368-9.7,5.608-19.283,8.3-28.232.007-.075.019-.146.125-.124-1.38,20.62-3.158,40.842-6.811,59.189m78.877-31.2c0-1.361-.329-2.394-.247-3.838,1.681-.424,3.3-1.57,4.829-1.734-1.645,1.74-2.883,3.887-4.582,5.572m-3.591-2.1c.861,8.465,2.159,15.562,6.067,21.422a89.263,89.263,0,0,0,9.287,11.392c.827.871,3.118,2.767,3.343,3.591.294,1.077,0,3.049,0,4.829,0,37.131.743,74.787.743,111.941,0,13.164-.109,26.284.249,39.129.361,13.033-.465,26.189.122,39.129.593,13.068.111,26.146.248,39.129.274,26.164.367,52.214.5,78.132-11.765-3.837-23.833-7.37-35.291-11.516-3.21-48.855-6.469-97.549-9.66-147.971-1.537-24.314-3.238-48.68-4.829-73.8-1.315-20.8-3.2-43.487-4.332-64.637-.141-2.616.083-7.162-.619-9.286-.328-.992-1.8-1.812-2.725-2.6-2.178-1.868-3.506-3.185-5.7-5.078-.724-.626-2.431-2.1-3.591-1.114-2.115,1.793,2.632,4.88,3.591,5.7.756.643,1.792,1.428,2.725,2.229.827.71,2.218,1.687,2.478,2.477.351,1.074.157,3.033.246,4.7.093,1.708.273,3.382.371,4.706,2.6,34.782,4.3,70.386,6.812,104.386a45.514,45.514,0,0,1,0,9.286c-1.151,9.095-2.484,18-3.591,26.869a3.339,3.339,0,0,0,0,.5,72.554,72.554,0,0,0,1.238,8.666c3.1,20.4,5.62,40.979,8.916,61.046.978,5.969,1.143,12.1,1.609,18.327,1.167,15.632,2.013,31.491,3.1,46.931a83.155,83.155,0,0,1,.372,9.163q-13.3-.573-26.5-1.238c-4.571-11.521-8.148-23.691-11.886-35.91-3.7-12.1-7.566-24.289-11.27-36.53-3.648-12.058-7.6-24.339-10.9-36.9-1.66-6.324-3.367-12.648-4.581-19.319a99.27,99.27,0,0,1-1.363-22.163c.631-14.962,1.972-29.887,3.095-44.7,1.127-14.848,2.364-29.591,3.591-44.33,1.234-14.818,2.312-29.559,3.84-43.96,1.517-14.3,4.145-28.148,6.067-41.852,5.522,2.2,10.734,4.336,17.211,5.076a25.475,25.475,0,0,0,9.782-1.113c14.4-4.076,27.773-10.215,41.111-14.983.039-.2.176.009.124.247m18.7,31.328c-.457-.038-.464-.526-.743-.744.26-.151.483-.343.743-.495Zm-44.33,193.666c-1.048-7.791-2.216-15.905-3.343-23.653a60.518,60.518,0,0,1-1.115-7.926c-.025-4.246,1.371-8.368,1.734-12.628.8,14.76,2.108,29.674,2.723,44.207m7.8,116.273c-.091,1.122.144,1.921.125,2.97-4.31,3.864-8.52,7.827-12.877,11.64-5.605-1.282-13.121-1.055-19.813-.866,1.394-2.471,4.078-5.928,6.069-8.669.66-.908,1.828-2.271,1.857-3.219.034-1.126-.9-2.049-1.115-3.219,8.535.506,17.463.618,25.756,1.364m11.641,3.836a71.419,71.419,0,0,1,7.182.869c3.4.787,6.615,2.121,9.782,3.094,3.29,1.013,6.445,2.276,9.782,3.219-.011,1.292.213,2.347.123,3.716a25.733,25.733,0,0,0-5.7,8.048,36.161,36.161,0,0,0-2.848,8.792c-3.179-.249-6.43-.421-9.782-.495-2.915-11.741-12.855-16.452-26.127-17.832a60.57,60.57,0,0,1,4.58-4.457c1.313-1.191,3.994-2.8,4.706-4.334.215-.462.012-1.219.619-1.486,2.428.4,5.161.576,7.678.866m-29.719,21.423a40.034,40.034,0,0,1,4.334-4.706c1.3-1.3,3.147-3.829,4.7-4.335.175-.055.328.1.5.126,5.089.716,9.631.987,13.62,2.725,3.576,1.555,7.457,3.886,9.533,6.933a17.536,17.536,0,0,1,1.736,4.334c.341,1.058.716,3.012,1.485,3.591,1.176.885,4.926.623,6.935.743,1.29.074,2.5.066,3.714.123,1.122.052,2.691.391,3.591,0,.951-.413,1.143-2.307,1.486-3.714a29.9,29.9,0,0,1,3.714-9.289c.336-.541.68-1.416.991-1.238-.224,5.761-.51,11.462-.742,17.212-20.275.076-40.462.238-60.677.372,1.469-4.575,2.272-9,5.077-12.877m-20.927-2.476c.491-.735,1.216-1.716,1.981-2.848.63-.935,1.465-2.466,2.1-2.725,1.271-.516,4.482-.126,6.563-.126,4.988,0,8.376-.254,12.508.375a25.78,25.78,0,0,1-3.468,4.086c-3.705,4.272-5.742,10.1-7.3,16.469-5.45-.205-11.3-.011-16.717-.248-1.026-6.909,1.848-11.268,4.335-14.982" transform="translate(-646.992 -15.619)"/><path class="u" d="M833.275,124.174c4.411-1.919,6.48-5.148,6.687-11.145.292-8.466-3.455-14.614-11.641-14.735-2.2-.031-6.9.284-6.438,2.849.367,2.021,3.68.735,5.448.619,6.137-.407,9.108,3.423,9.288,9.163.08,2.536-.095,5.512-1.115,7.3a8.541,8.541,0,0,1-3.095,2.477c-1.082.625-3.012,1.074-3.219,2.353-.246,1.507,2.214,5.224,3.343,5.324,2.543.226,1.918-2.825.742-4.21" transform="translate(-756.857 -57.214)"/><path class="u" d="M783.238,110.438c-1.781-.18-9.5-.227-7.182,3.219.955,1.42,3.829.052,5.2,0a9.429,9.429,0,0,1,7.181,2.6c.709.657,3.083,2.264,3.592.123.467-1.964-3.045-4.316-4.086-4.829a12.763,12.763,0,0,0-4.706-1.115" transform="translate(-687.875 -63.787)"/><path class="u" d="M818.873,172.345c-1.962-.462-2.458,1.256-5.325,1.609-2.391.3-5.531-1-6.439.372-2.1,3.154,3.974,3.572,6.439,3.344,1.765-.165,6.631-1.394,6.688-3.593a1.664,1.664,0,0,0-1.362-1.732" transform="translate(-730.195 -97.46)"/><path class="u" d="M838.22,120.24a2.6,2.6,0,0,0-3.007,2.118l-.571,3.294a2.6,2.6,0,1,0,5.125.888l.571-3.294a2.6,2.6,0,0,0-2.119-3.007" transform="translate(-763.072 -69.134)"/><path class="u" d="M790.69,128.389a2.6,2.6,0,0,0-3.006,2.117l-.571,3.3a2.6,2.6,0,1,0,5.124.888l.571-3.294a2.6,2.6,0,0,0-2.118-3.006" transform="translate(-693.868 -73.567)"/><path class="m" d="M465.486,105.978c-3.484-1.088-6.082-5.242-9.412-6.812s-5.449-.619-5.449-.619l-6.811-5.2.37-12.385s2.42-3.773,4.087-6.191a20.18,20.18,0,0,0,2.478-5.7s4.53.613,6.069-1.982a15.894,15.894,0,0,0,1.857-5.7s13.431-22.274,6.44-31.332c-4.5-5.829-8.3-5.449-8.3-5.449S445.73,8.208,430.316,10.5,411.881,16.7,406.786,20.4a64.2,64.2,0,0,1-12.013,6.44l4.7,4.955-9.659,5.819s2.658,7.866,6.564,7.555,7.059-.868,7.059-.868-2.091,14.521,2.229,25.017c6.067,14.741,16.1,15.233,16.1,15.233l-.495,9.163-2.106,5.326-4.955,2.848-1.485,1.982s-35.258,1.15-45.2,19.691-27.165,66.369-29.227,77.9.638,23.557,8.545,26.378,35.048-.248,35.048-.248L369.633,641.843s-10.99,4.823-16.471,13.126-6.935,11.516-6.935,11.516l65.141-.99,1.115-43.717,2.476-1.361,9.909-233.567L446.909,619.8l3.468.743,1.982,45.078,62.54.123s-4.575-12.172-10.9-17.583a30.98,30.98,0,0,0-12.507-6.687L472.669,308.83s-2.106-31.633-4.087-41.61c-2.853-14.375-5.944-27.988-5.944-27.988s17.069,4.523,25.759.991,21.34-16.135,20.76-54.119-1.321-61.849-11.1-70.467c-14.314-12.612-29.086-8.572-32.57-9.659" transform="translate(-210.999 -9.33)"/><path class="w" d="M534.843,240.319l6.069-12.385h6.811l2.724,11.146s-3.912,2.034-3.962,3.1c-.053,1.131-7.929,120.173-8.422,119.755l-12.879,11.146-5.326-11.146L537.32,243.415Z" transform="translate(-329.632 -127.746)"/><path class="x" d="M465.679,203.4a236.53,236.53,0,0,1-9.908,24.645c-6.086,12.9-7.2,25.786-9.66,38.391S441.9,293.68,441.9,293.68l11.271,3.591s12.486-17.463,16.595-22.787,14.427-7.986,21.176-6.193,14.5,10.739,15.109,13.623-.746,6.863-4.21,4.334-10.774-9.04-10.774-9.04l-5.821.99s9.137,6.942,10.775,13.25,1.329,13.518-2.476,17.834-7.709,5.814-11.518,2.724-6.811-8.917-6.811-8.917H464.44s-20.377-10.077-36.78-14.365-14.737-3.591-14.737-3.591,1.04-34.407,3.467-47.432,10.155-30.464,10.155-30.464-36.143,4.278-43.716,19.319-20.513,47.042-27,65.884-5.142,34.55,3.592,39.382c14.888,8.237,35.914.5,35.914.5s-2.714,24.713-2.849,41.858-.372,28.608-.372,28.608l19.32-.124.991-73.19,7.677-3.715,21.673,9.536-2.6,65.884,47.679,2.476s-5.3-31.468-5.944-39.133-2.6-19.071-2.6-19.071,12.969,6.716,28.979-1.858,14.818-34.336,15.232-56.347-.79-57.014-11.765-65.637c-14.494-11.388-33.065-10.155-33.065-10.155a51.66,51.66,0,0,1-4.087-4.21c-1.978-2.311-7.925-3.84-7.925-3.84" transform="translate(-225.134 -114.398)"/><path class="u" d="M634.812,379.812s-3.628-.389-7.183,6.935-3.095,12.261-3.095,12.261l-5.078-5.7s-1.577-9.124,2.848-12.013,12.508-1.487,12.508-1.487" transform="translate(-459.284 -210.19)"/><path class="u" d="M513.3,61.854s-2.311-6-4.334-5.7a9.144,9.144,0,0,0-4.088,2.353s.69-11.677-.371-16.718a93.2,93.2,0,0,0-3.344-11.146s-14.8,1.755-24.521,4.953c-12.788,4.21-21.25,11.919-25.511,10.031s-7.678-7.059-7.678-7.059l9.906-4.582-4.581-5.821s7.421-2.456,9.906-5.2S478.752,6.4,491.631,11.326s17.957,13,17.957,13,10.7,3.3,11.022,11.516S513.3,61.854,513.3,61.854" transform="translate(-264.97 -9.329)"/><path class="m" d="M495.06,625.183l-47.679-2.106V610.445L420.63,611.56v12.384l-19.071.248-8.544,323.349,42.229-.744,12.384-229.6,20.311,228.612,44.211-1.115Z" transform="translate(-233.5 -335.851)"/><path class="u" d="M398.559,31.438c-1.488.491-3.226,1.6-5.078,2.477-1.457.688-4.327,1.347-4.582,2.972-.318,2.046,2.46,4.315,3.591,5.325a13.788,13.788,0,0,0,5.7,3.219c4.291,1.052,8.1-.605,10.649-2.229,1.2-.765,1.915-1.683,3.343-1.981,6.156-1.285,10.24.567,11.639,5.325,1.413,4.8-.279,9.438-1.857,12.754-.576,1.207-1.6,2.221-1.61,3.467-.011,1.115.914,2.141,1.485,3.095.673,1.121,1.258,2.249,2.477,2.106,2.665-.313.837-3.938-.249-5.2,2.274-3.861,4.368-9.27,3.468-15.108-.842-5.455-3.765-9.035-8.792-10.154,7.938-3.576,18.16-4.871,28.851-5.7,2.179,4.732,3.732,12.455,3.344,20.678-.1,2.151-1.16,6.5-.372,7.554.932,1.245,6.388,2.256,6.688.249.261-1.756-1.352-1.739-2.477-2.353,1.791-3.718,3.442,1.663,3.219,3.343a7.273,7.273,0,0,1-2.848,4.457c-1.208.851-3.059,1.1-4.086,2.228-.87.957-1.207,2.805-1.734,3.838a14.9,14.9,0,0,1-5.2,5.944c-.833.558-2.9.962-2.848,2.725.044,1.5,1.529,1.593,2.476,1.733-.481,2.667.664,4.825,0,7.059-.264.885-2.449,2.106-3.343,2.723a52.312,52.312,0,0,1-12.136,5.945c-.984-.987-2.4-2.306-2.723-4.086-.441-2.415.48-5.272.248-7.925a34.709,34.709,0,0,0,6.191-.495c1.741-.33,4.886-.647,3.962-2.972-.845-2.131-4.225-.3-6.313-.124a16.1,16.1,0,0,1-7.431-.866c-9.56-3.5-14.1-13.766-14.735-27.118-.1-2.216,1.09-6.909-1.733-6.563-2.987.367-1.561,9.713-1.24,12.136,1.681,12.641,6.9,21.386,17.708,25.137-.269,2.81.186,5.108-.247,7.43s-2.552,4.058-3.1,6.066c-2.153.655-4.869.745-5.7,2.725a53.539,53.539,0,0,0-13.745,1.61c-12.717,2.787-23.519,7.876-30.213,16.964-4.461,6.057-6.467,14.208-9.535,22.041-7.422,18.952-16.281,35.885-20.555,58.2-.876,4.569-1.711,9.5-1.238,14.24.938,9.435,7.142,14.126,15.477,15.973,9.087,2.015,18.938-.518,28.109-1.857-1.1,16.172-2.725,32.825-2.725,50.025,0,12.874-.335,26-.742,39.006-.671,21.389-.936,43.07-1.362,64.638-.343,17.307-.43,34.642-1.115,51.76-.341,8.554-.619,17.255-.619,25.877,0,8.649-.619,17.28-.619,25.88,0,17.269-1.238,34.483-1.238,51.634,0,17.223-1.362,34.363-1.362,51.514s-1.408,34.276-1.61,51.263c-10.1,4.452-17.4,11.076-22.041,21.545-.881,1.987-2.776,5.354.619,5.818,2.565.353,5.385-.123,8.172-.123,7.924,0,15.792-.328,24.146-.372,8.71-.047,15.509.022,24.146-.372,2.9-.131,8.007.462,9.039-.989.54-.759.485-3.4.5-5.2.06-11.016.548-21.371.99-32.441.078-1.943-.254-4.222.124-5.449.335-1.085,1.555-1.017,1.857-2.1.463-1.667.136-4.2.248-6.565,3.127-66.167,6.692-134.94,9.659-200.723,5.114,50.834,9.276,103.715,14.239,155.65,1.383,14.467,2.8,30.19,4.21,45.321.33,3.523-.319,7.422,2.972,7.8,1.1,13.353,1.885,25.629,2.972,39.255.178,2.219.049,4.73,1.485,5.323,1.381.569,6.012.249,7.8.249,15.793,0,31.456.123,47.425.123,2.923,0,7.275.525,8.048-.992.586-1.145-.243-3.417-.742-4.829a31.468,31.468,0,0,0-6.687-11.39c-4.13-4.217-9.239-6.8-14.487-9.535-2.271-33.357-3.648-67.015-5.944-100.671-2.288-33.535-3.571-67.2-5.7-100.8-2.1-33.169-3.6-68.021-5.077-101.537-.387-8.823-.743-17.425-.743-25.88,0-8.239-1.262-16.453-2.353-24.269-2.2-15.79-4.637-30.888-7.305-45.939,8.953,1.793,18.677,2.381,25.26-.619,6.376-2.908,11.059-8.825,13.992-15.232,9.741-21.262,5.639-52.622,3.962-79.124-.6-9.573-1.157-18.535-4.581-24.642-5.576-9.943-18.45-16.941-33.556-17.583-2.436-.1-5.539-.018-7.43-.991-2.358-1.215-3.357-3.777-5.325-5.2a10.674,10.674,0,0,0-5.942-1.982,12.4,12.4,0,0,1-2.478-.123c-.742-.227-1.475-1.746-2.1-2.6-.805-1.093-1.671-1.746-1.981-2.972a39.02,39.02,0,0,1-.124-4.953c-.073-1.589-.421-3.694-.123-4.829.181-.693,1.205-1.3,1.98-2.106a20.635,20.635,0,0,0,4.458-7.554c3.341-1.494,5.262-2.719,6.686-5.324.439-.8.522-1.816.991-2.725.414-.8,1.152-1.315,1.61-2.1a49.188,49.188,0,0,0,6.687-19.07c.809-7.484-1.372-12.832-5.449-16.221-1.287-1.071-2.872-1.664-4.457-2.847-1.913-1.429-3.318-3.553-5.076-5.077a35.586,35.586,0,0,0-12.63-7.43c-10.615-3.413-22.533-.372-30.462,4.829-3.994,2.619-7.179,6.464-12.26,8.544-1.51.617-4.215,1.187-4.457,2.476-.477,2.539,3.268,4.147,3.715,5.943M414.408,16.95a34.02,34.02,0,0,1,19.936-5.076c9.9.72,16.008,5.468,21.05,10.9a15.3,15.3,0,0,0,2.23,2.351c2.234,1.514,4.21,2.129,5.82,3.963,3.128,3.568,3.23,9.147,2.229,14.364a53.73,53.73,0,0,1-4.706,13.25c-1.146-1.323-2.245-3.559-4.457-3.716-.716-.05-1.716.447-2.106.248a54.407,54.407,0,0,0-1.238-15.6c-.556-2.334-1.72-8.612-3.838-9.288-1.935-.617-5.326.2-7.182.372-12.239,1.136-22.462,3.473-30.709,8.421-3.087,1.852-6.157,5.138-10.649,5.076-3.286-.045-5.822-2.357-7.429-4.457,1.6-.556,3.36-1.606,5.2-2.478,1.578-.747,4.377-1.5,4.457-3.219.114-2.448-2.858-3.231-3.467-5.325,5.91-1.884,9.651-6.585,14.858-9.782M445.118,93.1c1.872,2.091,2.69,5.233,5.82,6.067-1.756,5.963-3.317,12.122-5.7,17.46-3.3,2.113-5.878,4.936-9.163,7.058-2.194-7.506-4.514-14.885-6.687-22.412A50.817,50.817,0,0,0,445.118,93.1m-19.193,8.048c-3.573,6.458-6.708,13.353-10.4,19.689-2.764-5.093-1.067-13.386.991-17.955,1.748-.72,3.631-.422,4.829-1.485,1.1-.975.981-2.7,2.229-3.592.5,1.4,1.724,2.073,2.353,3.343m37.148,4.582c2.966,1.783,7.29,1.38,11.392,1.734a48.9,48.9,0,0,1,9.41,1.857c11.432,3.51,20.075,10.269,22.165,23.032,1.027,6.269,1.131,13.7,1.61,21.05.9,13.777,2.387,28.366,1.734,43.215-.6,13.656-3.675,26.38-10.65,34.671a20.052,20.052,0,0,1-14.982,7.554c-7.279.363-13.768-1.07-20.184-2.476a196.237,196.237,0,0,1-34.3-10.9c-20.048-8.488-38.1-18.491-51.76-33.062-.7-.746-2.49-2.157-2.6-3.095-.163-1.381.854-4.48,1.734-5.944a8.585,8.585,0,0,1,2.972-2.972c2.64-1.371,8.316-.791,11.639-.372,2.946.373,6.246,1.145,8.916,1.734,14.883,3.285,28.188,7.965,40.861,12.63,2.667.983,5.5,1.678,7.925,2.849,1.1.531,1.276,1.253,2.229,1.485,1.425.347,3.23.048,4.954.124,1.618.071,3.741-.261,4.953.123.526.167.92,1.032,1.362,1.61a34.49,34.49,0,0,0,4.457,4.706c2.189,1.932,4.31,3.86,8.3,3.838a9.426,9.426,0,0,0,5.076-1.61c5.163-3.32,8.394-10.893,6.935-18.574a25.2,25.2,0,0,0-9.41-15.107c-.171-.134-.8-.173-.619-.619,1.564-.686,2.536.812,3.466,1.61.95.815,2.012,1.664,2.972,2.477,1.987,1.682,3.949,3.887,6.316,4.581,3.084.9,5.532-.523,6.314-2.849.9-2.681-1.6-5.835-2.847-7.554-4.465-6.159-9.508-11.169-18.946-11.887a22.368,22.368,0,0,1,4.086-3.344c1.056-.8,3.97-2.219,3.715-3.963-.316-2.151-2.876-.858-3.715-.248-2.719,1.977-4.313,3.282-6.811,5.325-1.061.868-2.389,2.315-3.343,2.725-.879.377-1.939.349-2.723.619-5.573,1.921-8.283,5.747-11.516,10.03-4.873,6.455-9.639,13.119-14.364,19.317-2.371-.932-4.858-1.746-7.305-2.6,2.61-16.28,4.713-32.066,8.048-47.177,1.633-7.4,4.373-13.943,7.182-20.431a116.32,116.32,0,0,0,5.448-15.355,28.889,28.889,0,0,1,1.734-5.2c4.611.683,5.024,4.548,8.173,6.439m-51.264-.619c-3.479,10.257-7.864,20.4-9.163,33.185-1.28,12.607-2.1,26-2.848,39.625a76.981,76.981,0,0,0-16.222-1.981,72.9,72.9,0,0,1-2.1-21.174c.159-3.39.739-7.193.991-10.649.173-2.394,1.742-9.51-1.115-9.659a2.136,2.136,0,0,0-.247,0c-2.58.18-1.984,6.754-2.229,9.659-.3,3.523-.891,7.3-.99,10.9a74.646,74.646,0,0,0,2.105,21.421c-5.176,1.511-7.5,5.87-8.544,11.516-2.263.26-9.663-2.756-9.659.867,0,2.32,4.817,2.232,6.811,2.477a15.857,15.857,0,0,1,2.971.247c.995.37,2.823,2.822,3.84,3.839A140.784,140.784,0,0,0,406.36,218.54c-11.426,3.154-23.533,6.514-36.653,8.172-14.781,1.869-28.356-.354-28.356-15.107,0-6.448,1.556-13.081,3.1-18.944,4.64-17.686,11.816-32.426,18.078-48.417,2.221-5.671,3.978-11.233,6.068-16.1,6.529-15.2,23.41-21.488,43.215-23.4.162,0,.158.344,0,.372m20.555,18.946c.543,1.829,1.1,4.542,2.848,4.581,1.281.03,2.681-1.48,3.591-2.229a25.581,25.581,0,0,1,3.22-2.6c-7.521,17.659-9.237,41.12-13.126,62.408-8.229-2.71-16.523-5.354-25.386-7.43,1.4-21.011,1.261-43.564,7.306-59.931.727,1.322,1.062,2.863,1.857,4.457.62,1.244,1.355,3.31,3.1,3.219,1.522-.078,2.569-2.793,3.343-4.332,2.634-5.242,5.56-10.718,7.8-15.355.125,0,.148-.1.248-.124,1.562,4.746,3.48,11.551,5.2,17.336m19.812,54.978c1.492-2.008,3.085-4.052,4.582-6.067,1.577-2.122,2.931-4.475,4.705-6.067a17.7,17.7,0,0,1,12.506-4.087,18.2,18.2,0,0,1,12.135,5.325c2.845,2.74,6.022,5.865,6.935,10.154-1.522,1.183-2.95.041-3.963-.744-2.317-1.8-4.114-3.453-6.315-5.325-1.048-.893-2.172-2.218-3.342-2.476-2.162-.476-5.254.653-7.925.743-1.368-.527-7.928-3.718-7.554,0,.136,1.354,2.1,1.562,3.468,1.98,9.519,2.924,16.4,9.5,16.839,20.68-3.907-5.436-8.961-11.892-15.973-15.231-1.286-.612-9.423-4.431-9.288-.743.048,1.3,1.864,1.611,3.468,2.106,8.939,2.756,13.939,8.308,18.574,15.355.723,1.1,2.084,2.543,2.1,3.591.029,1.443-1.365,2.376-1.981,3.713-4.481-6.561-9.655-12.511-17.088-15.973-2.464-1.148-5.159-2.526-8.3-2.723-.605.526-1.121.806-.99,1.857.147,1.182,1.95,1.506,3.343,1.981a37.543,37.543,0,0,1,20.555,17.459c-5.7,3.537-10.679-2.308-13.5-5.819-.913-1.138-1.46-2.514-2.476-2.848-2.951-.968-5.681.319-8.667-.372a44.514,44.514,0,0,1-5.2-2.106c-1.8-.675-3.515-1.414-5.45-1.98,2.175-4.011,5.638-8.136,8.792-12.384m-41.233,41.854c5.295,2.836,10.863,5.4,16.592,7.8-.772,17.719-1.192,35.793-2.106,53.37-7.92,0-15.576.273-23.4.37.008-19.763.36-39.181.372-58.941,2.791-.925,5.7-1.727,8.545-2.6m-12.136,3.963c-.325,23.119-.368,46.521-.619,69.714-5.452-.087-10.524.207-15.973.124.45-11.783.114-23.076.619-34.547.48-10.909,2.093-21.938,2.6-32.566,4.555-.894,8.83-2.068,13.249-3.1.145.021.135.2.124.372m64.885,15.231c3.111,18.023,6.223,36.043,8.544,54.855-14.461-.605-29.046-1.085-43.463-1.734.924-20.911,1.444-42.224,2.477-63.027a202.1,202.1,0,0,0,32.442,9.905m-38.262,46.188c-.14,1.63-.2,3.269-.248,5.2-.042,1.705-.5,3.9.5,4.829.812.763,4,.682,5.82.743,13.459.45,28.864,1.133,41.111,1.61,1.237,13.274,1.27,26.761,1.732,40.118,1.39,40.184,3.877,79.925,6.069,119.495,2.928,52.894,6.117,105.5,9.162,158.249q-19.723.587-39.377,1.238c-8.673-95-17.564-191.435-26.127-287.03a24.172,24.172,0,0,0-.495-4.582,12.074,12.074,0,0,0-2.106-2.723c-.755-.933-1.493-1.816-2.229-2.724-.869-1.076-3.126-5.216-5.448-4.21-1.758.761-.59,2.946.123,3.839,1.678,2.093,2.522,3.039,4.087,4.953.7.857,1.763,1.775,1.982,2.6a32.007,32.007,0,0,1,.372,4.334c1.521,16.332,2.98,32.343,4.333,48.292.508,5.979.064,12.271-.245,18.2-3.836,73.17-6.89,147.347-10.527,219.421-13.125-.123-26.275-.224-39.376-.372,3.263-105.7,5.35-212.587,7.554-319.348,2.728-.026,5.938-.123,9.535-.123,2.453,0,7.793.672,9.411-.372,1.259-.812.866-3.767.866-5.819v-5.82c7.833-.092,15.491-.359,23.4-.372.144.02.134.2.123.372m64.39,334.456c.209,2.76.388,5.553.495,8.42q-18.431.328-37.024.494c-.064-2.746-.517-5.755-.5-8.174,12.352-.32,24.562-.782,36.9-1.112.145.019.136.194.125.372m-77.763,1.238c-.218,3.58-.195,7.4-.371,11.019-12.639-.172-25.283.309-37.644,0q.275-5.608.372-11.39c12.515.156,25.132.21,37.643.372m78.506,11.391c.24,2.443.315,5.05.495,7.554-12.656-.4-19.026,5.49-22.537,14.241a36.338,36.338,0,0,1-4.21.123c-2.483-5.9-5.7-11.057-10.153-14.984-.177-2.257-.409-4.46-.5-6.811q18.476-.155,36.776-.495c.144.022.134.2.124.372m-79,3.839c-.444,2.544.413,4.5-.124,6.688-.2.809-1.555,2.23-2.229,3.094a42.48,42.48,0,0,0-6.191,9.784h-24.89a41.076,41.076,0,0,0-10.9-11.022c1.588-1.613,5.34-1.438,6.314-3.591.606-1.342.193-3.066.372-5.2,12.75.038,24.6-.219,37.52-.123.145.022.134.2.124.371m47.178,15.231c.759,1.47,2.14,5.93,3.591,6.561.769.336,2.32.159,3.962.126,3.886-.079,4.691-.232,5.944-2.725,1.46-2.9,3.143-6.23,5.2-8.048,2.83-2.5,8.077-3.742,13.5-3.591a31.84,31.84,0,0,1,8.3,1.238c3.392,1.2,6.089,4.446,8.173,7.059a30.764,30.764,0,0,1,5.2,10.03c-19-.148-37.955-.137-56.712-.248-.477-5.343-.878-10.762-1.238-16.223a22.551,22.551,0,0,1,4.086,5.822m-85.812,3.84c.98,1.262,2.48,3.856,3.591,4.208,1.662.527,4.748.123,7.058.123,5.411,0,9.016,0,14.364,0,2.178,0,5.333.555,6.935-.123,1.508-.637,2.239-3.517,3.1-5.078a32.315,32.315,0,0,1,2.351-3.714c.193-.26.46-.88.868-.743-.169,3.837-.2,7.808-.372,11.639-19.76.423-39.654.716-59.56.992,2.751-6.537,6.682-11.894,12.383-15.479a33.583,33.583,0,0,1,9.286,8.174" transform="translate(-213.041 -8.199)"/><path class="u" d="M498.575,72.14c-3.106-.395-8.721,1.42-8.3,4.335a1.5,1.5,0,0,0,1.238,1.361c2,.387,3.288-2.28,5.573-2.353a9.143,9.143,0,0,1,4.086,1.115c1.156.567,1.951,1.92,3.591,1.487.6-.157,1.086-1.164,1.115-1.487.156-1.771-1.969-2.442-2.972-2.972a11.207,11.207,0,0,0-4.333-1.486" transform="translate(-271.574 -42.957)"/><path class="u" d="M517.066,136.823c-1.071-.146-2.04.983-2.353,1.239a12.182,12.182,0,0,1-6.933,2.723c-1.652.111-3.628-.323-4.087,1.115-1.275,4,7.793,1.991,9.535,1.238,1.377-.595,5.477-2.707,5.325-4.829-.064-.894-.451-1.345-1.487-1.487" transform="translate(-290.314 -78.17)"/><path class="u" d="M548.737,97.423a2.6,2.6,0,0,0-2.6,2.6v3.343a2.6,2.6,0,1,0,5.2,0v-3.343a2.6,2.6,0,0,0-2.6-2.6" transform="translate(-342.504 -56.741)"/><path class="u" d="M504.465,94.708a2.6,2.6,0,0,0-2.6,2.6v3.343a2.6,2.6,0,1,0,5.2,0V97.308a2.6,2.6,0,0,0-2.6-2.6" transform="translate(-278.046 -55.264)"/></g></g></g><g transform="translate(1572.536 5093.141)"><g class="y"><path class="z" d="M49.935,6.667A43.277,43.277,0,1,0,93.188,49.942,43.282,43.282,0,0,0,49.935,6.667m0,77.531A34.259,34.259,0,1,1,84.192,49.939,34.3,34.3,0,0,1,49.931,84.2Z" transform="translate(-4.875 -4.88)"/><path class="z" d="M277.452,296.269l17.575,17.267a13.312,13.312,0,1,0,18.826-18.826l-17.577-17.271Z" transform="translate(-203.07 -203.06)"/><path class="aa" d="M275.979,261.866,261.864,276l-8.918-8.939.219-.222a43.059,43.059,0,0,0,13.7-13.7l.2-.2Z" transform="translate(-185.133 -185.135)"/><rect class="ab" width="0.279" height="3.575" transform="translate(80.467 66.744) rotate(-44.922)"/><path class="ac" d="M299.456,249.332l8.917,8.918a1.787,1.787,0,1,0,2.528-2.527l-8.917-8.918a1.787,1.787,0,0,0-2.528,2.528" transform="translate(-218.791 -180.256)"/><path class="ac" d="M7.986,19.449A45.048,45.048,0,1,0,45.061,0a1.787,1.787,0,1,0,0,3.574A41.484,41.484,0,1,1,10.925,21.483a1.787,1.787,0,1,0-2.939-2.034M26.363,71.594A32.467,32.467,0,1,1,77.532,45.059a1.787,1.787,0,1,0,3.575,0A36.047,36.047,0,1,0,24.3,74.513a1.787,1.787,0,0,0,2.063-2.919" transform="translate(0 0)"/><path class="ac" d="M275.106,329.276l16.289,16a1.787,1.787,0,0,1-2.505,2.55l-17.575-17.267a1.788,1.788,0,0,1-.011-2.539l4.947-4.948a1.787,1.787,0,0,1,2.528,2.527Z" transform="translate(-198.186 -236.079)"/><path class="ac" d="M336.353,275.076l-1.108,1.109a1.787,1.787,0,0,1-2.528-2.527l2.361-2.362a1.787,1.787,0,0,1,2.517-.011l17.588,17.282a15.079,15.079,0,0,1-7.95,25.512,1.787,1.787,0,1,1-.639-3.517,11.5,11.5,0,0,0,6.073-19.457Z" transform="translate(-243.136 -198.18)"/></g></g></g></g><path class="aa" d="M37.271,710.1l23.052,7.109-23.052,7.11-7.111,23.053-7.11-23.053L0,717.208,23.051,710.1l7.11-23.054Z" transform="translate(670 4240.792)"/><path class="ad" d="M21.393,700.278l13.231,4.08-13.231,4.081L17.311,721.67l-4.081-13.232L0,704.358l13.23-4.08,4.081-13.232Z" transform="translate(1165.5 4399.492)"/><path class="i" d="M21.392,700.278l13.231,4.08-13.231,4.081-4.081,13.231L13.23,708.438,0,704.358l13.23-4.08,4.081-13.232Z" transform="translate(717.012 4283.806)"/></g></svg>