<svg xmlns="http://www.w3.org/2000/svg" xmlns:xlink="http://www.w3.org/1999/xlink" width="400" height="349" viewBox="0 0 400 349"><defs><style>.a{fill:#ff8585;opacity:0.47;}.b{fill:none;}.c{clip-path:url(#a);}.d{clip-path:url(#b);}.e{fill:#fff;}.e,.g,.h,.j{fill-rule:evenodd;}.f{fill:#6433d1;}.g{fill:#1a1a1a;}.h{fill:#6c33eb;}.i{clip-path:url(#d);}.k{mix-blend-mode:multiply;isolation:isolate;}.l{clip-path:url(#f);}.m{fill:#9100c6;}</style><clipPath id="a"><rect class="a" width="400" height="349" transform="translate(4923 2087)"/></clipPath><clipPath id="b"><rect class="b" width="346.42" height="299.919"/></clipPath><clipPath id="d"><path class="b" d="M118.685,28.621c-5.359,1.768-7.536,6.014-9.5,12.884-1.575,5.516-2.478,10.735-2.478,10.735l-5.616-18.579s-.447-2.917-2.971-2.891-19.492.164-19.492.164-1.9-.126-1.4,2.149,4.212,15.03,4.212,15.03-1.254-.879-1.82.329S87.8,82.715,87.8,82.715s2.529,4.729,5.616,3.881,11.231-9.5,11.231-9.5l-20.4,75.729s-1.311,5.253,1.735,5.7,18.251.167,18.251.167l.992,81.756s-8.011-.164-10.489,2.642-3.614,4.369-2.143,4.953,29.312.252,29.312.252,2.37-.511,2.064-5.2.167-84.48.167-84.48H133.3l21.306,87.536s-.344,2.11,2.557,2.4,24.774-.411,24.774-.411a3,3,0,0,0-.08-3.554c-2.9-4.374-10.985-3.8-10.985-3.8l-16.847-82.252s4.816.162,5.865-.907,1.609-1.994.743-5.2-14.287-52.6-14.287-52.6l15.94.082a3.279,3.279,0,0,0,2.478-1.568,26.228,26.228,0,0,0,1.154-2.645,9.871,9.871,0,0,0,5.947-7.1c1.439-7.1,0-9.579,0-9.579l4.045-12.632s.995-2.8-1.239-3.22-24.11.08-24.11.08-2.149-.344-3.141.992a5.72,5.72,0,0,0-1.074,2.807s-5.942-8.684-7.6-9.247a19.828,19.828,0,0,0-4.045-.743s-.745-17.906-2.313-21.8c-1.591-3.95-4.942-7.276-9.787-7.276a12.5,12.5,0,0,0-3.919.668" transform="translate(-77.144 -27.953)"/></clipPath><clipPath id="f"><rect class="b" width="45.214" height="50.14"/></clipPath></defs><g class="c" transform="translate(-4923 -2087)"><g transform="translate(4950 2112)"><g class="d"><path class="e" d="M31.226.241h219a1.653,1.653,0,0,1,1.653,1.653V140.624a1.653,1.653,0,0,1-1.653,1.653h-219a1.653,1.653,0,0,1-1.653-1.653V1.894A1.653,1.653,0,0,1,31.226.241" transform="translate(46.434 0.378)"/><path d="M250.6,143.272H31.6A2.27,2.27,0,0,1,29.333,141V2.269A2.272,2.272,0,0,1,31.6,0h219a2.274,2.274,0,0,1,2.272,2.269V141a2.272,2.272,0,0,1-2.272,2.269M31.6,1.236a1.034,1.034,0,0,0-1.031,1.033V141a1.033,1.033,0,0,0,1.031,1.033h219A1.033,1.033,0,0,0,251.631,141V2.269A1.034,1.034,0,0,0,250.6,1.236Z" transform="translate(46.057)"/></g><g class="d"><circle class="f" cx="50.5" cy="50.5" r="50.5" transform="translate(184 23.85)"/><path d="M122.383,113.12c-28.074,0-50.912-23.4-50.912-52.151S94.309,8.819,122.383,8.819s50.909,23.393,50.909,52.151-22.838,52.151-50.909,52.151m0-103.062C94.993,10.058,72.71,32.9,72.71,60.97s22.283,50.912,49.673,50.912,49.673-22.841,49.673-50.912-22.283-50.912-49.673-50.912" transform="translate(112.219 13.847)"/><path class="e" d="M78.075,5.636h0Z" transform="translate(122.588 8.849)"/><path d="M99.821,6.634H78.453a.619.619,0,0,1,0-1.239H99.821a.619.619,0,1,1,0,1.239" transform="translate(122.21 8.471)"/><path class="e" d="M88.3,5.636h0Z" transform="translate(138.638 8.849)"/><path d="M121.239,6.634H88.673a.619.619,0,0,1,0-1.239h32.566a.619.619,0,0,1,0,1.239" transform="translate(138.26 8.471)"/><path class="e" d="M78.059,3.9h0Z" transform="translate(122.563 6.131)"/><path d="M137.2,4.9H78.437a.619.619,0,0,1,0-1.239H137.2a.619.619,0,1,1,0,1.239" transform="translate(122.185 5.751)"/><path class="e" d="M33.9,7.279h0Z" transform="translate(53.22 11.429)"/><path d="M93,8.277H34.273a.619.619,0,1,1,0-1.239H93a.619.619,0,0,1,0,1.239" transform="translate(52.841 11.051)"/><path class="e" d="M33.9,5.833h0Z" transform="translate(53.22 9.159)"/><path d="M55.628,6.831H34.272a.619.619,0,1,1,0-1.239H55.628a.619.619,0,0,1,0,1.239" transform="translate(52.84 8.78)"/><path class="e" d="M44.109,5.833h0Z" transform="translate(69.257 9.159)"/><path d="M77.03,6.831H44.49a.619.619,0,1,1,0-1.239H77.03a.619.619,0,1,1,0,1.239" transform="translate(68.879 8.78)"/><path class="e" d="M33.9,3.9h0Z" transform="translate(53.22 6.131)"/><path d="M93.121,5.234H34.4a.825.825,0,1,1,0-1.65H93.121a.825.825,0,1,1,0,1.65" transform="translate(52.716 5.627)"/><path d="M34.4,86.586a.676.676,0,0,1-.172-.023.618.618,0,0,1-.422-.768c.285-.992,7.124-24.3,17.461-25.3,4.708-.455,7.967-7.967,11.116-15.231,3.064-7.073,5.96-13.753,10.309-13.922a12.739,12.739,0,0,1,7.284,1.935,12.47,12.47,0,0,0,7.731,1.866c5.564-.362,8.484-4.4,11.861-9.075a47.31,47.31,0,0,1,6.978-8.206A29.547,29.547,0,0,1,123.2,10.942a.621.621,0,0,1,.123,1.236,28.238,28.238,0,0,0-15.953,6.61,46.149,46.149,0,0,0-6.793,8c-3.413,4.724-6.639,9.186-12.786,9.587a13.606,13.606,0,0,1-8.4-2.01,11.469,11.469,0,0,0-6.651-1.789c-3.567.139-6.441,6.767-9.219,13.174-3.292,7.595-6.7,15.446-12.134,15.976C41.88,62.648,35.064,85.9,35,86.139a.62.62,0,0,1-.594.447" transform="translate(53.042 17.175)"/><path class="e" d="M68.949,115.81v0Z" transform="translate(108.259 17.554)"/><path d="M69.327,116.81a.621.621,0,0,1-.619-.619V11.558a.619.619,0,1,1,1.239,0V116.191a.621.621,0,0,1-.619.619" transform="translate(107.881 17.176)"/><path class="e" d="M63.169,13.723l-1.321,98.161Z" transform="translate(97.11 21.547)"/><path d="M62.226,112.884a.624.624,0,0,1-.619-.63l1.321-98.161a.58.58,0,0,1,.627-.609.62.62,0,0,1,.612.627l-1.321,98.161a.621.621,0,0,1-.619.612" transform="translate(96.731 21.169)"/><path class="e" d="M55.293,20.548v0Z" transform="translate(86.817 32.263)"/><path d="M55.671,103.006a.618.618,0,0,1-.619-.617V20.926a.619.619,0,0,1,1.239,0v81.463a.618.618,0,0,1-.619.617" transform="translate(86.439 31.885)"/><path class="e" d="M48,19.463v0Z" transform="translate(75.366 30.559)"/><path d="M48.378,104.134a.618.618,0,0,1-.619-.617V19.841a.619.619,0,0,1,1.239,0v83.676a.618.618,0,0,1-.619.617" transform="translate(74.988 30.181)"/><path d="M124.7,115.934H34.031a.825.825,0,0,1-.828-.825l.041-102.391a.826.826,0,0,1,1.653,0l-.041,101.564H124.7a.826.826,0,0,1,0,1.653" transform="translate(52.133 18.672)"/><path class="e" d="M40.962,30.407v0Z" transform="translate(64.316 47.743)"/><path d="M41.34,86.623A.621.621,0,0,1,40.721,86V30.787a.619.619,0,1,1,1.239,0V86a.621.621,0,0,1-.619.619" transform="translate(63.937 47.363)"/><path d="M92.822,31.268a.332.332,0,0,1-.272-.144L76.776,8a.329.329,0,0,1,.272-.514h62.678a.329.329,0,1,1,0,.658H77.673L93.094,30.752a.331.331,0,0,1-.087.46.326.326,0,0,1-.185.057" transform="translate(120.458 11.756)"/><path class="e" d="M80.014,258.036,63.745,138.375,37.4,258.7s-1.45,2.416-3.549,2.478-19.821-.411-19.821-.411-2.583-4.554.249-6.361,5.449-3.22,5.449-3.22l25.6-140.8S43.8,114.376,41.2,114.1c-1.974-.213-25.93-14.287-25.93-14.287A6.015,6.015,0,0,1,13.537,92.3c2.277-4.554,18.579-32.949,18.579-32.949s3.907-5.271,8.425-5.7a91.253,91.253,0,0,1,11.725.082,13.018,13.018,0,0,0,.825-2.645c.2-1.221.661-6.937.661-6.937s-3.159-.021-4.045-1.318-.661-1.9-.661-1.9-5.839-6.541-4.295-9.99A15.031,15.031,0,0,1,54,23.092c5.716-1.737,7.762-3.138,7.762-3.138a6.5,6.5,0,0,1,.743,1.817,4.5,4.5,0,0,1-.082,1.239s2.339-.83,2.727.332-.745,4.457-.745,4.457,2.953,5.127,3.719,8.178c1.856,7.415-5.947,9.661-5.947,9.661s-1.131,7.51.329,7.68,14.1,0,16.929.5,24.776,6.937,24.776,6.937l8.836-26.426S115.5,30.684,118,30.278a9.358,9.358,0,0,0,4.212-1.406c1.038-.63,3.369-2.393,3.881-1.817s.912,1.773-.661,3.056a22.733,22.733,0,0,0-3.056,3.22,19.316,19.316,0,0,1,4.791-.743,28.732,28.732,0,0,1,3.634.578s1.208-2.825,2.064-2.809.992,2.478.992,2.478,2.557-2.622,3.549-1.982.661,1.324.661,1.324,1.943.272,1.239,1.321a6.605,6.605,0,0,1-2.807,1.732,43.477,43.477,0,0,0-4.377,2.313c-2.059,1.272-2.642,1.568-2.642,1.568a28.928,28.928,0,0,1-3.963.5c-1.223-.023-3.506-.681-3.8.332s-7.77,31.972-8.5,32.453-2.185,2.493-6.855,1.4S80.1,69.421,80.1,69.421l17.1,177.714s-.221,2.907,2.146,3.8,9.687,3.68,9.993,6.608.293,3-1.074,3.22-25.583-.087-26.591-.5-1.653-2.231-1.653-2.231" transform="translate(20.157 31.33)"/><path class="e" d="M30.359,41l4.212,20.728a8.82,8.82,0,0,0-2.231,3.056,37.888,37.888,0,0,1-1.9,4.377L18.8,61.067Z" transform="translate(29.512 64.374)"/><path class="g" d="M31.722,39.4s3.012,2.01,3.387,1.321-2.012-3.9-2.179-5.264c-.414-3.315.244-5.233-.051-5.39a11.485,11.485,0,0,1-1.4-.992,11.045,11.045,0,0,1,3.467-.743A31.636,31.636,0,0,0,41.8,26.925c.894-.4.933-.982,1.321-.658s1.157.907,1.157.907a9.281,9.281,0,0,0,1.157-2.562c.123-.918.129-1.635-.414-1.732s-1.591.46-1.817.082a25.954,25.954,0,0,1-.825-2.807,60.974,60.974,0,0,1-6.027,2.4c-2.863.915-11.841,4.873-11.4,9.412s4.13,8.589,4.13,8.589.776-1.146,1.072-1.239a7.473,7.473,0,0,1,1.57.085" transform="translate(39.149 31.646)"/><path class="h" d="M37.077,74.926,33.029,53.951l-3.8,6.605L17.092,54.033,24.936,40.16s3.86-6.086,7.435-6.608a42.909,42.909,0,0,1,9.247,0s1.378,6.693,12.3,5.865c6.49-.493,5.369-5.865,5.369-5.865s9.561-.879,13.049-.411S86.46,37.6,86.46,37.6L81.176,50.564l-8.093-1.072,4.708,50.043-41.541.578,2.727-11.478s2.974,1.252,3.963,1.488,1.922-.231,1.817-.828a2.677,2.677,0,0,0-.493-1.074s1.771-.774,1.65-1.4a2.8,2.8,0,0,0-.825-1.239s2.012-.9,1.318-1.815a8.409,8.409,0,0,0-1.817-1.653s2.511-.753,1.324-2.231c-.779-.969-4.331-3.151-6.69-4.295a6.4,6.4,0,0,0-2.146-.661" transform="translate(26.837 51.82)"/><path class="g" d="M38.362,108.2l.743,6.608,5.12,5.531H54.96a8.086,8.086,0,0,1,2.313-3.8c1.8-1.583,5.122-1.982,5.122-1.982s-4.577-1.031-5.122-2.809a15.867,15.867,0,0,1-.578-3.8Z" transform="translate(60.233 169.502)"/><path class="g" d="M26,119.939l5.035.247a6.1,6.1,0,0,1,1.406-2.4c.948-.874,2.231-2.146,2.231-2.146l1.565-8.011H16.992l-1.732,6.03s5.821-.65,7.926,1.568a8.576,8.576,0,0,1,2.526,3.979Z" transform="translate(23.96 168.998)"/><path class="e" d="M146.347,67.024s-5.94-8.684-7.6-9.25a20.026,20.026,0,0,0-4.045-.743s-.743-17.9-2.313-21.8c-1.989-4.945-6.731-8.906-13.707-6.608-5.359,1.766-7.533,6.012-9.5,12.882-1.575,5.516-2.475,10.738-2.475,10.738l-5.616-18.582s-.45-2.915-2.974-2.891-19.489.167-19.489.167-1.9-.129-1.4,2.146,4.212,15.03,4.212,15.03-1.254-.879-1.82.332S87.8,82.714,87.8,82.714s2.529,4.732,5.616,3.881,11.231-9.5,11.231-9.5l-20.4,75.726s-1.313,5.253,1.735,5.7,18.248.167,18.248.167l.992,81.756s-8.011-.164-10.486,2.642-3.616,4.369-2.146,4.953,29.315.249,29.315.249,2.367-.509,2.064-5.2.165-84.483.165-84.483H133.3l21.306,87.539s-.344,2.11,2.56,2.4,24.773-.416,24.773-.416a3,3,0,0,0-.082-3.552c-2.9-4.372-10.982-3.8-10.982-3.8l-16.85-82.249s4.819.159,5.865-.91,1.609-1.992.745-5.2-14.29-52.605-14.29-52.605l15.94.082a3.271,3.271,0,0,0,2.478-1.568,26.957,26.957,0,0,0,1.154-2.645,9.871,9.871,0,0,0,5.947-7.1c1.442-7.1,0-9.581,0-9.581l4.045-12.635s.995-2.8-1.239-3.218-24.11.082-24.11.082-2.149-.344-3.138.992a5.731,5.731,0,0,0-1.077,2.807" transform="translate(121.127 43.891)"/><path class="e" d="M83.346,41.934l1.817,6.605,7.019-6.523Z" transform="translate(130.864 65.842)"/></g><g transform="translate(198.271 71.843)"><g class="i"><path class="g" d="M97.985,108.436l65.238.082,1.735,4.377,14.287.5,2.313,9.5-9.168,6.772-90.921-5.2,1.65-10.239,13.712-2.971Z" transform="translate(-70.353 98.416)"/></g></g><g class="d"><path class="h" d="M104.651,113.529H88.185s-.672-34.908-.6-38.37,2.658-15.477,4.87-19.076a43.4,43.4,0,0,0,3.305-6.443l-.082-1.486,12.964-.167Z" transform="translate(137.515 75.346)"/><path class="j" d="M77.69,50.332v-.745c.185-.745.35-1.575,1.074-1.817a6.657,6.657,0,0,1,2.891.411c1.061.257,2.095.493,2.889.661,1.727.368,4.863.56,4.955,2.066.026.429-.028.632-.5,1.072-.224.211-.565.254-.743.414s.411.247.663.332a2.545,2.545,0,0,1,.578.247c.306.193.676.37.74.907a1.194,1.194,0,0,1-.578,1.154c-.558.468-.134.324.249.743.915,1-.524,1.784-1.157,2.149,1.586.894-.1,2.241-1.4,2.56a8.625,8.625,0,0,1-2.807-.08c-.861-.105-2.539-.234-2.478-.828.015-.177.26-.365.5-.414.26-.051.486.116.825.167.581.085,1.378.2,1.735.247.781.09,3.31.152,2.971-.822-.1-.29-1.347-.442-1.65-.5-1.318-.257-2.413-.427-3.634-.663-.8-.149-1.462-.049-1.486-.655a.879.879,0,0,1,.164-.416c.257-.29,1.046-.005,1.486.082.689.136,1.583.332,2.064.411a11.526,11.526,0,0,0,2.231.252c1.023-.031,1.807-.352,1.653-.912-.069-.234-.332-.134-.828-.247-1-.224-2.208-.4-3.22-.578-.774-.136-1.367-.242-2.149-.409-.568-.129-1.786-.211-1.732-.828.021-.239.357-.468.828-.5.051,0,.319.129.493.164,1.213.254,2.807.56,3.881.743a5.054,5.054,0,0,0,1.157.167c.735,0,1.879-.265,1.57-.91-.118-.244-.116-.157-.414-.249-2.082-.64-4.1-.856-6.112-1.318-.625-.146-1.863-.37-1.9-.828-.018-.19.488-.625.576-.658.308-.118.717.1.992.162.828.182,1.6.388,2.146.5a9.511,9.511,0,0,0,2.4.247c.784-.015,1.881-.254,1.568-.9-.123-.257-.1-.154-.411-.247-.45-.141-1.3-.339-1.653-.416-1.835-.4-2.8-.581-4.541-.99a7.9,7.9,0,0,0-2.228-.414,4.864,4.864,0,0,0-.082,2.393,32.047,32.047,0,0,0,.989,4.379c.565,2.2,1.27,4.6,1.732,6.361,1.668,6.32,3.434,12.889,5.122,19.155a14.21,14.21,0,0,0,.576,2.146A6.853,6.853,0,0,0,89,84.929a4.536,4.536,0,0,0,1.817,1.239,5.708,5.708,0,0,0,4.048-.992,19.568,19.568,0,0,0,2.064-2.066l4.128-4.128c.591-.591,1.349-1.172,1.817-1.735.111-.134.09-.242.165-.414a10.116,10.116,0,0,0,.578-1.979c.087-.324.157-.645.247-.992a4,4,0,0,0,.249-1.072,6.535,6.535,0,0,0-.414-1.321c-.121-.419-.182-.928-.329-1.406-.136-.434-1.1-2.2-.332-2.478.722-.257,1.167,1.185,1.321,1.65.278.846.414,1.491.661,2.313a14.4,14.4,0,0,1,.578,1.488,8.53,8.53,0,0,1-.329,1.239c-.828,3.02-1.624,6.05-2.4,8.916-2.74,10.162-5.539,20.769-8.176,30.551-3.3,12.242-6.9,25.758-10.239,38.146a19.467,19.467,0,0,0-.661,2.645,4.743,4.743,0,0,0,.581,3.056c.727.714,2.76.63,4.457.576,4.611-.144,9.24-.044,13.956-.08-.023-3.539-.1-7.063-.167-10.571-.069-3.57.028-7.122-.082-10.651-.221-7.094-.116-14.1-.247-21.057-.015-.8-.139-1.542-.164-2.313a62.067,62.067,0,0,1,.329-7.762,70.663,70.663,0,0,1,1.57-9.165,33.943,33.943,0,0,1,2.724-8.006c.825-1.64,1.9-3.624,2.724-5.284a8.514,8.514,0,0,0,.825-1.9,27.9,27.9,0,0,0,.085-3.47c.015-.355.069-.974.08-1.65a13.109,13.109,0,0,0,.085-1.737c-.09-.185-.738-.334-.91-.409a4.829,4.829,0,0,1-.907-.5,6.417,6.417,0,0,1-2.146-3.883,6.882,6.882,0,0,1,.907-4.21,8.338,8.338,0,0,1,1.154-1.4c.324-.334.714-.64.992-.91.134-.126.131-.2.249-.411a14.345,14.345,0,0,0,.825-2.313c.278-.8.6-1.575.825-2.4a9.743,9.743,0,0,0-3.8.907c-.5.211-.619.555-.907.167a1.369,1.369,0,0,1-.082-.907c.116-.224.6-.3.825-.414a8.357,8.357,0,0,1,1.735-.743,13.862,13.862,0,0,1,2.064-.085c2.118-.059,4.559-.059,6.523-.164-.35-2.241-.452-5.33-.661-7.844-.036-.414-.039-1.09-.082-1.157-.108-.164-.781-.231-.992-.329a4.889,4.889,0,0,1-2.393-2.478,6.817,6.817,0,0,1-.825-4.207,2.769,2.769,0,0,1,.74-1.239c.146-.2.272-.388.414-.578a17.794,17.794,0,0,1,2.727-2.891c1.128-.992,2-1.457,3.22-2.393.352-.275.856-.874,1.318-.743.288.072.373.368.414.655.018.116-.244.172-.247.249-.005.1.2.239.247.329a8.063,8.063,0,0,0,.578.663,16.872,16.872,0,0,1,1.568,2.4c.188.347.524.995.91,1.735.131.249.725,1.755.825,1.817.175.1.555-.134.825-.17a2.375,2.375,0,0,1,2.478,2.562,3.173,3.173,0,0,1-1.9,2.308c-.5.216-1.105-.041-1.653.167-.211.08-.535.576-.743.745-.152.121-.293.242-.411.326-.252.193-.316.082-.414.419a4.489,4.489,0,0,0,.082,1.234c.1,1.352.167,2.732.247,3.883a12.825,12.825,0,0,0,.5,3.634,7.3,7.3,0,0,0,.5.9,7.053,7.053,0,0,0,1.9,0c2.228,0,3.812.108,5.862.087a146.919,146.919,0,0,0-.99-15.444c-.679-4.634-2.03-9.551-5.369-11.393a11.2,11.2,0,0,0-9.823-.332,12.374,12.374,0,0,0-5.862,6.274c-2.627,5.878-3.305,13.164-5.04,19.325-.146-.83-.645-1.372-.661-2.151a10.9,10.9,0,0,1,.5-2.059c.162-.712.357-1.486.5-2.151C107.994,40.2,109.285,31.334,117,28.612a14.765,14.765,0,0,1,6.934-.578,8.987,8.987,0,0,1,5.2,2.642c2.493,2.688,3.657,6.9,4.212,11.481.573,4.726.658,9.767.907,14.781a9.871,9.871,0,0,1,6.03,2.146,6.807,6.807,0,0,1,.907,1.236c.27.362.532.648.743.99.221.362.409.714.661,1.074.226.321.5.645.743.989.439.625.7,1.172,1.321,2.066.1.141.278.218.411.411.108.154.188.373.332.581.236.339.709.7.414.989-.406.393-.9.1-1.239-.249a3.754,3.754,0,0,1-.332-.578c-1.023-1.421-1.82-2.436-2.724-3.632-.252-.337-.565-.643-.825-.987a18.824,18.824,0,0,0-1.486-2.149,6.951,6.951,0,0,0-3.881-1.737c-.717-.033-1.542.082-2.313.082h-7.181c-1.2,25.187-2.871,49.521-4.048,74.811-.18,3.909-.545,8.186-.743,12.383-.131,2.783-.293,6.32-.5,9.414-.08,1.2-.236,2.55.164,2.809a8.083,8.083,0,0,0,2.231.08c10.327,0,20.242.085,30.137.085a21.744,21.744,0,0,0,4.624-.085,2.571,2.571,0,0,0,1.57-1.239,3.543,3.543,0,0,0-.167-1.9c-3.873-15-7.942-29.384-11.807-44.258-.686-2.642-1.213-4.436-1.9-7.1-.167-.658-.545-1.833-.743-2.645-.224-.915-.242-.781-.082-.907a5.741,5.741,0,0,1,1.4.085c.1.072.244,1.11.414,1.732,2.336,8.589,4.791,17.829,7.019,26.095,2.429,9.013,4.724,17.168,7.016,26.007a9.4,9.4,0,0,1,.416,1.817,3.52,3.52,0,0,1-.663,2.146c-.134.154-.211.141-.329.249a6.791,6.791,0,0,1-.578.576c-1.3.884-3.274.648-5.449.666,4.107,20.646,8.335,40.644,12.465,61.185.65,3.223,1.272,6.425,2.064,10.239.288,1.372.707,3.2,1.074,5.037.208,1.025.465,2.65.743,3.878.111.488.373,1.272.332,1.239.221.18,1.095.054,1.735.082a17.644,17.644,0,0,1,5.366.992,13.657,13.657,0,0,1,2.889,1.65,4.455,4.455,0,0,1,1.321,1.318c.1.146.257.254.332.416a5.015,5.015,0,0,1,.247,2.642,3.735,3.735,0,0,1-1.65,1.4,18.227,18.227,0,0,1-3.3,0c-7.186,0-13.812.075-20.893,0a6.613,6.613,0,0,1-2.393-.247c-.062-.031-.1-.211-.165-.249-.226-.131-.373-.026-.414-.082a7.85,7.85,0,0,1-.329-1.4c-1.668-7-3.477-14.37-5.037-20.972-3.619-15.313-7.148-29.446-10.735-44.754-.889-3.8-1.743-7.194-2.724-11.147-.789-3.184-1.689-7.173-2.56-10.489-.118-.445.015-.522-.247-.663a8.557,8.557,0,0,0-1.9,0H126.16a7.818,7.818,0,0,0-1.984,0,13.2,13.2,0,0,0-.08,2.645c0,6.531-.021,13.141-.085,19.155-.111,10.8-.136,21.383-.247,32.45-.031,3.292-.015,6.991-.164,10.4-.159,3.624.036,7.3-.082,10.9-.059,1.755,0,3.6,0,5.369,0,2.542.272,5.724-.5,7.348a2.718,2.718,0,0,1-1.817,1.568,22.113,22.113,0,0,1-3.549.167c-1.221.051-2.472,0-3.716,0H95.36a21.582,21.582,0,0,1-3.716,0,2.933,2.933,0,0,1-1.318-1.157,4.469,4.469,0,0,1,.578-2.064,7.713,7.713,0,0,1,4.128-3.8,24.693,24.693,0,0,1,8.834-1.735c-.213-27.351-.735-53.878-1.072-81.085H89.333a23.843,23.843,0,0,1-4.459-.082,3.3,3.3,0,0,1-1.982-1.239,6.412,6.412,0,0,1-.578-3.716,8.152,8.152,0,0,1,.332-1.074c.344-1.285.6-2.39.907-3.549,3.706-13.922,7.566-27.94,11.229-41.616,2.5-9.319,4.93-18.8,7.433-27.906-.185-.1-.254.172-.332.244-1.568,1.486-3.035,3.1-4.539,4.544-1.552,1.488-4.308,3.372-7.268,2.4a6.563,6.563,0,0,1-3.549-3.22,10.066,10.066,0,0,1-.578-1.817c-.044-.129-.206-.267-.247-.414-.2-.671-.306-1.442-.5-2.143-.745-2.735-1.5-5.441-2.231-8.176-.37-1.39-.786-2.747-1.154-4.133-.745-2.776-1.39-5.59-2.149-8.34a71.211,71.211,0,0,1-1.982-8.664m41.2,5.531c.069,1.041.059,1.2-.329,1.73-.213.3-.334.442-.5.5a6.483,6.483,0,0,1-1.4,0,4.794,4.794,0,0,0-1.486,0c-.188.108-.332.987-.414,1.241a13.256,13.256,0,0,0-.907,4.043c-.185,4.11,2.336,6.012,6.027,6.279a5.859,5.859,0,0,0,3.385-.663c.72-.36.583-.573.661-1.653.17-2.375.285-4.711.414-7.016a12.605,12.605,0,0,0,.082-2.727c-.1-.36-.545-.689-.743-1.151a17.771,17.771,0,0,1-.661-4.876c-.051-.622-.116-1.28-.167-1.9a19.554,19.554,0,0,0-.164-2.4c-.031-.118-.093-.01-.164-.077-.576-.56.889-1.087,1.4-1.658.411-.447.635-1.372,1.321-1.321.468.041.118.434.743.5.756.075,1.588-.92,1.57-1.732a1.746,1.746,0,0,0-.249-.745c-.594-1.036-1.113-.239-1.9.082a.669.669,0,0,1-.329.082c-1.141.013-.319-.547-.329-.987-.005-.177-.334-.514-.5-.828a42.374,42.374,0,0,0-2.311-4.377,8.155,8.155,0,0,0-1.157-1.57c-.157-.121-.38.141-.414.167A31.49,31.49,0,0,0,117,37.363c-.334.316-.779.84-1.074,1.159-1.079,1.146-1.892,1.976-1.653,4.128A6.014,6.014,0,0,0,116,46.032a4.043,4.043,0,0,0,2.313.992c.671.069.457-.1,1.486,0,.146.015.386-.116.578,0a.659.659,0,0,1,.247.5c-.062.218-.648.332-.992.414a7.219,7.219,0,0,1-1.318.164c.193,2.835.409,5.171.576,7.764m-5.942,2.226c-.128.064-.033.105-.085.249-.45,1.264-.936,2.383-1.321,3.637a7.8,7.8,0,0,1-.332,1.4c-.162.285-.571.429-.822.661a9.434,9.434,0,0,0-.745.83,6.5,6.5,0,0,0-1.239,1.812,5.808,5.808,0,0,0,1.406,6.194c.488.424,1.48.632,1.732,1.241a6.152,6.152,0,0,1,0,2.226c-.054,1.277.046,2.336-.082,3.308h11.807c.1-3.29.368-6.407.5-9.666-3.043,1.542-7.5.3-9.412-1.318-2.722-2.3-2.048-7.153-.578-10.571-.3.049-.684-.072-.825,0M114.517,80.8a13.776,13.776,0,0,0-2.974,0c-.2.064-.082,1.136-.165,1.488a9.521,9.521,0,0,1-.825,1.817c-.9,1.761-1.93,3.614-2.724,5.284a37.194,37.194,0,0,0-2.56,8.091,64.26,64.26,0,0,0-1.406,9.247c-.185,2.444-.386,5.13-.329,7.6.018.835-.046,1.719,0,2.56.062,1.139.164,2.231.164,3.387,0,8.163.357,16.307.332,24.519h15.6c1.164-21.466,2.382-42.7,3.552-63.991Zm-9.332,153.586h17.094c.067-25.195.314-50.39.411-75.31-1.2,0-2.095.113-2.807-.411-1.347-.987-.851-3.745-.743-6.03.116-2.46.362-4.845.411-6.687H104.114c.288,29.292.676,58.874,1.072,88.438m55.158-37.737c-2.3-11.468-4.973-23.691-7.266-35.257a11.781,11.781,0,0,0-.5-2.393,6.434,6.434,0,0,0-1.4,0c-5.862,0-11.946.159-17.587.077,2.138,9.34,4.418,18.924,6.69,28.243.758,3.12,1.48,6.274,2.228,9.414,2.747,11.555,5.533,23.668,8.34,35.257a14.407,14.407,0,0,0,.578,2.4,11.4,11.4,0,0,0,2.064,0c4.526-.046,10.093-.1,14.532,0-2.588-12.522-5.133-25.043-7.68-37.737M105.27,235.456c-.005-.054-.013-.1-.085-.085v2.4c0,.483-.118,2.051-.082,2.146.139.362.989.231.828.743-.028.087-.37.147-.661.249-.568.2.039.082-.661.244a9.461,9.461,0,0,1-1.653.167c-4.13.342-8.188,1.226-9.993,3.47a6.3,6.3,0,0,0-.329.576c-.2.321-1.02,1.432-.825,1.982-.013-.036.249.167.247.167.324.329.506.224,1.157.247.717.026,1.131,0,1.817,0,7.788,0,14.375-.08,22.129,0a17.4,17.4,0,0,0,3.634.082c.4-.139.81-.951.99-1.65.144-.56.116-1.259.247-1.735a3.993,3.993,0,0,0,.164-.578,28.05,28.05,0,0,0,0-3.385c0-1.8.08-3.118.085-5.035-5.613,0-11.445.218-17.009,0m63.5,2.475c-.069-.334-.224-.714-.329-1.239-.1-.47-.1-1.218-.247-1.321a14.88,14.88,0,0,0-1.984,0H151.674c.717,3.339,1.473,6.361,2.313,9.826.218.907.645,2.406,1.4,2.642a14.953,14.953,0,0,0,3.136,0H177.6c1,0,2.858.154,3.138-.082.188-.162.17-.781.164-1.072-.039-1.681-1.09-2.362-2.393-3.141a11.356,11.356,0,0,0-3.141-1.236,38.958,38.958,0,0,0-5.86-.578c-.4-.028-1.671-.072-1.735-.5-.082-.54,1.041-.666,1.568-.825a9.837,9.837,0,0,1-.578-2.478" transform="translate(121.984 43.737)"/><path class="j" d="M93.79,31.926c.2-.116.82.162.91.411.429,1.2-1.3,1.7-1.324,2.231-.01.234.627.535.5.825a1.387,1.387,0,0,1-1.154.164,1.262,1.262,0,0,1-.5-.74c-.134-.984.591-1.046,1.072-1.57.242-.26.149-1.121.5-1.321" transform="translate(144.775 50.085)"/><path class="j" d="M95.123,33.364c.822-.1,1.843.3,1.815,1.239-.023.869-1.421,1.717-2.311,1.817-.424.046-.969.054-1.074-.082a.553.553,0,0,1,.167-.661c.242-.188.715-.072.989-.167.637-.213,1.329-.9.992-1.236-.439-.442-1.18.532-1.488.658-.622.26-1.93.226-2.064-.164-.023-.062.046-.583.164-.658.411-.267.36.216,1.074.082.26-.051.563-.355.825-.5a2.157,2.157,0,0,1,.91-.329" transform="translate(144.68 52.363)"/><path class="j" d="M97.506,33.645c.442.013.761-.1.745.411-.013.4-1.036.722-1.735.661-.946-.082-.851-.607-.082-.907a3.128,3.128,0,0,1,1.072-.164" transform="translate(150.47 52.824)"/><path class="j" d="M82.895,41.757c.36.2,1.1-.257,1.486,0a13.746,13.746,0,0,1,.411,1.57c.388,1.468.961,3.5,1.241,4.706.329-.057.5-.416.743-.661,1.146-1.144,2.57-2.488,3.8-3.716.416-.414,1.1-1.362,1.488-1.486a5.017,5.017,0,0,1,1.817,0c.208.113.154-.044,0,.164a16.775,16.775,0,0,1-1.653,1.735c-1.629,1.629-3.043,2.958-4.788,4.706a5.805,5.805,0,0,0-.907.992c-.039.2.213.45.329.825.09.288.111.668.164.907.3,1.4.573,1.984.907,3.47a3.039,3.039,0,0,1,.167.907,1.9,1.9,0,0,1-.334.745c-.272.113-1.025-.594-1.072-.663a7.737,7.737,0,0,1-.493-1.735c-1.018-3.919-2.375-8.674-3.3-12.468" transform="translate(130.156 65.438)"/><path class="j" d="M103.161,53.935c-.763-2.6-1.6-5.562-2.146-8.091a2.748,2.748,0,0,1,1.4,0,8.1,8.1,0,0,1,.411,1.4c.293,1.061.463,1.663.743,2.724a7.715,7.715,0,0,1,.332,1.4,17.118,17.118,0,0,1-.743,2.56" transform="translate(158.607 71.839)"/><path class="j" d="M111.827,59.144c-.835-.208-2.179-.92-1.4-1.982.164-.226.509-.252.491-.411-.013-.141-.535-.3-.74-.5-1.054-1.036.314-2.161,1.4-2.478-.625-.424-1.519-.524-1.57-1.4-.072-1.336,2.01-1.748,3.056-2.146,1.252-.478,3.038-1.234,4.295-1.735a13.52,13.52,0,0,1,2.146-.825,1.385,1.385,0,0,1,1.486.493c.64.835.732,2.418.663,4.048a25.277,25.277,0,0,1-1.406,7.844,5.344,5.344,0,0,1-.661,1.236,9.679,9.679,0,0,1-3.385,3.22,3.952,3.952,0,0,1-1.4.578c-.627.033-.936-.3-.414-.907.3-.342.36-.2.578-.332a10.073,10.073,0,0,0,2.064-1.568,9.777,9.777,0,0,0,.907-.91,8.132,8.132,0,0,0,1.159-2.557,21.921,21.921,0,0,0,1.154-6.276,9.823,9.823,0,0,0-.164-3.053c-.165-.581-.17-.879-.91-.581-.452.185-1.025.45-1.568.661-1.488.578-2.691,1.049-4.292,1.653-.226.085-.627.226-1.074.414-.242.1-.871.29-.907.578-.077.563.9.735,1.732.661a17.586,17.586,0,0,0,4.045-1.324,5.645,5.645,0,0,1,1.239-.493,1.745,1.745,0,0,1,.745.658c.005.432-1.38.9-1.817,1.074-1.91.763-3.405,1.2-5.287,1.982-.527.221-.851.252-.907.5-.164.717.925.828,1.653.743a9.464,9.464,0,0,0,1.65-.581c1.025-.339,2.054-.655,3.22-1.072.272-.1.529-.337.743-.329a.729.729,0,0,1,.661.411c.118.594-1.092.856-1.65,1.072-1.375.535-2.321.887-3.963,1.406-.278.087-.614.193-.992.329s-.843.149-.907.414c-.136.537.768.72.99.743,1.105.116,1.858-.375,3.22-.825.424-.141,1.051-.314,1.57-.5a3.16,3.16,0,0,1,.743-.247c.285-.013.535.08.578.247.226.848-2.272,1.416-2.727,1.57-.851.285-1.886.65-2.807.99-.254.093-.208-.1-.329.164-.231.5.511.838,1.321.828a10.5,10.5,0,0,0,1.814-.414c.344-.1,1.352-.542,1.488,0,.154.632-.851.725-1.57.907a7.282,7.282,0,0,1-2.064.414c-.822-.044-2.164-.65-2.311-1.321-.1-.45.028-.645.411-1.074" transform="translate(172.398 74.804)"/><path class="j" d="M61.622,19.912h.411c.925.316,1.141,1.064,1.321,2.231.044.288.09.75.082.743.221.213.781-.275,1.239-.249a2.755,2.755,0,0,1,.578.249,4.6,4.6,0,0,1,.5.247,3.352,3.352,0,0,1,.164,2.478c-.172.871-.673,1.455-.661,2.149a3.128,3.128,0,0,0,.578,1.4c.689,1.208,1.39,2.416,1.982,3.714a15.1,15.1,0,0,1,.907,2.891,10.783,10.783,0,0,1,.414,3.385,7.518,7.518,0,0,1-2.311,4.87c-.1.1-.247.172-.332.247a8.19,8.19,0,0,1-2.642,1.57c-.229.085-.9.231-.907.247-.036.062.1,1.663.082,1.982a29.153,29.153,0,0,0-.167,3.634,4.341,4.341,0,0,0,.085.91,2.941,2.941,0,0,0,.329.658,10.805,10.805,0,0,0,2.974.085c5.893,0,12.481-.483,17.009.907.565.175,1.123.3,1.735.5.193.062.314.188.493.247.712.239,1.565.447,2.4.663,3.832.995,7.631,2.077,11.725,3.136.763.2,2.37.591,3.552.907.3.082,1,.4,1.154.332a7.49,7.49,0,0,0,.578-1.57c.9-2.678,1.722-5.31,2.56-7.926,1.159-3.616,2.375-7.315,3.634-11.064.093-.278.18-.55.247-.825a19.323,19.323,0,0,1,.743-2.313,9.593,9.593,0,0,1,2.146-3.467,11.682,11.682,0,0,1,4.377-2.724c.876-.324,1.815-.468,2.807-.743a8.388,8.388,0,0,0,2.48-1.57c.439-.326,1.426-1.249,2.228-1.154a1.547,1.547,0,0,1,1.157,1.486c.09,1.265-.828,1.928-1.653,2.642a11.946,11.946,0,0,0-2.146,2.064c2.161.049,3.526-.344,5.7-.247.663.028,1.4.275,1.817.082.357-.164.527-1.187.828-1.568a2,2,0,0,1,1.568-.828c.7.062.93.64,1.072,1.239.046.185.062.5.167.578.383.288.989-.56,1.4-.825a3.112,3.112,0,0,1,1.735-.578,1.273,1.273,0,0,1,1.074,1.488c.879.175,1.257.463,1.318,1.154a2.551,2.551,0,0,1-1.072,1.817,6.889,6.889,0,0,1-1.982.743,3.931,3.931,0,0,0-1.57.825,12.48,12.48,0,0,1-2.971,1.653c-.391.157-.8.265-1.157.411a13.192,13.192,0,0,1-3.3,1.321,29.926,29.926,0,0,1-4.128.164,8,8,0,0,0-1.406,0c-.244.152-.278,1.121-.493,1.982-.182.722-.357,1.39-.5,1.982-.118.5-.293.982-.414,1.488-.352,1.478-.8,2.951-1.154,4.377-.175.684-.242,1.4-.414,2.064-1.519,5.839-3.064,11.748-4.459,17.67a17.086,17.086,0,0,1-.414,1.982,6.567,6.567,0,0,1-1.568,2.066,4.548,4.548,0,0,1-1.321.658c-.267.075-.586.026-.907.085a2.828,2.828,0,0,1-.828.164,14.85,14.85,0,0,1-1.9-.249c-4.071-.581-8.376-1.218-12.632-1.817-2.123-.3-4.688-.781-7.266-.99-1.139-.093-2.19-.378-3.552-.578-.445-.064-1.2-.077-1.9-.164s-1.588-.447-1.735-.332a15.707,15.707,0,0,0,.085,2.891C82.4,85.849,83.617,97.923,84.822,110c1.673,16.721,3.385,33.826,4.955,50.534.686,7.312,1.56,14.9,2.228,22.543.655,7.464,1.6,15.061,2.228,22.46.627,7.34,1.524,14.837,2.231,22.458.5,5.42,1.126,11.157,1.653,16.929.167,1.848.3,4.351.907,5.2.537.745,2.9,1.349,3.963,1.732a14.985,14.985,0,0,1,3.634,1.817,11.444,11.444,0,0,1,2.889,2.56c.612.812,1.653,2.447.99,4.128-.355.912-1.313,1.218-2.311,1.486h-.164c-.005-.126-.177-.062-.411-.164-.157-.067-.211-.144-.332-.164a15.523,15.523,0,0,0-2.974,0c-4.007.152-8.078.031-10.982.082-2.413.046-5.428,0-8.009,0-.344,0-.671.028-.992,0-.272-.026-.547-.123-.822-.164a6.191,6.191,0,0,1-1.653-.332,4.413,4.413,0,0,1-2.066-1.982c-.447-1.11-.221-2.688-.411-4.128-.82-6.225-1.737-12.18-2.56-18.083-4.4-31.584-8.625-63.577-13.128-94.709-2.611,12.023-5.333,24.36-7.847,36.414-.758,3.642-1.627,7.4-2.393,10.9-.825,3.765-1.632,7.315-2.4,10.985-3.93,18.854-8.134,37.83-12.139,56.641a13.351,13.351,0,0,1-.411,1.817,3.831,3.831,0,0,1-1.732,1.9c-.082.049-.159.031-.249.082-.278.164.039.213-.167.414-.093.09-.19.023-.329.082-1.385.589-4.074.247-5.945.247h-10.9a32.6,32.6,0,0,1-5.449-.082c-.666-.131-.347-.5-.414-.66-.105-.257-.326-.529-.414-.743a4.656,4.656,0,0,1-.329-1.9,6.382,6.382,0,0,1,1.239-3.22,9.066,9.066,0,0,1,2.146-2.311,13.02,13.02,0,0,1,2.807-1.324c.378-.131.422-1.36.578-2.228,1.452-7.991,2.935-15.9,4.377-23.614,2.67-14.3,5.307-28.927,7.929-43.019,3.853-20.741,7.883-42.076,11.558-62.59.355-1.971.825-3.986,1.157-5.945-.26-.11-.4.167-.578.249-2.072.954-4.315.164-5.862-.661-.918-.491-1.881-.972-2.809-1.406-.982-.46-1.861-1-2.724-1.486-3.6-2.038-7.235-4.194-10.651-6.112-.655-.365-1.28-.815-1.9-1.154-1.308-.722-2.837-1.532-3.966-2.313-.2-.139-.468-.262-.661-.411a5.438,5.438,0,0,1-1.4-1.735,12.4,12.4,0,0,1-1.074-2.146,6.313,6.313,0,0,1,.164-4.295,12.84,12.84,0,0,1,.745-1.4c.146-.218.288-.445.414-.661,3.177-5.539,6.474-11.219,9.576-16.6.285-.5.488-.879.743-1.324,1.7-2.938,3.377-5.8,5.037-8.669.532-.918.894-1.881,1.4-2.724a24.806,24.806,0,0,1,3.138-4.212c.19-.2.368-.311.578-.5a19.092,19.092,0,0,1,2.311-1.9,7.953,7.953,0,0,1,3.138-1.074,34,34,0,0,1,4.128-.082H50.39a6.576,6.576,0,0,0,2.066-.082,8.526,8.526,0,0,0,.247-2.066c.244-2.308.511-4.248.661-6.356-2.115-.09-3.362-.583-4.212-1.982a2.95,2.95,0,0,1-.329-.663c-.09-.3.051-.673-.082-.989-.085-.2-.6-.56-.825-.825a17.672,17.672,0,0,1-3.056-5.284,7.694,7.694,0,0,1-.661-2.724,6.194,6.194,0,0,1,.907-2.974,10.96,10.96,0,0,1,3.634-3.8,29.826,29.826,0,0,1,7.677-3.385c.992-.332,1.969-.529,2.807-.907.221-.1.383-.244.581-.332.314-.141.768-.185.99-.332.293-.2.524-.707.828-.825m-1.239,2.146c-.432.182-.794.362-1.159.5-.807.3-1.66.565-2.475.828-4.14,1.324-7.939,2.943-10.075,6.191a5.52,5.52,0,0,0-.989,2.311,5.409,5.409,0,0,0,.661,3.056,20.383,20.383,0,0,0,1.239,2.727c.118.206.27.478.5.822.105.164.959,1.491,1.154,1.488a2.816,2.816,0,0,1,.416-.5,2.646,2.646,0,0,1,2.557-.082c.676.324,1.131,1.043,1.982,1.074-1.223-1.722-2.819-4.051-2.56-7.266.064-.781.545-2.074.164-2.645-.2-.3-1.5-.3-1.568-.743s.422-.475.661-.658a4.68,4.68,0,0,1,.828-.581c1.48-.653,3.665-.409,5.7-.743a14.32,14.32,0,0,0,3.716-1.154,4.9,4.9,0,0,1,1.239-.414,2.66,2.66,0,0,1,1.732.414,4.674,4.674,0,0,0,.5-2.891c-.661,0-1.6.632-2.228.247-.768-.468.015-1.969-.661-2.64-.252.4-.817.445-1.321.658M63.521,28c-.077-.087-.105-.262-.167-.329-.386-.427-.555-.427-.91-.247a17.84,17.84,0,0,1-6.852,1.735,12.572,12.572,0,0,0-3.22.329c-.054.311.386.373.5.5.853.938.1,2.429.082,3.963a9.576,9.576,0,0,0,1.9,5.284c.314.481,1.015,1.185.743,1.9s-1.727.493-2.228.247c-.175-.085-.486-.38-.578-.411-.244-.082-.475.01-.661-.082-.416-.213-.75-.838-1.239-.745-.224.044-.391.375-.5.578a1.96,1.96,0,0,0,.743,2.478,3.085,3.085,0,0,0,.661.5c.756.267,1.383-.023,2.149.082.4.054,2.195.915,1.072,1.157-.257.054-.221-.216-.411.082a6.337,6.337,0,0,0-.082,1.072c-.113,1.077-.234,2.313-.332,3.305-.105,1.051-.308,2.221-.414,3.136a6.994,6.994,0,0,1-.08,1.159c-.537,1.352-2.688.47-4.212.907,1.524,2.933,4.912,4.726,9,4.953a15.93,15.93,0,0,0,1.982,0,7.94,7.94,0,0,0,3.878-1.154A4.533,4.533,0,0,0,66,55.668c.046-.442,0-1.126-.164-1.239-.19-.134-.712.054-.992.08-1.707.172-3.218-.231-3.467-1.568a15.641,15.641,0,0,1,0-2.56c.039-.866.111-1.9.167-2.891.013-.27.17-.879.082-.989-.175-.211-1.185.018-1.653,0-.884-.033-3.444-.45-3.385-1.239.082-1.092,1.555-.141,2.146,0,.185.044.653.082.661.085a7.227,7.227,0,0,0,7.68-4.13,7.5,7.5,0,0,0,.5-3.634,16.06,16.06,0,0,0-1.817-5.7c-.244-.491-.6-1.488-.989-1.568s-.846.411-1.074.663a1.729,1.729,0,0,0-.578,1.239c.758-.057,1.211.614,1.653,1.236.3.424.74.923.658,1.157-.072.213-.47.1-.414.329,1.1.131,1.57.455,1.737,1.074a3.3,3.3,0,0,1-.578,2.149c-.545.689-2.151,1.046-1.4-.167a5.33,5.33,0,0,0,.658-1.074c.391-1.231-.357-.9-1.236-1.154a3.16,3.16,0,0,1-2.066-1.817,3.348,3.348,0,0,1,1.406-4.21,3.978,3.978,0,0,0,.907-.414A14.366,14.366,0,0,0,63.521,28M132.55,32.3c-.581,1.175-.964,2.506-1.9,3.22-.051.041-.111.118-.167.164a3.562,3.562,0,0,1-2.064.91c-.843.087-2-.072-1.982-.5.013-.265.483-.357.828-.414.4-.064.882.059,1.236,0a2.421,2.421,0,0,0,1.488-.99,5.95,5.95,0,0,0,.578-.743c.08-.177.069-.131-.085-.249-.481-.368-2.84-.062-3.716,0-.653.049-1.29.051-1.9.082a11.952,11.952,0,0,0-1.9.085c-.211.051-.262.311-.661.411-.249.064-.735.021-.825-.164-.116-.231.365-.946.493-1.154a11.916,11.916,0,0,1,2.724-2.727,4.79,4.79,0,0,0,.91-.99c.247-.375.684-1.051.332-1.406-.177-.175-.314.01-.414.085-.784.553-1.74,1.236-2.56,1.817a5.7,5.7,0,0,1-2.146.907,12.6,12.6,0,0,0-1.324.332,9.757,9.757,0,0,0-4.045,2.393,9.108,9.108,0,0,0-1.486,1.735,9.624,9.624,0,0,0-.578,1.732c-.558,1.73-1.262,3.714-1.817,5.369-2.208,6.577-4.29,13.1-6.438,19.733-.185.568-.47,1.681-.663,1.735-.378.1-.894-.92-.907-1.157-.031-.632.326-.478.414-1.321-2.365-.681-4.86-1.3-7.351-1.982a13.444,13.444,0,0,0-2.475-.661,9.588,9.588,0,0,0-.578,1.486c-.8,2.187-1.45,4.207-2.231,6.191-.609,1.552-1.272,2.925-1.9,4.459,6.366.93,12.864,1.753,19.322,2.727a5.973,5.973,0,0,0,2.891,0,5.1,5.1,0,0,0,1.568-2.066c.105-.231.275-.416.329-.576.211-.612.244-1.311.414-1.984,2.233-8.87,4.539-17.924,6.77-26.753a10.722,10.722,0,0,1,.5-1.982,1.943,1.943,0,0,1,1.074-.907,11.92,11.92,0,0,1,2.724,0,17.059,17.059,0,0,0,3.138-.082,6.5,6.5,0,0,0,3.881-2.891,6.4,6.4,0,0,0,1.157-4.788c-.4.146-.5.581-.661.907m2.971,3.138a6.491,6.491,0,0,0,1.817-2.146c.2-.45.673-1.36,0-1.57-.157-.046-.668.275-.743.332a21.52,21.52,0,0,0-1.568,1.817c-.211.208-.558.342-.661.493-.17.252-.134.622-.249.91a10.755,10.755,0,0,1-.493.989c-.19.334-.55.583-.5.91a13.264,13.264,0,0,0,2.4-1.735m2.724-1.4c-.141.28-.437.527-.411.743.465-.29,1.683-1.241.743-1.653a4.741,4.741,0,0,1-.332.91m-74.313.414a1.807,1.807,0,0,0-.578-.828,1.4,1.4,0,0,0,.578.828m1.653,24.522a8.054,8.054,0,0,1-3.8,1.488c-5.626.936-11.2-1.344-13.21-4.624-.213-.35-.491-1.316-.658-1.4a9.414,9.414,0,0,0-1.735,0c-1.845,0-3.734-.121-5.2,0a6.314,6.314,0,0,0-3.552,1.4,14.112,14.112,0,0,0-3.218,3.053c-.509.643-1.036,1.293-1.488,1.982s-.748,1.5-1.157,2.231c-.419.745-.9,1.432-1.321,2.146-1.221,2.084-2.434,4.308-3.714,6.523A10.861,10.861,0,0,0,25.29,74c-.005-.015.56.27.661.332,1.6.951,3.169,1.907,4.624,2.809.422.26.815.56,1.239.822.4.252.9.434,1.4.743.3.188.7.519,1.239.828a8.181,8.181,0,0,0,1.4.743,10.365,10.365,0,0,0,.825-1.4c.493-.864,1.033-1.835,1.406-2.478A10.917,10.917,0,0,1,39.9,73.584c.09-.08.283-.242.411-.332.108-.075.339-.249.5-.164.324,1.966.64,3.691.992,5.449.964,4.8,2,9.774,2.971,14.781a10.466,10.466,0,0,0,.249,1.4c.139.182.815.231,1.4.5a11.707,11.707,0,0,1,1.239.743c.427.244.858.414,1.239.661,1.216.792,2.251,1.578,3.467,2.4.738.493,1.758,1.056,1.57,2.313-.121.792-.843.915-1.406,1.4.8.445,1.755.956,1.653,2.228a1.581,1.581,0,0,1-.578.99c-.139.162-.049.085-.082.332-.057.447.247,1.056.167,1.488-.139.717-.941.933-1.324,1.072.619,1.516-.715,2.12-1.9,2.146a6.033,6.033,0,0,1-1.982-.493c-.347-.129-1.763-.774-1.82-.743-.123.062-.144.64-.247,1.154-.571,2.881-1.108,5.739-1.568,8.422,13.1.057,26.421-.108,39.385.082-1.393-14.974-2.956-30.389-4.374-45.25a30.657,30.657,0,0,1-.332-3.053c.005-.278.152-.55.167-.907a6.406,6.406,0,0,1,.247-2.809c.159-.344.774-1.049,1.154-.743.625.493-.619,2.568.167,2.724.563.113,1.11.046,1.486.167a2.635,2.635,0,0,0,.5.162c.429.069,1.519.105,2.4.249a19.209,19.209,0,0,0,2.311.414,9.766,9.766,0,0,0,.661-1.4c1.624-3.634,2.668-7.371,4.128-10.818-2.377-.509-5.025-1.532-7.348-1.982-.319-.062-.6-.09-.907-.167-1.123-.272-2.182-.668-3.3-.907-.668-.141-1.169-.4-1.653-.493a7.717,7.717,0,0,0-.992-.085c-3.5-.19-7.235.039-11.144-.08a4.657,4.657,0,0,1-1.817,4.539M24.548,75.07c-.838,1.557-1.707,3.089-2.645,4.706-2.113,3.652-4.338,7.566-6.438,11.147a13.41,13.41,0,0,0-1.239,2.313,5.69,5.69,0,0,0,1.9,6.112c.087.072.252.09.332.164a12.377,12.377,0,0,0,.99.99c.455.308,1,.463,1.488.743.213.126.45.29.661.414.758.442,1.421.822,2.146,1.239.992.568,1.92,1.09,2.891,1.653.229.134.432.362.661.493.257.152.5.272.743.414,3.724,2.138,7.752,4.341,11.56,6.605a14.166,14.166,0,0,0,1.4.825c.987.445,2.951,1.2,4.048.414a4.514,4.514,0,0,0,1.4-2.064c.123-.306.157-.73.329-1.157.239-.581.72-.956.332-1.157a11.855,11.855,0,0,1-1.4-.91c-.121-.08-.684-.257-.825-.493-.193-.321-.316-.655.082-.907.491-.316,1.375.612,1.815.907a16.922,16.922,0,0,0,1.9,1.072,20.469,20.469,0,0,0,2.066.91c.524.2,2.074.743,2.393.249.075-.113-.123-.676-.164-.828s-.9-.452-.99-.5a20.632,20.632,0,0,1-2.727-1.568c-.7-.465-1.871-1.308-2.478-1.732-.529-.375-1.424-.671-1.154-1.324.37-.9,1.843.555,2.228.825a35.281,35.281,0,0,0,3.966,2.56c.455.249,1.935,1.136,2.393.581.254-.308.018-1.064-.329-1.4-.069-.069-.247-.039-.332-.085s-.172-.2-.247-.247c-1.118-.653-2-1.208-2.971-1.817-1.007-.63-2.431-1.4-3.554-2.146-.344-.231-.722-.316-.74-.743-.036-.8.738-.478,1.318-.167a7.887,7.887,0,0,1,.992.661c1.588.946,2.658,1.542,4.13,2.478.483.311,1.635,1.321,2.146.992.442-.288.17-.915-.085-1.239a3.565,3.565,0,0,0-1.072-.743c-1.9-1.272-3.634-2.413-5.451-3.634-.373-.254-.979-.5-.825-.992.265-.848,1.293.072,1.57.249.617.4.825.547,1.486.989.483.324,1.085.6,1.57.91.532.344,1.007.943,1.568.99a2.314,2.314,0,0,0,.743-.164c.776-.329.522-1.056,0-1.568a5.458,5.458,0,0,0-1.074-.661c-1.583-1.061-2.493-1.838-4.045-2.727a4.524,4.524,0,0,0-2.56-.907c-.457.087-.583.432-.743.743-.049.1-.206.172-.247.247-.2.355-.3.812-.5,1.239-.414.923-.84,1.779-1.074,2.4-.311.82-.609,1.748-.907,2.56a10.193,10.193,0,0,1-1.074,2.478c-.247.19-1.175.293-1.321,0-.118-.239.254-.748.411-1.157a8.066,8.066,0,0,0,.414-1.239,4.047,4.047,0,0,0-.825-.661c-2.007-1.344-3.8-2.5-5.613-3.716-.272-.182-.519-.262-.745-.411-.067-.046-.1-.2-.164-.249-.632-.432-1.27-.732-1.9-1.154-1.486-1-3.043-2.095-4.624-3.138-.457-.3-.8-.47-.825-.743-.057-.6.506-.83.91-.828.378.005.8.455,1.236.745.481.319,1.067.83,1.321.743a7.474,7.474,0,0,1,.414-.743c.473-.825,1.007-1.758,1.321-2.313.681-1.2,1.193-2.19,1.735-3.138.134-.236.365-.442.493-.661,1.128-1.925,1.915-3.5,3.056-5.451-3.724-1.915-7.016-4.266-10.651-6.274M31.9,89.933c-.362.637-.707,1.375-1.239,2.311-.18.319-1.406,1.992-1.321,2.311.051.2.864.524,1.321.828,3.21,2.156,6.258,4.287,9.33,6.276a31.929,31.929,0,0,1,1.239-3.3,10.446,10.446,0,0,1,1.488-2.724c.051-.057.026-.2.082-.249.213-.213.735-.3.825-.578a8.5,8.5,0,0,0-.249-1.072c-1.149-5.932-2.3-11.8-3.467-17.423-.005-.051-.01-.1-.082-.082-2.447,4.439-5.336,9.134-7.926,13.706m47.4,30.633H47.005a21.225,21.225,0,0,0-2.4,0,15.2,15.2,0,0,0-.329,1.817c-.82,4.472-1.642,8.826-2.4,12.964C35.589,170.005,29,204.334,22.813,238.808c5.184,0,10.838,0,16.182,0a11.756,11.756,0,0,0,2.316,0,9.712,9.712,0,0,0,.329-1.568c.123-.591.337-1.211.414-1.57,2.079-9.823,4.115-19.43,6.191-28.9,4.256-19.407,8.291-38.4,12.468-57.882.352-1.64.874-4.035,1.4-6.441.242-1.09.748-3.31,1.074-4.791.141-.64.159-1.29.743-1.236.445.039.578.673.661,1.157.105.609.077,1.041.167,1.65.8,5.456,1.483,10.671,2.228,16.017,1.509,10.846,2.968,21.6,4.457,32.2,2.264,16.089,4.467,32.07,6.69,48.221.057.414.388,3.138.5,3.22a11.627,11.627,0,0,0,2.146,0H96.051c-3.858-39.405-7.79-79.1-11.64-118.406-1.229.134-3.326.082-5.12.082M24.877,240.046c-.4,0-2.179-.113-2.228-.082-.113.067-.046.1-.085.247-.378,1.5-.568,3.1-.907,4.624.6.026,1.424-.033,2.228,0,3.966.159,9.561.085,14.038.085a14.054,14.054,0,0,0,2.064,0c.162-.108.149-.768.247-1.239.28-1.331.64-2.434.828-3.634Zm54.333,2.889c.072.54.149,2.55.411,2.727a13.282,13.282,0,0,0,2.066,0H96.714c-.149-1.336-.285-2.832-.414-4.212a8.281,8.281,0,0,0-.164-1.4,13.892,13.892,0,0,0-2.146,0H78.878a11.014,11.014,0,0,0,.332,2.889m-55.736,3.22a10.161,10.161,0,0,0-2.064,0,7.683,7.683,0,0,0-.167,1.239,16.758,16.758,0,0,0-.576,3.634,17.218,17.218,0,0,1,3.136-.082,7.543,7.543,0,0,1,2.066.743c.2.1.455.146.661.247a7.534,7.534,0,0,1,4.128,4.541,6.69,6.69,0,0,0,.329.907,6.883,6.883,0,0,0,1.9,0,5.977,5.977,0,0,0,1.9,0c.216-.093.483-.84.745-1.236a16.165,16.165,0,0,1,1.815-2.313,5.078,5.078,0,0,0,.99-1.072,5.143,5.143,0,0,0,.167-.828c.419-1.946.866-4,1.239-5.862-4.8-.087-11.414.082-16.266.082m58.542.745a10.954,10.954,0,0,0-2.146,0c-.27.082-.01.928.082,1.568.149,1.061.208,1.814.329,2.724a6.273,6.273,0,0,0,.249,1.321c.152.339.612.643.825.91.465.581.879,1.092,1.4,1.732.278.337.707.835,1.157,1.321.427.465.864,1.046,1.321,1.157a13.882,13.882,0,0,0,2.478,0h4.953c.373,0,2.339.113,2.4.082a8.652,8.652,0,0,0,.411-.91c.18-.378.293-.786.416-.99a8.058,8.058,0,0,1,4.043-3.22,1.619,1.619,0,0,0,.743-.329c-1.234-.368-2.3-.607-2.971-1.486-.74-.964-.653-2.331-.907-3.881Zm-44.5,8.669a15.476,15.476,0,0,0-1.4,1.9c-.234.38-.224.679-.5.825a7.9,7.9,0,0,1-2.393.082,24.416,24.416,0,0,1-2.724,0c-.023-.005-.267-.183-.414-.247-.3-.131-.419-.159-.5-.249-.211-.252-.221-.766-.329-1.074a6.5,6.5,0,0,0-.743-1.483,5.691,5.691,0,0,0-.992-1.239,8.49,8.49,0,0,0-7.433-1.817,7.363,7.363,0,0,0-5.2,3.881,4.937,4.937,0,0,0-.576,1.236,5.056,5.056,0,0,0-.167,1.653c.041.429.334,1.27.663,1.4a12.712,12.712,0,0,0,2.478,0H32.142a15.009,15.009,0,0,0,2.478,0,8.371,8.371,0,0,0,.989-.5,3.927,3.927,0,0,0,.992-.493c.861-.907.668-2.868,1.157-4.128-.206-.149-.2.185-.247.247m43.762,2.56a2.211,2.211,0,0,0,.99,1.815c.625.437,2.262.249,3.634.249,6.808,0,13.149-.036,19.816,0a19.165,19.165,0,0,0,3.056.082c.283-.2.319-.869.247-1.486a4.514,4.514,0,0,0-.743-1.817,8.767,8.767,0,0,0-2.393-2.228,13.18,13.18,0,0,0-1.157-.745,7.21,7.21,0,0,0-1.239-.743c-.239-.049-.607.09-.99.085s-.8-.113-1.074-.085a5.377,5.377,0,0,0-2.478,1.157,7.12,7.12,0,0,0-1.9,2.064c-.319.555-.481,1.827-.992,2.146a5.964,5.964,0,0,1-2.311.167c-2.529,0-5.613-.206-7.68,0-.439.044-.879.3-1.239.247-.419-.067-.789-.625-1.072-.907-.928-.928-1.725-1.781-2.478-2.642-.134-.152-.321-.691-.414-.332.162.871.288,2.118.414,2.974" transform="translate(19.52 31.264)"/><path class="j" d="M31.863,24.461a5,5,0,0,1,1.735-.082c.1.026.709.314.661.576-.085.45-1.4.3-1.653.334a3.418,3.418,0,0,0-.825.247A4.083,4.083,0,0,0,30.128,27.6c-.051.188-.087,1.126-.164,1.239-.062.087-.869.55-1.239.247-.648-.535.645-2.963.91-3.3a3.213,3.213,0,0,1,2.228-1.321" transform="translate(44.82 38.193)"/><path class="j" d="M58.8,25.577c-.013,0,.794-.039,1.321,0a16.837,16.837,0,0,1,2.149.414c.522.123,1.753.352,1.486.99-.249.589-1.838-.033-2.478-.167-2.763-.565-6.263-.3-7.348,1.653-.123.218-.545,1.049-.828,1.157a.794.794,0,0,1-.907-.164c-.2-.3.247-1.136.5-1.486,1.146-1.619,3.208-2.393,6.109-2.4" transform="translate(81.873 40.133)"/><path class="j" d="M30.151,25.675c.668-.442,1.162.4,1.568.91.267.329.892.933.745,1.236-.087.18-.635.262-.825.247a1.375,1.375,0,0,1-.828-.576c-.311-.37-1.4-1.331-.661-1.817" transform="translate(46.945 40.118)"/><path class="j" d="M35.491,27.626c.126-.018.861,0,.91.414.077.663-2.254,1.39-3.058,1.4-.537.008-1.668-.229-1.732-.578-.1-.517.442-.578.91-.493a4,4,0,0,0,2.807-.663c.062-.039.059-.064.164-.082" transform="translate(49.614 43.369)"/><path class="j" d="M27.81,28.268c.445-.247,2.9.37,2.809.828-.121.614-2.85.218-3.058-.167a.467.467,0,0,1,.249-.661" transform="translate(43.175 44.297)"/><path d="M101.3,79.274a1.582,1.582,0,0,1-1.324-.658,2.292,2.292,0,0,1-.164-2.087l11.365-32.715A3.371,3.371,0,0,1,114,41.472l25.971-.023a1.585,1.585,0,0,1,1.331.661,2.291,2.291,0,0,1,.162,2.087l-4.811,13.853a.618.618,0,1,1-1.167-.409L140.3,43.79a1.136,1.136,0,0,0-.005-.964.351.351,0,0,0-.316-.139L114,42.711a2.183,2.183,0,0,0-1.658,1.509L100.982,76.937a1.116,1.116,0,0,0,.005.959.348.348,0,0,0,.316.139l25.976-.023a2.176,2.176,0,0,0,1.655-1.509l1.843-5.744a.619.619,0,1,1,1.177.38L130.109,76.9a3.387,3.387,0,0,1-2.83,2.357l-25.974.021Z" transform="translate(156.453 65.08)"/><path d="M108.34,63.025,88.334,63a3.025,3.025,0,0,1-2.678-2.177L84.977,58.5a.62.62,0,0,1,1.19-.347l.679,2.321a1.808,1.808,0,0,0,1.488,1.285l20.008.023a.479.479,0,0,0,.414-.18.894.894,0,0,0,.062-.758L100.2,31.415a1.8,1.8,0,0,0-1.488-1.288l-20-.021a.493.493,0,0,0-.419.18.885.885,0,0,0-.059.758l4.6,15.734a.619.619,0,0,1-1.19.344l-4.6-15.732a2.079,2.079,0,0,1,.257-1.848,1.712,1.712,0,0,1,1.408-.676l20,.023a3.017,3.017,0,0,1,2.678,2.174L110.005,60.5a2.082,2.082,0,0,1-.257,1.848,1.712,1.712,0,0,1-1.408.676" transform="translate(120.821 45.327)"/><path class="g" d="M96.58,36.911a3.056,3.056,0,0,1-.229-6.1c.077-.005.157-.008.234-.008a3.056,3.056,0,0,1,.229,6.1c-.077.005-.157.008-.234.008" transform="translate(146.851 48.359)"/><path d="M96.786,31.332a2.726,2.726,0,0,1,.2,5.444q-.1.008-.208.008a2.726,2.726,0,0,1-.206-5.444c.072-.005.141-.008.211-.008m0-.661c-.085,0-.172,0-.26.008a3.387,3.387,0,0,0,.254,6.765c.085,0,.172,0,.26-.01a3.386,3.386,0,0,0-.254-6.762" transform="translate(146.649 48.158)"/><path class="g" d="M93.482,37.1a2.946,2.946,0,0,1-.218-5.883,2.217,2.217,0,0,1,.226-.008,2.951,2.951,0,0,1,2.933,2.722,2.718,2.718,0,0,1-.041.748.32.32,0,0,1-.249.262c-.607.136-.936.234-1.056.694a.593.593,0,0,0,.1.514.316.316,0,0,1,.064.254.34.34,0,0,1-.144.218,2.962,2.962,0,0,1-1.385.47c-.077.005-.152.008-.226.008" transform="translate(142.161 49.009)"/><path d="M93.693,31.745a2.614,2.614,0,0,1,2.6,2.416,2.5,2.5,0,0,1-.036.666c-.563.126-1.123.244-1.3.93a.938.938,0,0,0,.157.8,2.642,2.642,0,0,1-1.226.416c-.069.005-.136.005-.206.005a2.615,2.615,0,0,1-.193-5.223c.069-.005.136-.008.2-.008m0-.661c-.085,0-.17,0-.252.008a3.276,3.276,0,0,0,.242,6.544q.127,0,.254-.008a3.3,3.3,0,0,0,1.537-.522.66.66,0,0,0,.17-.948.264.264,0,0,1-.046-.229c.064-.249.18-.316.784-.455a.7.7,0,0,0,.532-.532,3.357,3.357,0,0,0,.044-.833,3.291,3.291,0,0,0-3.264-3.025" transform="translate(141.958 48.806)"/><path class="e" d="M70.705,148.569a.617.617,0,0,1-.617-.589l-.966-18.3c-1.357-.612-4.881-3.184-9.211-13.9-5.749-14.231-7.983-35.422-8-35.635a.62.62,0,0,1,.614-.684.623.623,0,0,1,.437.18C56.333,82.975,69.05,111.3,69.59,112.5c4.559,10.175,2.439,15.506,1.93,16.531l.923,18.854a.615.615,0,0,1-.6.65l-1.136.031" transform="translate(81.495 124.756)"/><path d="M52.9,80.454c2.807,2.778,12.9,24.65,16.5,32.679,4.924,10.99,1.868,16.14,1.868,16.14L72.2,148.3l-1.118.028-.984-18.7c-.108,0-4.048-.858-9.237-13.707C55.082,101.606,52.9,80.454,52.9,80.454m0-1.239a1.189,1.189,0,0,0-.535.123,1.234,1.234,0,0,0-.7,1.247c.09.869,2.264,21.486,8.045,35.8,4.076,10.093,7.477,13.154,9.188,14.077l.943,17.932a1.239,1.239,0,0,0,1.239,1.172l1.151-.028a1.243,1.243,0,0,0,1.205-1.3l-.915-18.705c.648-1.437,2.46-6.968-1.992-16.9-1.357-3.03-13.365-29.693-16.762-33.052a1.243,1.243,0,0,0-.871-.36" transform="translate(81.117 124.378)"/><path class="e" d="M61.135,141.6a.6.6,0,0,1-.437-.2.618.618,0,0,1-.164-.452l.92-18.852c-.506-1.025-2.624-6.356,1.93-16.534,3.8-8.474,14.606-19.4,16.734-21.509a.619.619,0,0,1,.437-.18.606.606,0,0,1,.3.08.625.625,0,0,1,.3.681,187.1,187.1,0,0,1-8.1,24.2c-4.323,10.712-7.849,13.29-9.2,13.9l-.966,18.3a.621.621,0,0,1-.619.589l-1.133-.031" transform="translate(95.026 131.7)"/><path d="M80.925,84.876a184,184,0,0,1-8.07,24.108c-5.187,12.851-9.121,13.707-9.229,13.707l-.984,18.7-1.118-.028.928-19.024S59.4,117.19,64.322,106.2c3.593-8.027,13.8-18.551,16.6-21.324m0-1.239a1.25,1.25,0,0,0-.779.275c-2.236,2.2-13.115,13.205-16.955,21.782-4.449,9.936-2.637,15.467-1.992,16.9l-.912,18.7a1.225,1.225,0,0,0,.329.9,1.244,1.244,0,0,0,.874.4l1.118.028a1.246,1.246,0,0,0,1.27-1.172l.943-17.929c1.714-.925,5.109-3.986,9.183-14.082a188.938,188.938,0,0,0,8.1-24.2,1.207,1.207,0,0,0,.059-.375,1.237,1.237,0,0,0-1.234-1.239Z" transform="translate(94.654 131.321)"/><path class="e" d="M60.234,164.88a.616.616,0,0,1-.589-.668L61.27,143.79c-.311-1.1-2.436-9.317-1.038-24.463,1.468-15.9,10.458-51.117,10.55-51.472a.617.617,0,0,1,.6-.465.634.634,0,0,1,.619.591c.018.37,1.64,37.092-.941,53.78-2.164,13.984-6.412,21.366-7.155,22.574l-1.681,20.037a.617.617,0,0,1-.617.568l-1.37-.059" transform="translate(93.647 105.811)"/><path d="M71.761,68.388s1.665,36.835-.938,53.654c-2.367,15.295-7.155,22.471-7.148,22.471L61.985,164.7l-1.344-.059L62.278,144.1s-2.529-8.309-1.049-24.339S71.761,68.388,71.761,68.388m0-1.239a1.242,1.242,0,0,0-1.2.93c-.09.357-9.091,35.625-10.563,51.567-1.367,14.8.619,23.082,1.028,24.578L59.4,164.544a1.25,1.25,0,0,0,.308.918,1.235,1.235,0,0,0,.874.416l1.344.057a1.249,1.249,0,0,0,1.288-1.133l1.668-19.89c1.115-1.843,5.063-9.109,7.163-22.679,2.591-16.747,1.015-52.392.948-53.9a1.239,1.239,0,0,0-1.11-1.175Z" transform="translate(93.267 105.433)"/><path class="e" d="M67.655,167.51a.622.622,0,0,1-.617-.568l-1.683-20.008c-1.105-1.491-7.186-10.2-9.371-24.3-2.583-16.693-.553-55.906-.532-56.3A.621.621,0,0,1,56,65.753a.638.638,0,0,1,.666.434c.121.4,12.069,39.917,13.539,55.826,1.39,15.028-1.7,23.162-2.21,24.385l1.627,20.384a.637.637,0,0,1-.152.46.626.626,0,0,1-.439.208l-1.372.059" transform="translate(85.846 103.241)"/><path d="M56.459,66.749s12.036,39.673,13.516,55.7-2.223,24.223-2.223,24.223l1.64,20.538-1.347.059-1.7-20.186c.005,0-6.993-8.867-9.363-24.167-2.6-16.819-.527-56.17-.527-56.17m0-1.239a1.025,1.025,0,0,0-.152.01,1.239,1.239,0,0,0-1.087,1.164c-.085,1.611-2.056,39.67.54,56.425,2.149,13.863,8.037,22.589,9.381,24.432l1.668,19.834a1.239,1.239,0,0,0,1.234,1.136l1.4-.062a1.232,1.232,0,0,0,1.182-1.334l-1.617-20.24c.673-1.673,3.555-9.887,2.2-24.537C69.733,106.367,58.14,68.013,57.646,66.389a1.238,1.238,0,0,0-1.185-.879" transform="translate(85.456 102.859)"/><path class="e" d="M57.281,101.507h21.18a1.3,1.3,0,0,1,1.4,1.172l-2,22.188a7.023,7.023,0,0,1-7.022,7.022H64.9a7.023,7.023,0,0,1-7.022-7.022l-2-22.188a1.3,1.3,0,0,1,1.4-1.172" transform="translate(87.736 159.379)"/><path d="M71.223,132.886h-5.95a7.651,7.651,0,0,1-7.641-7.641l-1.994-22.134a1.923,1.923,0,0,1,2.02-1.845h21.18a1.92,1.92,0,0,1,2.023,1.791l-2,22.245a7.635,7.635,0,0,1-7.638,7.584M57.658,102.5c-.424,0-.784.252-.784.553l1.994,22.134a6.425,6.425,0,0,0,6.4,6.456h5.95a6.41,6.41,0,0,0,6.4-6.4l2-22.242c0-.247-.362-.5-.786-.5Z" transform="translate(87.359 159.001)"/></g><g class="k" transform="translate(190.271 23.85)"><g class="l" transform="translate(0 0)"><path class="m" d="M45.214,50.14,0,28A50.342,50.342,0,0,1,40.714,0Z" transform="translate(0 0)"/></g></g></g></g></svg>