<svg id="그룹_822" data-name="그룹 822" xmlns="http://www.w3.org/2000/svg" xmlns:xlink="http://www.w3.org/1999/xlink" width="711.671" height="133.706" viewBox="0 0 711.671 133.706">
  <defs>
    <clipPath id="clip-path">
      <rect id="사각형_517" data-name="사각형 517" width="711.671" height="133.706" fill="none"/>
    </clipPath>
  </defs>
  <path id="패스_4448" data-name="패스 4448" d="M0,0H9.8V19.216H0Z" transform="translate(102.696 114.491)" fill="#6c529a"/>
  <path id="패스_3211" data-name="패스 3211" d="M281.467,52.427,263.1,71.64h13.16l18.362-19.214Z" transform="translate(311.477 62.065)" fill="#6c529a"/>
  <g id="그룹_617" data-name="그룹 617" transform="translate(0 0)">
    <g id="그룹_616" data-name="그룹 616" clip-path="url(#clip-path)">
      <path id="패스_3212" data-name="패스 3212" d="M48.372,1.84H0v9.607H48.372a31.22,31.22,0,1,1,0,62.441H9.8V21.051H0V83.494H48.372a40.827,40.827,0,1,0,0-81.654" transform="translate(0 2.178)" fill="#6c529a"/>
      <path id="패스_3213" data-name="패스 3213" d="M90.6,1.84H47.029v9.607H90.6a31.22,31.22,0,1,1,0,62.441H47.04l-.015,28.818h9.8V83.494H90.6a40.827,40.827,0,0,0,0-81.654" transform="translate(55.671 2.178)" fill="#6c529a"/>
      <rect id="사각형_514" data-name="사각형 514" width="80.833" height="9.607" transform="translate(521.353 4.018)" fill="#6c529a"/>
      <rect id="사각형_515" data-name="사각형 515" width="80.833" height="9.607" transform="translate(521.353 40.045)" fill="#6c529a"/>
      <path id="패스_3214" data-name="패스 3214" d="M103.054,1.839H93.259V83.495H166.6v-9.6H103.054Z" transform="translate(110.405 2.176)" fill="#6c529a"/>
      <path id="패스_3215" data-name="패스 3215" d="M323.138,28.9,297.281,1.839H284.123l32.435,33.944Z" transform="translate(336.36 2.176)" fill="#6c529a"/>
      <rect id="사각형_516" data-name="사각형 516" width="80.833" height="9.607" transform="translate(521.353 76.066)" fill="#6c529a"/>
      <path id="패스_3216" data-name="패스 3216" d="M372.106,1.838l-96.389,100.87h13.158L385.263,1.838Z" transform="translate(326.407 2.176)" fill="#6c529a"/>
      <path id="패스_3217" data-name="패스 3217" d="M308.014,30.573,333.871,57.63h13.158L314.594,23.687Z" transform="translate(364.642 28.042)" fill="#6c529a"/>
      <path id="패스_3218" data-name="패스 3218" d="M186.737,72.189h9.795V19.679l-9.795-8.29Z" transform="translate(221.068 13.483)" fill="#6c529a"/>
      <path id="패스_3219" data-name="패스 3219" d="M130.629,85.673h11.452L186.23,17.643l37.92,58.422h-64.4l-6.235,9.607h88.317L186.23,0Z" transform="translate(154.646 0)" fill="#6c529a"/>
      <path id="패스_3220" data-name="패스 3220" d="M268.214,68.968,186.737,0V12.437l91.27,77.256V4.016h-9.792Z" transform="translate(221.069 -0.001)" fill="#6c529a"/>
    </g>
  </g>
</svg>
