<svg xmlns="http://www.w3.org/2000/svg" width="143.533" height="78.105" viewBox="0 0 143.533 78.105"><defs><style>.a{fill:rgba(231,209,255,0.8);}.b{fill:#fff;}</style></defs><g transform="translate(-1176.004 -712.607)"><path class="a" d="M0,0H139.642V74.217H0Z" transform="translate(1179.894 716.496)"/><path d="M148.156,101.239H8.511a1.945,1.945,0,0,1-1.944-1.946V25.076a1.942,1.942,0,0,1,1.944-1.942H148.156a1.942,1.942,0,0,1,1.944,1.942V99.293a1.945,1.945,0,0,1-1.944,1.946m-137.7-3.89H146.209V27.022H10.455Z" transform="translate(1169.437 689.473)"/><path class="b" d="M13.035,70.665a1.945,1.945,0,0,1-.922-3.658L60.8,40.822a1.944,1.944,0,0,1,1.843,3.424L13.954,70.433a1.93,1.93,0,0,1-.918.232" transform="translate(1174.286 708.194)"/><path class="b" d="M75.716,65.588l-64.5-34.627a1.945,1.945,0,0,1,1.84-3.426L75.683,61.156,134.6,28.393a1.944,1.944,0,1,1,1.89,3.4Z" transform="translate(1173.323 693.945)"/><path class="b" d="M98.072,71.045a1.922,1.922,0,0,1-.916-.232L48.448,44.663a1.944,1.944,0,0,1,1.836-3.426l48.708,26.15a1.945,1.945,0,0,1-.92,3.658" transform="translate(1213.257 708.641)"/></g></svg>